G04 #@! TF.GenerationSoftware,KiCad,Pcbnew,(5.1.4-0-10_14)*
G04 #@! TF.CreationDate,2019-11-10T19:32:43-05:00*
G04 #@! TF.ProjectId,PacBot_2019-2020,50616342-6f74-45f3-9230-31392d323032,rev?*
G04 #@! TF.SameCoordinates,Original*
G04 #@! TF.FileFunction,Soldermask,Top*
G04 #@! TF.FilePolarity,Negative*
%FSLAX46Y46*%
G04 Gerber Fmt 4.6, Leading zero omitted, Abs format (unit mm)*
G04 Created by KiCad (PCBNEW (5.1.4-0-10_14)) date 2019-11-10 19:32:43*
%MOMM*%
%LPD*%
G04 APERTURE LIST*
%ADD10C,0.100000*%
G04 APERTURE END LIST*
D10*
G36*
X114415949Y-127628800D02*
G01*
X114675463Y-127736294D01*
X114675464Y-127736295D01*
X114909022Y-127892353D01*
X115107647Y-128090978D01*
X115107648Y-128090980D01*
X115263706Y-128324537D01*
X115371200Y-128584051D01*
X115426000Y-128859550D01*
X115426000Y-129140450D01*
X115371200Y-129415949D01*
X115263706Y-129675463D01*
X115263705Y-129675464D01*
X115107647Y-129909022D01*
X114909022Y-130107647D01*
X114791450Y-130186206D01*
X114675463Y-130263706D01*
X114415949Y-130371200D01*
X114140450Y-130426000D01*
X113859550Y-130426000D01*
X113584051Y-130371200D01*
X113324537Y-130263706D01*
X113208550Y-130186206D01*
X113090978Y-130107647D01*
X112892353Y-129909022D01*
X112736295Y-129675464D01*
X112736294Y-129675463D01*
X112628800Y-129415949D01*
X112574000Y-129140450D01*
X112574000Y-128859550D01*
X112628800Y-128584051D01*
X112736294Y-128324537D01*
X112892352Y-128090980D01*
X112892353Y-128090978D01*
X113090978Y-127892353D01*
X113324536Y-127736295D01*
X113324537Y-127736294D01*
X113584051Y-127628800D01*
X113859550Y-127574000D01*
X114140450Y-127574000D01*
X114415949Y-127628800D01*
X114415949Y-127628800D01*
G37*
G36*
X91415949Y-127628800D02*
G01*
X91675463Y-127736294D01*
X91675464Y-127736295D01*
X91909022Y-127892353D01*
X92107647Y-128090978D01*
X92107648Y-128090980D01*
X92263706Y-128324537D01*
X92371200Y-128584051D01*
X92426000Y-128859550D01*
X92426000Y-129140450D01*
X92371200Y-129415949D01*
X92263706Y-129675463D01*
X92263705Y-129675464D01*
X92107647Y-129909022D01*
X91909022Y-130107647D01*
X91791450Y-130186206D01*
X91675463Y-130263706D01*
X91415949Y-130371200D01*
X91140450Y-130426000D01*
X90859550Y-130426000D01*
X90584051Y-130371200D01*
X90324537Y-130263706D01*
X90208550Y-130186206D01*
X90090978Y-130107647D01*
X89892353Y-129909022D01*
X89736295Y-129675464D01*
X89736294Y-129675463D01*
X89628800Y-129415949D01*
X89574000Y-129140450D01*
X89574000Y-128859550D01*
X89628800Y-128584051D01*
X89736294Y-128324537D01*
X89892352Y-128090980D01*
X89892353Y-128090978D01*
X90090978Y-127892353D01*
X90324536Y-127736295D01*
X90324537Y-127736294D01*
X90584051Y-127628800D01*
X90859550Y-127574000D01*
X91140450Y-127574000D01*
X91415949Y-127628800D01*
X91415949Y-127628800D01*
G37*
G36*
X196879591Y-128728085D02*
G01*
X196913569Y-128738393D01*
X196944890Y-128755134D01*
X196972339Y-128777661D01*
X196994866Y-128805110D01*
X197011607Y-128836431D01*
X197021915Y-128870409D01*
X197026000Y-128911890D01*
X197026000Y-129588110D01*
X197021915Y-129629591D01*
X197011607Y-129663569D01*
X196994866Y-129694890D01*
X196972339Y-129722339D01*
X196944890Y-129744866D01*
X196913569Y-129761607D01*
X196879591Y-129771915D01*
X196838110Y-129776000D01*
X196236890Y-129776000D01*
X196195409Y-129771915D01*
X196161431Y-129761607D01*
X196130110Y-129744866D01*
X196102661Y-129722339D01*
X196080134Y-129694890D01*
X196063393Y-129663569D01*
X196053085Y-129629591D01*
X196049000Y-129588110D01*
X196049000Y-128911890D01*
X196053085Y-128870409D01*
X196063393Y-128836431D01*
X196080134Y-128805110D01*
X196102661Y-128777661D01*
X196130110Y-128755134D01*
X196161431Y-128738393D01*
X196195409Y-128728085D01*
X196236890Y-128724000D01*
X196838110Y-128724000D01*
X196879591Y-128728085D01*
X196879591Y-128728085D01*
G37*
G36*
X195304591Y-128728085D02*
G01*
X195338569Y-128738393D01*
X195369890Y-128755134D01*
X195397339Y-128777661D01*
X195419866Y-128805110D01*
X195436607Y-128836431D01*
X195446915Y-128870409D01*
X195451000Y-128911890D01*
X195451000Y-129588110D01*
X195446915Y-129629591D01*
X195436607Y-129663569D01*
X195419866Y-129694890D01*
X195397339Y-129722339D01*
X195369890Y-129744866D01*
X195338569Y-129761607D01*
X195304591Y-129771915D01*
X195263110Y-129776000D01*
X194661890Y-129776000D01*
X194620409Y-129771915D01*
X194586431Y-129761607D01*
X194555110Y-129744866D01*
X194527661Y-129722339D01*
X194505134Y-129694890D01*
X194488393Y-129663569D01*
X194478085Y-129629591D01*
X194474000Y-129588110D01*
X194474000Y-128911890D01*
X194478085Y-128870409D01*
X194488393Y-128836431D01*
X194505134Y-128805110D01*
X194527661Y-128777661D01*
X194555110Y-128755134D01*
X194586431Y-128738393D01*
X194620409Y-128728085D01*
X194661890Y-128724000D01*
X195263110Y-128724000D01*
X195304591Y-128728085D01*
X195304591Y-128728085D01*
G37*
G36*
X194699376Y-125325764D02*
G01*
X194852627Y-125372252D01*
X194852630Y-125372253D01*
X194993863Y-125447744D01*
X195117659Y-125549341D01*
X195219256Y-125673137D01*
X195294747Y-125814370D01*
X195294748Y-125814373D01*
X195341236Y-125967624D01*
X195353000Y-126087067D01*
X195353000Y-127142933D01*
X195341236Y-127262376D01*
X195294748Y-127415626D01*
X195294747Y-127415630D01*
X195219256Y-127556863D01*
X195117659Y-127680659D01*
X194993863Y-127782256D01*
X194852629Y-127857747D01*
X194852626Y-127857748D01*
X194699375Y-127904236D01*
X194540000Y-127919933D01*
X194380624Y-127904236D01*
X194227373Y-127857748D01*
X194227370Y-127857747D01*
X194086137Y-127782256D01*
X193962341Y-127680659D01*
X193860744Y-127556863D01*
X193785253Y-127415629D01*
X193785252Y-127415626D01*
X193738764Y-127262375D01*
X193727000Y-127142932D01*
X193727001Y-126087067D01*
X193738765Y-125967624D01*
X193785253Y-125814373D01*
X193785254Y-125814370D01*
X193860745Y-125673137D01*
X193962342Y-125549341D01*
X194086138Y-125447744D01*
X194227371Y-125372253D01*
X194227374Y-125372252D01*
X194380625Y-125325764D01*
X194540000Y-125310067D01*
X194699376Y-125325764D01*
X194699376Y-125325764D01*
G37*
G36*
X197239376Y-125325764D02*
G01*
X197392627Y-125372252D01*
X197392630Y-125372253D01*
X197533863Y-125447744D01*
X197657659Y-125549341D01*
X197759256Y-125673137D01*
X197834747Y-125814370D01*
X197834748Y-125814373D01*
X197881236Y-125967624D01*
X197893000Y-126087067D01*
X197893000Y-127142933D01*
X197881236Y-127262376D01*
X197834748Y-127415626D01*
X197834747Y-127415630D01*
X197759256Y-127556863D01*
X197657659Y-127680659D01*
X197533863Y-127782256D01*
X197392629Y-127857747D01*
X197392626Y-127857748D01*
X197239375Y-127904236D01*
X197080000Y-127919933D01*
X196920624Y-127904236D01*
X196767373Y-127857748D01*
X196767370Y-127857747D01*
X196626137Y-127782256D01*
X196502341Y-127680659D01*
X196400744Y-127556863D01*
X196325253Y-127415629D01*
X196325252Y-127415626D01*
X196278764Y-127262375D01*
X196267000Y-127142932D01*
X196267001Y-126087067D01*
X196278765Y-125967624D01*
X196325253Y-125814373D01*
X196325254Y-125814370D01*
X196400745Y-125673137D01*
X196502342Y-125549341D01*
X196626138Y-125447744D01*
X196767371Y-125372253D01*
X196767374Y-125372252D01*
X196920625Y-125325764D01*
X197080000Y-125310067D01*
X197239376Y-125325764D01*
X197239376Y-125325764D01*
G37*
G36*
X199779376Y-125325764D02*
G01*
X199932627Y-125372252D01*
X199932630Y-125372253D01*
X200073863Y-125447744D01*
X200197659Y-125549341D01*
X200299256Y-125673137D01*
X200374747Y-125814370D01*
X200374748Y-125814373D01*
X200421236Y-125967624D01*
X200433000Y-126087067D01*
X200433000Y-127142933D01*
X200421236Y-127262376D01*
X200374748Y-127415626D01*
X200374747Y-127415630D01*
X200299256Y-127556863D01*
X200197659Y-127680659D01*
X200073863Y-127782256D01*
X199932629Y-127857747D01*
X199932626Y-127857748D01*
X199779375Y-127904236D01*
X199620000Y-127919933D01*
X199460624Y-127904236D01*
X199307373Y-127857748D01*
X199307370Y-127857747D01*
X199166137Y-127782256D01*
X199042341Y-127680659D01*
X198940744Y-127556863D01*
X198865253Y-127415629D01*
X198865252Y-127415626D01*
X198818764Y-127262375D01*
X198807000Y-127142932D01*
X198807001Y-126087067D01*
X198818765Y-125967624D01*
X198865253Y-125814373D01*
X198865254Y-125814370D01*
X198940745Y-125673137D01*
X199042342Y-125549341D01*
X199166138Y-125447744D01*
X199307371Y-125372253D01*
X199307374Y-125372252D01*
X199460625Y-125325764D01*
X199620000Y-125310067D01*
X199779376Y-125325764D01*
X199779376Y-125325764D01*
G37*
G36*
X192159376Y-125325764D02*
G01*
X192312627Y-125372252D01*
X192312630Y-125372253D01*
X192453863Y-125447744D01*
X192577659Y-125549341D01*
X192679256Y-125673137D01*
X192754747Y-125814370D01*
X192754748Y-125814373D01*
X192801236Y-125967624D01*
X192813000Y-126087067D01*
X192813000Y-127142933D01*
X192801236Y-127262376D01*
X192754748Y-127415626D01*
X192754747Y-127415630D01*
X192679256Y-127556863D01*
X192577659Y-127680659D01*
X192453863Y-127782256D01*
X192312629Y-127857747D01*
X192312626Y-127857748D01*
X192159375Y-127904236D01*
X192000000Y-127919933D01*
X191840624Y-127904236D01*
X191687373Y-127857748D01*
X191687370Y-127857747D01*
X191546137Y-127782256D01*
X191422341Y-127680659D01*
X191320744Y-127556863D01*
X191245253Y-127415629D01*
X191245252Y-127415626D01*
X191198764Y-127262375D01*
X191187000Y-127142932D01*
X191187001Y-126087067D01*
X191198765Y-125967624D01*
X191245253Y-125814373D01*
X191245254Y-125814370D01*
X191320745Y-125673137D01*
X191422342Y-125549341D01*
X191546138Y-125447744D01*
X191687371Y-125372253D01*
X191687374Y-125372252D01*
X191840625Y-125325764D01*
X192000000Y-125310067D01*
X192159376Y-125325764D01*
X192159376Y-125325764D01*
G37*
G36*
X189619376Y-125325764D02*
G01*
X189772627Y-125372252D01*
X189772630Y-125372253D01*
X189913863Y-125447744D01*
X190037659Y-125549341D01*
X190139256Y-125673137D01*
X190214747Y-125814370D01*
X190214748Y-125814373D01*
X190261236Y-125967624D01*
X190273000Y-126087067D01*
X190273000Y-127142933D01*
X190261236Y-127262376D01*
X190214748Y-127415626D01*
X190214747Y-127415630D01*
X190139256Y-127556863D01*
X190037659Y-127680659D01*
X189913863Y-127782256D01*
X189772629Y-127857747D01*
X189772626Y-127857748D01*
X189619375Y-127904236D01*
X189460000Y-127919933D01*
X189300624Y-127904236D01*
X189147373Y-127857748D01*
X189147370Y-127857747D01*
X189006137Y-127782256D01*
X188882341Y-127680659D01*
X188780744Y-127556863D01*
X188705253Y-127415629D01*
X188705252Y-127415626D01*
X188658764Y-127262375D01*
X188647000Y-127142932D01*
X188647001Y-126087067D01*
X188658765Y-125967624D01*
X188705253Y-125814373D01*
X188705254Y-125814370D01*
X188780745Y-125673137D01*
X188882342Y-125549341D01*
X189006138Y-125447744D01*
X189147371Y-125372253D01*
X189147374Y-125372252D01*
X189300625Y-125325764D01*
X189460000Y-125310067D01*
X189619376Y-125325764D01*
X189619376Y-125325764D01*
G37*
G36*
X187079376Y-125325764D02*
G01*
X187232627Y-125372252D01*
X187232630Y-125372253D01*
X187373863Y-125447744D01*
X187497659Y-125549341D01*
X187599256Y-125673137D01*
X187674747Y-125814370D01*
X187674748Y-125814373D01*
X187721236Y-125967624D01*
X187733000Y-126087067D01*
X187733000Y-127142933D01*
X187721236Y-127262376D01*
X187674748Y-127415626D01*
X187674747Y-127415630D01*
X187599256Y-127556863D01*
X187497659Y-127680659D01*
X187373863Y-127782256D01*
X187232629Y-127857747D01*
X187232626Y-127857748D01*
X187079375Y-127904236D01*
X186920000Y-127919933D01*
X186760624Y-127904236D01*
X186607373Y-127857748D01*
X186607370Y-127857747D01*
X186466137Y-127782256D01*
X186342341Y-127680659D01*
X186240744Y-127556863D01*
X186165253Y-127415629D01*
X186165252Y-127415626D01*
X186118764Y-127262375D01*
X186107000Y-127142932D01*
X186107001Y-126087067D01*
X186118765Y-125967624D01*
X186165253Y-125814373D01*
X186165254Y-125814370D01*
X186240745Y-125673137D01*
X186342342Y-125549341D01*
X186466138Y-125447744D01*
X186607371Y-125372253D01*
X186607374Y-125372252D01*
X186760625Y-125325764D01*
X186920000Y-125310067D01*
X187079376Y-125325764D01*
X187079376Y-125325764D01*
G37*
G36*
X184539376Y-125325764D02*
G01*
X184692627Y-125372252D01*
X184692630Y-125372253D01*
X184833863Y-125447744D01*
X184957659Y-125549341D01*
X185059256Y-125673137D01*
X185134747Y-125814370D01*
X185134748Y-125814373D01*
X185181236Y-125967624D01*
X185193000Y-126087067D01*
X185193000Y-127142933D01*
X185181236Y-127262376D01*
X185134748Y-127415626D01*
X185134747Y-127415630D01*
X185059256Y-127556863D01*
X184957659Y-127680659D01*
X184833863Y-127782256D01*
X184692629Y-127857747D01*
X184692626Y-127857748D01*
X184539375Y-127904236D01*
X184380000Y-127919933D01*
X184220624Y-127904236D01*
X184067373Y-127857748D01*
X184067370Y-127857747D01*
X183926137Y-127782256D01*
X183802341Y-127680659D01*
X183700744Y-127556863D01*
X183625253Y-127415629D01*
X183625252Y-127415626D01*
X183578764Y-127262375D01*
X183567000Y-127142932D01*
X183567001Y-126087067D01*
X183578765Y-125967624D01*
X183625253Y-125814373D01*
X183625254Y-125814370D01*
X183700745Y-125673137D01*
X183802342Y-125549341D01*
X183926138Y-125447744D01*
X184067371Y-125372253D01*
X184067374Y-125372252D01*
X184220625Y-125325764D01*
X184380000Y-125310067D01*
X184539376Y-125325764D01*
X184539376Y-125325764D01*
G37*
G36*
X112964810Y-123355935D02*
G01*
X113111309Y-123416617D01*
X113111310Y-123416618D01*
X113243158Y-123504716D01*
X113355284Y-123616842D01*
X113355285Y-123616844D01*
X113443383Y-123748691D01*
X113504065Y-123895190D01*
X113535000Y-124050713D01*
X113535000Y-124209287D01*
X113504065Y-124364810D01*
X113443383Y-124511309D01*
X113443382Y-124511310D01*
X113355284Y-124643158D01*
X113243158Y-124755284D01*
X113176785Y-124799633D01*
X113111309Y-124843383D01*
X112964810Y-124904065D01*
X112809287Y-124935000D01*
X112650713Y-124935000D01*
X112495190Y-124904065D01*
X112348691Y-124843383D01*
X112283215Y-124799633D01*
X112216842Y-124755284D01*
X112104716Y-124643158D01*
X112016618Y-124511310D01*
X112016617Y-124511309D01*
X111955935Y-124364810D01*
X111925000Y-124209287D01*
X111925000Y-124050713D01*
X111955935Y-123895190D01*
X112016617Y-123748691D01*
X112104715Y-123616844D01*
X112104716Y-123616842D01*
X112216842Y-123504716D01*
X112348690Y-123416618D01*
X112348691Y-123416617D01*
X112495190Y-123355935D01*
X112650713Y-123325000D01*
X112809287Y-123325000D01*
X112964810Y-123355935D01*
X112964810Y-123355935D01*
G37*
G36*
X115504810Y-123355935D02*
G01*
X115651309Y-123416617D01*
X115651310Y-123416618D01*
X115783158Y-123504716D01*
X115895284Y-123616842D01*
X115895285Y-123616844D01*
X115983383Y-123748691D01*
X116044065Y-123895190D01*
X116075000Y-124050713D01*
X116075000Y-124209287D01*
X116044065Y-124364810D01*
X115983383Y-124511309D01*
X115983382Y-124511310D01*
X115895284Y-124643158D01*
X115783158Y-124755284D01*
X115716785Y-124799633D01*
X115651309Y-124843383D01*
X115504810Y-124904065D01*
X115349287Y-124935000D01*
X115190713Y-124935000D01*
X115035190Y-124904065D01*
X114888691Y-124843383D01*
X114823215Y-124799633D01*
X114756842Y-124755284D01*
X114644716Y-124643158D01*
X114556618Y-124511310D01*
X114556617Y-124511309D01*
X114495935Y-124364810D01*
X114465000Y-124209287D01*
X114465000Y-124050713D01*
X114495935Y-123895190D01*
X114556617Y-123748691D01*
X114644715Y-123616844D01*
X114644716Y-123616842D01*
X114756842Y-123504716D01*
X114888690Y-123416618D01*
X114888691Y-123416617D01*
X115035190Y-123355935D01*
X115190713Y-123325000D01*
X115349287Y-123325000D01*
X115504810Y-123355935D01*
X115504810Y-123355935D01*
G37*
G36*
X115504810Y-120815935D02*
G01*
X115651309Y-120876617D01*
X115651310Y-120876618D01*
X115783158Y-120964716D01*
X115895284Y-121076842D01*
X115895285Y-121076844D01*
X115983383Y-121208691D01*
X116044065Y-121355190D01*
X116075000Y-121510713D01*
X116075000Y-121669287D01*
X116044065Y-121824810D01*
X115983383Y-121971309D01*
X115983382Y-121971310D01*
X115895284Y-122103158D01*
X115783158Y-122215284D01*
X115716785Y-122259633D01*
X115651309Y-122303383D01*
X115504810Y-122364065D01*
X115349287Y-122395000D01*
X115190713Y-122395000D01*
X115035190Y-122364065D01*
X114888691Y-122303383D01*
X114823215Y-122259633D01*
X114756842Y-122215284D01*
X114644716Y-122103158D01*
X114556618Y-121971310D01*
X114556617Y-121971309D01*
X114495935Y-121824810D01*
X114465000Y-121669287D01*
X114465000Y-121510713D01*
X114495935Y-121355190D01*
X114556617Y-121208691D01*
X114644715Y-121076844D01*
X114644716Y-121076842D01*
X114756842Y-120964716D01*
X114888690Y-120876618D01*
X114888691Y-120876617D01*
X115035190Y-120815935D01*
X115190713Y-120785000D01*
X115349287Y-120785000D01*
X115504810Y-120815935D01*
X115504810Y-120815935D01*
G37*
G36*
X112964810Y-120815935D02*
G01*
X113111309Y-120876617D01*
X113111310Y-120876618D01*
X113243158Y-120964716D01*
X113355284Y-121076842D01*
X113355285Y-121076844D01*
X113443383Y-121208691D01*
X113504065Y-121355190D01*
X113535000Y-121510713D01*
X113535000Y-121669287D01*
X113504065Y-121824810D01*
X113443383Y-121971309D01*
X113443382Y-121971310D01*
X113355284Y-122103158D01*
X113243158Y-122215284D01*
X113176785Y-122259633D01*
X113111309Y-122303383D01*
X112964810Y-122364065D01*
X112809287Y-122395000D01*
X112650713Y-122395000D01*
X112495190Y-122364065D01*
X112348691Y-122303383D01*
X112283215Y-122259633D01*
X112216842Y-122215284D01*
X112104716Y-122103158D01*
X112016618Y-121971310D01*
X112016617Y-121971309D01*
X111955935Y-121824810D01*
X111925000Y-121669287D01*
X111925000Y-121510713D01*
X111955935Y-121355190D01*
X112016617Y-121208691D01*
X112104715Y-121076844D01*
X112104716Y-121076842D01*
X112216842Y-120964716D01*
X112348690Y-120876618D01*
X112348691Y-120876617D01*
X112495190Y-120815935D01*
X112650713Y-120785000D01*
X112809287Y-120785000D01*
X112964810Y-120815935D01*
X112964810Y-120815935D01*
G37*
G36*
X121628228Y-120691703D02*
G01*
X121783100Y-120755853D01*
X121922481Y-120848985D01*
X122041015Y-120967519D01*
X122134147Y-121106900D01*
X122198297Y-121261772D01*
X122231000Y-121426184D01*
X122231000Y-121593816D01*
X122198297Y-121758228D01*
X122134147Y-121913100D01*
X122041015Y-122052481D01*
X121922481Y-122171015D01*
X121783100Y-122264147D01*
X121628228Y-122328297D01*
X121463816Y-122361000D01*
X121296184Y-122361000D01*
X121131772Y-122328297D01*
X120976900Y-122264147D01*
X120837519Y-122171015D01*
X120718985Y-122052481D01*
X120625853Y-121913100D01*
X120561703Y-121758228D01*
X120529000Y-121593816D01*
X120529000Y-121426184D01*
X120561703Y-121261772D01*
X120625853Y-121106900D01*
X120718985Y-120967519D01*
X120837519Y-120848985D01*
X120976900Y-120755853D01*
X121131772Y-120691703D01*
X121296184Y-120659000D01*
X121463816Y-120659000D01*
X121628228Y-120691703D01*
X121628228Y-120691703D01*
G37*
G36*
X124168228Y-120691703D02*
G01*
X124323100Y-120755853D01*
X124462481Y-120848985D01*
X124581015Y-120967519D01*
X124674147Y-121106900D01*
X124738297Y-121261772D01*
X124771000Y-121426184D01*
X124771000Y-121593816D01*
X124738297Y-121758228D01*
X124674147Y-121913100D01*
X124581015Y-122052481D01*
X124462481Y-122171015D01*
X124323100Y-122264147D01*
X124168228Y-122328297D01*
X124003816Y-122361000D01*
X123836184Y-122361000D01*
X123671772Y-122328297D01*
X123516900Y-122264147D01*
X123377519Y-122171015D01*
X123258985Y-122052481D01*
X123165853Y-121913100D01*
X123101703Y-121758228D01*
X123069000Y-121593816D01*
X123069000Y-121426184D01*
X123101703Y-121261772D01*
X123165853Y-121106900D01*
X123258985Y-120967519D01*
X123377519Y-120848985D01*
X123516900Y-120755853D01*
X123671772Y-120691703D01*
X123836184Y-120659000D01*
X124003816Y-120659000D01*
X124168228Y-120691703D01*
X124168228Y-120691703D01*
G37*
G36*
X126708228Y-120691703D02*
G01*
X126863100Y-120755853D01*
X127002481Y-120848985D01*
X127121015Y-120967519D01*
X127214147Y-121106900D01*
X127278297Y-121261772D01*
X127311000Y-121426184D01*
X127311000Y-121593816D01*
X127278297Y-121758228D01*
X127214147Y-121913100D01*
X127121015Y-122052481D01*
X127002481Y-122171015D01*
X126863100Y-122264147D01*
X126708228Y-122328297D01*
X126543816Y-122361000D01*
X126376184Y-122361000D01*
X126211772Y-122328297D01*
X126056900Y-122264147D01*
X125917519Y-122171015D01*
X125798985Y-122052481D01*
X125705853Y-121913100D01*
X125641703Y-121758228D01*
X125609000Y-121593816D01*
X125609000Y-121426184D01*
X125641703Y-121261772D01*
X125705853Y-121106900D01*
X125798985Y-120967519D01*
X125917519Y-120848985D01*
X126056900Y-120755853D01*
X126211772Y-120691703D01*
X126376184Y-120659000D01*
X126543816Y-120659000D01*
X126708228Y-120691703D01*
X126708228Y-120691703D01*
G37*
G36*
X129248228Y-120691703D02*
G01*
X129403100Y-120755853D01*
X129542481Y-120848985D01*
X129661015Y-120967519D01*
X129754147Y-121106900D01*
X129818297Y-121261772D01*
X129851000Y-121426184D01*
X129851000Y-121593816D01*
X129818297Y-121758228D01*
X129754147Y-121913100D01*
X129661015Y-122052481D01*
X129542481Y-122171015D01*
X129403100Y-122264147D01*
X129248228Y-122328297D01*
X129083816Y-122361000D01*
X128916184Y-122361000D01*
X128751772Y-122328297D01*
X128596900Y-122264147D01*
X128457519Y-122171015D01*
X128338985Y-122052481D01*
X128245853Y-121913100D01*
X128181703Y-121758228D01*
X128149000Y-121593816D01*
X128149000Y-121426184D01*
X128181703Y-121261772D01*
X128245853Y-121106900D01*
X128338985Y-120967519D01*
X128457519Y-120848985D01*
X128596900Y-120755853D01*
X128751772Y-120691703D01*
X128916184Y-120659000D01*
X129083816Y-120659000D01*
X129248228Y-120691703D01*
X129248228Y-120691703D01*
G37*
G36*
X131788228Y-120691703D02*
G01*
X131943100Y-120755853D01*
X132082481Y-120848985D01*
X132201015Y-120967519D01*
X132294147Y-121106900D01*
X132358297Y-121261772D01*
X132391000Y-121426184D01*
X132391000Y-121593816D01*
X132358297Y-121758228D01*
X132294147Y-121913100D01*
X132201015Y-122052481D01*
X132082481Y-122171015D01*
X131943100Y-122264147D01*
X131788228Y-122328297D01*
X131623816Y-122361000D01*
X131456184Y-122361000D01*
X131291772Y-122328297D01*
X131136900Y-122264147D01*
X130997519Y-122171015D01*
X130878985Y-122052481D01*
X130785853Y-121913100D01*
X130721703Y-121758228D01*
X130689000Y-121593816D01*
X130689000Y-121426184D01*
X130721703Y-121261772D01*
X130785853Y-121106900D01*
X130878985Y-120967519D01*
X130997519Y-120848985D01*
X131136900Y-120755853D01*
X131291772Y-120691703D01*
X131456184Y-120659000D01*
X131623816Y-120659000D01*
X131788228Y-120691703D01*
X131788228Y-120691703D01*
G37*
G36*
X134328228Y-120691703D02*
G01*
X134483100Y-120755853D01*
X134622481Y-120848985D01*
X134741015Y-120967519D01*
X134834147Y-121106900D01*
X134898297Y-121261772D01*
X134931000Y-121426184D01*
X134931000Y-121593816D01*
X134898297Y-121758228D01*
X134834147Y-121913100D01*
X134741015Y-122052481D01*
X134622481Y-122171015D01*
X134483100Y-122264147D01*
X134328228Y-122328297D01*
X134163816Y-122361000D01*
X133996184Y-122361000D01*
X133831772Y-122328297D01*
X133676900Y-122264147D01*
X133537519Y-122171015D01*
X133418985Y-122052481D01*
X133325853Y-121913100D01*
X133261703Y-121758228D01*
X133229000Y-121593816D01*
X133229000Y-121426184D01*
X133261703Y-121261772D01*
X133325853Y-121106900D01*
X133418985Y-120967519D01*
X133537519Y-120848985D01*
X133676900Y-120755853D01*
X133831772Y-120691703D01*
X133996184Y-120659000D01*
X134163816Y-120659000D01*
X134328228Y-120691703D01*
X134328228Y-120691703D01*
G37*
G36*
X136868228Y-120691703D02*
G01*
X137023100Y-120755853D01*
X137162481Y-120848985D01*
X137281015Y-120967519D01*
X137374147Y-121106900D01*
X137438297Y-121261772D01*
X137471000Y-121426184D01*
X137471000Y-121593816D01*
X137438297Y-121758228D01*
X137374147Y-121913100D01*
X137281015Y-122052481D01*
X137162481Y-122171015D01*
X137023100Y-122264147D01*
X136868228Y-122328297D01*
X136703816Y-122361000D01*
X136536184Y-122361000D01*
X136371772Y-122328297D01*
X136216900Y-122264147D01*
X136077519Y-122171015D01*
X135958985Y-122052481D01*
X135865853Y-121913100D01*
X135801703Y-121758228D01*
X135769000Y-121593816D01*
X135769000Y-121426184D01*
X135801703Y-121261772D01*
X135865853Y-121106900D01*
X135958985Y-120967519D01*
X136077519Y-120848985D01*
X136216900Y-120755853D01*
X136371772Y-120691703D01*
X136536184Y-120659000D01*
X136703816Y-120659000D01*
X136868228Y-120691703D01*
X136868228Y-120691703D01*
G37*
G36*
X115504810Y-118275935D02*
G01*
X115651309Y-118336617D01*
X115651310Y-118336618D01*
X115783158Y-118424716D01*
X115895284Y-118536842D01*
X115895285Y-118536844D01*
X115983383Y-118668691D01*
X116044065Y-118815190D01*
X116075000Y-118970713D01*
X116075000Y-119129287D01*
X116044065Y-119284810D01*
X115983383Y-119431309D01*
X115983382Y-119431310D01*
X115895284Y-119563158D01*
X115783158Y-119675284D01*
X115716785Y-119719633D01*
X115651309Y-119763383D01*
X115504810Y-119824065D01*
X115349287Y-119855000D01*
X115190713Y-119855000D01*
X115035190Y-119824065D01*
X114888691Y-119763383D01*
X114823215Y-119719633D01*
X114756842Y-119675284D01*
X114644716Y-119563158D01*
X114556618Y-119431310D01*
X114556617Y-119431309D01*
X114495935Y-119284810D01*
X114465000Y-119129287D01*
X114465000Y-118970713D01*
X114495935Y-118815190D01*
X114556617Y-118668691D01*
X114644715Y-118536844D01*
X114644716Y-118536842D01*
X114756842Y-118424716D01*
X114888690Y-118336618D01*
X114888691Y-118336617D01*
X115035190Y-118275935D01*
X115190713Y-118245000D01*
X115349287Y-118245000D01*
X115504810Y-118275935D01*
X115504810Y-118275935D01*
G37*
G36*
X112964810Y-118275935D02*
G01*
X113111309Y-118336617D01*
X113111310Y-118336618D01*
X113243158Y-118424716D01*
X113355284Y-118536842D01*
X113355285Y-118536844D01*
X113443383Y-118668691D01*
X113504065Y-118815190D01*
X113535000Y-118970713D01*
X113535000Y-119129287D01*
X113504065Y-119284810D01*
X113443383Y-119431309D01*
X113443382Y-119431310D01*
X113355284Y-119563158D01*
X113243158Y-119675284D01*
X113176785Y-119719633D01*
X113111309Y-119763383D01*
X112964810Y-119824065D01*
X112809287Y-119855000D01*
X112650713Y-119855000D01*
X112495190Y-119824065D01*
X112348691Y-119763383D01*
X112283215Y-119719633D01*
X112216842Y-119675284D01*
X112104716Y-119563158D01*
X112016618Y-119431310D01*
X112016617Y-119431309D01*
X111955935Y-119284810D01*
X111925000Y-119129287D01*
X111925000Y-118970713D01*
X111955935Y-118815190D01*
X112016617Y-118668691D01*
X112104715Y-118536844D01*
X112104716Y-118536842D01*
X112216842Y-118424716D01*
X112348690Y-118336618D01*
X112348691Y-118336617D01*
X112495190Y-118275935D01*
X112650713Y-118245000D01*
X112809287Y-118245000D01*
X112964810Y-118275935D01*
X112964810Y-118275935D01*
G37*
G36*
X136868228Y-118151703D02*
G01*
X137023100Y-118215853D01*
X137162481Y-118308985D01*
X137281015Y-118427519D01*
X137374147Y-118566900D01*
X137438297Y-118721772D01*
X137471000Y-118886184D01*
X137471000Y-119053816D01*
X137438297Y-119218228D01*
X137374147Y-119373100D01*
X137281015Y-119512481D01*
X137162481Y-119631015D01*
X137023100Y-119724147D01*
X136868228Y-119788297D01*
X136703816Y-119821000D01*
X136536184Y-119821000D01*
X136371772Y-119788297D01*
X136216900Y-119724147D01*
X136077519Y-119631015D01*
X135958985Y-119512481D01*
X135865853Y-119373100D01*
X135801703Y-119218228D01*
X135769000Y-119053816D01*
X135769000Y-118886184D01*
X135801703Y-118721772D01*
X135865853Y-118566900D01*
X135958985Y-118427519D01*
X136077519Y-118308985D01*
X136216900Y-118215853D01*
X136371772Y-118151703D01*
X136536184Y-118119000D01*
X136703816Y-118119000D01*
X136868228Y-118151703D01*
X136868228Y-118151703D01*
G37*
G36*
X121628228Y-118151703D02*
G01*
X121783100Y-118215853D01*
X121922481Y-118308985D01*
X122041015Y-118427519D01*
X122134147Y-118566900D01*
X122198297Y-118721772D01*
X122231000Y-118886184D01*
X122231000Y-119053816D01*
X122198297Y-119218228D01*
X122134147Y-119373100D01*
X122041015Y-119512481D01*
X121922481Y-119631015D01*
X121783100Y-119724147D01*
X121628228Y-119788297D01*
X121463816Y-119821000D01*
X121296184Y-119821000D01*
X121131772Y-119788297D01*
X120976900Y-119724147D01*
X120837519Y-119631015D01*
X120718985Y-119512481D01*
X120625853Y-119373100D01*
X120561703Y-119218228D01*
X120529000Y-119053816D01*
X120529000Y-118886184D01*
X120561703Y-118721772D01*
X120625853Y-118566900D01*
X120718985Y-118427519D01*
X120837519Y-118308985D01*
X120976900Y-118215853D01*
X121131772Y-118151703D01*
X121296184Y-118119000D01*
X121463816Y-118119000D01*
X121628228Y-118151703D01*
X121628228Y-118151703D01*
G37*
G36*
X115504810Y-115735935D02*
G01*
X115651309Y-115796617D01*
X115651310Y-115796618D01*
X115783158Y-115884716D01*
X115895284Y-115996842D01*
X115895285Y-115996844D01*
X115983383Y-116128691D01*
X116044065Y-116275190D01*
X116075000Y-116430713D01*
X116075000Y-116589287D01*
X116044065Y-116744810D01*
X115983383Y-116891309D01*
X115983382Y-116891310D01*
X115895284Y-117023158D01*
X115783158Y-117135284D01*
X115716785Y-117179633D01*
X115651309Y-117223383D01*
X115504810Y-117284065D01*
X115349287Y-117315000D01*
X115190713Y-117315000D01*
X115035190Y-117284065D01*
X114888691Y-117223383D01*
X114823215Y-117179633D01*
X114756842Y-117135284D01*
X114644716Y-117023158D01*
X114556618Y-116891310D01*
X114556617Y-116891309D01*
X114495935Y-116744810D01*
X114465000Y-116589287D01*
X114465000Y-116430713D01*
X114495935Y-116275190D01*
X114556617Y-116128691D01*
X114644715Y-115996844D01*
X114644716Y-115996842D01*
X114756842Y-115884716D01*
X114888690Y-115796618D01*
X114888691Y-115796617D01*
X115035190Y-115735935D01*
X115190713Y-115705000D01*
X115349287Y-115705000D01*
X115504810Y-115735935D01*
X115504810Y-115735935D01*
G37*
G36*
X112964810Y-115735935D02*
G01*
X113111309Y-115796617D01*
X113111310Y-115796618D01*
X113243158Y-115884716D01*
X113355284Y-115996842D01*
X113355285Y-115996844D01*
X113443383Y-116128691D01*
X113504065Y-116275190D01*
X113535000Y-116430713D01*
X113535000Y-116589287D01*
X113504065Y-116744810D01*
X113443383Y-116891309D01*
X113443382Y-116891310D01*
X113355284Y-117023158D01*
X113243158Y-117135284D01*
X113176785Y-117179633D01*
X113111309Y-117223383D01*
X112964810Y-117284065D01*
X112809287Y-117315000D01*
X112650713Y-117315000D01*
X112495190Y-117284065D01*
X112348691Y-117223383D01*
X112283215Y-117179633D01*
X112216842Y-117135284D01*
X112104716Y-117023158D01*
X112016618Y-116891310D01*
X112016617Y-116891309D01*
X111955935Y-116744810D01*
X111925000Y-116589287D01*
X111925000Y-116430713D01*
X111955935Y-116275190D01*
X112016617Y-116128691D01*
X112104715Y-115996844D01*
X112104716Y-115996842D01*
X112216842Y-115884716D01*
X112348690Y-115796618D01*
X112348691Y-115796617D01*
X112495190Y-115735935D01*
X112650713Y-115705000D01*
X112809287Y-115705000D01*
X112964810Y-115735935D01*
X112964810Y-115735935D01*
G37*
G36*
X136868228Y-115611703D02*
G01*
X137023100Y-115675853D01*
X137162481Y-115768985D01*
X137281015Y-115887519D01*
X137374147Y-116026900D01*
X137438297Y-116181772D01*
X137471000Y-116346184D01*
X137471000Y-116513816D01*
X137438297Y-116678228D01*
X137374147Y-116833100D01*
X137281015Y-116972481D01*
X137162481Y-117091015D01*
X137023100Y-117184147D01*
X136868228Y-117248297D01*
X136703816Y-117281000D01*
X136536184Y-117281000D01*
X136371772Y-117248297D01*
X136216900Y-117184147D01*
X136077519Y-117091015D01*
X135958985Y-116972481D01*
X135865853Y-116833100D01*
X135801703Y-116678228D01*
X135769000Y-116513816D01*
X135769000Y-116346184D01*
X135801703Y-116181772D01*
X135865853Y-116026900D01*
X135958985Y-115887519D01*
X136077519Y-115768985D01*
X136216900Y-115675853D01*
X136371772Y-115611703D01*
X136536184Y-115579000D01*
X136703816Y-115579000D01*
X136868228Y-115611703D01*
X136868228Y-115611703D01*
G37*
G36*
X121628228Y-115611703D02*
G01*
X121783100Y-115675853D01*
X121922481Y-115768985D01*
X122041015Y-115887519D01*
X122134147Y-116026900D01*
X122198297Y-116181772D01*
X122231000Y-116346184D01*
X122231000Y-116513816D01*
X122198297Y-116678228D01*
X122134147Y-116833100D01*
X122041015Y-116972481D01*
X121922481Y-117091015D01*
X121783100Y-117184147D01*
X121628228Y-117248297D01*
X121463816Y-117281000D01*
X121296184Y-117281000D01*
X121131772Y-117248297D01*
X120976900Y-117184147D01*
X120837519Y-117091015D01*
X120718985Y-116972481D01*
X120625853Y-116833100D01*
X120561703Y-116678228D01*
X120529000Y-116513816D01*
X120529000Y-116346184D01*
X120561703Y-116181772D01*
X120625853Y-116026900D01*
X120718985Y-115887519D01*
X120837519Y-115768985D01*
X120976900Y-115675853D01*
X121131772Y-115611703D01*
X121296184Y-115579000D01*
X121463816Y-115579000D01*
X121628228Y-115611703D01*
X121628228Y-115611703D01*
G37*
G36*
X170127617Y-113083420D02*
G01*
X170208399Y-113107925D01*
X170250335Y-113120646D01*
X170363424Y-113181094D01*
X170462554Y-113262447D01*
X170543906Y-113361575D01*
X170604354Y-113474664D01*
X170614040Y-113506596D01*
X170641580Y-113597382D01*
X170651000Y-113693027D01*
X170651000Y-114306973D01*
X170641580Y-114402618D01*
X170632521Y-114432480D01*
X170604354Y-114525336D01*
X170543906Y-114638425D01*
X170462554Y-114737554D01*
X170363425Y-114818906D01*
X170250336Y-114879354D01*
X170218404Y-114889040D01*
X170127618Y-114916580D01*
X170000000Y-114929149D01*
X169872383Y-114916580D01*
X169781597Y-114889040D01*
X169749665Y-114879354D01*
X169636576Y-114818906D01*
X169537447Y-114737554D01*
X169456096Y-114638427D01*
X169456095Y-114638425D01*
X169395647Y-114525336D01*
X169395645Y-114525333D01*
X169367479Y-114432480D01*
X169358420Y-114402618D01*
X169349000Y-114306973D01*
X169349000Y-113693028D01*
X169358420Y-113597383D01*
X169395645Y-113474669D01*
X169395646Y-113474665D01*
X169456094Y-113361576D01*
X169537447Y-113262446D01*
X169636575Y-113181094D01*
X169749664Y-113120646D01*
X169791600Y-113107925D01*
X169872382Y-113083420D01*
X170000000Y-113070851D01*
X170127617Y-113083420D01*
X170127617Y-113083420D01*
G37*
G36*
X172127617Y-113083420D02*
G01*
X172208399Y-113107925D01*
X172250335Y-113120646D01*
X172363424Y-113181094D01*
X172462554Y-113262447D01*
X172543906Y-113361575D01*
X172604354Y-113474664D01*
X172614040Y-113506596D01*
X172641580Y-113597382D01*
X172651000Y-113693027D01*
X172651000Y-114306973D01*
X172641580Y-114402618D01*
X172632521Y-114432480D01*
X172604354Y-114525336D01*
X172543906Y-114638425D01*
X172462554Y-114737554D01*
X172363425Y-114818906D01*
X172250336Y-114879354D01*
X172218404Y-114889040D01*
X172127618Y-114916580D01*
X172000000Y-114929149D01*
X171872383Y-114916580D01*
X171781597Y-114889040D01*
X171749665Y-114879354D01*
X171636576Y-114818906D01*
X171537447Y-114737554D01*
X171456096Y-114638427D01*
X171456095Y-114638425D01*
X171395647Y-114525336D01*
X171395645Y-114525333D01*
X171367479Y-114432480D01*
X171358420Y-114402618D01*
X171349000Y-114306973D01*
X171349000Y-113693028D01*
X171358420Y-113597383D01*
X171395645Y-113474669D01*
X171395646Y-113474665D01*
X171456094Y-113361576D01*
X171537447Y-113262446D01*
X171636575Y-113181094D01*
X171749664Y-113120646D01*
X171791600Y-113107925D01*
X171872382Y-113083420D01*
X172000000Y-113070851D01*
X172127617Y-113083420D01*
X172127617Y-113083420D01*
G37*
G36*
X174127617Y-113083420D02*
G01*
X174208399Y-113107925D01*
X174250335Y-113120646D01*
X174363424Y-113181094D01*
X174462554Y-113262447D01*
X174543906Y-113361575D01*
X174604354Y-113474664D01*
X174614040Y-113506596D01*
X174641580Y-113597382D01*
X174651000Y-113693027D01*
X174651000Y-114306973D01*
X174641580Y-114402618D01*
X174632521Y-114432480D01*
X174604354Y-114525336D01*
X174543906Y-114638425D01*
X174462554Y-114737554D01*
X174363425Y-114818906D01*
X174250336Y-114879354D01*
X174218404Y-114889040D01*
X174127618Y-114916580D01*
X174000000Y-114929149D01*
X173872383Y-114916580D01*
X173781597Y-114889040D01*
X173749665Y-114879354D01*
X173636576Y-114818906D01*
X173537447Y-114737554D01*
X173456096Y-114638427D01*
X173456095Y-114638425D01*
X173395647Y-114525336D01*
X173395645Y-114525333D01*
X173367479Y-114432480D01*
X173358420Y-114402618D01*
X173349000Y-114306973D01*
X173349000Y-113693028D01*
X173358420Y-113597383D01*
X173395645Y-113474669D01*
X173395646Y-113474665D01*
X173456094Y-113361576D01*
X173537447Y-113262446D01*
X173636575Y-113181094D01*
X173749664Y-113120646D01*
X173791600Y-113107925D01*
X173872382Y-113083420D01*
X174000000Y-113070851D01*
X174127617Y-113083420D01*
X174127617Y-113083420D01*
G37*
G36*
X176127617Y-113083420D02*
G01*
X176208399Y-113107925D01*
X176250335Y-113120646D01*
X176363424Y-113181094D01*
X176462554Y-113262447D01*
X176543906Y-113361575D01*
X176604354Y-113474664D01*
X176614040Y-113506596D01*
X176641580Y-113597382D01*
X176651000Y-113693027D01*
X176651000Y-114306973D01*
X176641580Y-114402618D01*
X176632521Y-114432480D01*
X176604354Y-114525336D01*
X176543906Y-114638425D01*
X176462554Y-114737554D01*
X176363425Y-114818906D01*
X176250336Y-114879354D01*
X176218404Y-114889040D01*
X176127618Y-114916580D01*
X176000000Y-114929149D01*
X175872383Y-114916580D01*
X175781597Y-114889040D01*
X175749665Y-114879354D01*
X175636576Y-114818906D01*
X175537447Y-114737554D01*
X175456096Y-114638427D01*
X175456095Y-114638425D01*
X175395647Y-114525336D01*
X175395645Y-114525333D01*
X175367479Y-114432480D01*
X175358420Y-114402618D01*
X175349000Y-114306973D01*
X175349000Y-113693028D01*
X175358420Y-113597383D01*
X175395645Y-113474669D01*
X175395646Y-113474665D01*
X175456094Y-113361576D01*
X175537447Y-113262446D01*
X175636575Y-113181094D01*
X175749664Y-113120646D01*
X175791600Y-113107925D01*
X175872382Y-113083420D01*
X176000000Y-113070851D01*
X176127617Y-113083420D01*
X176127617Y-113083420D01*
G37*
G36*
X178127617Y-113083420D02*
G01*
X178208399Y-113107925D01*
X178250335Y-113120646D01*
X178363424Y-113181094D01*
X178462554Y-113262447D01*
X178543906Y-113361575D01*
X178604354Y-113474664D01*
X178614040Y-113506596D01*
X178641580Y-113597382D01*
X178651000Y-113693027D01*
X178651000Y-114306973D01*
X178641580Y-114402618D01*
X178632521Y-114432480D01*
X178604354Y-114525336D01*
X178543906Y-114638425D01*
X178462554Y-114737554D01*
X178363425Y-114818906D01*
X178250336Y-114879354D01*
X178218404Y-114889040D01*
X178127618Y-114916580D01*
X178000000Y-114929149D01*
X177872383Y-114916580D01*
X177781597Y-114889040D01*
X177749665Y-114879354D01*
X177636576Y-114818906D01*
X177537447Y-114737554D01*
X177456096Y-114638427D01*
X177456095Y-114638425D01*
X177395647Y-114525336D01*
X177395645Y-114525333D01*
X177367479Y-114432480D01*
X177358420Y-114402618D01*
X177349000Y-114306973D01*
X177349000Y-113693028D01*
X177358420Y-113597383D01*
X177395645Y-113474669D01*
X177395646Y-113474665D01*
X177456094Y-113361576D01*
X177537447Y-113262446D01*
X177636575Y-113181094D01*
X177749664Y-113120646D01*
X177791600Y-113107925D01*
X177872382Y-113083420D01*
X178000000Y-113070851D01*
X178127617Y-113083420D01*
X178127617Y-113083420D01*
G37*
G36*
X168491242Y-113078404D02*
G01*
X168528337Y-113089657D01*
X168562515Y-113107925D01*
X168592481Y-113132519D01*
X168617075Y-113162485D01*
X168635343Y-113196663D01*
X168646596Y-113233758D01*
X168651000Y-113278474D01*
X168651000Y-114721526D01*
X168646596Y-114766242D01*
X168635343Y-114803337D01*
X168617075Y-114837515D01*
X168592481Y-114867481D01*
X168562515Y-114892075D01*
X168528337Y-114910343D01*
X168491242Y-114921596D01*
X168446526Y-114926000D01*
X167553474Y-114926000D01*
X167508758Y-114921596D01*
X167471663Y-114910343D01*
X167437485Y-114892075D01*
X167407519Y-114867481D01*
X167382925Y-114837515D01*
X167364657Y-114803337D01*
X167353404Y-114766242D01*
X167349000Y-114721526D01*
X167349000Y-113278474D01*
X167353404Y-113233758D01*
X167364657Y-113196663D01*
X167382925Y-113162485D01*
X167407519Y-113132519D01*
X167437485Y-113107925D01*
X167471663Y-113089657D01*
X167508758Y-113078404D01*
X167553474Y-113074000D01*
X168446526Y-113074000D01*
X168491242Y-113078404D01*
X168491242Y-113078404D01*
G37*
G36*
X112964810Y-113195935D02*
G01*
X113111309Y-113256617D01*
X113120034Y-113262447D01*
X113243158Y-113344716D01*
X113355284Y-113456842D01*
X113375368Y-113486900D01*
X113443383Y-113588691D01*
X113504065Y-113735190D01*
X113535000Y-113890713D01*
X113535000Y-114049287D01*
X113504065Y-114204810D01*
X113443383Y-114351309D01*
X113409099Y-114402618D01*
X113355284Y-114483158D01*
X113243158Y-114595284D01*
X113178593Y-114638425D01*
X113111309Y-114683383D01*
X112964810Y-114744065D01*
X112809287Y-114775000D01*
X112650713Y-114775000D01*
X112495190Y-114744065D01*
X112348691Y-114683383D01*
X112281407Y-114638425D01*
X112216842Y-114595284D01*
X112104716Y-114483158D01*
X112050901Y-114402618D01*
X112016617Y-114351309D01*
X111955935Y-114204810D01*
X111925000Y-114049287D01*
X111925000Y-113890713D01*
X111955935Y-113735190D01*
X112016617Y-113588691D01*
X112084632Y-113486900D01*
X112104716Y-113456842D01*
X112216842Y-113344716D01*
X112339966Y-113262447D01*
X112348691Y-113256617D01*
X112495190Y-113195935D01*
X112650713Y-113165000D01*
X112809287Y-113165000D01*
X112964810Y-113195935D01*
X112964810Y-113195935D01*
G37*
G36*
X115504810Y-113195935D02*
G01*
X115651309Y-113256617D01*
X115660034Y-113262447D01*
X115783158Y-113344716D01*
X115895284Y-113456842D01*
X115915368Y-113486900D01*
X115983383Y-113588691D01*
X116044065Y-113735190D01*
X116075000Y-113890713D01*
X116075000Y-114049287D01*
X116044065Y-114204810D01*
X115983383Y-114351309D01*
X115949099Y-114402618D01*
X115895284Y-114483158D01*
X115783158Y-114595284D01*
X115718593Y-114638425D01*
X115651309Y-114683383D01*
X115504810Y-114744065D01*
X115349287Y-114775000D01*
X115190713Y-114775000D01*
X115035190Y-114744065D01*
X114888691Y-114683383D01*
X114821407Y-114638425D01*
X114756842Y-114595284D01*
X114644716Y-114483158D01*
X114590901Y-114402618D01*
X114556617Y-114351309D01*
X114495935Y-114204810D01*
X114465000Y-114049287D01*
X114465000Y-113890713D01*
X114495935Y-113735190D01*
X114556617Y-113588691D01*
X114624632Y-113486900D01*
X114644716Y-113456842D01*
X114756842Y-113344716D01*
X114879966Y-113262447D01*
X114888691Y-113256617D01*
X115035190Y-113195935D01*
X115190713Y-113165000D01*
X115349287Y-113165000D01*
X115504810Y-113195935D01*
X115504810Y-113195935D01*
G37*
G36*
X136868228Y-113071703D02*
G01*
X137023100Y-113135853D01*
X137162481Y-113228985D01*
X137281015Y-113347519D01*
X137374147Y-113486900D01*
X137438297Y-113641772D01*
X137471000Y-113806184D01*
X137471000Y-113973816D01*
X137438297Y-114138228D01*
X137374147Y-114293100D01*
X137281015Y-114432481D01*
X137162481Y-114551015D01*
X137023100Y-114644147D01*
X136868228Y-114708297D01*
X136703816Y-114741000D01*
X136536184Y-114741000D01*
X136371772Y-114708297D01*
X136216900Y-114644147D01*
X136077519Y-114551015D01*
X135958985Y-114432481D01*
X135865853Y-114293100D01*
X135801703Y-114138228D01*
X135769000Y-113973816D01*
X135769000Y-113806184D01*
X135801703Y-113641772D01*
X135865853Y-113486900D01*
X135958985Y-113347519D01*
X136077519Y-113228985D01*
X136216900Y-113135853D01*
X136371772Y-113071703D01*
X136536184Y-113039000D01*
X136703816Y-113039000D01*
X136868228Y-113071703D01*
X136868228Y-113071703D01*
G37*
G36*
X121628228Y-113071703D02*
G01*
X121783100Y-113135853D01*
X121922481Y-113228985D01*
X122041015Y-113347519D01*
X122134147Y-113486900D01*
X122198297Y-113641772D01*
X122231000Y-113806184D01*
X122231000Y-113973816D01*
X122198297Y-114138228D01*
X122134147Y-114293100D01*
X122041015Y-114432481D01*
X121922481Y-114551015D01*
X121783100Y-114644147D01*
X121628228Y-114708297D01*
X121463816Y-114741000D01*
X121296184Y-114741000D01*
X121131772Y-114708297D01*
X120976900Y-114644147D01*
X120837519Y-114551015D01*
X120718985Y-114432481D01*
X120625853Y-114293100D01*
X120561703Y-114138228D01*
X120529000Y-113973816D01*
X120529000Y-113806184D01*
X120561703Y-113641772D01*
X120625853Y-113486900D01*
X120718985Y-113347519D01*
X120837519Y-113228985D01*
X120976900Y-113135853D01*
X121131772Y-113071703D01*
X121296184Y-113039000D01*
X121463816Y-113039000D01*
X121628228Y-113071703D01*
X121628228Y-113071703D01*
G37*
G36*
X115504810Y-110655935D02*
G01*
X115651309Y-110716617D01*
X115651310Y-110716618D01*
X115783158Y-110804716D01*
X115895284Y-110916842D01*
X115895285Y-110916844D01*
X115983383Y-111048691D01*
X116044065Y-111195190D01*
X116075000Y-111350713D01*
X116075000Y-111509287D01*
X116044065Y-111664810D01*
X115983383Y-111811309D01*
X115983382Y-111811310D01*
X115895284Y-111943158D01*
X115783158Y-112055284D01*
X115716785Y-112099633D01*
X115651309Y-112143383D01*
X115504810Y-112204065D01*
X115349287Y-112235000D01*
X115190713Y-112235000D01*
X115035190Y-112204065D01*
X114888691Y-112143383D01*
X114823215Y-112099633D01*
X114756842Y-112055284D01*
X114644716Y-111943158D01*
X114556618Y-111811310D01*
X114556617Y-111811309D01*
X114495935Y-111664810D01*
X114465000Y-111509287D01*
X114465000Y-111350713D01*
X114495935Y-111195190D01*
X114556617Y-111048691D01*
X114644715Y-110916844D01*
X114644716Y-110916842D01*
X114756842Y-110804716D01*
X114888690Y-110716618D01*
X114888691Y-110716617D01*
X115035190Y-110655935D01*
X115190713Y-110625000D01*
X115349287Y-110625000D01*
X115504810Y-110655935D01*
X115504810Y-110655935D01*
G37*
G36*
X112964810Y-110655935D02*
G01*
X113111309Y-110716617D01*
X113111310Y-110716618D01*
X113243158Y-110804716D01*
X113355284Y-110916842D01*
X113355285Y-110916844D01*
X113443383Y-111048691D01*
X113504065Y-111195190D01*
X113535000Y-111350713D01*
X113535000Y-111509287D01*
X113504065Y-111664810D01*
X113443383Y-111811309D01*
X113443382Y-111811310D01*
X113355284Y-111943158D01*
X113243158Y-112055284D01*
X113176785Y-112099633D01*
X113111309Y-112143383D01*
X112964810Y-112204065D01*
X112809287Y-112235000D01*
X112650713Y-112235000D01*
X112495190Y-112204065D01*
X112348691Y-112143383D01*
X112283215Y-112099633D01*
X112216842Y-112055284D01*
X112104716Y-111943158D01*
X112016618Y-111811310D01*
X112016617Y-111811309D01*
X111955935Y-111664810D01*
X111925000Y-111509287D01*
X111925000Y-111350713D01*
X111955935Y-111195190D01*
X112016617Y-111048691D01*
X112104715Y-110916844D01*
X112104716Y-110916842D01*
X112216842Y-110804716D01*
X112348690Y-110716618D01*
X112348691Y-110716617D01*
X112495190Y-110655935D01*
X112650713Y-110625000D01*
X112809287Y-110625000D01*
X112964810Y-110655935D01*
X112964810Y-110655935D01*
G37*
G36*
X136868228Y-110531703D02*
G01*
X137023100Y-110595853D01*
X137162481Y-110688985D01*
X137281015Y-110807519D01*
X137374147Y-110946900D01*
X137438297Y-111101772D01*
X137471000Y-111266184D01*
X137471000Y-111433816D01*
X137438297Y-111598228D01*
X137374147Y-111753100D01*
X137281015Y-111892481D01*
X137162481Y-112011015D01*
X137023100Y-112104147D01*
X136868228Y-112168297D01*
X136703816Y-112201000D01*
X136536184Y-112201000D01*
X136371772Y-112168297D01*
X136216900Y-112104147D01*
X136077519Y-112011015D01*
X135958985Y-111892481D01*
X135865853Y-111753100D01*
X135801703Y-111598228D01*
X135769000Y-111433816D01*
X135769000Y-111266184D01*
X135801703Y-111101772D01*
X135865853Y-110946900D01*
X135958985Y-110807519D01*
X136077519Y-110688985D01*
X136216900Y-110595853D01*
X136371772Y-110531703D01*
X136536184Y-110499000D01*
X136703816Y-110499000D01*
X136868228Y-110531703D01*
X136868228Y-110531703D01*
G37*
G36*
X121628228Y-110531703D02*
G01*
X121783100Y-110595853D01*
X121922481Y-110688985D01*
X122041015Y-110807519D01*
X122134147Y-110946900D01*
X122198297Y-111101772D01*
X122231000Y-111266184D01*
X122231000Y-111433816D01*
X122198297Y-111598228D01*
X122134147Y-111753100D01*
X122041015Y-111892481D01*
X121922481Y-112011015D01*
X121783100Y-112104147D01*
X121628228Y-112168297D01*
X121463816Y-112201000D01*
X121296184Y-112201000D01*
X121131772Y-112168297D01*
X120976900Y-112104147D01*
X120837519Y-112011015D01*
X120718985Y-111892481D01*
X120625853Y-111753100D01*
X120561703Y-111598228D01*
X120529000Y-111433816D01*
X120529000Y-111266184D01*
X120561703Y-111101772D01*
X120625853Y-110946900D01*
X120718985Y-110807519D01*
X120837519Y-110688985D01*
X120976900Y-110595853D01*
X121131772Y-110531703D01*
X121296184Y-110499000D01*
X121463816Y-110499000D01*
X121628228Y-110531703D01*
X121628228Y-110531703D01*
G37*
G36*
X112964810Y-108115935D02*
G01*
X113111309Y-108176617D01*
X113111310Y-108176618D01*
X113243158Y-108264716D01*
X113355284Y-108376842D01*
X113355285Y-108376844D01*
X113443383Y-108508691D01*
X113504065Y-108655190D01*
X113535000Y-108810713D01*
X113535000Y-108969287D01*
X113504065Y-109124810D01*
X113443383Y-109271309D01*
X113443382Y-109271310D01*
X113355284Y-109403158D01*
X113243158Y-109515284D01*
X113176785Y-109559633D01*
X113111309Y-109603383D01*
X112964810Y-109664065D01*
X112809287Y-109695000D01*
X112650713Y-109695000D01*
X112495190Y-109664065D01*
X112348691Y-109603383D01*
X112283215Y-109559633D01*
X112216842Y-109515284D01*
X112104716Y-109403158D01*
X112016618Y-109271310D01*
X112016617Y-109271309D01*
X111955935Y-109124810D01*
X111925000Y-108969287D01*
X111925000Y-108810713D01*
X111955935Y-108655190D01*
X112016617Y-108508691D01*
X112104715Y-108376844D01*
X112104716Y-108376842D01*
X112216842Y-108264716D01*
X112348690Y-108176618D01*
X112348691Y-108176617D01*
X112495190Y-108115935D01*
X112650713Y-108085000D01*
X112809287Y-108085000D01*
X112964810Y-108115935D01*
X112964810Y-108115935D01*
G37*
G36*
X115504810Y-108115935D02*
G01*
X115651309Y-108176617D01*
X115651310Y-108176618D01*
X115783158Y-108264716D01*
X115895284Y-108376842D01*
X115895285Y-108376844D01*
X115983383Y-108508691D01*
X116044065Y-108655190D01*
X116075000Y-108810713D01*
X116075000Y-108969287D01*
X116044065Y-109124810D01*
X115983383Y-109271309D01*
X115983382Y-109271310D01*
X115895284Y-109403158D01*
X115783158Y-109515284D01*
X115716785Y-109559633D01*
X115651309Y-109603383D01*
X115504810Y-109664065D01*
X115349287Y-109695000D01*
X115190713Y-109695000D01*
X115035190Y-109664065D01*
X114888691Y-109603383D01*
X114823215Y-109559633D01*
X114756842Y-109515284D01*
X114644716Y-109403158D01*
X114556618Y-109271310D01*
X114556617Y-109271309D01*
X114495935Y-109124810D01*
X114465000Y-108969287D01*
X114465000Y-108810713D01*
X114495935Y-108655190D01*
X114556617Y-108508691D01*
X114644715Y-108376844D01*
X114644716Y-108376842D01*
X114756842Y-108264716D01*
X114888690Y-108176618D01*
X114888691Y-108176617D01*
X115035190Y-108115935D01*
X115190713Y-108085000D01*
X115349287Y-108085000D01*
X115504810Y-108115935D01*
X115504810Y-108115935D01*
G37*
G36*
X121628228Y-107991703D02*
G01*
X121783100Y-108055853D01*
X121922481Y-108148985D01*
X122041015Y-108267519D01*
X122134147Y-108406900D01*
X122198297Y-108561772D01*
X122231000Y-108726184D01*
X122231000Y-108893816D01*
X122198297Y-109058228D01*
X122134147Y-109213100D01*
X122041015Y-109352481D01*
X121922481Y-109471015D01*
X121783100Y-109564147D01*
X121628228Y-109628297D01*
X121463816Y-109661000D01*
X121296184Y-109661000D01*
X121131772Y-109628297D01*
X120976900Y-109564147D01*
X120837519Y-109471015D01*
X120718985Y-109352481D01*
X120625853Y-109213100D01*
X120561703Y-109058228D01*
X120529000Y-108893816D01*
X120529000Y-108726184D01*
X120561703Y-108561772D01*
X120625853Y-108406900D01*
X120718985Y-108267519D01*
X120837519Y-108148985D01*
X120976900Y-108055853D01*
X121131772Y-107991703D01*
X121296184Y-107959000D01*
X121463816Y-107959000D01*
X121628228Y-107991703D01*
X121628228Y-107991703D01*
G37*
G36*
X136868228Y-107991703D02*
G01*
X137023100Y-108055853D01*
X137162481Y-108148985D01*
X137281015Y-108267519D01*
X137374147Y-108406900D01*
X137438297Y-108561772D01*
X137471000Y-108726184D01*
X137471000Y-108893816D01*
X137438297Y-109058228D01*
X137374147Y-109213100D01*
X137281015Y-109352481D01*
X137162481Y-109471015D01*
X137023100Y-109564147D01*
X136868228Y-109628297D01*
X136703816Y-109661000D01*
X136536184Y-109661000D01*
X136371772Y-109628297D01*
X136216900Y-109564147D01*
X136077519Y-109471015D01*
X135958985Y-109352481D01*
X135865853Y-109213100D01*
X135801703Y-109058228D01*
X135769000Y-108893816D01*
X135769000Y-108726184D01*
X135801703Y-108561772D01*
X135865853Y-108406900D01*
X135958985Y-108267519D01*
X136077519Y-108148985D01*
X136216900Y-108055853D01*
X136371772Y-107991703D01*
X136536184Y-107959000D01*
X136703816Y-107959000D01*
X136868228Y-107991703D01*
X136868228Y-107991703D01*
G37*
G36*
X176377747Y-106810921D02*
G01*
X176457376Y-106818764D01*
X176603717Y-106863156D01*
X176610630Y-106865253D01*
X176751863Y-106940744D01*
X176875659Y-107042341D01*
X176977256Y-107166137D01*
X177052747Y-107307370D01*
X177052748Y-107307373D01*
X177099236Y-107460624D01*
X177114933Y-107620000D01*
X177099236Y-107779376D01*
X177052748Y-107932627D01*
X177052747Y-107932630D01*
X176977256Y-108073863D01*
X176875659Y-108197659D01*
X176751863Y-108299256D01*
X176610630Y-108374747D01*
X176610627Y-108374748D01*
X176457376Y-108421236D01*
X176377747Y-108429079D01*
X176337934Y-108433000D01*
X175282066Y-108433000D01*
X175242253Y-108429079D01*
X175162624Y-108421236D01*
X175009373Y-108374748D01*
X175009370Y-108374747D01*
X174868137Y-108299256D01*
X174744341Y-108197659D01*
X174642744Y-108073863D01*
X174567253Y-107932630D01*
X174567252Y-107932627D01*
X174520764Y-107779376D01*
X174505067Y-107620000D01*
X174520764Y-107460624D01*
X174567252Y-107307373D01*
X174567253Y-107307370D01*
X174642744Y-107166137D01*
X174744341Y-107042341D01*
X174868137Y-106940744D01*
X175009370Y-106865253D01*
X175016283Y-106863156D01*
X175162624Y-106818764D01*
X175242253Y-106810921D01*
X175282066Y-106807000D01*
X176337934Y-106807000D01*
X176377747Y-106810921D01*
X176377747Y-106810921D01*
G37*
G36*
X168757747Y-106810921D02*
G01*
X168837376Y-106818764D01*
X168983717Y-106863156D01*
X168990630Y-106865253D01*
X169131863Y-106940744D01*
X169255659Y-107042341D01*
X169357256Y-107166137D01*
X169432747Y-107307370D01*
X169432748Y-107307373D01*
X169479236Y-107460624D01*
X169494933Y-107620000D01*
X169479236Y-107779376D01*
X169432748Y-107932627D01*
X169432747Y-107932630D01*
X169357256Y-108073863D01*
X169255659Y-108197659D01*
X169131863Y-108299256D01*
X168990630Y-108374747D01*
X168990627Y-108374748D01*
X168837376Y-108421236D01*
X168757747Y-108429079D01*
X168717934Y-108433000D01*
X167662066Y-108433000D01*
X167622253Y-108429079D01*
X167542624Y-108421236D01*
X167389373Y-108374748D01*
X167389370Y-108374747D01*
X167248137Y-108299256D01*
X167124341Y-108197659D01*
X167022744Y-108073863D01*
X166947253Y-107932630D01*
X166947252Y-107932627D01*
X166900764Y-107779376D01*
X166885067Y-107620000D01*
X166900764Y-107460624D01*
X166947252Y-107307373D01*
X166947253Y-107307370D01*
X167022744Y-107166137D01*
X167124341Y-107042341D01*
X167248137Y-106940744D01*
X167389370Y-106865253D01*
X167396283Y-106863156D01*
X167542624Y-106818764D01*
X167622253Y-106810921D01*
X167662066Y-106807000D01*
X168717934Y-106807000D01*
X168757747Y-106810921D01*
X168757747Y-106810921D01*
G37*
G36*
X101727747Y-106810921D02*
G01*
X101807376Y-106818764D01*
X101953717Y-106863156D01*
X101960630Y-106865253D01*
X102101863Y-106940744D01*
X102225659Y-107042341D01*
X102327256Y-107166137D01*
X102402747Y-107307370D01*
X102402748Y-107307373D01*
X102449236Y-107460624D01*
X102464933Y-107620000D01*
X102449236Y-107779376D01*
X102402748Y-107932627D01*
X102402747Y-107932630D01*
X102327256Y-108073863D01*
X102225659Y-108197659D01*
X102101863Y-108299256D01*
X101960630Y-108374747D01*
X101960627Y-108374748D01*
X101807376Y-108421236D01*
X101727747Y-108429079D01*
X101687934Y-108433000D01*
X100632066Y-108433000D01*
X100592253Y-108429079D01*
X100512624Y-108421236D01*
X100359373Y-108374748D01*
X100359370Y-108374747D01*
X100218137Y-108299256D01*
X100094341Y-108197659D01*
X99992744Y-108073863D01*
X99917253Y-107932630D01*
X99917252Y-107932627D01*
X99870764Y-107779376D01*
X99855067Y-107620000D01*
X99870764Y-107460624D01*
X99917252Y-107307373D01*
X99917253Y-107307370D01*
X99992744Y-107166137D01*
X100094341Y-107042341D01*
X100218137Y-106940744D01*
X100359370Y-106865253D01*
X100366283Y-106863156D01*
X100512624Y-106818764D01*
X100592253Y-106810921D01*
X100632066Y-106807000D01*
X101687934Y-106807000D01*
X101727747Y-106810921D01*
X101727747Y-106810921D01*
G37*
G36*
X199407747Y-106810921D02*
G01*
X199487376Y-106818764D01*
X199633717Y-106863156D01*
X199640630Y-106865253D01*
X199781863Y-106940744D01*
X199905659Y-107042341D01*
X200007256Y-107166137D01*
X200082747Y-107307370D01*
X200082748Y-107307373D01*
X200129236Y-107460624D01*
X200144933Y-107620000D01*
X200129236Y-107779376D01*
X200082748Y-107932627D01*
X200082747Y-107932630D01*
X200007256Y-108073863D01*
X199905659Y-108197659D01*
X199781863Y-108299256D01*
X199640630Y-108374747D01*
X199640627Y-108374748D01*
X199487376Y-108421236D01*
X199407747Y-108429079D01*
X199367934Y-108433000D01*
X198312066Y-108433000D01*
X198272253Y-108429079D01*
X198192624Y-108421236D01*
X198039373Y-108374748D01*
X198039370Y-108374747D01*
X197898137Y-108299256D01*
X197774341Y-108197659D01*
X197672744Y-108073863D01*
X197597253Y-107932630D01*
X197597252Y-107932627D01*
X197550764Y-107779376D01*
X197535067Y-107620000D01*
X197550764Y-107460624D01*
X197597252Y-107307373D01*
X197597253Y-107307370D01*
X197672744Y-107166137D01*
X197774341Y-107042341D01*
X197898137Y-106940744D01*
X198039370Y-106865253D01*
X198046283Y-106863156D01*
X198192624Y-106818764D01*
X198272253Y-106810921D01*
X198312066Y-106807000D01*
X199367934Y-106807000D01*
X199407747Y-106810921D01*
X199407747Y-106810921D01*
G37*
G36*
X112964810Y-105575935D02*
G01*
X113111309Y-105636617D01*
X113111310Y-105636618D01*
X113243158Y-105724716D01*
X113355284Y-105836842D01*
X113355285Y-105836844D01*
X113443383Y-105968691D01*
X113504065Y-106115190D01*
X113535000Y-106270713D01*
X113535000Y-106429287D01*
X113504065Y-106584810D01*
X113443383Y-106731309D01*
X113443382Y-106731310D01*
X113355284Y-106863158D01*
X113243158Y-106975284D01*
X113176785Y-107019633D01*
X113111309Y-107063383D01*
X112964810Y-107124065D01*
X112809287Y-107155000D01*
X112650713Y-107155000D01*
X112495190Y-107124065D01*
X112348691Y-107063383D01*
X112283215Y-107019633D01*
X112216842Y-106975284D01*
X112104716Y-106863158D01*
X112016618Y-106731310D01*
X112016617Y-106731309D01*
X111955935Y-106584810D01*
X111925000Y-106429287D01*
X111925000Y-106270713D01*
X111955935Y-106115190D01*
X112016617Y-105968691D01*
X112104715Y-105836844D01*
X112104716Y-105836842D01*
X112216842Y-105724716D01*
X112348690Y-105636618D01*
X112348691Y-105636617D01*
X112495190Y-105575935D01*
X112650713Y-105545000D01*
X112809287Y-105545000D01*
X112964810Y-105575935D01*
X112964810Y-105575935D01*
G37*
G36*
X115504810Y-105575935D02*
G01*
X115651309Y-105636617D01*
X115651310Y-105636618D01*
X115783158Y-105724716D01*
X115895284Y-105836842D01*
X115895285Y-105836844D01*
X115983383Y-105968691D01*
X116044065Y-106115190D01*
X116075000Y-106270713D01*
X116075000Y-106429287D01*
X116044065Y-106584810D01*
X115983383Y-106731309D01*
X115983382Y-106731310D01*
X115895284Y-106863158D01*
X115783158Y-106975284D01*
X115716785Y-107019633D01*
X115651309Y-107063383D01*
X115504810Y-107124065D01*
X115349287Y-107155000D01*
X115190713Y-107155000D01*
X115035190Y-107124065D01*
X114888691Y-107063383D01*
X114823215Y-107019633D01*
X114756842Y-106975284D01*
X114644716Y-106863158D01*
X114556618Y-106731310D01*
X114556617Y-106731309D01*
X114495935Y-106584810D01*
X114465000Y-106429287D01*
X114465000Y-106270713D01*
X114495935Y-106115190D01*
X114556617Y-105968691D01*
X114644715Y-105836844D01*
X114644716Y-105836842D01*
X114756842Y-105724716D01*
X114888690Y-105636618D01*
X114888691Y-105636617D01*
X115035190Y-105575935D01*
X115190713Y-105545000D01*
X115349287Y-105545000D01*
X115504810Y-105575935D01*
X115504810Y-105575935D01*
G37*
G36*
X136868228Y-105451703D02*
G01*
X137023100Y-105515853D01*
X137162481Y-105608985D01*
X137281015Y-105727519D01*
X137374147Y-105866900D01*
X137438297Y-106021772D01*
X137471000Y-106186184D01*
X137471000Y-106353816D01*
X137438297Y-106518228D01*
X137374147Y-106673100D01*
X137281015Y-106812481D01*
X137162481Y-106931015D01*
X137023100Y-107024147D01*
X136868228Y-107088297D01*
X136703816Y-107121000D01*
X136536184Y-107121000D01*
X136371772Y-107088297D01*
X136216900Y-107024147D01*
X136077519Y-106931015D01*
X135958985Y-106812481D01*
X135865853Y-106673100D01*
X135801703Y-106518228D01*
X135769000Y-106353816D01*
X135769000Y-106186184D01*
X135801703Y-106021772D01*
X135865853Y-105866900D01*
X135958985Y-105727519D01*
X136077519Y-105608985D01*
X136216900Y-105515853D01*
X136371772Y-105451703D01*
X136536184Y-105419000D01*
X136703816Y-105419000D01*
X136868228Y-105451703D01*
X136868228Y-105451703D01*
G37*
G36*
X121628228Y-105451703D02*
G01*
X121783100Y-105515853D01*
X121922481Y-105608985D01*
X122041015Y-105727519D01*
X122134147Y-105866900D01*
X122198297Y-106021772D01*
X122231000Y-106186184D01*
X122231000Y-106353816D01*
X122198297Y-106518228D01*
X122134147Y-106673100D01*
X122041015Y-106812481D01*
X121922481Y-106931015D01*
X121783100Y-107024147D01*
X121628228Y-107088297D01*
X121463816Y-107121000D01*
X121296184Y-107121000D01*
X121131772Y-107088297D01*
X120976900Y-107024147D01*
X120837519Y-106931015D01*
X120718985Y-106812481D01*
X120625853Y-106673100D01*
X120561703Y-106518228D01*
X120529000Y-106353816D01*
X120529000Y-106186184D01*
X120561703Y-106021772D01*
X120625853Y-105866900D01*
X120718985Y-105727519D01*
X120837519Y-105608985D01*
X120976900Y-105515853D01*
X121131772Y-105451703D01*
X121296184Y-105419000D01*
X121463816Y-105419000D01*
X121628228Y-105451703D01*
X121628228Y-105451703D01*
G37*
G36*
X101727747Y-104270921D02*
G01*
X101807376Y-104278764D01*
X101953717Y-104323156D01*
X101960630Y-104325253D01*
X102101863Y-104400744D01*
X102225659Y-104502341D01*
X102327256Y-104626137D01*
X102402747Y-104767370D01*
X102402748Y-104767373D01*
X102449236Y-104920624D01*
X102464933Y-105080000D01*
X102449236Y-105239376D01*
X102402748Y-105392627D01*
X102402747Y-105392630D01*
X102327256Y-105533863D01*
X102225659Y-105657659D01*
X102101863Y-105759256D01*
X101960630Y-105834747D01*
X101960627Y-105834748D01*
X101807376Y-105881236D01*
X101727747Y-105889079D01*
X101687934Y-105893000D01*
X100632066Y-105893000D01*
X100592253Y-105889079D01*
X100512624Y-105881236D01*
X100359373Y-105834748D01*
X100359370Y-105834747D01*
X100218137Y-105759256D01*
X100094341Y-105657659D01*
X99992744Y-105533863D01*
X99917253Y-105392630D01*
X99917252Y-105392627D01*
X99870764Y-105239376D01*
X99855067Y-105080000D01*
X99870764Y-104920624D01*
X99917252Y-104767373D01*
X99917253Y-104767370D01*
X99992744Y-104626137D01*
X100094341Y-104502341D01*
X100218137Y-104400744D01*
X100359370Y-104325253D01*
X100366283Y-104323156D01*
X100512624Y-104278764D01*
X100592253Y-104270921D01*
X100632066Y-104267000D01*
X101687934Y-104267000D01*
X101727747Y-104270921D01*
X101727747Y-104270921D01*
G37*
G36*
X168757747Y-104270921D02*
G01*
X168837376Y-104278764D01*
X168983717Y-104323156D01*
X168990630Y-104325253D01*
X169131863Y-104400744D01*
X169255659Y-104502341D01*
X169357256Y-104626137D01*
X169432747Y-104767370D01*
X169432748Y-104767373D01*
X169479236Y-104920624D01*
X169494933Y-105080000D01*
X169479236Y-105239376D01*
X169432748Y-105392627D01*
X169432747Y-105392630D01*
X169357256Y-105533863D01*
X169255659Y-105657659D01*
X169131863Y-105759256D01*
X168990630Y-105834747D01*
X168990627Y-105834748D01*
X168837376Y-105881236D01*
X168757747Y-105889079D01*
X168717934Y-105893000D01*
X167662066Y-105893000D01*
X167622253Y-105889079D01*
X167542624Y-105881236D01*
X167389373Y-105834748D01*
X167389370Y-105834747D01*
X167248137Y-105759256D01*
X167124341Y-105657659D01*
X167022744Y-105533863D01*
X166947253Y-105392630D01*
X166947252Y-105392627D01*
X166900764Y-105239376D01*
X166885067Y-105080000D01*
X166900764Y-104920624D01*
X166947252Y-104767373D01*
X166947253Y-104767370D01*
X167022744Y-104626137D01*
X167124341Y-104502341D01*
X167248137Y-104400744D01*
X167389370Y-104325253D01*
X167396283Y-104323156D01*
X167542624Y-104278764D01*
X167622253Y-104270921D01*
X167662066Y-104267000D01*
X168717934Y-104267000D01*
X168757747Y-104270921D01*
X168757747Y-104270921D01*
G37*
G36*
X176377747Y-104270921D02*
G01*
X176457376Y-104278764D01*
X176603717Y-104323156D01*
X176610630Y-104325253D01*
X176751863Y-104400744D01*
X176875659Y-104502341D01*
X176977256Y-104626137D01*
X177052747Y-104767370D01*
X177052748Y-104767373D01*
X177099236Y-104920624D01*
X177114933Y-105080000D01*
X177099236Y-105239376D01*
X177052748Y-105392627D01*
X177052747Y-105392630D01*
X176977256Y-105533863D01*
X176875659Y-105657659D01*
X176751863Y-105759256D01*
X176610630Y-105834747D01*
X176610627Y-105834748D01*
X176457376Y-105881236D01*
X176377747Y-105889079D01*
X176337934Y-105893000D01*
X175282066Y-105893000D01*
X175242253Y-105889079D01*
X175162624Y-105881236D01*
X175009373Y-105834748D01*
X175009370Y-105834747D01*
X174868137Y-105759256D01*
X174744341Y-105657659D01*
X174642744Y-105533863D01*
X174567253Y-105392630D01*
X174567252Y-105392627D01*
X174520764Y-105239376D01*
X174505067Y-105080000D01*
X174520764Y-104920624D01*
X174567252Y-104767373D01*
X174567253Y-104767370D01*
X174642744Y-104626137D01*
X174744341Y-104502341D01*
X174868137Y-104400744D01*
X175009370Y-104325253D01*
X175016283Y-104323156D01*
X175162624Y-104278764D01*
X175242253Y-104270921D01*
X175282066Y-104267000D01*
X176337934Y-104267000D01*
X176377747Y-104270921D01*
X176377747Y-104270921D01*
G37*
G36*
X199407747Y-104270921D02*
G01*
X199487376Y-104278764D01*
X199633717Y-104323156D01*
X199640630Y-104325253D01*
X199781863Y-104400744D01*
X199905659Y-104502341D01*
X200007256Y-104626137D01*
X200082747Y-104767370D01*
X200082748Y-104767373D01*
X200129236Y-104920624D01*
X200144933Y-105080000D01*
X200129236Y-105239376D01*
X200082748Y-105392627D01*
X200082747Y-105392630D01*
X200007256Y-105533863D01*
X199905659Y-105657659D01*
X199781863Y-105759256D01*
X199640630Y-105834747D01*
X199640627Y-105834748D01*
X199487376Y-105881236D01*
X199407747Y-105889079D01*
X199367934Y-105893000D01*
X198312066Y-105893000D01*
X198272253Y-105889079D01*
X198192624Y-105881236D01*
X198039373Y-105834748D01*
X198039370Y-105834747D01*
X197898137Y-105759256D01*
X197774341Y-105657659D01*
X197672744Y-105533863D01*
X197597253Y-105392630D01*
X197597252Y-105392627D01*
X197550764Y-105239376D01*
X197535067Y-105080000D01*
X197550764Y-104920624D01*
X197597252Y-104767373D01*
X197597253Y-104767370D01*
X197672744Y-104626137D01*
X197774341Y-104502341D01*
X197898137Y-104400744D01*
X198039370Y-104325253D01*
X198046283Y-104323156D01*
X198192624Y-104278764D01*
X198272253Y-104270921D01*
X198312066Y-104267000D01*
X199367934Y-104267000D01*
X199407747Y-104270921D01*
X199407747Y-104270921D01*
G37*
G36*
X98629591Y-104015585D02*
G01*
X98663569Y-104025893D01*
X98694890Y-104042634D01*
X98722339Y-104065161D01*
X98744866Y-104092610D01*
X98761607Y-104123931D01*
X98771915Y-104157909D01*
X98776000Y-104199390D01*
X98776000Y-104800610D01*
X98771915Y-104842091D01*
X98761607Y-104876069D01*
X98744866Y-104907390D01*
X98722339Y-104934839D01*
X98694890Y-104957366D01*
X98663569Y-104974107D01*
X98629591Y-104984415D01*
X98588110Y-104988500D01*
X97911890Y-104988500D01*
X97870409Y-104984415D01*
X97836431Y-104974107D01*
X97805110Y-104957366D01*
X97777661Y-104934839D01*
X97755134Y-104907390D01*
X97738393Y-104876069D01*
X97728085Y-104842091D01*
X97724000Y-104800610D01*
X97724000Y-104199390D01*
X97728085Y-104157909D01*
X97738393Y-104123931D01*
X97755134Y-104092610D01*
X97777661Y-104065161D01*
X97805110Y-104042634D01*
X97836431Y-104025893D01*
X97870409Y-104015585D01*
X97911890Y-104011500D01*
X98588110Y-104011500D01*
X98629591Y-104015585D01*
X98629591Y-104015585D01*
G37*
G36*
X112964810Y-103035935D02*
G01*
X113111309Y-103096617D01*
X113111310Y-103096618D01*
X113243158Y-103184716D01*
X113355284Y-103296842D01*
X113392808Y-103353000D01*
X113443383Y-103428691D01*
X113504065Y-103575190D01*
X113535000Y-103730713D01*
X113535000Y-103889287D01*
X113504065Y-104044810D01*
X113443383Y-104191309D01*
X113443382Y-104191310D01*
X113355284Y-104323158D01*
X113243158Y-104435284D01*
X113176785Y-104479633D01*
X113111309Y-104523383D01*
X112964810Y-104584065D01*
X112809287Y-104615000D01*
X112650713Y-104615000D01*
X112495190Y-104584065D01*
X112348691Y-104523383D01*
X112283215Y-104479633D01*
X112216842Y-104435284D01*
X112104716Y-104323158D01*
X112016618Y-104191310D01*
X112016617Y-104191309D01*
X111955935Y-104044810D01*
X111925000Y-103889287D01*
X111925000Y-103730713D01*
X111955935Y-103575190D01*
X112016617Y-103428691D01*
X112067192Y-103353000D01*
X112104716Y-103296842D01*
X112216842Y-103184716D01*
X112348690Y-103096618D01*
X112348691Y-103096617D01*
X112495190Y-103035935D01*
X112650713Y-103005000D01*
X112809287Y-103005000D01*
X112964810Y-103035935D01*
X112964810Y-103035935D01*
G37*
G36*
X115504810Y-103035935D02*
G01*
X115651309Y-103096617D01*
X115651310Y-103096618D01*
X115783158Y-103184716D01*
X115895284Y-103296842D01*
X115932808Y-103353000D01*
X115983383Y-103428691D01*
X116044065Y-103575190D01*
X116075000Y-103730713D01*
X116075000Y-103889287D01*
X116044065Y-104044810D01*
X115983383Y-104191309D01*
X115983382Y-104191310D01*
X115895284Y-104323158D01*
X115783158Y-104435284D01*
X115716785Y-104479633D01*
X115651309Y-104523383D01*
X115504810Y-104584065D01*
X115349287Y-104615000D01*
X115190713Y-104615000D01*
X115035190Y-104584065D01*
X114888691Y-104523383D01*
X114823215Y-104479633D01*
X114756842Y-104435284D01*
X114644716Y-104323158D01*
X114556618Y-104191310D01*
X114556617Y-104191309D01*
X114495935Y-104044810D01*
X114465000Y-103889287D01*
X114465000Y-103730713D01*
X114495935Y-103575190D01*
X114556617Y-103428691D01*
X114607192Y-103353000D01*
X114644716Y-103296842D01*
X114756842Y-103184716D01*
X114888690Y-103096618D01*
X114888691Y-103096617D01*
X115035190Y-103035935D01*
X115190713Y-103005000D01*
X115349287Y-103005000D01*
X115504810Y-103035935D01*
X115504810Y-103035935D01*
G37*
G36*
X136868228Y-102911703D02*
G01*
X137023100Y-102975853D01*
X137162481Y-103068985D01*
X137281015Y-103187519D01*
X137374147Y-103326900D01*
X137438297Y-103481772D01*
X137471000Y-103646184D01*
X137471000Y-103813816D01*
X137438297Y-103978228D01*
X137374147Y-104133100D01*
X137281015Y-104272481D01*
X137162481Y-104391015D01*
X137023100Y-104484147D01*
X136868228Y-104548297D01*
X136703816Y-104581000D01*
X136536184Y-104581000D01*
X136371772Y-104548297D01*
X136216900Y-104484147D01*
X136077519Y-104391015D01*
X135958985Y-104272481D01*
X135865853Y-104133100D01*
X135801703Y-103978228D01*
X135769000Y-103813816D01*
X135769000Y-103646184D01*
X135801703Y-103481772D01*
X135865853Y-103326900D01*
X135958985Y-103187519D01*
X136077519Y-103068985D01*
X136216900Y-102975853D01*
X136371772Y-102911703D01*
X136536184Y-102879000D01*
X136703816Y-102879000D01*
X136868228Y-102911703D01*
X136868228Y-102911703D01*
G37*
G36*
X121628228Y-102911703D02*
G01*
X121783100Y-102975853D01*
X121922481Y-103068985D01*
X122041015Y-103187519D01*
X122134147Y-103326900D01*
X122198297Y-103481772D01*
X122231000Y-103646184D01*
X122231000Y-103813816D01*
X122198297Y-103978228D01*
X122134147Y-104133100D01*
X122041015Y-104272481D01*
X121922481Y-104391015D01*
X121783100Y-104484147D01*
X121628228Y-104548297D01*
X121463816Y-104581000D01*
X121296184Y-104581000D01*
X121131772Y-104548297D01*
X120976900Y-104484147D01*
X120837519Y-104391015D01*
X120718985Y-104272481D01*
X120625853Y-104133100D01*
X120561703Y-103978228D01*
X120529000Y-103813816D01*
X120529000Y-103646184D01*
X120561703Y-103481772D01*
X120625853Y-103326900D01*
X120718985Y-103187519D01*
X120837519Y-103068985D01*
X120976900Y-102975853D01*
X121131772Y-102911703D01*
X121296184Y-102879000D01*
X121463816Y-102879000D01*
X121628228Y-102911703D01*
X121628228Y-102911703D01*
G37*
G36*
X151476031Y-100964207D02*
G01*
X151674145Y-101024305D01*
X151674148Y-101024306D01*
X151694510Y-101035190D01*
X151856729Y-101121897D01*
X152016765Y-101253235D01*
X152148103Y-101413271D01*
X152161443Y-101438229D01*
X152245694Y-101595851D01*
X152245694Y-101595852D01*
X152245695Y-101595854D01*
X152305793Y-101793968D01*
X152321000Y-101948370D01*
X152321000Y-103051630D01*
X152305793Y-103206032D01*
X152245695Y-103404146D01*
X152245694Y-103404149D01*
X152232576Y-103428690D01*
X152148103Y-103586729D01*
X152016765Y-103746765D01*
X151856729Y-103878103D01*
X151770975Y-103923939D01*
X151674149Y-103975694D01*
X151674146Y-103975695D01*
X151476032Y-104035793D01*
X151270000Y-104056085D01*
X151063969Y-104035793D01*
X150865855Y-103975695D01*
X150865852Y-103975694D01*
X150769026Y-103923939D01*
X150683272Y-103878103D01*
X150523236Y-103746765D01*
X150391898Y-103586729D01*
X150369184Y-103544235D01*
X150294305Y-103404147D01*
X150234207Y-103206030D01*
X150219000Y-103051631D01*
X150219000Y-101948370D01*
X150234207Y-101793971D01*
X150234207Y-101793969D01*
X150294305Y-101595855D01*
X150294306Y-101595852D01*
X150342969Y-101504810D01*
X150391897Y-101413271D01*
X150523235Y-101253235D01*
X150683271Y-101121897D01*
X150845489Y-101035190D01*
X150865851Y-101024306D01*
X150865854Y-101024305D01*
X151063968Y-100964207D01*
X151270000Y-100943915D01*
X151476031Y-100964207D01*
X151476031Y-100964207D01*
G37*
G36*
X156556031Y-100964207D02*
G01*
X156754145Y-101024305D01*
X156754148Y-101024306D01*
X156774510Y-101035190D01*
X156936729Y-101121897D01*
X157096765Y-101253235D01*
X157228103Y-101413271D01*
X157241443Y-101438229D01*
X157325694Y-101595851D01*
X157325694Y-101595852D01*
X157325695Y-101595854D01*
X157385793Y-101793968D01*
X157401000Y-101948370D01*
X157401000Y-103051630D01*
X157385793Y-103206032D01*
X157325695Y-103404146D01*
X157325694Y-103404149D01*
X157312576Y-103428690D01*
X157228103Y-103586729D01*
X157096765Y-103746765D01*
X156936729Y-103878103D01*
X156850975Y-103923939D01*
X156754149Y-103975694D01*
X156754146Y-103975695D01*
X156556032Y-104035793D01*
X156350000Y-104056085D01*
X156143969Y-104035793D01*
X155945855Y-103975695D01*
X155945852Y-103975694D01*
X155849026Y-103923939D01*
X155763272Y-103878103D01*
X155603236Y-103746765D01*
X155471898Y-103586729D01*
X155449184Y-103544235D01*
X155374305Y-103404147D01*
X155314207Y-103206030D01*
X155299000Y-103051631D01*
X155299000Y-101948370D01*
X155314207Y-101793971D01*
X155314207Y-101793969D01*
X155374305Y-101595855D01*
X155374306Y-101595852D01*
X155422969Y-101504810D01*
X155471897Y-101413271D01*
X155603235Y-101253235D01*
X155763271Y-101121897D01*
X155925489Y-101035190D01*
X155945851Y-101024306D01*
X155945854Y-101024305D01*
X156143968Y-100964207D01*
X156350000Y-100943915D01*
X156556031Y-100964207D01*
X156556031Y-100964207D01*
G37*
G36*
X148936031Y-100964207D02*
G01*
X149134145Y-101024305D01*
X149134148Y-101024306D01*
X149154510Y-101035190D01*
X149316729Y-101121897D01*
X149476765Y-101253235D01*
X149608103Y-101413271D01*
X149621443Y-101438229D01*
X149705694Y-101595851D01*
X149705694Y-101595852D01*
X149705695Y-101595854D01*
X149765793Y-101793968D01*
X149781000Y-101948370D01*
X149781000Y-103051630D01*
X149765793Y-103206032D01*
X149705695Y-103404146D01*
X149705694Y-103404149D01*
X149692576Y-103428690D01*
X149608103Y-103586729D01*
X149476765Y-103746765D01*
X149316729Y-103878103D01*
X149230975Y-103923939D01*
X149134149Y-103975694D01*
X149134146Y-103975695D01*
X148936032Y-104035793D01*
X148730000Y-104056085D01*
X148523969Y-104035793D01*
X148325855Y-103975695D01*
X148325852Y-103975694D01*
X148229026Y-103923939D01*
X148143272Y-103878103D01*
X147983236Y-103746765D01*
X147851898Y-103586729D01*
X147829184Y-103544235D01*
X147754305Y-103404147D01*
X147694207Y-103206030D01*
X147679000Y-103051631D01*
X147679000Y-101948370D01*
X147694207Y-101793971D01*
X147694207Y-101793969D01*
X147754305Y-101595855D01*
X147754306Y-101595852D01*
X147802969Y-101504810D01*
X147851897Y-101413271D01*
X147983235Y-101253235D01*
X148143271Y-101121897D01*
X148305489Y-101035190D01*
X148325851Y-101024306D01*
X148325854Y-101024305D01*
X148523968Y-100964207D01*
X148730000Y-100943915D01*
X148936031Y-100964207D01*
X148936031Y-100964207D01*
G37*
G36*
X154016031Y-100964207D02*
G01*
X154214145Y-101024305D01*
X154214148Y-101024306D01*
X154234510Y-101035190D01*
X154396729Y-101121897D01*
X154556765Y-101253235D01*
X154688103Y-101413271D01*
X154701443Y-101438229D01*
X154785694Y-101595851D01*
X154785694Y-101595852D01*
X154785695Y-101595854D01*
X154845793Y-101793968D01*
X154861000Y-101948370D01*
X154861000Y-103051630D01*
X154845793Y-103206032D01*
X154785695Y-103404146D01*
X154785694Y-103404149D01*
X154772576Y-103428690D01*
X154688103Y-103586729D01*
X154556765Y-103746765D01*
X154396729Y-103878103D01*
X154310975Y-103923939D01*
X154214149Y-103975694D01*
X154214146Y-103975695D01*
X154016032Y-104035793D01*
X153810000Y-104056085D01*
X153603969Y-104035793D01*
X153405855Y-103975695D01*
X153405852Y-103975694D01*
X153309026Y-103923939D01*
X153223272Y-103878103D01*
X153063236Y-103746765D01*
X152931898Y-103586729D01*
X152909184Y-103544235D01*
X152834305Y-103404147D01*
X152774207Y-103206030D01*
X152759000Y-103051631D01*
X152759000Y-101948370D01*
X152774207Y-101793971D01*
X152774207Y-101793969D01*
X152834305Y-101595855D01*
X152834306Y-101595852D01*
X152882969Y-101504810D01*
X152931897Y-101413271D01*
X153063235Y-101253235D01*
X153223271Y-101121897D01*
X153385489Y-101035190D01*
X153405851Y-101024306D01*
X153405854Y-101024305D01*
X153603968Y-100964207D01*
X153810000Y-100943915D01*
X154016031Y-100964207D01*
X154016031Y-100964207D01*
G37*
G36*
X146396031Y-100964207D02*
G01*
X146594145Y-101024305D01*
X146594148Y-101024306D01*
X146614510Y-101035190D01*
X146776729Y-101121897D01*
X146936765Y-101253235D01*
X147068103Y-101413271D01*
X147081443Y-101438229D01*
X147165694Y-101595851D01*
X147165694Y-101595852D01*
X147165695Y-101595854D01*
X147225793Y-101793968D01*
X147241000Y-101948370D01*
X147241000Y-103051630D01*
X147225793Y-103206032D01*
X147165695Y-103404146D01*
X147165694Y-103404149D01*
X147152576Y-103428690D01*
X147068103Y-103586729D01*
X146936765Y-103746765D01*
X146776729Y-103878103D01*
X146690975Y-103923939D01*
X146594149Y-103975694D01*
X146594146Y-103975695D01*
X146396032Y-104035793D01*
X146190000Y-104056085D01*
X145983969Y-104035793D01*
X145785855Y-103975695D01*
X145785852Y-103975694D01*
X145689026Y-103923939D01*
X145603272Y-103878103D01*
X145443236Y-103746765D01*
X145311898Y-103586729D01*
X145289184Y-103544235D01*
X145214305Y-103404147D01*
X145154207Y-103206030D01*
X145139000Y-103051631D01*
X145139000Y-101948370D01*
X145154207Y-101793971D01*
X145154207Y-101793969D01*
X145214305Y-101595855D01*
X145214306Y-101595852D01*
X145262969Y-101504810D01*
X145311897Y-101413271D01*
X145443235Y-101253235D01*
X145603271Y-101121897D01*
X145765489Y-101035190D01*
X145785851Y-101024306D01*
X145785854Y-101024305D01*
X145983968Y-100964207D01*
X146190000Y-100943915D01*
X146396031Y-100964207D01*
X146396031Y-100964207D01*
G37*
G36*
X143856031Y-100964207D02*
G01*
X144054145Y-101024305D01*
X144054148Y-101024306D01*
X144074510Y-101035190D01*
X144236729Y-101121897D01*
X144396765Y-101253235D01*
X144528103Y-101413271D01*
X144541443Y-101438229D01*
X144625694Y-101595851D01*
X144625694Y-101595852D01*
X144625695Y-101595854D01*
X144685793Y-101793968D01*
X144701000Y-101948370D01*
X144701000Y-103051630D01*
X144685793Y-103206032D01*
X144625695Y-103404146D01*
X144625694Y-103404149D01*
X144612576Y-103428690D01*
X144528103Y-103586729D01*
X144396765Y-103746765D01*
X144236729Y-103878103D01*
X144150975Y-103923939D01*
X144054149Y-103975694D01*
X144054146Y-103975695D01*
X143856032Y-104035793D01*
X143650000Y-104056085D01*
X143443969Y-104035793D01*
X143245855Y-103975695D01*
X143245852Y-103975694D01*
X143149026Y-103923939D01*
X143063272Y-103878103D01*
X142903236Y-103746765D01*
X142771898Y-103586729D01*
X142749184Y-103544235D01*
X142674305Y-103404147D01*
X142614207Y-103206030D01*
X142599000Y-103051631D01*
X142599000Y-101948370D01*
X142614207Y-101793971D01*
X142614207Y-101793969D01*
X142674305Y-101595855D01*
X142674306Y-101595852D01*
X142722969Y-101504810D01*
X142771897Y-101413271D01*
X142903235Y-101253235D01*
X143063271Y-101121897D01*
X143225489Y-101035190D01*
X143245851Y-101024306D01*
X143245854Y-101024305D01*
X143443968Y-100964207D01*
X143650000Y-100943915D01*
X143856031Y-100964207D01*
X143856031Y-100964207D01*
G37*
G36*
X98629591Y-102440585D02*
G01*
X98663569Y-102450893D01*
X98694890Y-102467634D01*
X98722339Y-102490161D01*
X98744866Y-102517610D01*
X98761607Y-102548931D01*
X98771915Y-102582909D01*
X98776000Y-102624390D01*
X98776000Y-103225610D01*
X98771915Y-103267091D01*
X98761607Y-103301069D01*
X98744866Y-103332390D01*
X98722339Y-103359839D01*
X98694890Y-103382366D01*
X98663569Y-103399107D01*
X98629591Y-103409415D01*
X98588110Y-103413500D01*
X97911890Y-103413500D01*
X97870409Y-103409415D01*
X97836431Y-103399107D01*
X97805110Y-103382366D01*
X97777661Y-103359839D01*
X97755134Y-103332390D01*
X97738393Y-103301069D01*
X97728085Y-103267091D01*
X97724000Y-103225610D01*
X97724000Y-102624390D01*
X97728085Y-102582909D01*
X97738393Y-102548931D01*
X97755134Y-102517610D01*
X97777661Y-102490161D01*
X97805110Y-102467634D01*
X97836431Y-102450893D01*
X97870409Y-102440585D01*
X97911890Y-102436500D01*
X98588110Y-102436500D01*
X98629591Y-102440585D01*
X98629591Y-102440585D01*
G37*
G36*
X199407747Y-101730921D02*
G01*
X199487376Y-101738764D01*
X199633717Y-101783156D01*
X199640630Y-101785253D01*
X199781863Y-101860744D01*
X199905659Y-101962341D01*
X200007256Y-102086137D01*
X200082747Y-102227370D01*
X200082748Y-102227373D01*
X200129236Y-102380624D01*
X200144933Y-102540000D01*
X200129236Y-102699376D01*
X200082748Y-102852627D01*
X200082747Y-102852630D01*
X200007256Y-102993863D01*
X199905659Y-103117659D01*
X199781863Y-103219256D01*
X199640630Y-103294747D01*
X199640627Y-103294748D01*
X199487376Y-103341236D01*
X199407747Y-103349079D01*
X199367934Y-103353000D01*
X198312066Y-103353000D01*
X198272253Y-103349079D01*
X198192624Y-103341236D01*
X198039373Y-103294748D01*
X198039370Y-103294747D01*
X197898137Y-103219256D01*
X197774341Y-103117659D01*
X197672744Y-102993863D01*
X197597253Y-102852630D01*
X197597252Y-102852627D01*
X197550764Y-102699376D01*
X197535067Y-102540000D01*
X197550764Y-102380624D01*
X197597252Y-102227373D01*
X197597253Y-102227370D01*
X197672744Y-102086137D01*
X197774341Y-101962341D01*
X197898137Y-101860744D01*
X198039370Y-101785253D01*
X198046283Y-101783156D01*
X198192624Y-101738764D01*
X198272253Y-101730921D01*
X198312066Y-101727000D01*
X199367934Y-101727000D01*
X199407747Y-101730921D01*
X199407747Y-101730921D01*
G37*
G36*
X168757747Y-101730921D02*
G01*
X168837376Y-101738764D01*
X168983717Y-101783156D01*
X168990630Y-101785253D01*
X169131863Y-101860744D01*
X169255659Y-101962341D01*
X169357256Y-102086137D01*
X169432747Y-102227370D01*
X169432748Y-102227373D01*
X169479236Y-102380624D01*
X169494933Y-102540000D01*
X169479236Y-102699376D01*
X169432748Y-102852627D01*
X169432747Y-102852630D01*
X169357256Y-102993863D01*
X169255659Y-103117659D01*
X169131863Y-103219256D01*
X168990630Y-103294747D01*
X168990627Y-103294748D01*
X168837376Y-103341236D01*
X168757747Y-103349079D01*
X168717934Y-103353000D01*
X167662066Y-103353000D01*
X167622253Y-103349079D01*
X167542624Y-103341236D01*
X167389373Y-103294748D01*
X167389370Y-103294747D01*
X167248137Y-103219256D01*
X167124341Y-103117659D01*
X167022744Y-102993863D01*
X166947253Y-102852630D01*
X166947252Y-102852627D01*
X166900764Y-102699376D01*
X166885067Y-102540000D01*
X166900764Y-102380624D01*
X166947252Y-102227373D01*
X166947253Y-102227370D01*
X167022744Y-102086137D01*
X167124341Y-101962341D01*
X167248137Y-101860744D01*
X167389370Y-101785253D01*
X167396283Y-101783156D01*
X167542624Y-101738764D01*
X167622253Y-101730921D01*
X167662066Y-101727000D01*
X168717934Y-101727000D01*
X168757747Y-101730921D01*
X168757747Y-101730921D01*
G37*
G36*
X176377747Y-101730921D02*
G01*
X176457376Y-101738764D01*
X176603717Y-101783156D01*
X176610630Y-101785253D01*
X176751863Y-101860744D01*
X176875659Y-101962341D01*
X176977256Y-102086137D01*
X177052747Y-102227370D01*
X177052748Y-102227373D01*
X177099236Y-102380624D01*
X177114933Y-102540000D01*
X177099236Y-102699376D01*
X177052748Y-102852627D01*
X177052747Y-102852630D01*
X176977256Y-102993863D01*
X176875659Y-103117659D01*
X176751863Y-103219256D01*
X176610630Y-103294747D01*
X176610627Y-103294748D01*
X176457376Y-103341236D01*
X176377747Y-103349079D01*
X176337934Y-103353000D01*
X175282066Y-103353000D01*
X175242253Y-103349079D01*
X175162624Y-103341236D01*
X175009373Y-103294748D01*
X175009370Y-103294747D01*
X174868137Y-103219256D01*
X174744341Y-103117659D01*
X174642744Y-102993863D01*
X174567253Y-102852630D01*
X174567252Y-102852627D01*
X174520764Y-102699376D01*
X174505067Y-102540000D01*
X174520764Y-102380624D01*
X174567252Y-102227373D01*
X174567253Y-102227370D01*
X174642744Y-102086137D01*
X174744341Y-101962341D01*
X174868137Y-101860744D01*
X175009370Y-101785253D01*
X175016283Y-101783156D01*
X175162624Y-101738764D01*
X175242253Y-101730921D01*
X175282066Y-101727000D01*
X176337934Y-101727000D01*
X176377747Y-101730921D01*
X176377747Y-101730921D01*
G37*
G36*
X101727747Y-101730921D02*
G01*
X101807376Y-101738764D01*
X101953717Y-101783156D01*
X101960630Y-101785253D01*
X102101863Y-101860744D01*
X102225659Y-101962341D01*
X102327256Y-102086137D01*
X102402747Y-102227370D01*
X102402748Y-102227373D01*
X102449236Y-102380624D01*
X102464933Y-102540000D01*
X102449236Y-102699376D01*
X102402748Y-102852627D01*
X102402747Y-102852630D01*
X102327256Y-102993863D01*
X102225659Y-103117659D01*
X102101863Y-103219256D01*
X101960630Y-103294747D01*
X101960627Y-103294748D01*
X101807376Y-103341236D01*
X101727747Y-103349079D01*
X101687934Y-103353000D01*
X100632066Y-103353000D01*
X100592253Y-103349079D01*
X100512624Y-103341236D01*
X100359373Y-103294748D01*
X100359370Y-103294747D01*
X100218137Y-103219256D01*
X100094341Y-103117659D01*
X99992744Y-102993863D01*
X99917253Y-102852630D01*
X99917252Y-102852627D01*
X99870764Y-102699376D01*
X99855067Y-102540000D01*
X99870764Y-102380624D01*
X99917252Y-102227373D01*
X99917253Y-102227370D01*
X99992744Y-102086137D01*
X100094341Y-101962341D01*
X100218137Y-101860744D01*
X100359370Y-101785253D01*
X100366283Y-101783156D01*
X100512624Y-101738764D01*
X100592253Y-101730921D01*
X100632066Y-101727000D01*
X101687934Y-101727000D01*
X101727747Y-101730921D01*
X101727747Y-101730921D01*
G37*
G36*
X115504810Y-100495935D02*
G01*
X115651309Y-100556617D01*
X115651310Y-100556618D01*
X115783158Y-100644716D01*
X115895284Y-100756842D01*
X115895285Y-100756844D01*
X115983383Y-100888691D01*
X116044065Y-101035190D01*
X116075000Y-101190713D01*
X116075000Y-101349287D01*
X116044065Y-101504810D01*
X115983383Y-101651309D01*
X115983382Y-101651310D01*
X115895284Y-101783158D01*
X115783158Y-101895284D01*
X115716785Y-101939633D01*
X115651309Y-101983383D01*
X115504810Y-102044065D01*
X115349287Y-102075000D01*
X115190713Y-102075000D01*
X115035190Y-102044065D01*
X114888691Y-101983383D01*
X114823215Y-101939633D01*
X114756842Y-101895284D01*
X114644716Y-101783158D01*
X114556618Y-101651310D01*
X114556617Y-101651309D01*
X114495935Y-101504810D01*
X114465000Y-101349287D01*
X114465000Y-101190713D01*
X114495935Y-101035190D01*
X114556617Y-100888691D01*
X114644715Y-100756844D01*
X114644716Y-100756842D01*
X114756842Y-100644716D01*
X114888690Y-100556618D01*
X114888691Y-100556617D01*
X115035190Y-100495935D01*
X115190713Y-100465000D01*
X115349287Y-100465000D01*
X115504810Y-100495935D01*
X115504810Y-100495935D01*
G37*
G36*
X112964810Y-100495935D02*
G01*
X113111309Y-100556617D01*
X113111310Y-100556618D01*
X113243158Y-100644716D01*
X113355284Y-100756842D01*
X113355285Y-100756844D01*
X113443383Y-100888691D01*
X113504065Y-101035190D01*
X113535000Y-101190713D01*
X113535000Y-101349287D01*
X113504065Y-101504810D01*
X113443383Y-101651309D01*
X113443382Y-101651310D01*
X113355284Y-101783158D01*
X113243158Y-101895284D01*
X113176785Y-101939633D01*
X113111309Y-101983383D01*
X112964810Y-102044065D01*
X112809287Y-102075000D01*
X112650713Y-102075000D01*
X112495190Y-102044065D01*
X112348691Y-101983383D01*
X112283215Y-101939633D01*
X112216842Y-101895284D01*
X112104716Y-101783158D01*
X112016618Y-101651310D01*
X112016617Y-101651309D01*
X111955935Y-101504810D01*
X111925000Y-101349287D01*
X111925000Y-101190713D01*
X111955935Y-101035190D01*
X112016617Y-100888691D01*
X112104715Y-100756844D01*
X112104716Y-100756842D01*
X112216842Y-100644716D01*
X112348690Y-100556618D01*
X112348691Y-100556617D01*
X112495190Y-100495935D01*
X112650713Y-100465000D01*
X112809287Y-100465000D01*
X112964810Y-100495935D01*
X112964810Y-100495935D01*
G37*
G36*
X136868228Y-100371703D02*
G01*
X137023100Y-100435853D01*
X137162481Y-100528985D01*
X137281015Y-100647519D01*
X137374147Y-100786900D01*
X137438297Y-100941772D01*
X137471000Y-101106184D01*
X137471000Y-101273816D01*
X137438297Y-101438228D01*
X137374147Y-101593100D01*
X137281015Y-101732481D01*
X137162481Y-101851015D01*
X137023100Y-101944147D01*
X136868228Y-102008297D01*
X136703816Y-102041000D01*
X136536184Y-102041000D01*
X136371772Y-102008297D01*
X136216900Y-101944147D01*
X136077519Y-101851015D01*
X135958985Y-101732481D01*
X135865853Y-101593100D01*
X135801703Y-101438228D01*
X135769000Y-101273816D01*
X135769000Y-101106184D01*
X135801703Y-100941772D01*
X135865853Y-100786900D01*
X135958985Y-100647519D01*
X136077519Y-100528985D01*
X136216900Y-100435853D01*
X136371772Y-100371703D01*
X136536184Y-100339000D01*
X136703816Y-100339000D01*
X136868228Y-100371703D01*
X136868228Y-100371703D01*
G37*
G36*
X121628228Y-100371703D02*
G01*
X121783100Y-100435853D01*
X121922481Y-100528985D01*
X122041015Y-100647519D01*
X122134147Y-100786900D01*
X122198297Y-100941772D01*
X122231000Y-101106184D01*
X122231000Y-101273816D01*
X122198297Y-101438228D01*
X122134147Y-101593100D01*
X122041015Y-101732481D01*
X121922481Y-101851015D01*
X121783100Y-101944147D01*
X121628228Y-102008297D01*
X121463816Y-102041000D01*
X121296184Y-102041000D01*
X121131772Y-102008297D01*
X120976900Y-101944147D01*
X120837519Y-101851015D01*
X120718985Y-101732481D01*
X120625853Y-101593100D01*
X120561703Y-101438228D01*
X120529000Y-101273816D01*
X120529000Y-101106184D01*
X120561703Y-100941772D01*
X120625853Y-100786900D01*
X120718985Y-100647519D01*
X120837519Y-100528985D01*
X120976900Y-100435853D01*
X121131772Y-100371703D01*
X121296184Y-100339000D01*
X121463816Y-100339000D01*
X121628228Y-100371703D01*
X121628228Y-100371703D01*
G37*
G36*
X134328228Y-100371703D02*
G01*
X134483100Y-100435853D01*
X134622481Y-100528985D01*
X134741015Y-100647519D01*
X134834147Y-100786900D01*
X134898297Y-100941772D01*
X134931000Y-101106184D01*
X134931000Y-101273816D01*
X134898297Y-101438228D01*
X134834147Y-101593100D01*
X134741015Y-101732481D01*
X134622481Y-101851015D01*
X134483100Y-101944147D01*
X134328228Y-102008297D01*
X134163816Y-102041000D01*
X133996184Y-102041000D01*
X133831772Y-102008297D01*
X133676900Y-101944147D01*
X133537519Y-101851015D01*
X133418985Y-101732481D01*
X133325853Y-101593100D01*
X133261703Y-101438228D01*
X133229000Y-101273816D01*
X133229000Y-101106184D01*
X133261703Y-100941772D01*
X133325853Y-100786900D01*
X133418985Y-100647519D01*
X133537519Y-100528985D01*
X133676900Y-100435853D01*
X133831772Y-100371703D01*
X133996184Y-100339000D01*
X134163816Y-100339000D01*
X134328228Y-100371703D01*
X134328228Y-100371703D01*
G37*
G36*
X176377747Y-99190921D02*
G01*
X176457376Y-99198764D01*
X176601858Y-99242592D01*
X176610630Y-99245253D01*
X176751863Y-99320744D01*
X176875659Y-99422341D01*
X176977256Y-99546137D01*
X177052747Y-99687370D01*
X177052748Y-99687373D01*
X177099236Y-99840624D01*
X177114933Y-100000000D01*
X177099236Y-100159376D01*
X177052748Y-100312627D01*
X177052747Y-100312630D01*
X176977256Y-100453863D01*
X176875659Y-100577659D01*
X176751863Y-100679256D01*
X176610630Y-100754747D01*
X176610627Y-100754748D01*
X176457376Y-100801236D01*
X176377747Y-100809079D01*
X176337934Y-100813000D01*
X175282066Y-100813000D01*
X175242253Y-100809079D01*
X175162624Y-100801236D01*
X175009373Y-100754748D01*
X175009370Y-100754747D01*
X174868137Y-100679256D01*
X174744341Y-100577659D01*
X174642744Y-100453863D01*
X174567253Y-100312630D01*
X174567252Y-100312627D01*
X174520764Y-100159376D01*
X174505067Y-100000000D01*
X174520764Y-99840624D01*
X174567252Y-99687373D01*
X174567253Y-99687370D01*
X174642744Y-99546137D01*
X174744341Y-99422341D01*
X174868137Y-99320744D01*
X175009370Y-99245253D01*
X175018142Y-99242592D01*
X175162624Y-99198764D01*
X175242253Y-99190921D01*
X175282066Y-99187000D01*
X176337934Y-99187000D01*
X176377747Y-99190921D01*
X176377747Y-99190921D01*
G37*
G36*
X101727747Y-99190921D02*
G01*
X101807376Y-99198764D01*
X101951858Y-99242592D01*
X101960630Y-99245253D01*
X102101863Y-99320744D01*
X102225659Y-99422341D01*
X102327256Y-99546137D01*
X102402747Y-99687370D01*
X102402748Y-99687373D01*
X102449236Y-99840624D01*
X102464933Y-100000000D01*
X102449236Y-100159376D01*
X102402748Y-100312627D01*
X102402747Y-100312630D01*
X102327256Y-100453863D01*
X102225659Y-100577659D01*
X102101863Y-100679256D01*
X101960630Y-100754747D01*
X101960627Y-100754748D01*
X101807376Y-100801236D01*
X101727747Y-100809079D01*
X101687934Y-100813000D01*
X100632066Y-100813000D01*
X100592253Y-100809079D01*
X100512624Y-100801236D01*
X100359373Y-100754748D01*
X100359370Y-100754747D01*
X100218137Y-100679256D01*
X100094341Y-100577659D01*
X99992744Y-100453863D01*
X99917253Y-100312630D01*
X99917252Y-100312627D01*
X99870764Y-100159376D01*
X99855067Y-100000000D01*
X99870764Y-99840624D01*
X99917252Y-99687373D01*
X99917253Y-99687370D01*
X99992744Y-99546137D01*
X100094341Y-99422341D01*
X100218137Y-99320744D01*
X100359370Y-99245253D01*
X100368142Y-99242592D01*
X100512624Y-99198764D01*
X100592253Y-99190921D01*
X100632066Y-99187000D01*
X101687934Y-99187000D01*
X101727747Y-99190921D01*
X101727747Y-99190921D01*
G37*
G36*
X168757747Y-99190921D02*
G01*
X168837376Y-99198764D01*
X168981858Y-99242592D01*
X168990630Y-99245253D01*
X169131863Y-99320744D01*
X169255659Y-99422341D01*
X169357256Y-99546137D01*
X169432747Y-99687370D01*
X169432748Y-99687373D01*
X169479236Y-99840624D01*
X169494933Y-100000000D01*
X169479236Y-100159376D01*
X169432748Y-100312627D01*
X169432747Y-100312630D01*
X169357256Y-100453863D01*
X169255659Y-100577659D01*
X169131863Y-100679256D01*
X168990630Y-100754747D01*
X168990627Y-100754748D01*
X168837376Y-100801236D01*
X168757747Y-100809079D01*
X168717934Y-100813000D01*
X167662066Y-100813000D01*
X167622253Y-100809079D01*
X167542624Y-100801236D01*
X167389373Y-100754748D01*
X167389370Y-100754747D01*
X167248137Y-100679256D01*
X167124341Y-100577659D01*
X167022744Y-100453863D01*
X166947253Y-100312630D01*
X166947252Y-100312627D01*
X166900764Y-100159376D01*
X166885067Y-100000000D01*
X166900764Y-99840624D01*
X166947252Y-99687373D01*
X166947253Y-99687370D01*
X167022744Y-99546137D01*
X167124341Y-99422341D01*
X167248137Y-99320744D01*
X167389370Y-99245253D01*
X167398142Y-99242592D01*
X167542624Y-99198764D01*
X167622253Y-99190921D01*
X167662066Y-99187000D01*
X168717934Y-99187000D01*
X168757747Y-99190921D01*
X168757747Y-99190921D01*
G37*
G36*
X199407747Y-99190921D02*
G01*
X199487376Y-99198764D01*
X199631858Y-99242592D01*
X199640630Y-99245253D01*
X199781863Y-99320744D01*
X199905659Y-99422341D01*
X200007256Y-99546137D01*
X200082747Y-99687370D01*
X200082748Y-99687373D01*
X200129236Y-99840624D01*
X200144933Y-100000000D01*
X200129236Y-100159376D01*
X200082748Y-100312627D01*
X200082747Y-100312630D01*
X200007256Y-100453863D01*
X199905659Y-100577659D01*
X199781863Y-100679256D01*
X199640630Y-100754747D01*
X199640627Y-100754748D01*
X199487376Y-100801236D01*
X199407747Y-100809079D01*
X199367934Y-100813000D01*
X198312066Y-100813000D01*
X198272253Y-100809079D01*
X198192624Y-100801236D01*
X198039373Y-100754748D01*
X198039370Y-100754747D01*
X197898137Y-100679256D01*
X197774341Y-100577659D01*
X197672744Y-100453863D01*
X197597253Y-100312630D01*
X197597252Y-100312627D01*
X197550764Y-100159376D01*
X197535067Y-100000000D01*
X197550764Y-99840624D01*
X197597252Y-99687373D01*
X197597253Y-99687370D01*
X197672744Y-99546137D01*
X197774341Y-99422341D01*
X197898137Y-99320744D01*
X198039370Y-99245253D01*
X198048142Y-99242592D01*
X198192624Y-99198764D01*
X198272253Y-99190921D01*
X198312066Y-99187000D01*
X199367934Y-99187000D01*
X199407747Y-99190921D01*
X199407747Y-99190921D01*
G37*
G36*
X147342091Y-99228085D02*
G01*
X147376069Y-99238393D01*
X147407390Y-99255134D01*
X147434839Y-99277661D01*
X147457366Y-99305110D01*
X147474107Y-99336431D01*
X147484415Y-99370409D01*
X147488500Y-99411890D01*
X147488500Y-100088110D01*
X147484415Y-100129591D01*
X147474107Y-100163569D01*
X147457366Y-100194890D01*
X147434839Y-100222339D01*
X147407390Y-100244866D01*
X147376069Y-100261607D01*
X147342091Y-100271915D01*
X147300610Y-100276000D01*
X146699390Y-100276000D01*
X146657909Y-100271915D01*
X146623931Y-100261607D01*
X146592610Y-100244866D01*
X146565161Y-100222339D01*
X146542634Y-100194890D01*
X146525893Y-100163569D01*
X146515585Y-100129591D01*
X146511500Y-100088110D01*
X146511500Y-99411890D01*
X146515585Y-99370409D01*
X146525893Y-99336431D01*
X146542634Y-99305110D01*
X146565161Y-99277661D01*
X146592610Y-99255134D01*
X146623931Y-99238393D01*
X146657909Y-99228085D01*
X146699390Y-99224000D01*
X147300610Y-99224000D01*
X147342091Y-99228085D01*
X147342091Y-99228085D01*
G37*
G36*
X145767091Y-99228085D02*
G01*
X145801069Y-99238393D01*
X145832390Y-99255134D01*
X145859839Y-99277661D01*
X145882366Y-99305110D01*
X145899107Y-99336431D01*
X145909415Y-99370409D01*
X145913500Y-99411890D01*
X145913500Y-100088110D01*
X145909415Y-100129591D01*
X145899107Y-100163569D01*
X145882366Y-100194890D01*
X145859839Y-100222339D01*
X145832390Y-100244866D01*
X145801069Y-100261607D01*
X145767091Y-100271915D01*
X145725610Y-100276000D01*
X145124390Y-100276000D01*
X145082909Y-100271915D01*
X145048931Y-100261607D01*
X145017610Y-100244866D01*
X144990161Y-100222339D01*
X144967634Y-100194890D01*
X144950893Y-100163569D01*
X144940585Y-100129591D01*
X144936500Y-100088110D01*
X144936500Y-99411890D01*
X144940585Y-99370409D01*
X144950893Y-99336431D01*
X144967634Y-99305110D01*
X144990161Y-99277661D01*
X145017610Y-99255134D01*
X145048931Y-99238393D01*
X145082909Y-99228085D01*
X145124390Y-99224000D01*
X145725610Y-99224000D01*
X145767091Y-99228085D01*
X145767091Y-99228085D01*
G37*
G36*
X129195285Y-97668234D02*
G01*
X129291981Y-97687468D01*
X129474151Y-97762926D01*
X129638100Y-97872473D01*
X129777527Y-98011900D01*
X129887074Y-98175849D01*
X129962532Y-98358019D01*
X130001000Y-98551410D01*
X130001000Y-98748590D01*
X129962532Y-98941981D01*
X129916506Y-99053097D01*
X129892394Y-99111309D01*
X129887074Y-99124151D01*
X129777527Y-99288100D01*
X129638100Y-99427527D01*
X129474151Y-99537074D01*
X129291981Y-99612532D01*
X129098591Y-99651000D01*
X128901409Y-99651000D01*
X128804715Y-99631766D01*
X128708019Y-99612532D01*
X128525849Y-99537074D01*
X128361900Y-99427527D01*
X128222473Y-99288100D01*
X128112926Y-99124151D01*
X128107607Y-99111309D01*
X128083494Y-99053097D01*
X128037468Y-98941981D01*
X127999000Y-98748590D01*
X127999000Y-98551410D01*
X128037468Y-98358019D01*
X128112926Y-98175849D01*
X128222473Y-98011900D01*
X128361900Y-97872473D01*
X128525849Y-97762926D01*
X128708019Y-97687468D01*
X128804715Y-97668234D01*
X128901409Y-97649000D01*
X129098591Y-97649000D01*
X129195285Y-97668234D01*
X129195285Y-97668234D01*
G37*
G36*
X112964810Y-97955935D02*
G01*
X113111309Y-98016617D01*
X113111310Y-98016618D01*
X113243158Y-98104716D01*
X113355284Y-98216842D01*
X113355285Y-98216844D01*
X113443383Y-98348691D01*
X113504065Y-98495190D01*
X113535000Y-98650713D01*
X113535000Y-98809287D01*
X113504065Y-98964810D01*
X113443383Y-99111309D01*
X113434802Y-99124151D01*
X113355284Y-99243158D01*
X113243158Y-99355284D01*
X113220522Y-99370409D01*
X113111309Y-99443383D01*
X112964810Y-99504065D01*
X112809287Y-99535000D01*
X112650713Y-99535000D01*
X112495190Y-99504065D01*
X112348691Y-99443383D01*
X112239478Y-99370409D01*
X112216842Y-99355284D01*
X112104716Y-99243158D01*
X112025198Y-99124151D01*
X112016617Y-99111309D01*
X111955935Y-98964810D01*
X111925000Y-98809287D01*
X111925000Y-98650713D01*
X111955935Y-98495190D01*
X112016617Y-98348691D01*
X112104715Y-98216844D01*
X112104716Y-98216842D01*
X112216842Y-98104716D01*
X112348690Y-98016618D01*
X112348691Y-98016617D01*
X112495190Y-97955935D01*
X112650713Y-97925000D01*
X112809287Y-97925000D01*
X112964810Y-97955935D01*
X112964810Y-97955935D01*
G37*
G36*
X115504810Y-97955935D02*
G01*
X115651309Y-98016617D01*
X115651310Y-98016618D01*
X115783158Y-98104716D01*
X115895284Y-98216842D01*
X115895285Y-98216844D01*
X115983383Y-98348691D01*
X116044065Y-98495190D01*
X116075000Y-98650713D01*
X116075000Y-98809287D01*
X116044065Y-98964810D01*
X115983383Y-99111309D01*
X115974802Y-99124151D01*
X115895284Y-99243158D01*
X115783158Y-99355284D01*
X115760522Y-99370409D01*
X115651309Y-99443383D01*
X115504810Y-99504065D01*
X115349287Y-99535000D01*
X115190713Y-99535000D01*
X115035190Y-99504065D01*
X114888691Y-99443383D01*
X114779478Y-99370409D01*
X114756842Y-99355284D01*
X114644716Y-99243158D01*
X114565198Y-99124151D01*
X114556617Y-99111309D01*
X114495935Y-98964810D01*
X114465000Y-98809287D01*
X114465000Y-98650713D01*
X114495935Y-98495190D01*
X114556617Y-98348691D01*
X114644715Y-98216844D01*
X114644716Y-98216842D01*
X114756842Y-98104716D01*
X114888690Y-98016618D01*
X114888691Y-98016617D01*
X115035190Y-97955935D01*
X115190713Y-97925000D01*
X115349287Y-97925000D01*
X115504810Y-97955935D01*
X115504810Y-97955935D01*
G37*
G36*
X121628228Y-97831703D02*
G01*
X121783100Y-97895853D01*
X121922481Y-97988985D01*
X122041015Y-98107519D01*
X122134147Y-98246900D01*
X122198297Y-98401772D01*
X122231000Y-98566184D01*
X122231000Y-98733816D01*
X122198297Y-98898228D01*
X122134147Y-99053100D01*
X122041015Y-99192481D01*
X121922481Y-99311015D01*
X121783100Y-99404147D01*
X121628228Y-99468297D01*
X121463816Y-99501000D01*
X121296184Y-99501000D01*
X121131772Y-99468297D01*
X120976900Y-99404147D01*
X120837519Y-99311015D01*
X120718985Y-99192481D01*
X120625853Y-99053100D01*
X120561703Y-98898228D01*
X120529000Y-98733816D01*
X120529000Y-98566184D01*
X120561703Y-98401772D01*
X120625853Y-98246900D01*
X120718985Y-98107519D01*
X120837519Y-97988985D01*
X120976900Y-97895853D01*
X121131772Y-97831703D01*
X121296184Y-97799000D01*
X121463816Y-97799000D01*
X121628228Y-97831703D01*
X121628228Y-97831703D01*
G37*
G36*
X136868228Y-97831703D02*
G01*
X137023100Y-97895853D01*
X137162481Y-97988985D01*
X137281015Y-98107519D01*
X137374147Y-98246900D01*
X137438297Y-98401772D01*
X137471000Y-98566184D01*
X137471000Y-98733816D01*
X137438297Y-98898228D01*
X137374147Y-99053100D01*
X137281015Y-99192481D01*
X137162481Y-99311015D01*
X137023100Y-99404147D01*
X136868228Y-99468297D01*
X136703816Y-99501000D01*
X136536184Y-99501000D01*
X136371772Y-99468297D01*
X136216900Y-99404147D01*
X136077519Y-99311015D01*
X135958985Y-99192481D01*
X135865853Y-99053100D01*
X135801703Y-98898228D01*
X135769000Y-98733816D01*
X135769000Y-98566184D01*
X135801703Y-98401772D01*
X135865853Y-98246900D01*
X135958985Y-98107519D01*
X136077519Y-97988985D01*
X136216900Y-97895853D01*
X136371772Y-97831703D01*
X136536184Y-97799000D01*
X136703816Y-97799000D01*
X136868228Y-97831703D01*
X136868228Y-97831703D01*
G37*
G36*
X134328228Y-97831703D02*
G01*
X134483100Y-97895853D01*
X134622481Y-97988985D01*
X134741015Y-98107519D01*
X134834147Y-98246900D01*
X134898297Y-98401772D01*
X134931000Y-98566184D01*
X134931000Y-98733816D01*
X134898297Y-98898228D01*
X134834147Y-99053100D01*
X134741015Y-99192481D01*
X134622481Y-99311015D01*
X134483100Y-99404147D01*
X134328228Y-99468297D01*
X134163816Y-99501000D01*
X133996184Y-99501000D01*
X133831772Y-99468297D01*
X133676900Y-99404147D01*
X133537519Y-99311015D01*
X133418985Y-99192481D01*
X133325853Y-99053100D01*
X133261703Y-98898228D01*
X133229000Y-98733816D01*
X133229000Y-98566184D01*
X133261703Y-98401772D01*
X133325853Y-98246900D01*
X133418985Y-98107519D01*
X133537519Y-97988985D01*
X133676900Y-97895853D01*
X133831772Y-97831703D01*
X133996184Y-97799000D01*
X134163816Y-97799000D01*
X134328228Y-97831703D01*
X134328228Y-97831703D01*
G37*
G36*
X199407747Y-96650921D02*
G01*
X199487376Y-96658764D01*
X199619789Y-96698931D01*
X199640630Y-96705253D01*
X199781863Y-96780744D01*
X199905659Y-96882341D01*
X200007256Y-97006137D01*
X200082747Y-97147370D01*
X200082748Y-97147373D01*
X200129236Y-97300624D01*
X200144933Y-97460000D01*
X200129236Y-97619376D01*
X200085691Y-97762925D01*
X200082747Y-97772630D01*
X200007256Y-97913863D01*
X199905659Y-98037659D01*
X199781863Y-98139256D01*
X199640630Y-98214747D01*
X199640627Y-98214748D01*
X199487376Y-98261236D01*
X199407747Y-98269079D01*
X199367934Y-98273000D01*
X198312066Y-98273000D01*
X198272253Y-98269079D01*
X198192624Y-98261236D01*
X198039373Y-98214748D01*
X198039370Y-98214747D01*
X197898137Y-98139256D01*
X197774341Y-98037659D01*
X197672744Y-97913863D01*
X197597253Y-97772630D01*
X197594309Y-97762925D01*
X197550764Y-97619376D01*
X197535067Y-97460000D01*
X197550764Y-97300624D01*
X197597252Y-97147373D01*
X197597253Y-97147370D01*
X197672744Y-97006137D01*
X197774341Y-96882341D01*
X197898137Y-96780744D01*
X198039370Y-96705253D01*
X198060211Y-96698931D01*
X198192624Y-96658764D01*
X198272253Y-96650921D01*
X198312066Y-96647000D01*
X199367934Y-96647000D01*
X199407747Y-96650921D01*
X199407747Y-96650921D01*
G37*
G36*
X101727747Y-96650921D02*
G01*
X101807376Y-96658764D01*
X101939789Y-96698931D01*
X101960630Y-96705253D01*
X102101863Y-96780744D01*
X102225659Y-96882341D01*
X102327256Y-97006137D01*
X102402747Y-97147370D01*
X102402748Y-97147373D01*
X102449236Y-97300624D01*
X102464933Y-97460000D01*
X102449236Y-97619376D01*
X102405691Y-97762925D01*
X102402747Y-97772630D01*
X102327256Y-97913863D01*
X102225659Y-98037659D01*
X102101863Y-98139256D01*
X101960630Y-98214747D01*
X101960627Y-98214748D01*
X101807376Y-98261236D01*
X101727747Y-98269079D01*
X101687934Y-98273000D01*
X100632066Y-98273000D01*
X100592253Y-98269079D01*
X100512624Y-98261236D01*
X100359373Y-98214748D01*
X100359370Y-98214747D01*
X100218137Y-98139256D01*
X100094341Y-98037659D01*
X99992744Y-97913863D01*
X99917253Y-97772630D01*
X99914309Y-97762925D01*
X99870764Y-97619376D01*
X99855067Y-97460000D01*
X99870764Y-97300624D01*
X99917252Y-97147373D01*
X99917253Y-97147370D01*
X99992744Y-97006137D01*
X100094341Y-96882341D01*
X100218137Y-96780744D01*
X100359370Y-96705253D01*
X100380211Y-96698931D01*
X100512624Y-96658764D01*
X100592253Y-96650921D01*
X100632066Y-96647000D01*
X101687934Y-96647000D01*
X101727747Y-96650921D01*
X101727747Y-96650921D01*
G37*
G36*
X168757747Y-96650921D02*
G01*
X168837376Y-96658764D01*
X168969789Y-96698931D01*
X168990630Y-96705253D01*
X169131863Y-96780744D01*
X169255659Y-96882341D01*
X169357256Y-97006137D01*
X169432747Y-97147370D01*
X169432748Y-97147373D01*
X169479236Y-97300624D01*
X169494933Y-97460000D01*
X169479236Y-97619376D01*
X169435691Y-97762925D01*
X169432747Y-97772630D01*
X169357256Y-97913863D01*
X169255659Y-98037659D01*
X169131863Y-98139256D01*
X168990630Y-98214747D01*
X168990627Y-98214748D01*
X168837376Y-98261236D01*
X168757747Y-98269079D01*
X168717934Y-98273000D01*
X167662066Y-98273000D01*
X167622253Y-98269079D01*
X167542624Y-98261236D01*
X167389373Y-98214748D01*
X167389370Y-98214747D01*
X167248137Y-98139256D01*
X167124341Y-98037659D01*
X167022744Y-97913863D01*
X166947253Y-97772630D01*
X166944309Y-97762925D01*
X166900764Y-97619376D01*
X166885067Y-97460000D01*
X166900764Y-97300624D01*
X166947252Y-97147373D01*
X166947253Y-97147370D01*
X167022744Y-97006137D01*
X167124341Y-96882341D01*
X167248137Y-96780744D01*
X167389370Y-96705253D01*
X167410211Y-96698931D01*
X167542624Y-96658764D01*
X167622253Y-96650921D01*
X167662066Y-96647000D01*
X168717934Y-96647000D01*
X168757747Y-96650921D01*
X168757747Y-96650921D01*
G37*
G36*
X176377747Y-96650921D02*
G01*
X176457376Y-96658764D01*
X176589789Y-96698931D01*
X176610630Y-96705253D01*
X176751863Y-96780744D01*
X176875659Y-96882341D01*
X176977256Y-97006137D01*
X177052747Y-97147370D01*
X177052748Y-97147373D01*
X177099236Y-97300624D01*
X177114933Y-97460000D01*
X177099236Y-97619376D01*
X177055691Y-97762925D01*
X177052747Y-97772630D01*
X176977256Y-97913863D01*
X176875659Y-98037659D01*
X176751863Y-98139256D01*
X176610630Y-98214747D01*
X176610627Y-98214748D01*
X176457376Y-98261236D01*
X176377747Y-98269079D01*
X176337934Y-98273000D01*
X175282066Y-98273000D01*
X175242253Y-98269079D01*
X175162624Y-98261236D01*
X175009373Y-98214748D01*
X175009370Y-98214747D01*
X174868137Y-98139256D01*
X174744341Y-98037659D01*
X174642744Y-97913863D01*
X174567253Y-97772630D01*
X174564309Y-97762925D01*
X174520764Y-97619376D01*
X174505067Y-97460000D01*
X174520764Y-97300624D01*
X174567252Y-97147373D01*
X174567253Y-97147370D01*
X174642744Y-97006137D01*
X174744341Y-96882341D01*
X174868137Y-96780744D01*
X175009370Y-96705253D01*
X175030211Y-96698931D01*
X175162624Y-96658764D01*
X175242253Y-96650921D01*
X175282066Y-96647000D01*
X176337934Y-96647000D01*
X176377747Y-96650921D01*
X176377747Y-96650921D01*
G37*
G36*
X201879591Y-96590585D02*
G01*
X201913569Y-96600893D01*
X201944890Y-96617634D01*
X201972339Y-96640161D01*
X201994866Y-96667610D01*
X202011607Y-96698931D01*
X202021915Y-96732909D01*
X202026000Y-96774390D01*
X202026000Y-97375610D01*
X202021915Y-97417091D01*
X202011607Y-97451069D01*
X201994866Y-97482390D01*
X201972339Y-97509839D01*
X201944890Y-97532366D01*
X201913569Y-97549107D01*
X201879591Y-97559415D01*
X201838110Y-97563500D01*
X201161890Y-97563500D01*
X201120409Y-97559415D01*
X201086431Y-97549107D01*
X201055110Y-97532366D01*
X201027661Y-97509839D01*
X201005134Y-97482390D01*
X200988393Y-97451069D01*
X200978085Y-97417091D01*
X200974000Y-97375610D01*
X200974000Y-96774390D01*
X200978085Y-96732909D01*
X200988393Y-96698931D01*
X201005134Y-96667610D01*
X201027661Y-96640161D01*
X201055110Y-96617634D01*
X201086431Y-96600893D01*
X201120409Y-96590585D01*
X201161890Y-96586500D01*
X201838110Y-96586500D01*
X201879591Y-96590585D01*
X201879591Y-96590585D01*
G37*
G36*
X147157022Y-95460590D02*
G01*
X147257681Y-95491125D01*
X147308012Y-95506392D01*
X147417127Y-95564716D01*
X147447164Y-95580771D01*
X147569133Y-95680867D01*
X147660256Y-95791901D01*
X147669229Y-95802835D01*
X147743608Y-95941987D01*
X147753351Y-95974107D01*
X147789410Y-96092977D01*
X147801000Y-96210655D01*
X147801000Y-96789345D01*
X147789410Y-96907023D01*
X147762722Y-96995000D01*
X147743608Y-97058013D01*
X147669229Y-97197165D01*
X147569133Y-97319133D01*
X147447165Y-97419229D01*
X147308013Y-97493608D01*
X147257682Y-97508875D01*
X147157023Y-97539410D01*
X147000000Y-97554875D01*
X146842978Y-97539410D01*
X146742319Y-97508875D01*
X146691988Y-97493608D01*
X146552836Y-97419229D01*
X146430868Y-97319133D01*
X146415678Y-97300624D01*
X146330771Y-97197165D01*
X146275607Y-97093961D01*
X146256392Y-97058013D01*
X146237278Y-96995000D01*
X146210590Y-96907023D01*
X146199000Y-96789345D01*
X146199000Y-96210656D01*
X146210590Y-96092978D01*
X146251727Y-95957366D01*
X146256392Y-95941988D01*
X146330771Y-95802836D01*
X146378851Y-95744250D01*
X146430867Y-95680867D01*
X146552835Y-95580771D01*
X146582872Y-95564716D01*
X146691987Y-95506392D01*
X146742318Y-95491125D01*
X146842977Y-95460590D01*
X147000000Y-95445125D01*
X147157022Y-95460590D01*
X147157022Y-95460590D01*
G37*
G36*
X151157022Y-95460590D02*
G01*
X151257681Y-95491125D01*
X151308012Y-95506392D01*
X151417127Y-95564716D01*
X151447164Y-95580771D01*
X151569133Y-95680867D01*
X151660256Y-95791901D01*
X151669229Y-95802835D01*
X151743608Y-95941987D01*
X151753351Y-95974107D01*
X151789410Y-96092977D01*
X151801000Y-96210655D01*
X151801000Y-96789345D01*
X151789410Y-96907023D01*
X151762722Y-96995000D01*
X151743608Y-97058013D01*
X151669229Y-97197165D01*
X151569133Y-97319133D01*
X151447165Y-97419229D01*
X151308013Y-97493608D01*
X151257682Y-97508875D01*
X151157023Y-97539410D01*
X151000000Y-97554875D01*
X150842978Y-97539410D01*
X150742319Y-97508875D01*
X150691988Y-97493608D01*
X150552836Y-97419229D01*
X150430868Y-97319133D01*
X150415678Y-97300624D01*
X150330771Y-97197165D01*
X150275607Y-97093961D01*
X150256392Y-97058013D01*
X150237278Y-96995000D01*
X150210590Y-96907023D01*
X150199000Y-96789345D01*
X150199000Y-96210656D01*
X150210590Y-96092978D01*
X150251727Y-95957366D01*
X150256392Y-95941988D01*
X150330771Y-95802836D01*
X150378851Y-95744250D01*
X150430867Y-95680867D01*
X150552835Y-95580771D01*
X150582872Y-95564716D01*
X150691987Y-95506392D01*
X150742318Y-95491125D01*
X150842977Y-95460590D01*
X151000000Y-95445125D01*
X151157022Y-95460590D01*
X151157022Y-95460590D01*
G37*
G36*
X153157022Y-95460590D02*
G01*
X153257681Y-95491125D01*
X153308012Y-95506392D01*
X153417127Y-95564716D01*
X153447164Y-95580771D01*
X153569133Y-95680867D01*
X153660256Y-95791901D01*
X153669229Y-95802835D01*
X153743608Y-95941987D01*
X153753351Y-95974107D01*
X153789410Y-96092977D01*
X153801000Y-96210655D01*
X153801000Y-96789345D01*
X153789410Y-96907023D01*
X153762722Y-96995000D01*
X153743608Y-97058013D01*
X153669229Y-97197165D01*
X153569133Y-97319133D01*
X153447165Y-97419229D01*
X153308013Y-97493608D01*
X153257682Y-97508875D01*
X153157023Y-97539410D01*
X153000000Y-97554875D01*
X152842978Y-97539410D01*
X152742319Y-97508875D01*
X152691988Y-97493608D01*
X152552836Y-97419229D01*
X152430868Y-97319133D01*
X152415678Y-97300624D01*
X152330771Y-97197165D01*
X152275607Y-97093961D01*
X152256392Y-97058013D01*
X152237278Y-96995000D01*
X152210590Y-96907023D01*
X152199000Y-96789345D01*
X152199000Y-96210656D01*
X152210590Y-96092978D01*
X152251727Y-95957366D01*
X152256392Y-95941988D01*
X152330771Y-95802836D01*
X152378851Y-95744250D01*
X152430867Y-95680867D01*
X152552835Y-95580771D01*
X152582872Y-95564716D01*
X152691987Y-95506392D01*
X152742318Y-95491125D01*
X152842977Y-95460590D01*
X153000000Y-95445125D01*
X153157022Y-95460590D01*
X153157022Y-95460590D01*
G37*
G36*
X149157022Y-95460590D02*
G01*
X149257681Y-95491125D01*
X149308012Y-95506392D01*
X149417127Y-95564716D01*
X149447164Y-95580771D01*
X149569133Y-95680867D01*
X149660256Y-95791901D01*
X149669229Y-95802835D01*
X149743608Y-95941987D01*
X149753351Y-95974107D01*
X149789410Y-96092977D01*
X149801000Y-96210655D01*
X149801000Y-96789345D01*
X149789410Y-96907023D01*
X149762722Y-96995000D01*
X149743608Y-97058013D01*
X149669229Y-97197165D01*
X149569133Y-97319133D01*
X149447165Y-97419229D01*
X149308013Y-97493608D01*
X149257682Y-97508875D01*
X149157023Y-97539410D01*
X149000000Y-97554875D01*
X148842978Y-97539410D01*
X148742319Y-97508875D01*
X148691988Y-97493608D01*
X148552836Y-97419229D01*
X148430868Y-97319133D01*
X148415678Y-97300624D01*
X148330771Y-97197165D01*
X148275607Y-97093961D01*
X148256392Y-97058013D01*
X148237278Y-96995000D01*
X148210590Y-96907023D01*
X148199000Y-96789345D01*
X148199000Y-96210656D01*
X148210590Y-96092978D01*
X148251727Y-95957366D01*
X148256392Y-95941988D01*
X148330771Y-95802836D01*
X148378851Y-95744250D01*
X148430867Y-95680867D01*
X148552835Y-95580771D01*
X148582872Y-95564716D01*
X148691987Y-95506392D01*
X148742318Y-95491125D01*
X148842977Y-95460590D01*
X149000000Y-95445125D01*
X149157022Y-95460590D01*
X149157022Y-95460590D01*
G37*
G36*
X115504810Y-95415935D02*
G01*
X115651309Y-95476617D01*
X115653528Y-95478100D01*
X115783158Y-95564716D01*
X115895284Y-95676842D01*
X115895285Y-95676844D01*
X115983383Y-95808691D01*
X116044065Y-95955190D01*
X116075000Y-96110713D01*
X116075000Y-96269287D01*
X116044065Y-96424810D01*
X115983383Y-96571309D01*
X115939633Y-96636785D01*
X115895284Y-96703158D01*
X115783158Y-96815284D01*
X115760011Y-96830750D01*
X115651309Y-96903383D01*
X115504810Y-96964065D01*
X115349287Y-96995000D01*
X115190713Y-96995000D01*
X115035190Y-96964065D01*
X114888691Y-96903383D01*
X114779989Y-96830750D01*
X114756842Y-96815284D01*
X114644716Y-96703158D01*
X114600367Y-96636785D01*
X114556617Y-96571309D01*
X114495935Y-96424810D01*
X114465000Y-96269287D01*
X114465000Y-96110713D01*
X114495935Y-95955190D01*
X114556617Y-95808691D01*
X114644715Y-95676844D01*
X114644716Y-95676842D01*
X114756842Y-95564716D01*
X114886472Y-95478100D01*
X114888691Y-95476617D01*
X115035190Y-95415935D01*
X115190713Y-95385000D01*
X115349287Y-95385000D01*
X115504810Y-95415935D01*
X115504810Y-95415935D01*
G37*
G36*
X112964810Y-95415935D02*
G01*
X113111309Y-95476617D01*
X113113528Y-95478100D01*
X113243158Y-95564716D01*
X113355284Y-95676842D01*
X113355285Y-95676844D01*
X113443383Y-95808691D01*
X113504065Y-95955190D01*
X113535000Y-96110713D01*
X113535000Y-96269287D01*
X113504065Y-96424810D01*
X113443383Y-96571309D01*
X113399633Y-96636785D01*
X113355284Y-96703158D01*
X113243158Y-96815284D01*
X113220011Y-96830750D01*
X113111309Y-96903383D01*
X112964810Y-96964065D01*
X112809287Y-96995000D01*
X112650713Y-96995000D01*
X112495190Y-96964065D01*
X112348691Y-96903383D01*
X112239989Y-96830750D01*
X112216842Y-96815284D01*
X112104716Y-96703158D01*
X112060367Y-96636785D01*
X112016617Y-96571309D01*
X111955935Y-96424810D01*
X111925000Y-96269287D01*
X111925000Y-96110713D01*
X111955935Y-95955190D01*
X112016617Y-95808691D01*
X112104715Y-95676844D01*
X112104716Y-95676842D01*
X112216842Y-95564716D01*
X112346472Y-95478100D01*
X112348691Y-95476617D01*
X112495190Y-95415935D01*
X112650713Y-95385000D01*
X112809287Y-95385000D01*
X112964810Y-95415935D01*
X112964810Y-95415935D01*
G37*
G36*
X136868228Y-95291703D02*
G01*
X137023100Y-95355853D01*
X137162481Y-95448985D01*
X137281015Y-95567519D01*
X137374147Y-95706900D01*
X137438297Y-95861772D01*
X137471000Y-96026184D01*
X137471000Y-96193816D01*
X137438297Y-96358228D01*
X137374147Y-96513100D01*
X137281015Y-96652481D01*
X137162481Y-96771015D01*
X137023100Y-96864147D01*
X136868228Y-96928297D01*
X136703816Y-96961000D01*
X136536184Y-96961000D01*
X136371772Y-96928297D01*
X136216900Y-96864147D01*
X136077519Y-96771015D01*
X135958985Y-96652481D01*
X135865853Y-96513100D01*
X135801703Y-96358228D01*
X135769000Y-96193816D01*
X135769000Y-96026184D01*
X135801703Y-95861772D01*
X135865853Y-95706900D01*
X135958985Y-95567519D01*
X136077519Y-95448985D01*
X136216900Y-95355853D01*
X136371772Y-95291703D01*
X136536184Y-95259000D01*
X136703816Y-95259000D01*
X136868228Y-95291703D01*
X136868228Y-95291703D01*
G37*
G36*
X134328228Y-95291703D02*
G01*
X134483100Y-95355853D01*
X134622481Y-95448985D01*
X134741015Y-95567519D01*
X134834147Y-95706900D01*
X134898297Y-95861772D01*
X134931000Y-96026184D01*
X134931000Y-96193816D01*
X134898297Y-96358228D01*
X134834147Y-96513100D01*
X134741015Y-96652481D01*
X134622481Y-96771015D01*
X134483100Y-96864147D01*
X134328228Y-96928297D01*
X134163816Y-96961000D01*
X133996184Y-96961000D01*
X133831772Y-96928297D01*
X133676900Y-96864147D01*
X133537519Y-96771015D01*
X133418985Y-96652481D01*
X133325853Y-96513100D01*
X133261703Y-96358228D01*
X133229000Y-96193816D01*
X133229000Y-96026184D01*
X133261703Y-95861772D01*
X133325853Y-95706900D01*
X133418985Y-95567519D01*
X133537519Y-95448985D01*
X133676900Y-95355853D01*
X133831772Y-95291703D01*
X133996184Y-95259000D01*
X134163816Y-95259000D01*
X134328228Y-95291703D01*
X134328228Y-95291703D01*
G37*
G36*
X121628228Y-95291703D02*
G01*
X121783100Y-95355853D01*
X121922481Y-95448985D01*
X122041015Y-95567519D01*
X122134147Y-95706900D01*
X122198297Y-95861772D01*
X122231000Y-96026184D01*
X122231000Y-96193816D01*
X122198297Y-96358228D01*
X122134147Y-96513100D01*
X122041015Y-96652481D01*
X121922481Y-96771015D01*
X121783100Y-96864147D01*
X121628228Y-96928297D01*
X121463816Y-96961000D01*
X121296184Y-96961000D01*
X121131772Y-96928297D01*
X120976900Y-96864147D01*
X120837519Y-96771015D01*
X120718985Y-96652481D01*
X120625853Y-96513100D01*
X120561703Y-96358228D01*
X120529000Y-96193816D01*
X120529000Y-96026184D01*
X120561703Y-95861772D01*
X120625853Y-95706900D01*
X120718985Y-95567519D01*
X120837519Y-95448985D01*
X120976900Y-95355853D01*
X121131772Y-95291703D01*
X121296184Y-95259000D01*
X121463816Y-95259000D01*
X121628228Y-95291703D01*
X121628228Y-95291703D01*
G37*
G36*
X201879591Y-95015585D02*
G01*
X201913569Y-95025893D01*
X201944890Y-95042634D01*
X201972339Y-95065161D01*
X201994866Y-95092610D01*
X202011607Y-95123931D01*
X202021915Y-95157909D01*
X202026000Y-95199390D01*
X202026000Y-95800610D01*
X202021915Y-95842091D01*
X202011607Y-95876069D01*
X201994866Y-95907390D01*
X201972339Y-95934839D01*
X201944890Y-95957366D01*
X201913569Y-95974107D01*
X201879591Y-95984415D01*
X201838110Y-95988500D01*
X201161890Y-95988500D01*
X201120409Y-95984415D01*
X201086431Y-95974107D01*
X201055110Y-95957366D01*
X201027661Y-95934839D01*
X201005134Y-95907390D01*
X200988393Y-95876069D01*
X200978085Y-95842091D01*
X200974000Y-95800610D01*
X200974000Y-95199390D01*
X200978085Y-95157909D01*
X200988393Y-95123931D01*
X201005134Y-95092610D01*
X201027661Y-95065161D01*
X201055110Y-95042634D01*
X201086431Y-95025893D01*
X201120409Y-95015585D01*
X201161890Y-95011500D01*
X201838110Y-95011500D01*
X201879591Y-95015585D01*
X201879591Y-95015585D01*
G37*
G36*
X129195285Y-93858234D02*
G01*
X129291981Y-93877468D01*
X129474151Y-93952926D01*
X129638100Y-94062473D01*
X129777527Y-94201900D01*
X129887074Y-94365849D01*
X129962532Y-94548019D01*
X130001000Y-94741410D01*
X130001000Y-94938590D01*
X129962532Y-95131981D01*
X129887074Y-95314151D01*
X129777527Y-95478100D01*
X129638100Y-95617527D01*
X129474151Y-95727074D01*
X129291981Y-95802532D01*
X129098591Y-95841000D01*
X128901409Y-95841000D01*
X128708019Y-95802532D01*
X128525849Y-95727074D01*
X128361900Y-95617527D01*
X128222473Y-95478100D01*
X128112926Y-95314151D01*
X128037468Y-95131981D01*
X127999000Y-94938590D01*
X127999000Y-94741410D01*
X128037468Y-94548019D01*
X128112926Y-94365849D01*
X128222473Y-94201900D01*
X128361900Y-94062473D01*
X128525849Y-93952926D01*
X128708019Y-93877468D01*
X128901409Y-93839000D01*
X129098591Y-93839000D01*
X129195285Y-93858234D01*
X129195285Y-93858234D01*
G37*
G36*
X199407747Y-94110921D02*
G01*
X199487376Y-94118764D01*
X199633717Y-94163156D01*
X199640630Y-94165253D01*
X199781863Y-94240744D01*
X199905659Y-94342341D01*
X200007256Y-94466137D01*
X200082747Y-94607370D01*
X200082748Y-94607373D01*
X200129236Y-94760624D01*
X200144933Y-94920000D01*
X200129236Y-95079376D01*
X200105413Y-95157909D01*
X200082747Y-95232630D01*
X200007256Y-95373863D01*
X199905659Y-95497659D01*
X199781863Y-95599256D01*
X199640630Y-95674747D01*
X199640627Y-95674748D01*
X199487376Y-95721236D01*
X199428101Y-95727074D01*
X199367934Y-95733000D01*
X198312066Y-95733000D01*
X198251899Y-95727074D01*
X198192624Y-95721236D01*
X198039373Y-95674748D01*
X198039370Y-95674747D01*
X197898137Y-95599256D01*
X197774341Y-95497659D01*
X197672744Y-95373863D01*
X197597253Y-95232630D01*
X197574587Y-95157909D01*
X197550764Y-95079376D01*
X197535067Y-94920000D01*
X197550764Y-94760624D01*
X197597252Y-94607373D01*
X197597253Y-94607370D01*
X197672744Y-94466137D01*
X197774341Y-94342341D01*
X197898137Y-94240744D01*
X198039370Y-94165253D01*
X198046283Y-94163156D01*
X198192624Y-94118764D01*
X198272253Y-94110921D01*
X198312066Y-94107000D01*
X199367934Y-94107000D01*
X199407747Y-94110921D01*
X199407747Y-94110921D01*
G37*
G36*
X176377747Y-94110921D02*
G01*
X176457376Y-94118764D01*
X176603717Y-94163156D01*
X176610630Y-94165253D01*
X176751863Y-94240744D01*
X176875659Y-94342341D01*
X176977256Y-94466137D01*
X177052747Y-94607370D01*
X177052748Y-94607373D01*
X177099236Y-94760624D01*
X177114933Y-94920000D01*
X177099236Y-95079376D01*
X177075413Y-95157909D01*
X177052747Y-95232630D01*
X176977256Y-95373863D01*
X176875659Y-95497659D01*
X176751863Y-95599256D01*
X176610630Y-95674747D01*
X176610627Y-95674748D01*
X176457376Y-95721236D01*
X176398101Y-95727074D01*
X176337934Y-95733000D01*
X175282066Y-95733000D01*
X175221899Y-95727074D01*
X175162624Y-95721236D01*
X175009373Y-95674748D01*
X175009370Y-95674747D01*
X174868137Y-95599256D01*
X174744341Y-95497659D01*
X174642744Y-95373863D01*
X174567253Y-95232630D01*
X174544587Y-95157909D01*
X174520764Y-95079376D01*
X174505067Y-94920000D01*
X174520764Y-94760624D01*
X174567252Y-94607373D01*
X174567253Y-94607370D01*
X174642744Y-94466137D01*
X174744341Y-94342341D01*
X174868137Y-94240744D01*
X175009370Y-94165253D01*
X175016283Y-94163156D01*
X175162624Y-94118764D01*
X175242253Y-94110921D01*
X175282066Y-94107000D01*
X176337934Y-94107000D01*
X176377747Y-94110921D01*
X176377747Y-94110921D01*
G37*
G36*
X168757747Y-94110921D02*
G01*
X168837376Y-94118764D01*
X168983717Y-94163156D01*
X168990630Y-94165253D01*
X169131863Y-94240744D01*
X169255659Y-94342341D01*
X169357256Y-94466137D01*
X169432747Y-94607370D01*
X169432748Y-94607373D01*
X169479236Y-94760624D01*
X169494933Y-94920000D01*
X169479236Y-95079376D01*
X169455413Y-95157909D01*
X169432747Y-95232630D01*
X169357256Y-95373863D01*
X169255659Y-95497659D01*
X169131863Y-95599256D01*
X168990630Y-95674747D01*
X168990627Y-95674748D01*
X168837376Y-95721236D01*
X168778101Y-95727074D01*
X168717934Y-95733000D01*
X167662066Y-95733000D01*
X167601899Y-95727074D01*
X167542624Y-95721236D01*
X167389373Y-95674748D01*
X167389370Y-95674747D01*
X167248137Y-95599256D01*
X167124341Y-95497659D01*
X167022744Y-95373863D01*
X166947253Y-95232630D01*
X166924587Y-95157909D01*
X166900764Y-95079376D01*
X166885067Y-94920000D01*
X166900764Y-94760624D01*
X166947252Y-94607373D01*
X166947253Y-94607370D01*
X167022744Y-94466137D01*
X167124341Y-94342341D01*
X167248137Y-94240744D01*
X167389370Y-94165253D01*
X167396283Y-94163156D01*
X167542624Y-94118764D01*
X167622253Y-94110921D01*
X167662066Y-94107000D01*
X168717934Y-94107000D01*
X168757747Y-94110921D01*
X168757747Y-94110921D01*
G37*
G36*
X101727747Y-94110921D02*
G01*
X101807376Y-94118764D01*
X101953717Y-94163156D01*
X101960630Y-94165253D01*
X102101863Y-94240744D01*
X102225659Y-94342341D01*
X102327256Y-94466137D01*
X102402747Y-94607370D01*
X102402748Y-94607373D01*
X102449236Y-94760624D01*
X102464933Y-94920000D01*
X102449236Y-95079376D01*
X102425413Y-95157909D01*
X102402747Y-95232630D01*
X102327256Y-95373863D01*
X102225659Y-95497659D01*
X102101863Y-95599256D01*
X101960630Y-95674747D01*
X101960627Y-95674748D01*
X101807376Y-95721236D01*
X101748101Y-95727074D01*
X101687934Y-95733000D01*
X100632066Y-95733000D01*
X100571899Y-95727074D01*
X100512624Y-95721236D01*
X100359373Y-95674748D01*
X100359370Y-95674747D01*
X100218137Y-95599256D01*
X100094341Y-95497659D01*
X99992744Y-95373863D01*
X99917253Y-95232630D01*
X99894587Y-95157909D01*
X99870764Y-95079376D01*
X99855067Y-94920000D01*
X99870764Y-94760624D01*
X99917252Y-94607373D01*
X99917253Y-94607370D01*
X99992744Y-94466137D01*
X100094341Y-94342341D01*
X100218137Y-94240744D01*
X100359370Y-94165253D01*
X100366283Y-94163156D01*
X100512624Y-94118764D01*
X100592253Y-94110921D01*
X100632066Y-94107000D01*
X101687934Y-94107000D01*
X101727747Y-94110921D01*
X101727747Y-94110921D01*
G37*
G36*
X165879591Y-94090585D02*
G01*
X165913569Y-94100893D01*
X165944890Y-94117634D01*
X165972339Y-94140161D01*
X165994866Y-94167610D01*
X166011607Y-94198931D01*
X166021915Y-94232909D01*
X166026000Y-94274390D01*
X166026000Y-94875610D01*
X166021915Y-94917091D01*
X166011607Y-94951069D01*
X165994866Y-94982390D01*
X165972339Y-95009839D01*
X165944890Y-95032366D01*
X165913569Y-95049107D01*
X165879591Y-95059415D01*
X165838110Y-95063500D01*
X165161890Y-95063500D01*
X165120409Y-95059415D01*
X165086431Y-95049107D01*
X165055110Y-95032366D01*
X165027661Y-95009839D01*
X165005134Y-94982390D01*
X164988393Y-94951069D01*
X164978085Y-94917091D01*
X164974000Y-94875610D01*
X164974000Y-94274390D01*
X164978085Y-94232909D01*
X164988393Y-94198931D01*
X165005134Y-94167610D01*
X165027661Y-94140161D01*
X165055110Y-94117634D01*
X165086431Y-94100893D01*
X165120409Y-94090585D01*
X165161890Y-94086500D01*
X165838110Y-94086500D01*
X165879591Y-94090585D01*
X165879591Y-94090585D01*
G37*
G36*
X115504810Y-92875935D02*
G01*
X115651309Y-92936617D01*
X115651310Y-92936618D01*
X115783158Y-93024716D01*
X115895284Y-93136842D01*
X115895285Y-93136844D01*
X115983383Y-93268691D01*
X116044065Y-93415190D01*
X116075000Y-93570713D01*
X116075000Y-93729287D01*
X116044065Y-93884810D01*
X115983383Y-94031309D01*
X115983382Y-94031310D01*
X115895284Y-94163158D01*
X115783158Y-94275284D01*
X115771462Y-94283099D01*
X115651309Y-94363383D01*
X115504810Y-94424065D01*
X115349287Y-94455000D01*
X115190713Y-94455000D01*
X115035190Y-94424065D01*
X114888691Y-94363383D01*
X114768538Y-94283099D01*
X114756842Y-94275284D01*
X114644716Y-94163158D01*
X114556618Y-94031310D01*
X114556617Y-94031309D01*
X114495935Y-93884810D01*
X114465000Y-93729287D01*
X114465000Y-93570713D01*
X114495935Y-93415190D01*
X114556617Y-93268691D01*
X114644715Y-93136844D01*
X114644716Y-93136842D01*
X114756842Y-93024716D01*
X114888690Y-92936618D01*
X114888691Y-92936617D01*
X115035190Y-92875935D01*
X115190713Y-92845000D01*
X115349287Y-92845000D01*
X115504810Y-92875935D01*
X115504810Y-92875935D01*
G37*
G36*
X112964810Y-92875935D02*
G01*
X113111309Y-92936617D01*
X113111310Y-92936618D01*
X113243158Y-93024716D01*
X113355284Y-93136842D01*
X113355285Y-93136844D01*
X113443383Y-93268691D01*
X113504065Y-93415190D01*
X113535000Y-93570713D01*
X113535000Y-93729287D01*
X113504065Y-93884810D01*
X113443383Y-94031309D01*
X113443382Y-94031310D01*
X113355284Y-94163158D01*
X113243158Y-94275284D01*
X113231462Y-94283099D01*
X113111309Y-94363383D01*
X112964810Y-94424065D01*
X112809287Y-94455000D01*
X112650713Y-94455000D01*
X112495190Y-94424065D01*
X112348691Y-94363383D01*
X112228538Y-94283099D01*
X112216842Y-94275284D01*
X112104716Y-94163158D01*
X112016618Y-94031310D01*
X112016617Y-94031309D01*
X111955935Y-93884810D01*
X111925000Y-93729287D01*
X111925000Y-93570713D01*
X111955935Y-93415190D01*
X112016617Y-93268691D01*
X112104715Y-93136844D01*
X112104716Y-93136842D01*
X112216842Y-93024716D01*
X112348690Y-92936618D01*
X112348691Y-92936617D01*
X112495190Y-92875935D01*
X112650713Y-92845000D01*
X112809287Y-92845000D01*
X112964810Y-92875935D01*
X112964810Y-92875935D01*
G37*
G36*
X136868228Y-92751703D02*
G01*
X137023100Y-92815853D01*
X137162481Y-92908985D01*
X137281015Y-93027519D01*
X137374147Y-93166900D01*
X137438297Y-93321772D01*
X137471000Y-93486184D01*
X137471000Y-93653816D01*
X137438297Y-93818228D01*
X137374147Y-93973100D01*
X137281015Y-94112481D01*
X137162481Y-94231015D01*
X137023100Y-94324147D01*
X136868228Y-94388297D01*
X136703816Y-94421000D01*
X136536184Y-94421000D01*
X136371772Y-94388297D01*
X136216900Y-94324147D01*
X136077519Y-94231015D01*
X135958985Y-94112481D01*
X135865853Y-93973100D01*
X135801703Y-93818228D01*
X135769000Y-93653816D01*
X135769000Y-93486184D01*
X135801703Y-93321772D01*
X135865853Y-93166900D01*
X135958985Y-93027519D01*
X136077519Y-92908985D01*
X136216900Y-92815853D01*
X136371772Y-92751703D01*
X136536184Y-92719000D01*
X136703816Y-92719000D01*
X136868228Y-92751703D01*
X136868228Y-92751703D01*
G37*
G36*
X121628228Y-92751703D02*
G01*
X121783100Y-92815853D01*
X121922481Y-92908985D01*
X122041015Y-93027519D01*
X122134147Y-93166900D01*
X122198297Y-93321772D01*
X122231000Y-93486184D01*
X122231000Y-93653816D01*
X122198297Y-93818228D01*
X122134147Y-93973100D01*
X122041015Y-94112481D01*
X121922481Y-94231015D01*
X121783100Y-94324147D01*
X121628228Y-94388297D01*
X121463816Y-94421000D01*
X121296184Y-94421000D01*
X121131772Y-94388297D01*
X120976900Y-94324147D01*
X120837519Y-94231015D01*
X120718985Y-94112481D01*
X120625853Y-93973100D01*
X120561703Y-93818228D01*
X120529000Y-93653816D01*
X120529000Y-93486184D01*
X120561703Y-93321772D01*
X120625853Y-93166900D01*
X120718985Y-93027519D01*
X120837519Y-92908985D01*
X120976900Y-92815853D01*
X121131772Y-92751703D01*
X121296184Y-92719000D01*
X121463816Y-92719000D01*
X121628228Y-92751703D01*
X121628228Y-92751703D01*
G37*
G36*
X165879591Y-92515585D02*
G01*
X165913569Y-92525893D01*
X165944890Y-92542634D01*
X165972339Y-92565161D01*
X165994866Y-92592610D01*
X166011607Y-92623931D01*
X166021915Y-92657909D01*
X166026000Y-92699390D01*
X166026000Y-93300610D01*
X166021915Y-93342091D01*
X166011607Y-93376069D01*
X165994866Y-93407390D01*
X165972339Y-93434839D01*
X165944890Y-93457366D01*
X165913569Y-93474107D01*
X165879591Y-93484415D01*
X165838110Y-93488500D01*
X165161890Y-93488500D01*
X165120409Y-93484415D01*
X165086431Y-93474107D01*
X165055110Y-93457366D01*
X165027661Y-93434839D01*
X165005134Y-93407390D01*
X164988393Y-93376069D01*
X164978085Y-93342091D01*
X164974000Y-93300610D01*
X164974000Y-92699390D01*
X164978085Y-92657909D01*
X164988393Y-92623931D01*
X165005134Y-92592610D01*
X165027661Y-92565161D01*
X165055110Y-92542634D01*
X165086431Y-92525893D01*
X165120409Y-92515585D01*
X165161890Y-92511500D01*
X165838110Y-92511500D01*
X165879591Y-92515585D01*
X165879591Y-92515585D01*
G37*
G36*
X176297747Y-91570921D02*
G01*
X176377376Y-91578764D01*
X176523717Y-91623156D01*
X176530630Y-91625253D01*
X176671863Y-91700744D01*
X176795659Y-91802341D01*
X176897256Y-91926137D01*
X176972747Y-92067370D01*
X176972748Y-92067373D01*
X177019236Y-92220624D01*
X177034933Y-92380000D01*
X177019236Y-92539376D01*
X176972748Y-92692627D01*
X176972747Y-92692630D01*
X176897256Y-92833863D01*
X176795659Y-92957659D01*
X176671863Y-93059256D01*
X176530630Y-93134747D01*
X176530627Y-93134748D01*
X176377376Y-93181236D01*
X176297747Y-93189079D01*
X176257934Y-93193000D01*
X175202066Y-93193000D01*
X175162253Y-93189079D01*
X175082624Y-93181236D01*
X174929373Y-93134748D01*
X174929370Y-93134747D01*
X174788137Y-93059256D01*
X174664341Y-92957659D01*
X174562744Y-92833863D01*
X174487253Y-92692630D01*
X174487252Y-92692627D01*
X174440764Y-92539376D01*
X174425067Y-92380000D01*
X174440764Y-92220624D01*
X174487252Y-92067373D01*
X174487253Y-92067370D01*
X174562744Y-91926137D01*
X174664341Y-91802341D01*
X174788137Y-91700744D01*
X174929370Y-91625253D01*
X174936283Y-91623156D01*
X175082624Y-91578764D01*
X175162253Y-91570921D01*
X175202066Y-91567000D01*
X176257934Y-91567000D01*
X176297747Y-91570921D01*
X176297747Y-91570921D01*
G37*
G36*
X101727747Y-91570921D02*
G01*
X101807376Y-91578764D01*
X101953717Y-91623156D01*
X101960630Y-91625253D01*
X102101863Y-91700744D01*
X102225659Y-91802341D01*
X102327256Y-91926137D01*
X102402747Y-92067370D01*
X102402748Y-92067373D01*
X102449236Y-92220624D01*
X102464933Y-92380000D01*
X102449236Y-92539376D01*
X102402748Y-92692627D01*
X102402747Y-92692630D01*
X102327256Y-92833863D01*
X102225659Y-92957659D01*
X102101863Y-93059256D01*
X101960630Y-93134747D01*
X101960627Y-93134748D01*
X101807376Y-93181236D01*
X101727747Y-93189079D01*
X101687934Y-93193000D01*
X100632066Y-93193000D01*
X100592253Y-93189079D01*
X100512624Y-93181236D01*
X100359373Y-93134748D01*
X100359370Y-93134747D01*
X100218137Y-93059256D01*
X100094341Y-92957659D01*
X99992744Y-92833863D01*
X99917253Y-92692630D01*
X99917252Y-92692627D01*
X99870764Y-92539376D01*
X99855067Y-92380000D01*
X99870764Y-92220624D01*
X99917252Y-92067373D01*
X99917253Y-92067370D01*
X99992744Y-91926137D01*
X100094341Y-91802341D01*
X100218137Y-91700744D01*
X100359370Y-91625253D01*
X100366283Y-91623156D01*
X100512624Y-91578764D01*
X100592253Y-91570921D01*
X100632066Y-91567000D01*
X101687934Y-91567000D01*
X101727747Y-91570921D01*
X101727747Y-91570921D01*
G37*
G36*
X199407747Y-91570921D02*
G01*
X199487376Y-91578764D01*
X199633717Y-91623156D01*
X199640630Y-91625253D01*
X199781863Y-91700744D01*
X199905659Y-91802341D01*
X200007256Y-91926137D01*
X200082747Y-92067370D01*
X200082748Y-92067373D01*
X200129236Y-92220624D01*
X200144933Y-92380000D01*
X200129236Y-92539376D01*
X200082748Y-92692627D01*
X200082747Y-92692630D01*
X200007256Y-92833863D01*
X199905659Y-92957659D01*
X199781863Y-93059256D01*
X199640630Y-93134747D01*
X199640627Y-93134748D01*
X199487376Y-93181236D01*
X199407747Y-93189079D01*
X199367934Y-93193000D01*
X198312066Y-93193000D01*
X198272253Y-93189079D01*
X198192624Y-93181236D01*
X198039373Y-93134748D01*
X198039370Y-93134747D01*
X197898137Y-93059256D01*
X197774341Y-92957659D01*
X197672744Y-92833863D01*
X197597253Y-92692630D01*
X197597252Y-92692627D01*
X197550764Y-92539376D01*
X197535067Y-92380000D01*
X197550764Y-92220624D01*
X197597252Y-92067373D01*
X197597253Y-92067370D01*
X197672744Y-91926137D01*
X197774341Y-91802341D01*
X197898137Y-91700744D01*
X198039370Y-91625253D01*
X198046283Y-91623156D01*
X198192624Y-91578764D01*
X198272253Y-91570921D01*
X198312066Y-91567000D01*
X199367934Y-91567000D01*
X199407747Y-91570921D01*
X199407747Y-91570921D01*
G37*
G36*
X168757747Y-91570921D02*
G01*
X168837376Y-91578764D01*
X168983717Y-91623156D01*
X168990630Y-91625253D01*
X169131863Y-91700744D01*
X169255659Y-91802341D01*
X169357256Y-91926137D01*
X169432747Y-92067370D01*
X169432748Y-92067373D01*
X169479236Y-92220624D01*
X169494933Y-92380000D01*
X169479236Y-92539376D01*
X169432748Y-92692627D01*
X169432747Y-92692630D01*
X169357256Y-92833863D01*
X169255659Y-92957659D01*
X169131863Y-93059256D01*
X168990630Y-93134747D01*
X168990627Y-93134748D01*
X168837376Y-93181236D01*
X168757747Y-93189079D01*
X168717934Y-93193000D01*
X167662066Y-93193000D01*
X167622253Y-93189079D01*
X167542624Y-93181236D01*
X167389373Y-93134748D01*
X167389370Y-93134747D01*
X167248137Y-93059256D01*
X167124341Y-92957659D01*
X167022744Y-92833863D01*
X166947253Y-92692630D01*
X166947252Y-92692627D01*
X166900764Y-92539376D01*
X166885067Y-92380000D01*
X166900764Y-92220624D01*
X166947252Y-92067373D01*
X166947253Y-92067370D01*
X167022744Y-91926137D01*
X167124341Y-91802341D01*
X167248137Y-91700744D01*
X167389370Y-91625253D01*
X167396283Y-91623156D01*
X167542624Y-91578764D01*
X167622253Y-91570921D01*
X167662066Y-91567000D01*
X168717934Y-91567000D01*
X168757747Y-91570921D01*
X168757747Y-91570921D01*
G37*
G36*
X115504810Y-90335935D02*
G01*
X115651309Y-90396617D01*
X115651310Y-90396618D01*
X115783158Y-90484716D01*
X115895284Y-90596842D01*
X115895285Y-90596844D01*
X115983383Y-90728691D01*
X116044065Y-90875190D01*
X116075000Y-91030713D01*
X116075000Y-91189287D01*
X116044065Y-91344810D01*
X115983383Y-91491309D01*
X115983382Y-91491310D01*
X115895284Y-91623158D01*
X115783158Y-91735284D01*
X115716785Y-91779633D01*
X115651309Y-91823383D01*
X115504810Y-91884065D01*
X115349287Y-91915000D01*
X115190713Y-91915000D01*
X115035190Y-91884065D01*
X114888691Y-91823383D01*
X114823215Y-91779633D01*
X114756842Y-91735284D01*
X114644716Y-91623158D01*
X114556618Y-91491310D01*
X114556617Y-91491309D01*
X114495935Y-91344810D01*
X114465000Y-91189287D01*
X114465000Y-91030713D01*
X114495935Y-90875190D01*
X114556617Y-90728691D01*
X114644715Y-90596844D01*
X114644716Y-90596842D01*
X114756842Y-90484716D01*
X114888690Y-90396618D01*
X114888691Y-90396617D01*
X115035190Y-90335935D01*
X115190713Y-90305000D01*
X115349287Y-90305000D01*
X115504810Y-90335935D01*
X115504810Y-90335935D01*
G37*
G36*
X112964810Y-90335935D02*
G01*
X113111309Y-90396617D01*
X113111310Y-90396618D01*
X113243158Y-90484716D01*
X113355284Y-90596842D01*
X113355285Y-90596844D01*
X113443383Y-90728691D01*
X113504065Y-90875190D01*
X113535000Y-91030713D01*
X113535000Y-91189287D01*
X113504065Y-91344810D01*
X113443383Y-91491309D01*
X113443382Y-91491310D01*
X113355284Y-91623158D01*
X113243158Y-91735284D01*
X113176785Y-91779633D01*
X113111309Y-91823383D01*
X112964810Y-91884065D01*
X112809287Y-91915000D01*
X112650713Y-91915000D01*
X112495190Y-91884065D01*
X112348691Y-91823383D01*
X112283215Y-91779633D01*
X112216842Y-91735284D01*
X112104716Y-91623158D01*
X112016618Y-91491310D01*
X112016617Y-91491309D01*
X111955935Y-91344810D01*
X111925000Y-91189287D01*
X111925000Y-91030713D01*
X111955935Y-90875190D01*
X112016617Y-90728691D01*
X112104715Y-90596844D01*
X112104716Y-90596842D01*
X112216842Y-90484716D01*
X112348690Y-90396618D01*
X112348691Y-90396617D01*
X112495190Y-90335935D01*
X112650713Y-90305000D01*
X112809287Y-90305000D01*
X112964810Y-90335935D01*
X112964810Y-90335935D01*
G37*
G36*
X136868228Y-90211703D02*
G01*
X137023100Y-90275853D01*
X137162481Y-90368985D01*
X137281015Y-90487519D01*
X137374147Y-90626900D01*
X137438297Y-90781772D01*
X137471000Y-90946184D01*
X137471000Y-91113816D01*
X137438297Y-91278228D01*
X137374147Y-91433100D01*
X137281015Y-91572481D01*
X137162481Y-91691015D01*
X137023100Y-91784147D01*
X136868228Y-91848297D01*
X136703816Y-91881000D01*
X136536184Y-91881000D01*
X136371772Y-91848297D01*
X136216900Y-91784147D01*
X136077519Y-91691015D01*
X135958985Y-91572481D01*
X135865853Y-91433100D01*
X135801703Y-91278228D01*
X135769000Y-91113816D01*
X135769000Y-90946184D01*
X135801703Y-90781772D01*
X135865853Y-90626900D01*
X135958985Y-90487519D01*
X136077519Y-90368985D01*
X136216900Y-90275853D01*
X136371772Y-90211703D01*
X136536184Y-90179000D01*
X136703816Y-90179000D01*
X136868228Y-90211703D01*
X136868228Y-90211703D01*
G37*
G36*
X121628228Y-90211703D02*
G01*
X121783100Y-90275853D01*
X121922481Y-90368985D01*
X122041015Y-90487519D01*
X122134147Y-90626900D01*
X122198297Y-90781772D01*
X122231000Y-90946184D01*
X122231000Y-91113816D01*
X122198297Y-91278228D01*
X122134147Y-91433100D01*
X122041015Y-91572481D01*
X121922481Y-91691015D01*
X121783100Y-91784147D01*
X121628228Y-91848297D01*
X121463816Y-91881000D01*
X121296184Y-91881000D01*
X121131772Y-91848297D01*
X120976900Y-91784147D01*
X120837519Y-91691015D01*
X120718985Y-91572481D01*
X120625853Y-91433100D01*
X120561703Y-91278228D01*
X120529000Y-91113816D01*
X120529000Y-90946184D01*
X120561703Y-90781772D01*
X120625853Y-90626900D01*
X120718985Y-90487519D01*
X120837519Y-90368985D01*
X120976900Y-90275853D01*
X121131772Y-90211703D01*
X121296184Y-90179000D01*
X121463816Y-90179000D01*
X121628228Y-90211703D01*
X121628228Y-90211703D01*
G37*
G36*
X134328228Y-90211703D02*
G01*
X134483100Y-90275853D01*
X134622481Y-90368985D01*
X134741015Y-90487519D01*
X134834147Y-90626900D01*
X134898297Y-90781772D01*
X134931000Y-90946184D01*
X134931000Y-91113816D01*
X134898297Y-91278228D01*
X134834147Y-91433100D01*
X134741015Y-91572481D01*
X134622481Y-91691015D01*
X134483100Y-91784147D01*
X134328228Y-91848297D01*
X134163816Y-91881000D01*
X133996184Y-91881000D01*
X133831772Y-91848297D01*
X133676900Y-91784147D01*
X133537519Y-91691015D01*
X133418985Y-91572481D01*
X133325853Y-91433100D01*
X133261703Y-91278228D01*
X133229000Y-91113816D01*
X133229000Y-90946184D01*
X133261703Y-90781772D01*
X133325853Y-90626900D01*
X133418985Y-90487519D01*
X133537519Y-90368985D01*
X133676900Y-90275853D01*
X133831772Y-90211703D01*
X133996184Y-90179000D01*
X134163816Y-90179000D01*
X134328228Y-90211703D01*
X134328228Y-90211703D01*
G37*
G36*
X115504810Y-87795935D02*
G01*
X115651309Y-87856617D01*
X115651310Y-87856618D01*
X115783158Y-87944716D01*
X115895284Y-88056842D01*
X115895285Y-88056844D01*
X115983383Y-88188691D01*
X116044065Y-88335190D01*
X116075000Y-88490713D01*
X116075000Y-88649287D01*
X116044065Y-88804810D01*
X115983383Y-88951309D01*
X115983382Y-88951310D01*
X115895284Y-89083158D01*
X115783158Y-89195284D01*
X115716785Y-89239633D01*
X115651309Y-89283383D01*
X115504810Y-89344065D01*
X115349287Y-89375000D01*
X115190713Y-89375000D01*
X115035190Y-89344065D01*
X114888691Y-89283383D01*
X114823215Y-89239633D01*
X114756842Y-89195284D01*
X114644716Y-89083158D01*
X114556618Y-88951310D01*
X114556617Y-88951309D01*
X114495935Y-88804810D01*
X114465000Y-88649287D01*
X114465000Y-88490713D01*
X114495935Y-88335190D01*
X114556617Y-88188691D01*
X114644715Y-88056844D01*
X114644716Y-88056842D01*
X114756842Y-87944716D01*
X114888690Y-87856618D01*
X114888691Y-87856617D01*
X115035190Y-87795935D01*
X115190713Y-87765000D01*
X115349287Y-87765000D01*
X115504810Y-87795935D01*
X115504810Y-87795935D01*
G37*
G36*
X112964810Y-87795935D02*
G01*
X113111309Y-87856617D01*
X113111310Y-87856618D01*
X113243158Y-87944716D01*
X113355284Y-88056842D01*
X113355285Y-88056844D01*
X113443383Y-88188691D01*
X113504065Y-88335190D01*
X113535000Y-88490713D01*
X113535000Y-88649287D01*
X113504065Y-88804810D01*
X113443383Y-88951309D01*
X113443382Y-88951310D01*
X113355284Y-89083158D01*
X113243158Y-89195284D01*
X113176785Y-89239633D01*
X113111309Y-89283383D01*
X112964810Y-89344065D01*
X112809287Y-89375000D01*
X112650713Y-89375000D01*
X112495190Y-89344065D01*
X112348691Y-89283383D01*
X112283215Y-89239633D01*
X112216842Y-89195284D01*
X112104716Y-89083158D01*
X112016618Y-88951310D01*
X112016617Y-88951309D01*
X111955935Y-88804810D01*
X111925000Y-88649287D01*
X111925000Y-88490713D01*
X111955935Y-88335190D01*
X112016617Y-88188691D01*
X112104715Y-88056844D01*
X112104716Y-88056842D01*
X112216842Y-87944716D01*
X112348690Y-87856618D01*
X112348691Y-87856617D01*
X112495190Y-87795935D01*
X112650713Y-87765000D01*
X112809287Y-87765000D01*
X112964810Y-87795935D01*
X112964810Y-87795935D01*
G37*
G36*
X122231000Y-89341000D02*
G01*
X120529000Y-89341000D01*
X120529000Y-87639000D01*
X122231000Y-87639000D01*
X122231000Y-89341000D01*
X122231000Y-89341000D01*
G37*
G36*
X136868228Y-87671703D02*
G01*
X137023100Y-87735853D01*
X137162481Y-87828985D01*
X137281015Y-87947519D01*
X137374147Y-88086900D01*
X137438297Y-88241772D01*
X137471000Y-88406184D01*
X137471000Y-88573816D01*
X137438297Y-88738228D01*
X137374147Y-88893100D01*
X137281015Y-89032481D01*
X137162481Y-89151015D01*
X137023100Y-89244147D01*
X136868228Y-89308297D01*
X136703816Y-89341000D01*
X136536184Y-89341000D01*
X136371772Y-89308297D01*
X136216900Y-89244147D01*
X136077519Y-89151015D01*
X135958985Y-89032481D01*
X135865853Y-88893100D01*
X135801703Y-88738228D01*
X135769000Y-88573816D01*
X135769000Y-88406184D01*
X135801703Y-88241772D01*
X135865853Y-88086900D01*
X135958985Y-87947519D01*
X136077519Y-87828985D01*
X136216900Y-87735853D01*
X136371772Y-87671703D01*
X136536184Y-87639000D01*
X136703816Y-87639000D01*
X136868228Y-87671703D01*
X136868228Y-87671703D01*
G37*
G36*
X170127617Y-85083420D02*
G01*
X170208399Y-85107925D01*
X170250335Y-85120646D01*
X170363424Y-85181094D01*
X170462554Y-85262447D01*
X170543906Y-85361575D01*
X170604354Y-85474664D01*
X170614040Y-85506596D01*
X170641580Y-85597382D01*
X170651000Y-85693027D01*
X170651000Y-86306973D01*
X170641580Y-86402618D01*
X170638943Y-86411310D01*
X170604354Y-86525336D01*
X170543906Y-86638425D01*
X170462554Y-86737554D01*
X170363425Y-86818906D01*
X170250336Y-86879354D01*
X170218404Y-86889040D01*
X170127618Y-86916580D01*
X170000000Y-86929149D01*
X169872383Y-86916580D01*
X169781597Y-86889040D01*
X169749665Y-86879354D01*
X169636576Y-86818906D01*
X169537447Y-86737554D01*
X169456096Y-86638427D01*
X169456095Y-86638425D01*
X169395647Y-86525336D01*
X169395645Y-86525333D01*
X169361057Y-86411310D01*
X169358420Y-86402618D01*
X169349000Y-86306973D01*
X169349000Y-85693028D01*
X169358420Y-85597383D01*
X169395645Y-85474669D01*
X169395646Y-85474665D01*
X169456094Y-85361576D01*
X169537447Y-85262446D01*
X169636575Y-85181094D01*
X169749664Y-85120646D01*
X169791600Y-85107925D01*
X169872382Y-85083420D01*
X170000000Y-85070851D01*
X170127617Y-85083420D01*
X170127617Y-85083420D01*
G37*
G36*
X172127617Y-85083420D02*
G01*
X172208399Y-85107925D01*
X172250335Y-85120646D01*
X172363424Y-85181094D01*
X172462554Y-85262447D01*
X172543906Y-85361575D01*
X172604354Y-85474664D01*
X172614040Y-85506596D01*
X172641580Y-85597382D01*
X172651000Y-85693027D01*
X172651000Y-86306973D01*
X172641580Y-86402618D01*
X172638943Y-86411310D01*
X172604354Y-86525336D01*
X172543906Y-86638425D01*
X172462554Y-86737554D01*
X172363425Y-86818906D01*
X172250336Y-86879354D01*
X172218404Y-86889040D01*
X172127618Y-86916580D01*
X172000000Y-86929149D01*
X171872383Y-86916580D01*
X171781597Y-86889040D01*
X171749665Y-86879354D01*
X171636576Y-86818906D01*
X171537447Y-86737554D01*
X171456096Y-86638427D01*
X171456095Y-86638425D01*
X171395647Y-86525336D01*
X171395645Y-86525333D01*
X171361057Y-86411310D01*
X171358420Y-86402618D01*
X171349000Y-86306973D01*
X171349000Y-85693028D01*
X171358420Y-85597383D01*
X171395645Y-85474669D01*
X171395646Y-85474665D01*
X171456094Y-85361576D01*
X171537447Y-85262446D01*
X171636575Y-85181094D01*
X171749664Y-85120646D01*
X171791600Y-85107925D01*
X171872382Y-85083420D01*
X172000000Y-85070851D01*
X172127617Y-85083420D01*
X172127617Y-85083420D01*
G37*
G36*
X178127617Y-85083420D02*
G01*
X178208399Y-85107925D01*
X178250335Y-85120646D01*
X178363424Y-85181094D01*
X178462554Y-85262447D01*
X178543906Y-85361575D01*
X178604354Y-85474664D01*
X178614040Y-85506596D01*
X178641580Y-85597382D01*
X178651000Y-85693027D01*
X178651000Y-86306973D01*
X178641580Y-86402618D01*
X178638943Y-86411310D01*
X178604354Y-86525336D01*
X178543906Y-86638425D01*
X178462554Y-86737554D01*
X178363425Y-86818906D01*
X178250336Y-86879354D01*
X178218404Y-86889040D01*
X178127618Y-86916580D01*
X178000000Y-86929149D01*
X177872383Y-86916580D01*
X177781597Y-86889040D01*
X177749665Y-86879354D01*
X177636576Y-86818906D01*
X177537447Y-86737554D01*
X177456096Y-86638427D01*
X177456095Y-86638425D01*
X177395647Y-86525336D01*
X177395645Y-86525333D01*
X177361057Y-86411310D01*
X177358420Y-86402618D01*
X177349000Y-86306973D01*
X177349000Y-85693028D01*
X177358420Y-85597383D01*
X177395645Y-85474669D01*
X177395646Y-85474665D01*
X177456094Y-85361576D01*
X177537447Y-85262446D01*
X177636575Y-85181094D01*
X177749664Y-85120646D01*
X177791600Y-85107925D01*
X177872382Y-85083420D01*
X178000000Y-85070851D01*
X178127617Y-85083420D01*
X178127617Y-85083420D01*
G37*
G36*
X174127617Y-85083420D02*
G01*
X174208399Y-85107925D01*
X174250335Y-85120646D01*
X174363424Y-85181094D01*
X174462554Y-85262447D01*
X174543906Y-85361575D01*
X174604354Y-85474664D01*
X174614040Y-85506596D01*
X174641580Y-85597382D01*
X174651000Y-85693027D01*
X174651000Y-86306973D01*
X174641580Y-86402618D01*
X174638943Y-86411310D01*
X174604354Y-86525336D01*
X174543906Y-86638425D01*
X174462554Y-86737554D01*
X174363425Y-86818906D01*
X174250336Y-86879354D01*
X174218404Y-86889040D01*
X174127618Y-86916580D01*
X174000000Y-86929149D01*
X173872383Y-86916580D01*
X173781597Y-86889040D01*
X173749665Y-86879354D01*
X173636576Y-86818906D01*
X173537447Y-86737554D01*
X173456096Y-86638427D01*
X173456095Y-86638425D01*
X173395647Y-86525336D01*
X173395645Y-86525333D01*
X173361057Y-86411310D01*
X173358420Y-86402618D01*
X173349000Y-86306973D01*
X173349000Y-85693028D01*
X173358420Y-85597383D01*
X173395645Y-85474669D01*
X173395646Y-85474665D01*
X173456094Y-85361576D01*
X173537447Y-85262446D01*
X173636575Y-85181094D01*
X173749664Y-85120646D01*
X173791600Y-85107925D01*
X173872382Y-85083420D01*
X174000000Y-85070851D01*
X174127617Y-85083420D01*
X174127617Y-85083420D01*
G37*
G36*
X176127617Y-85083420D02*
G01*
X176208399Y-85107925D01*
X176250335Y-85120646D01*
X176363424Y-85181094D01*
X176462554Y-85262447D01*
X176543906Y-85361575D01*
X176604354Y-85474664D01*
X176614040Y-85506596D01*
X176641580Y-85597382D01*
X176651000Y-85693027D01*
X176651000Y-86306973D01*
X176641580Y-86402618D01*
X176638943Y-86411310D01*
X176604354Y-86525336D01*
X176543906Y-86638425D01*
X176462554Y-86737554D01*
X176363425Y-86818906D01*
X176250336Y-86879354D01*
X176218404Y-86889040D01*
X176127618Y-86916580D01*
X176000000Y-86929149D01*
X175872383Y-86916580D01*
X175781597Y-86889040D01*
X175749665Y-86879354D01*
X175636576Y-86818906D01*
X175537447Y-86737554D01*
X175456096Y-86638427D01*
X175456095Y-86638425D01*
X175395647Y-86525336D01*
X175395645Y-86525333D01*
X175361057Y-86411310D01*
X175358420Y-86402618D01*
X175349000Y-86306973D01*
X175349000Y-85693028D01*
X175358420Y-85597383D01*
X175395645Y-85474669D01*
X175395646Y-85474665D01*
X175456094Y-85361576D01*
X175537447Y-85262446D01*
X175636575Y-85181094D01*
X175749664Y-85120646D01*
X175791600Y-85107925D01*
X175872382Y-85083420D01*
X176000000Y-85070851D01*
X176127617Y-85083420D01*
X176127617Y-85083420D01*
G37*
G36*
X168491242Y-85078404D02*
G01*
X168528337Y-85089657D01*
X168562515Y-85107925D01*
X168592481Y-85132519D01*
X168617075Y-85162485D01*
X168635343Y-85196663D01*
X168646596Y-85233758D01*
X168651000Y-85278474D01*
X168651000Y-86721526D01*
X168646596Y-86766242D01*
X168635343Y-86803337D01*
X168617075Y-86837515D01*
X168592481Y-86867481D01*
X168562515Y-86892075D01*
X168528337Y-86910343D01*
X168491242Y-86921596D01*
X168446526Y-86926000D01*
X167553474Y-86926000D01*
X167508758Y-86921596D01*
X167471663Y-86910343D01*
X167437485Y-86892075D01*
X167407519Y-86867481D01*
X167382925Y-86837515D01*
X167364657Y-86803337D01*
X167353404Y-86766242D01*
X167349000Y-86721526D01*
X167349000Y-85278474D01*
X167353404Y-85233758D01*
X167364657Y-85196663D01*
X167382925Y-85162485D01*
X167407519Y-85132519D01*
X167437485Y-85107925D01*
X167471663Y-85089657D01*
X167508758Y-85078404D01*
X167553474Y-85074000D01*
X168446526Y-85074000D01*
X168491242Y-85078404D01*
X168491242Y-85078404D01*
G37*
G36*
X115504810Y-85255935D02*
G01*
X115651309Y-85316617D01*
X115651310Y-85316618D01*
X115783158Y-85404716D01*
X115895284Y-85516842D01*
X115895285Y-85516844D01*
X115983383Y-85648691D01*
X116044065Y-85795190D01*
X116075000Y-85950713D01*
X116075000Y-86109287D01*
X116044065Y-86264810D01*
X115983383Y-86411309D01*
X115983382Y-86411310D01*
X115895284Y-86543158D01*
X115783158Y-86655284D01*
X115716785Y-86699633D01*
X115651309Y-86743383D01*
X115504810Y-86804065D01*
X115349287Y-86835000D01*
X115190713Y-86835000D01*
X115035190Y-86804065D01*
X114888691Y-86743383D01*
X114823215Y-86699633D01*
X114756842Y-86655284D01*
X114644716Y-86543158D01*
X114556618Y-86411310D01*
X114556617Y-86411309D01*
X114495935Y-86264810D01*
X114465000Y-86109287D01*
X114465000Y-85950713D01*
X114495935Y-85795190D01*
X114556617Y-85648691D01*
X114644715Y-85516844D01*
X114644716Y-85516842D01*
X114756842Y-85404716D01*
X114888690Y-85316618D01*
X114888691Y-85316617D01*
X115035190Y-85255935D01*
X115190713Y-85225000D01*
X115349287Y-85225000D01*
X115504810Y-85255935D01*
X115504810Y-85255935D01*
G37*
G36*
X112964810Y-85255935D02*
G01*
X113111309Y-85316617D01*
X113111310Y-85316618D01*
X113243158Y-85404716D01*
X113355284Y-85516842D01*
X113355285Y-85516844D01*
X113443383Y-85648691D01*
X113504065Y-85795190D01*
X113535000Y-85950713D01*
X113535000Y-86109287D01*
X113504065Y-86264810D01*
X113443383Y-86411309D01*
X113443382Y-86411310D01*
X113355284Y-86543158D01*
X113243158Y-86655284D01*
X113176785Y-86699633D01*
X113111309Y-86743383D01*
X112964810Y-86804065D01*
X112809287Y-86835000D01*
X112650713Y-86835000D01*
X112495190Y-86804065D01*
X112348691Y-86743383D01*
X112283215Y-86699633D01*
X112216842Y-86655284D01*
X112104716Y-86543158D01*
X112016618Y-86411310D01*
X112016617Y-86411309D01*
X111955935Y-86264810D01*
X111925000Y-86109287D01*
X111925000Y-85950713D01*
X111955935Y-85795190D01*
X112016617Y-85648691D01*
X112104715Y-85516844D01*
X112104716Y-85516842D01*
X112216842Y-85404716D01*
X112348690Y-85316618D01*
X112348691Y-85316617D01*
X112495190Y-85255935D01*
X112650713Y-85225000D01*
X112809287Y-85225000D01*
X112964810Y-85255935D01*
X112964810Y-85255935D01*
G37*
G36*
X115504810Y-82715935D02*
G01*
X115651309Y-82776617D01*
X115651310Y-82776618D01*
X115783158Y-82864716D01*
X115895284Y-82976842D01*
X115895285Y-82976844D01*
X115983383Y-83108691D01*
X116044065Y-83255190D01*
X116075000Y-83410713D01*
X116075000Y-83569287D01*
X116044065Y-83724810D01*
X115983383Y-83871309D01*
X115983382Y-83871310D01*
X115895284Y-84003158D01*
X115783158Y-84115284D01*
X115716785Y-84159633D01*
X115651309Y-84203383D01*
X115504810Y-84264065D01*
X115349287Y-84295000D01*
X115190713Y-84295000D01*
X115035190Y-84264065D01*
X114888691Y-84203383D01*
X114823215Y-84159633D01*
X114756842Y-84115284D01*
X114644716Y-84003158D01*
X114556618Y-83871310D01*
X114556617Y-83871309D01*
X114495935Y-83724810D01*
X114465000Y-83569287D01*
X114465000Y-83410713D01*
X114495935Y-83255190D01*
X114556617Y-83108691D01*
X114644715Y-82976844D01*
X114644716Y-82976842D01*
X114756842Y-82864716D01*
X114888690Y-82776618D01*
X114888691Y-82776617D01*
X115035190Y-82715935D01*
X115190713Y-82685000D01*
X115349287Y-82685000D01*
X115504810Y-82715935D01*
X115504810Y-82715935D01*
G37*
G36*
X112964810Y-82715935D02*
G01*
X113111309Y-82776617D01*
X113111310Y-82776618D01*
X113243158Y-82864716D01*
X113355284Y-82976842D01*
X113355285Y-82976844D01*
X113443383Y-83108691D01*
X113504065Y-83255190D01*
X113535000Y-83410713D01*
X113535000Y-83569287D01*
X113504065Y-83724810D01*
X113443383Y-83871309D01*
X113443382Y-83871310D01*
X113355284Y-84003158D01*
X113243158Y-84115284D01*
X113176785Y-84159633D01*
X113111309Y-84203383D01*
X112964810Y-84264065D01*
X112809287Y-84295000D01*
X112650713Y-84295000D01*
X112495190Y-84264065D01*
X112348691Y-84203383D01*
X112283215Y-84159633D01*
X112216842Y-84115284D01*
X112104716Y-84003158D01*
X112016618Y-83871310D01*
X112016617Y-83871309D01*
X111955935Y-83724810D01*
X111925000Y-83569287D01*
X111925000Y-83410713D01*
X111955935Y-83255190D01*
X112016617Y-83108691D01*
X112104715Y-82976844D01*
X112104716Y-82976842D01*
X112216842Y-82864716D01*
X112348690Y-82776618D01*
X112348691Y-82776617D01*
X112495190Y-82715935D01*
X112650713Y-82685000D01*
X112809287Y-82685000D01*
X112964810Y-82715935D01*
X112964810Y-82715935D01*
G37*
G36*
X115504810Y-80175935D02*
G01*
X115651309Y-80236617D01*
X115651310Y-80236618D01*
X115783158Y-80324716D01*
X115895284Y-80436842D01*
X115895285Y-80436844D01*
X115983383Y-80568691D01*
X116044065Y-80715190D01*
X116075000Y-80870713D01*
X116075000Y-81029287D01*
X116044065Y-81184810D01*
X115983383Y-81331309D01*
X115983382Y-81331310D01*
X115895284Y-81463158D01*
X115783158Y-81575284D01*
X115716785Y-81619633D01*
X115651309Y-81663383D01*
X115504810Y-81724065D01*
X115349287Y-81755000D01*
X115190713Y-81755000D01*
X115035190Y-81724065D01*
X114888691Y-81663383D01*
X114823215Y-81619633D01*
X114756842Y-81575284D01*
X114644716Y-81463158D01*
X114556618Y-81331310D01*
X114556617Y-81331309D01*
X114495935Y-81184810D01*
X114465000Y-81029287D01*
X114465000Y-80870713D01*
X114495935Y-80715190D01*
X114556617Y-80568691D01*
X114644715Y-80436844D01*
X114644716Y-80436842D01*
X114756842Y-80324716D01*
X114888690Y-80236618D01*
X114888691Y-80236617D01*
X115035190Y-80175935D01*
X115190713Y-80145000D01*
X115349287Y-80145000D01*
X115504810Y-80175935D01*
X115504810Y-80175935D01*
G37*
G36*
X112964810Y-80175935D02*
G01*
X113111309Y-80236617D01*
X113111310Y-80236618D01*
X113243158Y-80324716D01*
X113355284Y-80436842D01*
X113355285Y-80436844D01*
X113443383Y-80568691D01*
X113504065Y-80715190D01*
X113535000Y-80870713D01*
X113535000Y-81029287D01*
X113504065Y-81184810D01*
X113443383Y-81331309D01*
X113443382Y-81331310D01*
X113355284Y-81463158D01*
X113243158Y-81575284D01*
X113176785Y-81619633D01*
X113111309Y-81663383D01*
X112964810Y-81724065D01*
X112809287Y-81755000D01*
X112650713Y-81755000D01*
X112495190Y-81724065D01*
X112348691Y-81663383D01*
X112283215Y-81619633D01*
X112216842Y-81575284D01*
X112104716Y-81463158D01*
X112016618Y-81331310D01*
X112016617Y-81331309D01*
X111955935Y-81184810D01*
X111925000Y-81029287D01*
X111925000Y-80870713D01*
X111955935Y-80715190D01*
X112016617Y-80568691D01*
X112104715Y-80436844D01*
X112104716Y-80436842D01*
X112216842Y-80324716D01*
X112348690Y-80236618D01*
X112348691Y-80236617D01*
X112495190Y-80175935D01*
X112650713Y-80145000D01*
X112809287Y-80145000D01*
X112964810Y-80175935D01*
X112964810Y-80175935D01*
G37*
G36*
X115504810Y-77635935D02*
G01*
X115651309Y-77696617D01*
X115699225Y-77728634D01*
X115783158Y-77784716D01*
X115895284Y-77896842D01*
X115919909Y-77933696D01*
X115983383Y-78028691D01*
X116044065Y-78175190D01*
X116075000Y-78330713D01*
X116075000Y-78489287D01*
X116044065Y-78644810D01*
X115983383Y-78791309D01*
X115983382Y-78791310D01*
X115895284Y-78923158D01*
X115783158Y-79035284D01*
X115716785Y-79079633D01*
X115651309Y-79123383D01*
X115504810Y-79184065D01*
X115349287Y-79215000D01*
X115190713Y-79215000D01*
X115035190Y-79184065D01*
X114888691Y-79123383D01*
X114823215Y-79079633D01*
X114756842Y-79035284D01*
X114644716Y-78923158D01*
X114556618Y-78791310D01*
X114556617Y-78791309D01*
X114495935Y-78644810D01*
X114465000Y-78489287D01*
X114465000Y-78330713D01*
X114495935Y-78175190D01*
X114556617Y-78028691D01*
X114620091Y-77933696D01*
X114644716Y-77896842D01*
X114756842Y-77784716D01*
X114840775Y-77728634D01*
X114888691Y-77696617D01*
X115035190Y-77635935D01*
X115190713Y-77605000D01*
X115349287Y-77605000D01*
X115504810Y-77635935D01*
X115504810Y-77635935D01*
G37*
G36*
X112964810Y-77635935D02*
G01*
X113111309Y-77696617D01*
X113159225Y-77728634D01*
X113243158Y-77784716D01*
X113355284Y-77896842D01*
X113379909Y-77933696D01*
X113443383Y-78028691D01*
X113504065Y-78175190D01*
X113535000Y-78330713D01*
X113535000Y-78489287D01*
X113504065Y-78644810D01*
X113443383Y-78791309D01*
X113443382Y-78791310D01*
X113355284Y-78923158D01*
X113243158Y-79035284D01*
X113176785Y-79079633D01*
X113111309Y-79123383D01*
X112964810Y-79184065D01*
X112809287Y-79215000D01*
X112650713Y-79215000D01*
X112495190Y-79184065D01*
X112348691Y-79123383D01*
X112283215Y-79079633D01*
X112216842Y-79035284D01*
X112104716Y-78923158D01*
X112016618Y-78791310D01*
X112016617Y-78791309D01*
X111955935Y-78644810D01*
X111925000Y-78489287D01*
X111925000Y-78330713D01*
X111955935Y-78175190D01*
X112016617Y-78028691D01*
X112080091Y-77933696D01*
X112104716Y-77896842D01*
X112216842Y-77784716D01*
X112300775Y-77728634D01*
X112348691Y-77696617D01*
X112495190Y-77635935D01*
X112650713Y-77605000D01*
X112809287Y-77605000D01*
X112964810Y-77635935D01*
X112964810Y-77635935D01*
G37*
G36*
X123157023Y-75960590D02*
G01*
X123257682Y-75991125D01*
X123308013Y-76006392D01*
X123447165Y-76080771D01*
X123569133Y-76180867D01*
X123669229Y-76302835D01*
X123743608Y-76441987D01*
X123743608Y-76441988D01*
X123789410Y-76592977D01*
X123801000Y-76710655D01*
X123801000Y-77289345D01*
X123789410Y-77407023D01*
X123770334Y-77469908D01*
X123743608Y-77558013D01*
X123701957Y-77635935D01*
X123669229Y-77697165D01*
X123569133Y-77819133D01*
X123470048Y-77900449D01*
X123447164Y-77919229D01*
X123308012Y-77993608D01*
X123257681Y-78008875D01*
X123157022Y-78039410D01*
X123000000Y-78054875D01*
X122842977Y-78039410D01*
X122742318Y-78008875D01*
X122691987Y-77993608D01*
X122552835Y-77919229D01*
X122430867Y-77819133D01*
X122330771Y-77697164D01*
X122330479Y-77696617D01*
X122256392Y-77558012D01*
X122234067Y-77484415D01*
X122210590Y-77407022D01*
X122199000Y-77289344D01*
X122199000Y-76710655D01*
X122210590Y-76592977D01*
X122256392Y-76441988D01*
X122256392Y-76441987D01*
X122275607Y-76406039D01*
X122330771Y-76302835D01*
X122430868Y-76180867D01*
X122552836Y-76080771D01*
X122613351Y-76048425D01*
X122691988Y-76006392D01*
X122742319Y-75991125D01*
X122842978Y-75960590D01*
X123000000Y-75945125D01*
X123157023Y-75960590D01*
X123157023Y-75960590D01*
G37*
G36*
X125657023Y-75960590D02*
G01*
X125757682Y-75991125D01*
X125808013Y-76006392D01*
X125947165Y-76080771D01*
X126069133Y-76180867D01*
X126169229Y-76302835D01*
X126243608Y-76441987D01*
X126243608Y-76441988D01*
X126289410Y-76592977D01*
X126301000Y-76710655D01*
X126301000Y-77289345D01*
X126289410Y-77407023D01*
X126270334Y-77469908D01*
X126243608Y-77558013D01*
X126201957Y-77635935D01*
X126169229Y-77697165D01*
X126069133Y-77819133D01*
X125970048Y-77900449D01*
X125947164Y-77919229D01*
X125808012Y-77993608D01*
X125757681Y-78008875D01*
X125657022Y-78039410D01*
X125500000Y-78054875D01*
X125342977Y-78039410D01*
X125242318Y-78008875D01*
X125191987Y-77993608D01*
X125052835Y-77919229D01*
X124930867Y-77819133D01*
X124830771Y-77697164D01*
X124830479Y-77696617D01*
X124756392Y-77558012D01*
X124734067Y-77484415D01*
X124710590Y-77407022D01*
X124699000Y-77289344D01*
X124699000Y-76710655D01*
X124710590Y-76592977D01*
X124756392Y-76441988D01*
X124756392Y-76441987D01*
X124775607Y-76406039D01*
X124830771Y-76302835D01*
X124930868Y-76180867D01*
X125052836Y-76080771D01*
X125113351Y-76048425D01*
X125191988Y-76006392D01*
X125242319Y-75991125D01*
X125342978Y-75960590D01*
X125500000Y-75945125D01*
X125657023Y-75960590D01*
X125657023Y-75960590D01*
G37*
G36*
X128528823Y-75956087D02*
G01*
X128592111Y-75975286D01*
X128650449Y-76006468D01*
X128701575Y-76048425D01*
X128743532Y-76099551D01*
X128774714Y-76157889D01*
X128793913Y-76221177D01*
X128801000Y-76293138D01*
X128801000Y-77706862D01*
X128793913Y-77778823D01*
X128774714Y-77842111D01*
X128743532Y-77900449D01*
X128701575Y-77951575D01*
X128650449Y-77993532D01*
X128592111Y-78024714D01*
X128528823Y-78043913D01*
X128456862Y-78051000D01*
X127543138Y-78051000D01*
X127471177Y-78043913D01*
X127407889Y-78024714D01*
X127349551Y-77993532D01*
X127298425Y-77951575D01*
X127256468Y-77900449D01*
X127225286Y-77842111D01*
X127206087Y-77778823D01*
X127199000Y-77706862D01*
X127199000Y-76293138D01*
X127206087Y-76221177D01*
X127225286Y-76157889D01*
X127256468Y-76099551D01*
X127298425Y-76048425D01*
X127349551Y-76006468D01*
X127407889Y-75975286D01*
X127471177Y-75956087D01*
X127543138Y-75949000D01*
X128456862Y-75949000D01*
X128528823Y-75956087D01*
X128528823Y-75956087D01*
G37*
G36*
X110879591Y-76515585D02*
G01*
X110913569Y-76525893D01*
X110944890Y-76542634D01*
X110972339Y-76565161D01*
X110994866Y-76592610D01*
X111011607Y-76623931D01*
X111021915Y-76657909D01*
X111026000Y-76699390D01*
X111026000Y-77300610D01*
X111021915Y-77342091D01*
X111011607Y-77376069D01*
X110994866Y-77407390D01*
X110972339Y-77434839D01*
X110944890Y-77457366D01*
X110913569Y-77474107D01*
X110879591Y-77484415D01*
X110838110Y-77488500D01*
X110161890Y-77488500D01*
X110120409Y-77484415D01*
X110086431Y-77474107D01*
X110055110Y-77457366D01*
X110027661Y-77434839D01*
X110005134Y-77407390D01*
X109988393Y-77376069D01*
X109978085Y-77342091D01*
X109974000Y-77300610D01*
X109974000Y-76699390D01*
X109978085Y-76657909D01*
X109988393Y-76623931D01*
X110005134Y-76592610D01*
X110027661Y-76565161D01*
X110055110Y-76542634D01*
X110086431Y-76525893D01*
X110120409Y-76515585D01*
X110161890Y-76511500D01*
X110838110Y-76511500D01*
X110879591Y-76515585D01*
X110879591Y-76515585D01*
G37*
G36*
X115504810Y-75095935D02*
G01*
X115651309Y-75156617D01*
X115651310Y-75156618D01*
X115783158Y-75244716D01*
X115895284Y-75356842D01*
X115895285Y-75356844D01*
X115983383Y-75488691D01*
X116044065Y-75635190D01*
X116075000Y-75790713D01*
X116075000Y-75949287D01*
X116044065Y-76104810D01*
X115983383Y-76251309D01*
X115939633Y-76316785D01*
X115895284Y-76383158D01*
X115783158Y-76495284D01*
X115758889Y-76511500D01*
X115651309Y-76583383D01*
X115504810Y-76644065D01*
X115349287Y-76675000D01*
X115190713Y-76675000D01*
X115035190Y-76644065D01*
X114888691Y-76583383D01*
X114781111Y-76511500D01*
X114756842Y-76495284D01*
X114644716Y-76383158D01*
X114600367Y-76316785D01*
X114556617Y-76251309D01*
X114495935Y-76104810D01*
X114465000Y-75949287D01*
X114465000Y-75790713D01*
X114495935Y-75635190D01*
X114556617Y-75488691D01*
X114644715Y-75356844D01*
X114644716Y-75356842D01*
X114756842Y-75244716D01*
X114888690Y-75156618D01*
X114888691Y-75156617D01*
X115035190Y-75095935D01*
X115190713Y-75065000D01*
X115349287Y-75065000D01*
X115504810Y-75095935D01*
X115504810Y-75095935D01*
G37*
G36*
X113535000Y-76675000D02*
G01*
X111925000Y-76675000D01*
X111925000Y-75065000D01*
X113535000Y-75065000D01*
X113535000Y-76675000D01*
X113535000Y-76675000D01*
G37*
G36*
X110879591Y-74940585D02*
G01*
X110913569Y-74950893D01*
X110944890Y-74967634D01*
X110972339Y-74990161D01*
X110994866Y-75017610D01*
X111011607Y-75048931D01*
X111021915Y-75082909D01*
X111026000Y-75124390D01*
X111026000Y-75725610D01*
X111021915Y-75767091D01*
X111011607Y-75801069D01*
X110994866Y-75832390D01*
X110972339Y-75859839D01*
X110944890Y-75882366D01*
X110913569Y-75899107D01*
X110879591Y-75909415D01*
X110838110Y-75913500D01*
X110161890Y-75913500D01*
X110120409Y-75909415D01*
X110086431Y-75899107D01*
X110055110Y-75882366D01*
X110027661Y-75859839D01*
X110005134Y-75832390D01*
X109988393Y-75801069D01*
X109978085Y-75767091D01*
X109974000Y-75725610D01*
X109974000Y-75124390D01*
X109978085Y-75082909D01*
X109988393Y-75048931D01*
X110005134Y-75017610D01*
X110027661Y-74990161D01*
X110055110Y-74967634D01*
X110086431Y-74950893D01*
X110120409Y-74940585D01*
X110161890Y-74936500D01*
X110838110Y-74936500D01*
X110879591Y-74940585D01*
X110879591Y-74940585D01*
G37*
G36*
X123767091Y-73978085D02*
G01*
X123801069Y-73988393D01*
X123832390Y-74005134D01*
X123859839Y-74027661D01*
X123882366Y-74055110D01*
X123899107Y-74086431D01*
X123909415Y-74120409D01*
X123913500Y-74161890D01*
X123913500Y-74838110D01*
X123909415Y-74879591D01*
X123899107Y-74913569D01*
X123882366Y-74944890D01*
X123859839Y-74972339D01*
X123832390Y-74994866D01*
X123801069Y-75011607D01*
X123767091Y-75021915D01*
X123725610Y-75026000D01*
X123124390Y-75026000D01*
X123082909Y-75021915D01*
X123048931Y-75011607D01*
X123017610Y-74994866D01*
X122990161Y-74972339D01*
X122967634Y-74944890D01*
X122950893Y-74913569D01*
X122940585Y-74879591D01*
X122936500Y-74838110D01*
X122936500Y-74161890D01*
X122940585Y-74120409D01*
X122950893Y-74086431D01*
X122967634Y-74055110D01*
X122990161Y-74027661D01*
X123017610Y-74005134D01*
X123048931Y-73988393D01*
X123082909Y-73978085D01*
X123124390Y-73974000D01*
X123725610Y-73974000D01*
X123767091Y-73978085D01*
X123767091Y-73978085D01*
G37*
G36*
X125342091Y-73978085D02*
G01*
X125376069Y-73988393D01*
X125407390Y-74005134D01*
X125434839Y-74027661D01*
X125457366Y-74055110D01*
X125474107Y-74086431D01*
X125484415Y-74120409D01*
X125488500Y-74161890D01*
X125488500Y-74838110D01*
X125484415Y-74879591D01*
X125474107Y-74913569D01*
X125457366Y-74944890D01*
X125434839Y-74972339D01*
X125407390Y-74994866D01*
X125376069Y-75011607D01*
X125342091Y-75021915D01*
X125300610Y-75026000D01*
X124699390Y-75026000D01*
X124657909Y-75021915D01*
X124623931Y-75011607D01*
X124592610Y-74994866D01*
X124565161Y-74972339D01*
X124542634Y-74944890D01*
X124525893Y-74913569D01*
X124515585Y-74879591D01*
X124511500Y-74838110D01*
X124511500Y-74161890D01*
X124515585Y-74120409D01*
X124525893Y-74086431D01*
X124542634Y-74055110D01*
X124565161Y-74027661D01*
X124592610Y-74005134D01*
X124623931Y-73988393D01*
X124657909Y-73978085D01*
X124699390Y-73974000D01*
X125300610Y-73974000D01*
X125342091Y-73978085D01*
X125342091Y-73978085D01*
G37*
G36*
X199779375Y-72095764D02*
G01*
X199932626Y-72142252D01*
X199932629Y-72142253D01*
X200073863Y-72217744D01*
X200197659Y-72319341D01*
X200299256Y-72443137D01*
X200374747Y-72584370D01*
X200374747Y-72584371D01*
X200374748Y-72584373D01*
X200421236Y-72737624D01*
X200433000Y-72857067D01*
X200433000Y-73912933D01*
X200421236Y-74032376D01*
X200379307Y-74170599D01*
X200374747Y-74185630D01*
X200299256Y-74326863D01*
X200197659Y-74450659D01*
X200073863Y-74552256D01*
X199932630Y-74627747D01*
X199932627Y-74627748D01*
X199779376Y-74674236D01*
X199620000Y-74689933D01*
X199460625Y-74674236D01*
X199307374Y-74627748D01*
X199307371Y-74627747D01*
X199166138Y-74552256D01*
X199042342Y-74450659D01*
X198940745Y-74326863D01*
X198865254Y-74185630D01*
X198860694Y-74170599D01*
X198818765Y-74032376D01*
X198807001Y-73912933D01*
X198807000Y-72857068D01*
X198818764Y-72737625D01*
X198865252Y-72584374D01*
X198865253Y-72584371D01*
X198940744Y-72443137D01*
X199042341Y-72319341D01*
X199166137Y-72217744D01*
X199307370Y-72142253D01*
X199307373Y-72142252D01*
X199460624Y-72095764D01*
X199620000Y-72080067D01*
X199779375Y-72095764D01*
X199779375Y-72095764D01*
G37*
G36*
X187079375Y-72095764D02*
G01*
X187232626Y-72142252D01*
X187232629Y-72142253D01*
X187373863Y-72217744D01*
X187497659Y-72319341D01*
X187599256Y-72443137D01*
X187674747Y-72584370D01*
X187674747Y-72584371D01*
X187674748Y-72584373D01*
X187721236Y-72737624D01*
X187733000Y-72857067D01*
X187733000Y-73912933D01*
X187721236Y-74032376D01*
X187679307Y-74170599D01*
X187674747Y-74185630D01*
X187599256Y-74326863D01*
X187497659Y-74450659D01*
X187373863Y-74552256D01*
X187232630Y-74627747D01*
X187232627Y-74627748D01*
X187079376Y-74674236D01*
X186920000Y-74689933D01*
X186760625Y-74674236D01*
X186607374Y-74627748D01*
X186607371Y-74627747D01*
X186466138Y-74552256D01*
X186342342Y-74450659D01*
X186240745Y-74326863D01*
X186165254Y-74185630D01*
X186160694Y-74170599D01*
X186118765Y-74032376D01*
X186107001Y-73912933D01*
X186107000Y-72857068D01*
X186118764Y-72737625D01*
X186165252Y-72584374D01*
X186165253Y-72584371D01*
X186240744Y-72443137D01*
X186342341Y-72319341D01*
X186466137Y-72217744D01*
X186607370Y-72142253D01*
X186607373Y-72142252D01*
X186760624Y-72095764D01*
X186920000Y-72080067D01*
X187079375Y-72095764D01*
X187079375Y-72095764D01*
G37*
G36*
X184539375Y-72095764D02*
G01*
X184692626Y-72142252D01*
X184692629Y-72142253D01*
X184833863Y-72217744D01*
X184957659Y-72319341D01*
X185059256Y-72443137D01*
X185134747Y-72584370D01*
X185134747Y-72584371D01*
X185134748Y-72584373D01*
X185181236Y-72737624D01*
X185193000Y-72857067D01*
X185193000Y-73912933D01*
X185181236Y-74032376D01*
X185139307Y-74170599D01*
X185134747Y-74185630D01*
X185059256Y-74326863D01*
X184957659Y-74450659D01*
X184833863Y-74552256D01*
X184692630Y-74627747D01*
X184692627Y-74627748D01*
X184539376Y-74674236D01*
X184380000Y-74689933D01*
X184220625Y-74674236D01*
X184067374Y-74627748D01*
X184067371Y-74627747D01*
X183926138Y-74552256D01*
X183802342Y-74450659D01*
X183700745Y-74326863D01*
X183625254Y-74185630D01*
X183620694Y-74170599D01*
X183578765Y-74032376D01*
X183567001Y-73912933D01*
X183567000Y-72857068D01*
X183578764Y-72737625D01*
X183625252Y-72584374D01*
X183625253Y-72584371D01*
X183700744Y-72443137D01*
X183802341Y-72319341D01*
X183926137Y-72217744D01*
X184067370Y-72142253D01*
X184067373Y-72142252D01*
X184220624Y-72095764D01*
X184380000Y-72080067D01*
X184539375Y-72095764D01*
X184539375Y-72095764D01*
G37*
G36*
X189619375Y-72095764D02*
G01*
X189772626Y-72142252D01*
X189772629Y-72142253D01*
X189913863Y-72217744D01*
X190037659Y-72319341D01*
X190139256Y-72443137D01*
X190214747Y-72584370D01*
X190214747Y-72584371D01*
X190214748Y-72584373D01*
X190261236Y-72737624D01*
X190273000Y-72857067D01*
X190273000Y-73912933D01*
X190261236Y-74032376D01*
X190219307Y-74170599D01*
X190214747Y-74185630D01*
X190139256Y-74326863D01*
X190037659Y-74450659D01*
X189913863Y-74552256D01*
X189772630Y-74627747D01*
X189772627Y-74627748D01*
X189619376Y-74674236D01*
X189460000Y-74689933D01*
X189300625Y-74674236D01*
X189147374Y-74627748D01*
X189147371Y-74627747D01*
X189006138Y-74552256D01*
X188882342Y-74450659D01*
X188780745Y-74326863D01*
X188705254Y-74185630D01*
X188700694Y-74170599D01*
X188658765Y-74032376D01*
X188647001Y-73912933D01*
X188647000Y-72857068D01*
X188658764Y-72737625D01*
X188705252Y-72584374D01*
X188705253Y-72584371D01*
X188780744Y-72443137D01*
X188882341Y-72319341D01*
X189006137Y-72217744D01*
X189147370Y-72142253D01*
X189147373Y-72142252D01*
X189300624Y-72095764D01*
X189460000Y-72080067D01*
X189619375Y-72095764D01*
X189619375Y-72095764D01*
G37*
G36*
X192159375Y-72095764D02*
G01*
X192312626Y-72142252D01*
X192312629Y-72142253D01*
X192453863Y-72217744D01*
X192577659Y-72319341D01*
X192679256Y-72443137D01*
X192754747Y-72584370D01*
X192754747Y-72584371D01*
X192754748Y-72584373D01*
X192801236Y-72737624D01*
X192813000Y-72857067D01*
X192813000Y-73912933D01*
X192801236Y-74032376D01*
X192759307Y-74170599D01*
X192754747Y-74185630D01*
X192679256Y-74326863D01*
X192577659Y-74450659D01*
X192453863Y-74552256D01*
X192312630Y-74627747D01*
X192312627Y-74627748D01*
X192159376Y-74674236D01*
X192000000Y-74689933D01*
X191840625Y-74674236D01*
X191687374Y-74627748D01*
X191687371Y-74627747D01*
X191546138Y-74552256D01*
X191422342Y-74450659D01*
X191320745Y-74326863D01*
X191245254Y-74185630D01*
X191240694Y-74170599D01*
X191198765Y-74032376D01*
X191187001Y-73912933D01*
X191187000Y-72857068D01*
X191198764Y-72737625D01*
X191245252Y-72584374D01*
X191245253Y-72584371D01*
X191320744Y-72443137D01*
X191422341Y-72319341D01*
X191546137Y-72217744D01*
X191687370Y-72142253D01*
X191687373Y-72142252D01*
X191840624Y-72095764D01*
X192000000Y-72080067D01*
X192159375Y-72095764D01*
X192159375Y-72095764D01*
G37*
G36*
X197239375Y-72095764D02*
G01*
X197392626Y-72142252D01*
X197392629Y-72142253D01*
X197533863Y-72217744D01*
X197657659Y-72319341D01*
X197759256Y-72443137D01*
X197834747Y-72584370D01*
X197834747Y-72584371D01*
X197834748Y-72584373D01*
X197881236Y-72737624D01*
X197893000Y-72857067D01*
X197893000Y-73912933D01*
X197881236Y-74032376D01*
X197839307Y-74170599D01*
X197834747Y-74185630D01*
X197759256Y-74326863D01*
X197657659Y-74450659D01*
X197533863Y-74552256D01*
X197392630Y-74627747D01*
X197392627Y-74627748D01*
X197239376Y-74674236D01*
X197080000Y-74689933D01*
X196920625Y-74674236D01*
X196767374Y-74627748D01*
X196767371Y-74627747D01*
X196626138Y-74552256D01*
X196502342Y-74450659D01*
X196400745Y-74326863D01*
X196325254Y-74185630D01*
X196320694Y-74170599D01*
X196278765Y-74032376D01*
X196267001Y-73912933D01*
X196267000Y-72857068D01*
X196278764Y-72737625D01*
X196325252Y-72584374D01*
X196325253Y-72584371D01*
X196400744Y-72443137D01*
X196502341Y-72319341D01*
X196626137Y-72217744D01*
X196767370Y-72142253D01*
X196767373Y-72142252D01*
X196920624Y-72095764D01*
X197080000Y-72080067D01*
X197239375Y-72095764D01*
X197239375Y-72095764D01*
G37*
G36*
X194699375Y-72095764D02*
G01*
X194852626Y-72142252D01*
X194852629Y-72142253D01*
X194993863Y-72217744D01*
X195117659Y-72319341D01*
X195219256Y-72443137D01*
X195294747Y-72584370D01*
X195294747Y-72584371D01*
X195294748Y-72584373D01*
X195341236Y-72737624D01*
X195353000Y-72857067D01*
X195353000Y-73912933D01*
X195341236Y-74032376D01*
X195299307Y-74170599D01*
X195294747Y-74185630D01*
X195219256Y-74326863D01*
X195117659Y-74450659D01*
X194993863Y-74552256D01*
X194852630Y-74627747D01*
X194852627Y-74627748D01*
X194699376Y-74674236D01*
X194540000Y-74689933D01*
X194380625Y-74674236D01*
X194227374Y-74627748D01*
X194227371Y-74627747D01*
X194086138Y-74552256D01*
X193962342Y-74450659D01*
X193860745Y-74326863D01*
X193785254Y-74185630D01*
X193780694Y-74170599D01*
X193738765Y-74032376D01*
X193727001Y-73912933D01*
X193727000Y-72857068D01*
X193738764Y-72737625D01*
X193785252Y-72584374D01*
X193785253Y-72584371D01*
X193860744Y-72443137D01*
X193962341Y-72319341D01*
X194086137Y-72217744D01*
X194227370Y-72142253D01*
X194227373Y-72142252D01*
X194380624Y-72095764D01*
X194540000Y-72080067D01*
X194699375Y-72095764D01*
X194699375Y-72095764D01*
G37*
G36*
X114415949Y-69628800D02*
G01*
X114675463Y-69736294D01*
X114675464Y-69736295D01*
X114909022Y-69892353D01*
X115107647Y-70090978D01*
X115107648Y-70090980D01*
X115263706Y-70324537D01*
X115371200Y-70584051D01*
X115426000Y-70859550D01*
X115426000Y-71140450D01*
X115371200Y-71415949D01*
X115263706Y-71675463D01*
X115263705Y-71675464D01*
X115107647Y-71909022D01*
X114909022Y-72107647D01*
X114857232Y-72142252D01*
X114675463Y-72263706D01*
X114415949Y-72371200D01*
X114140450Y-72426000D01*
X113859550Y-72426000D01*
X113584051Y-72371200D01*
X113324537Y-72263706D01*
X113142768Y-72142252D01*
X113090978Y-72107647D01*
X112892353Y-71909022D01*
X112736295Y-71675464D01*
X112736294Y-71675463D01*
X112628800Y-71415949D01*
X112574000Y-71140450D01*
X112574000Y-70859550D01*
X112628800Y-70584051D01*
X112736294Y-70324537D01*
X112892352Y-70090980D01*
X112892353Y-70090978D01*
X113090978Y-69892353D01*
X113324536Y-69736295D01*
X113324537Y-69736294D01*
X113584051Y-69628800D01*
X113859550Y-69574000D01*
X114140450Y-69574000D01*
X114415949Y-69628800D01*
X114415949Y-69628800D01*
G37*
G36*
X91415949Y-69628800D02*
G01*
X91675463Y-69736294D01*
X91675464Y-69736295D01*
X91909022Y-69892353D01*
X92107647Y-70090978D01*
X92107648Y-70090980D01*
X92263706Y-70324537D01*
X92371200Y-70584051D01*
X92426000Y-70859550D01*
X92426000Y-71140450D01*
X92371200Y-71415949D01*
X92263706Y-71675463D01*
X92263705Y-71675464D01*
X92107647Y-71909022D01*
X91909022Y-72107647D01*
X91857232Y-72142252D01*
X91675463Y-72263706D01*
X91415949Y-72371200D01*
X91140450Y-72426000D01*
X90859550Y-72426000D01*
X90584051Y-72371200D01*
X90324537Y-72263706D01*
X90142768Y-72142252D01*
X90090978Y-72107647D01*
X89892353Y-71909022D01*
X89736295Y-71675464D01*
X89736294Y-71675463D01*
X89628800Y-71415949D01*
X89574000Y-71140450D01*
X89574000Y-70859550D01*
X89628800Y-70584051D01*
X89736294Y-70324537D01*
X89892352Y-70090980D01*
X89892353Y-70090978D01*
X90090978Y-69892353D01*
X90324536Y-69736295D01*
X90324537Y-69736294D01*
X90584051Y-69628800D01*
X90859550Y-69574000D01*
X91140450Y-69574000D01*
X91415949Y-69628800D01*
X91415949Y-69628800D01*
G37*
G36*
X189342091Y-70228085D02*
G01*
X189376069Y-70238393D01*
X189407390Y-70255134D01*
X189434839Y-70277661D01*
X189457366Y-70305110D01*
X189474107Y-70336431D01*
X189484415Y-70370409D01*
X189488500Y-70411890D01*
X189488500Y-71088110D01*
X189484415Y-71129591D01*
X189474107Y-71163569D01*
X189457366Y-71194890D01*
X189434839Y-71222339D01*
X189407390Y-71244866D01*
X189376069Y-71261607D01*
X189342091Y-71271915D01*
X189300610Y-71276000D01*
X188699390Y-71276000D01*
X188657909Y-71271915D01*
X188623931Y-71261607D01*
X188592610Y-71244866D01*
X188565161Y-71222339D01*
X188542634Y-71194890D01*
X188525893Y-71163569D01*
X188515585Y-71129591D01*
X188511500Y-71088110D01*
X188511500Y-70411890D01*
X188515585Y-70370409D01*
X188525893Y-70336431D01*
X188542634Y-70305110D01*
X188565161Y-70277661D01*
X188592610Y-70255134D01*
X188623931Y-70238393D01*
X188657909Y-70228085D01*
X188699390Y-70224000D01*
X189300610Y-70224000D01*
X189342091Y-70228085D01*
X189342091Y-70228085D01*
G37*
G36*
X187767091Y-70228085D02*
G01*
X187801069Y-70238393D01*
X187832390Y-70255134D01*
X187859839Y-70277661D01*
X187882366Y-70305110D01*
X187899107Y-70336431D01*
X187909415Y-70370409D01*
X187913500Y-70411890D01*
X187913500Y-71088110D01*
X187909415Y-71129591D01*
X187899107Y-71163569D01*
X187882366Y-71194890D01*
X187859839Y-71222339D01*
X187832390Y-71244866D01*
X187801069Y-71261607D01*
X187767091Y-71271915D01*
X187725610Y-71276000D01*
X187124390Y-71276000D01*
X187082909Y-71271915D01*
X187048931Y-71261607D01*
X187017610Y-71244866D01*
X186990161Y-71222339D01*
X186967634Y-71194890D01*
X186950893Y-71163569D01*
X186940585Y-71129591D01*
X186936500Y-71088110D01*
X186936500Y-70411890D01*
X186940585Y-70370409D01*
X186950893Y-70336431D01*
X186967634Y-70305110D01*
X186990161Y-70277661D01*
X187017610Y-70255134D01*
X187048931Y-70238393D01*
X187082909Y-70228085D01*
X187124390Y-70224000D01*
X187725610Y-70224000D01*
X187767091Y-70228085D01*
X187767091Y-70228085D01*
G37*
G36*
X125127618Y-66083420D02*
G01*
X125208400Y-66107925D01*
X125250336Y-66120646D01*
X125363425Y-66181094D01*
X125462554Y-66262446D01*
X125543906Y-66361575D01*
X125604354Y-66474664D01*
X125604355Y-66474668D01*
X125641580Y-66597382D01*
X125651000Y-66693027D01*
X125651000Y-67306973D01*
X125641580Y-67402618D01*
X125614040Y-67493404D01*
X125604354Y-67525336D01*
X125543906Y-67638425D01*
X125462554Y-67737553D01*
X125363424Y-67818906D01*
X125250335Y-67879354D01*
X125218403Y-67889040D01*
X125127617Y-67916580D01*
X125000000Y-67929149D01*
X124872382Y-67916580D01*
X124781596Y-67889040D01*
X124749664Y-67879354D01*
X124636575Y-67818906D01*
X124537447Y-67737554D01*
X124456094Y-67638424D01*
X124395646Y-67525335D01*
X124385960Y-67493403D01*
X124358420Y-67402617D01*
X124349000Y-67306972D01*
X124349000Y-66693027D01*
X124358420Y-66597382D01*
X124395645Y-66474668D01*
X124395645Y-66474667D01*
X124427957Y-66414217D01*
X124456095Y-66361574D01*
X124469493Y-66345249D01*
X124537447Y-66262446D01*
X124636576Y-66181094D01*
X124749665Y-66120646D01*
X124791601Y-66107925D01*
X124872383Y-66083420D01*
X125000000Y-66070851D01*
X125127618Y-66083420D01*
X125127618Y-66083420D01*
G37*
G36*
X127491242Y-66078404D02*
G01*
X127528337Y-66089657D01*
X127562515Y-66107925D01*
X127592481Y-66132519D01*
X127617075Y-66162485D01*
X127635343Y-66196663D01*
X127646596Y-66233758D01*
X127651000Y-66278474D01*
X127651000Y-67721526D01*
X127646596Y-67766242D01*
X127635343Y-67803337D01*
X127617075Y-67837515D01*
X127592481Y-67867481D01*
X127562515Y-67892075D01*
X127528337Y-67910343D01*
X127491242Y-67921596D01*
X127446526Y-67926000D01*
X126553474Y-67926000D01*
X126508758Y-67921596D01*
X126471663Y-67910343D01*
X126437485Y-67892075D01*
X126407519Y-67867481D01*
X126382925Y-67837515D01*
X126364657Y-67803337D01*
X126353404Y-67766242D01*
X126349000Y-67721526D01*
X126349000Y-66278474D01*
X126353404Y-66233758D01*
X126364657Y-66196663D01*
X126382925Y-66162485D01*
X126407519Y-66132519D01*
X126437485Y-66107925D01*
X126471663Y-66089657D01*
X126508758Y-66078404D01*
X126553474Y-66074000D01*
X127446526Y-66074000D01*
X127491242Y-66078404D01*
X127491242Y-66078404D01*
G37*
M02*
