G04 #@! TF.GenerationSoftware,KiCad,Pcbnew,(5.1.4-0-10_14)*
G04 #@! TF.CreationDate,2019-11-10T19:32:43-05:00*
G04 #@! TF.ProjectId,PacBot_2019-2020,50616342-6f74-45f3-9230-31392d323032,rev?*
G04 #@! TF.SameCoordinates,Original*
G04 #@! TF.FileFunction,Legend,Top*
G04 #@! TF.FilePolarity,Positive*
%FSLAX46Y46*%
G04 Gerber Fmt 4.6, Leading zero omitted, Abs format (unit mm)*
G04 Created by KiCad (PCBNEW (5.1.4-0-10_14)) date 2019-11-10 19:32:43*
%MOMM*%
%LPD*%
G04 APERTURE LIST*
%ADD10C,0.100000*%
%ADD11C,0.150000*%
%ADD12C,0.127000*%
%ADD13C,0.120000*%
%ADD14C,0.050000*%
G04 APERTURE END LIST*
D10*
G36*
X126079000Y-109826000D02*
G01*
X126333000Y-109572000D01*
X126587000Y-109953000D01*
X126333000Y-110207000D01*
X126079000Y-109826000D01*
G37*
X126079000Y-109826000D02*
X126333000Y-109572000D01*
X126587000Y-109953000D01*
X126333000Y-110207000D01*
X126079000Y-109826000D01*
G36*
X125317000Y-108810000D02*
G01*
X125571000Y-108556000D01*
X125825000Y-108937000D01*
X125571000Y-109191000D01*
X125317000Y-108810000D01*
G37*
X125317000Y-108810000D02*
X125571000Y-108556000D01*
X125825000Y-108937000D01*
X125571000Y-109191000D01*
X125317000Y-108810000D01*
G36*
X124555000Y-109572000D02*
G01*
X124809000Y-109318000D01*
X125063000Y-109699000D01*
X124809000Y-109953000D01*
X124555000Y-109572000D01*
G37*
X124555000Y-109572000D02*
X124809000Y-109318000D01*
X125063000Y-109699000D01*
X124809000Y-109953000D01*
X124555000Y-109572000D01*
G36*
X126460000Y-109445000D02*
G01*
X126714000Y-109191000D01*
X126968000Y-109572000D01*
X126714000Y-109826000D01*
X126460000Y-109445000D01*
G37*
X126460000Y-109445000D02*
X126714000Y-109191000D01*
X126968000Y-109572000D01*
X126714000Y-109826000D01*
X126460000Y-109445000D01*
G36*
X124936000Y-109191000D02*
G01*
X125190000Y-108937000D01*
X125444000Y-109318000D01*
X125190000Y-109572000D01*
X124936000Y-109191000D01*
G37*
X124936000Y-109191000D02*
X125190000Y-108937000D01*
X125444000Y-109318000D01*
X125190000Y-109572000D01*
X124936000Y-109191000D01*
G36*
X126841000Y-109953000D02*
G01*
X127095000Y-109699000D01*
X127349000Y-110080000D01*
X127095000Y-110334000D01*
X126841000Y-109953000D01*
G37*
X126841000Y-109953000D02*
X127095000Y-109699000D01*
X127349000Y-110080000D01*
X127095000Y-110334000D01*
X126841000Y-109953000D01*
G36*
X125698000Y-109318000D02*
G01*
X125952000Y-109064000D01*
X126206000Y-109445000D01*
X125952000Y-109699000D01*
X125698000Y-109318000D01*
G37*
X125698000Y-109318000D02*
X125952000Y-109064000D01*
X126206000Y-109445000D01*
X125952000Y-109699000D01*
X125698000Y-109318000D01*
G36*
X126079000Y-108937000D02*
G01*
X126333000Y-108683000D01*
X126587000Y-109064000D01*
X126333000Y-109318000D01*
X126079000Y-108937000D01*
G37*
X126079000Y-108937000D02*
X126333000Y-108683000D01*
X126587000Y-109064000D01*
X126333000Y-109318000D01*
X126079000Y-108937000D01*
D11*
X120110000Y-87220000D02*
X137890000Y-87220000D01*
X120110000Y-122780000D02*
X120110000Y-87220000D01*
X137890000Y-122780000D02*
X120110000Y-122780000D01*
X137890000Y-87220000D02*
X137890000Y-122780000D01*
X123920000Y-113890000D02*
X123920000Y-105000000D01*
X134080000Y-113890000D02*
X134080000Y-105000000D01*
X134080000Y-105000000D02*
X123920000Y-105000000D01*
X123920000Y-113890000D02*
X134080000Y-113890000D01*
X131540000Y-117700000D02*
X131540000Y-120240000D01*
X126460000Y-117700000D02*
X131540000Y-117700000D01*
X126460000Y-120240000D02*
X126460000Y-117700000D01*
X131540000Y-120240000D02*
X126460000Y-120240000D01*
X126460000Y-93570000D02*
X123920000Y-93570000D01*
X126460000Y-96110000D02*
X126460000Y-93570000D01*
X123920000Y-96110000D02*
X126460000Y-96110000D01*
X123920000Y-93570000D02*
X123920000Y-96110000D01*
X125190000Y-92300000D02*
X125190000Y-87220000D01*
X132810000Y-92300000D02*
X132810000Y-87220000D01*
X125190000Y-92300000D02*
X132810000Y-92300000D01*
X126460000Y-98650000D02*
X123920000Y-98650000D01*
X126460000Y-102460000D02*
X126460000Y-98650000D01*
X123920000Y-102460000D02*
X126460000Y-102460000D01*
X123920000Y-98650000D02*
X123920000Y-102460000D01*
X132810000Y-85950000D02*
X132810000Y-87220000D01*
X125190000Y-85950000D02*
X132810000Y-85950000D01*
X125190000Y-87220000D02*
X125190000Y-85950000D01*
D12*
X87500000Y-117000000D02*
X87500000Y-125350000D01*
X87500000Y-104400000D02*
X87500000Y-112750000D01*
X114500000Y-67500000D02*
X90500000Y-67500000D01*
X117500000Y-70500000D02*
G75*
G03X114500000Y-67500000I-3000000J0D01*
G01*
X117500000Y-129500000D02*
X117500000Y-70500000D01*
X114500000Y-132500000D02*
G75*
G03X117500000Y-129500000I0J3000000D01*
G01*
X90500000Y-132500000D02*
X114500000Y-132500000D01*
X87500000Y-129500000D02*
G75*
G03X90500000Y-132500000I3000000J0D01*
G01*
X87500000Y-70500000D02*
X87500000Y-129500000D01*
X90500000Y-67500000D02*
G75*
G03X87500000Y-70500000I0J-3000000D01*
G01*
D13*
X188049721Y-71260000D02*
X188375279Y-71260000D01*
X188049721Y-70240000D02*
X188375279Y-70240000D01*
X200990000Y-96124721D02*
X200990000Y-96450279D01*
X202010000Y-96124721D02*
X202010000Y-96450279D01*
X109990000Y-76049721D02*
X109990000Y-76375279D01*
X111010000Y-76049721D02*
X111010000Y-76375279D01*
X195912779Y-128740000D02*
X195587221Y-128740000D01*
X195912779Y-129760000D02*
X195587221Y-129760000D01*
X166010000Y-93950279D02*
X166010000Y-93624721D01*
X164990000Y-93950279D02*
X164990000Y-93624721D01*
X97740000Y-103549721D02*
X97740000Y-103875279D01*
X98760000Y-103549721D02*
X98760000Y-103875279D01*
X124049721Y-75010000D02*
X124375279Y-75010000D01*
X124049721Y-73990000D02*
X124375279Y-73990000D01*
X146049721Y-100260000D02*
X146375279Y-100260000D01*
X146049721Y-99240000D02*
X146375279Y-99240000D01*
X145000000Y-93700000D02*
X145000000Y-98200000D01*
X155000000Y-93700000D02*
X145000000Y-93700000D01*
X155000000Y-98200000D02*
X155000000Y-93700000D01*
X145000000Y-98200000D02*
X155000000Y-98200000D01*
X101160000Y-91500000D02*
X86500000Y-91500000D01*
X86500000Y-108500000D02*
X101160000Y-108500000D01*
X86500000Y-108500000D02*
X86500000Y-91500000D01*
X198840000Y-108500000D02*
X213500000Y-108500000D01*
X213500000Y-91500000D02*
X198840000Y-91500000D01*
X213500000Y-91500000D02*
X213500000Y-108500000D01*
X183500000Y-126615000D02*
X183500000Y-141275000D01*
X200500000Y-141275000D02*
X200500000Y-126615000D01*
X200500000Y-141275000D02*
X183500000Y-141275000D01*
X200500000Y-73385000D02*
X200500000Y-58725000D01*
X183500000Y-58725000D02*
X183500000Y-73385000D01*
X183500000Y-58725000D02*
X200500000Y-58725000D01*
X129360000Y-69110000D02*
X129360000Y-67860000D01*
X128110000Y-69110000D02*
X129360000Y-69110000D01*
X126000000Y-64700000D02*
X126000000Y-65200000D01*
X125900000Y-65200000D02*
X125900000Y-64700000D01*
X126100000Y-65200000D02*
X125900000Y-65200000D01*
X126100000Y-64700000D02*
X126100000Y-65200000D01*
X122940000Y-66200000D02*
X123550000Y-66200000D01*
X122940000Y-67500000D02*
X123550000Y-67500000D01*
X129060000Y-66200000D02*
X128450000Y-66200000D01*
X129060000Y-67500000D02*
X128450000Y-67500000D01*
X125500000Y-68200000D02*
X125500000Y-68810000D01*
X123550000Y-68200000D02*
X125500000Y-68200000D01*
X123550000Y-64700000D02*
X123550000Y-68200000D01*
X128450000Y-64700000D02*
X123550000Y-64700000D01*
X128450000Y-68200000D02*
X128450000Y-64700000D01*
X126500000Y-68200000D02*
X128450000Y-68200000D01*
X126500000Y-68810000D02*
X126500000Y-68200000D01*
X127300000Y-68910000D02*
X127600000Y-68910000D01*
X127600000Y-69010000D02*
X127600000Y-68810000D01*
X127300000Y-69010000D02*
X127600000Y-69010000D01*
X127300000Y-68810000D02*
X127300000Y-69010000D01*
X122940000Y-68810000D02*
X129060000Y-68810000D01*
X122940000Y-64090000D02*
X122940000Y-68810000D01*
X129060000Y-64090000D02*
X122940000Y-64090000D01*
X129060000Y-68810000D02*
X129060000Y-64090000D01*
X128300000Y-74100000D02*
X127700000Y-74100000D01*
X128000000Y-74600000D02*
X128300000Y-74100000D01*
X127700000Y-74100000D02*
X128000000Y-74600000D01*
X129490000Y-75140000D02*
X121510000Y-75140000D01*
X121510000Y-73140000D02*
X121510000Y-75140000D01*
X119900000Y-73140000D02*
X121510000Y-73140000D01*
X129490000Y-73140000D02*
X129490000Y-75140000D01*
X131100000Y-73140000D02*
X129490000Y-73140000D01*
X119290000Y-80250000D02*
X119290000Y-73750000D01*
X131710000Y-80250000D02*
X131710000Y-73750000D01*
X131100000Y-80860000D02*
X119900000Y-80860000D01*
X119900000Y-73140000D02*
G75*
G03X119290000Y-73750000I0J-610000D01*
G01*
X131710000Y-73750000D02*
G75*
G03X131100000Y-73140000I-610000J0D01*
G01*
X119290000Y-80250000D02*
G75*
G03X119900000Y-80860000I610000J0D01*
G01*
X131100000Y-80860000D02*
G75*
G03X131710000Y-80250000I0J610000D01*
G01*
X165640000Y-111890000D02*
X165640000Y-113140000D01*
X166890000Y-111890000D02*
X165640000Y-111890000D01*
X177000000Y-116300000D02*
X177000000Y-115800000D01*
X177100000Y-115800000D02*
X177100000Y-116300000D01*
X176900000Y-115800000D02*
X177100000Y-115800000D01*
X176900000Y-116300000D02*
X176900000Y-115800000D01*
X175000000Y-116300000D02*
X175000000Y-115800000D01*
X175100000Y-115800000D02*
X175100000Y-116300000D01*
X174900000Y-115800000D02*
X175100000Y-115800000D01*
X174900000Y-116300000D02*
X174900000Y-115800000D01*
X173000000Y-116300000D02*
X173000000Y-115800000D01*
X173100000Y-115800000D02*
X173100000Y-116300000D01*
X172900000Y-115800000D02*
X173100000Y-115800000D01*
X172900000Y-116300000D02*
X172900000Y-115800000D01*
X171000000Y-116300000D02*
X171000000Y-115800000D01*
X171100000Y-115800000D02*
X171100000Y-116300000D01*
X170900000Y-115800000D02*
X171100000Y-115800000D01*
X170900000Y-116300000D02*
X170900000Y-115800000D01*
X169000000Y-116300000D02*
X169000000Y-115800000D01*
X169100000Y-115800000D02*
X169100000Y-116300000D01*
X168900000Y-115800000D02*
X169100000Y-115800000D01*
X168900000Y-116300000D02*
X168900000Y-115800000D01*
X180060000Y-114800000D02*
X179450000Y-114800000D01*
X180060000Y-113500000D02*
X179450000Y-113500000D01*
X165940000Y-114800000D02*
X166550000Y-114800000D01*
X165940000Y-113500000D02*
X166550000Y-113500000D01*
X177500000Y-112800000D02*
X177500000Y-112190000D01*
X179450000Y-112800000D02*
X177500000Y-112800000D01*
X179450000Y-116300000D02*
X179450000Y-112800000D01*
X166550000Y-116300000D02*
X179450000Y-116300000D01*
X166550000Y-112800000D02*
X166550000Y-116300000D01*
X168500000Y-112800000D02*
X166550000Y-112800000D01*
X168500000Y-112190000D02*
X168500000Y-112800000D01*
X167700000Y-112090000D02*
X167400000Y-112090000D01*
X167400000Y-111990000D02*
X167400000Y-112190000D01*
X167700000Y-111990000D02*
X167400000Y-111990000D01*
X167700000Y-112190000D02*
X167700000Y-111990000D01*
X180060000Y-112190000D02*
X165940000Y-112190000D01*
X180060000Y-116910000D02*
X180060000Y-112190000D01*
X165940000Y-116910000D02*
X180060000Y-116910000D01*
X165940000Y-112190000D02*
X165940000Y-116910000D01*
X165640000Y-83890000D02*
X165640000Y-85140000D01*
X166890000Y-83890000D02*
X165640000Y-83890000D01*
X177000000Y-88300000D02*
X177000000Y-87800000D01*
X177100000Y-87800000D02*
X177100000Y-88300000D01*
X176900000Y-87800000D02*
X177100000Y-87800000D01*
X176900000Y-88300000D02*
X176900000Y-87800000D01*
X175000000Y-88300000D02*
X175000000Y-87800000D01*
X175100000Y-87800000D02*
X175100000Y-88300000D01*
X174900000Y-87800000D02*
X175100000Y-87800000D01*
X174900000Y-88300000D02*
X174900000Y-87800000D01*
X173000000Y-88300000D02*
X173000000Y-87800000D01*
X173100000Y-87800000D02*
X173100000Y-88300000D01*
X172900000Y-87800000D02*
X173100000Y-87800000D01*
X172900000Y-88300000D02*
X172900000Y-87800000D01*
X171000000Y-88300000D02*
X171000000Y-87800000D01*
X171100000Y-87800000D02*
X171100000Y-88300000D01*
X170900000Y-87800000D02*
X171100000Y-87800000D01*
X170900000Y-88300000D02*
X170900000Y-87800000D01*
X169000000Y-88300000D02*
X169000000Y-87800000D01*
X169100000Y-87800000D02*
X169100000Y-88300000D01*
X168900000Y-87800000D02*
X169100000Y-87800000D01*
X168900000Y-88300000D02*
X168900000Y-87800000D01*
X180060000Y-86800000D02*
X179450000Y-86800000D01*
X180060000Y-85500000D02*
X179450000Y-85500000D01*
X165940000Y-86800000D02*
X166550000Y-86800000D01*
X165940000Y-85500000D02*
X166550000Y-85500000D01*
X177500000Y-84800000D02*
X177500000Y-84190000D01*
X179450000Y-84800000D02*
X177500000Y-84800000D01*
X179450000Y-88300000D02*
X179450000Y-84800000D01*
X166550000Y-88300000D02*
X179450000Y-88300000D01*
X166550000Y-84800000D02*
X166550000Y-88300000D01*
X168500000Y-84800000D02*
X166550000Y-84800000D01*
X168500000Y-84190000D02*
X168500000Y-84800000D01*
X167700000Y-84090000D02*
X167400000Y-84090000D01*
X167400000Y-83990000D02*
X167400000Y-84190000D01*
X167700000Y-83990000D02*
X167400000Y-83990000D01*
X167700000Y-84190000D02*
X167700000Y-83990000D01*
X180060000Y-84190000D02*
X165940000Y-84190000D01*
X180060000Y-88910000D02*
X180060000Y-84190000D01*
X165940000Y-88910000D02*
X180060000Y-88910000D01*
X165940000Y-84190000D02*
X165940000Y-88910000D01*
D11*
X138612380Y-105761904D02*
X139421904Y-105761904D01*
X139517142Y-105714285D01*
X139564761Y-105666666D01*
X139612380Y-105571428D01*
X139612380Y-105380952D01*
X139564761Y-105285714D01*
X139517142Y-105238095D01*
X139421904Y-105190476D01*
X138612380Y-105190476D01*
X138707619Y-104761904D02*
X138660000Y-104714285D01*
X138612380Y-104619047D01*
X138612380Y-104380952D01*
X138660000Y-104285714D01*
X138707619Y-104238095D01*
X138802857Y-104190476D01*
X138898095Y-104190476D01*
X139040952Y-104238095D01*
X139612380Y-104809523D01*
X139612380Y-104190476D01*
X130840666Y-113661666D02*
X130140666Y-113661666D01*
X130640666Y-113428333D01*
X130140666Y-113195000D01*
X130840666Y-113195000D01*
X130840666Y-112861666D02*
X130140666Y-112861666D01*
X130840666Y-112461666D02*
X130440666Y-112761666D01*
X130140666Y-112461666D02*
X130540666Y-112861666D01*
X130207333Y-112195000D02*
X130174000Y-112161666D01*
X130140666Y-112095000D01*
X130140666Y-111928333D01*
X130174000Y-111861666D01*
X130207333Y-111828333D01*
X130274000Y-111795000D01*
X130340666Y-111795000D01*
X130440666Y-111828333D01*
X130840666Y-112228333D01*
X130840666Y-111795000D01*
X130140666Y-111361666D02*
X130140666Y-111295000D01*
X130174000Y-111228333D01*
X130207333Y-111195000D01*
X130274000Y-111161666D01*
X130407333Y-111128333D01*
X130574000Y-111128333D01*
X130707333Y-111161666D01*
X130774000Y-111195000D01*
X130807333Y-111228333D01*
X130840666Y-111295000D01*
X130840666Y-111361666D01*
X130807333Y-111428333D01*
X130774000Y-111461666D01*
X130707333Y-111495000D01*
X130574000Y-111528333D01*
X130407333Y-111528333D01*
X130274000Y-111495000D01*
X130207333Y-111461666D01*
X130174000Y-111428333D01*
X130140666Y-111361666D01*
X130840666Y-110828333D02*
X130140666Y-110828333D01*
X130140666Y-110661666D01*
X130174000Y-110561666D01*
X130240666Y-110495000D01*
X130307333Y-110461666D01*
X130440666Y-110428333D01*
X130540666Y-110428333D01*
X130674000Y-110461666D01*
X130740666Y-110495000D01*
X130807333Y-110561666D01*
X130840666Y-110661666D01*
X130840666Y-110828333D01*
X130140666Y-110195000D02*
X130840666Y-109728333D01*
X130140666Y-109728333D02*
X130840666Y-110195000D01*
X130840666Y-109095000D02*
X130840666Y-109495000D01*
X130840666Y-109295000D02*
X130140666Y-109295000D01*
X130240666Y-109361666D01*
X130307333Y-109428333D01*
X130340666Y-109495000D01*
X130207333Y-108828333D02*
X130174000Y-108795000D01*
X130140666Y-108728333D01*
X130140666Y-108561666D01*
X130174000Y-108495000D01*
X130207333Y-108461666D01*
X130274000Y-108428333D01*
X130340666Y-108428333D01*
X130440666Y-108461666D01*
X130840666Y-108861666D01*
X130840666Y-108428333D01*
X130440666Y-108028333D02*
X130407333Y-108095000D01*
X130374000Y-108128333D01*
X130307333Y-108161666D01*
X130274000Y-108161666D01*
X130207333Y-108128333D01*
X130174000Y-108095000D01*
X130140666Y-108028333D01*
X130140666Y-107895000D01*
X130174000Y-107828333D01*
X130207333Y-107795000D01*
X130274000Y-107761666D01*
X130307333Y-107761666D01*
X130374000Y-107795000D01*
X130407333Y-107828333D01*
X130440666Y-107895000D01*
X130440666Y-108028333D01*
X130474000Y-108095000D01*
X130507333Y-108128333D01*
X130574000Y-108161666D01*
X130707333Y-108161666D01*
X130774000Y-108128333D01*
X130807333Y-108095000D01*
X130840666Y-108028333D01*
X130840666Y-107895000D01*
X130807333Y-107828333D01*
X130774000Y-107795000D01*
X130707333Y-107761666D01*
X130574000Y-107761666D01*
X130507333Y-107795000D01*
X130474000Y-107828333D01*
X130440666Y-107895000D01*
X130140666Y-107561666D02*
X130840666Y-107328333D01*
X130140666Y-107095000D01*
X130840666Y-106528333D02*
X130840666Y-106861666D01*
X130140666Y-106861666D01*
X130840666Y-106295000D02*
X130140666Y-106295000D01*
X130474000Y-106295000D02*
X130474000Y-105895000D01*
X130840666Y-105895000D02*
X130140666Y-105895000D01*
X130140666Y-105228333D02*
X130140666Y-105561666D01*
X130474000Y-105595000D01*
X130440666Y-105561666D01*
X130407333Y-105495000D01*
X130407333Y-105328333D01*
X130440666Y-105261666D01*
X130474000Y-105228333D01*
X130540666Y-105195000D01*
X130707333Y-105195000D01*
X130774000Y-105228333D01*
X130807333Y-105261666D01*
X130840666Y-105328333D01*
X130840666Y-105495000D01*
X130807333Y-105561666D01*
X130774000Y-105595000D01*
X129570666Y-113178333D02*
X128870666Y-113178333D01*
X129370666Y-112945000D01*
X128870666Y-112711666D01*
X129570666Y-112711666D01*
X129570666Y-112378333D02*
X128870666Y-112378333D01*
X129570666Y-111978333D02*
X129170666Y-112278333D01*
X128870666Y-111978333D02*
X129270666Y-112378333D01*
X129570666Y-111345000D02*
X129570666Y-111678333D01*
X128870666Y-111678333D01*
X128937333Y-111145000D02*
X128904000Y-111111666D01*
X128870666Y-111045000D01*
X128870666Y-110878333D01*
X128904000Y-110811666D01*
X128937333Y-110778333D01*
X129004000Y-110745000D01*
X129070666Y-110745000D01*
X129170666Y-110778333D01*
X129570666Y-111178333D01*
X129570666Y-110745000D01*
X128870666Y-110145000D02*
X128870666Y-110278333D01*
X128904000Y-110345000D01*
X128937333Y-110378333D01*
X129037333Y-110445000D01*
X129170666Y-110478333D01*
X129437333Y-110478333D01*
X129504000Y-110445000D01*
X129537333Y-110411666D01*
X129570666Y-110345000D01*
X129570666Y-110211666D01*
X129537333Y-110145000D01*
X129504000Y-110111666D01*
X129437333Y-110078333D01*
X129270666Y-110078333D01*
X129204000Y-110111666D01*
X129170666Y-110145000D01*
X129137333Y-110211666D01*
X129137333Y-110345000D01*
X129170666Y-110411666D01*
X129204000Y-110445000D01*
X129270666Y-110478333D01*
X128870666Y-109845000D02*
X128870666Y-109378333D01*
X129570666Y-109845000D01*
X129570666Y-109378333D01*
X128870666Y-108811666D02*
X128870666Y-108945000D01*
X128904000Y-109011666D01*
X128937333Y-109045000D01*
X129037333Y-109111666D01*
X129170666Y-109145000D01*
X129437333Y-109145000D01*
X129504000Y-109111666D01*
X129537333Y-109078333D01*
X129570666Y-109011666D01*
X129570666Y-108878333D01*
X129537333Y-108811666D01*
X129504000Y-108778333D01*
X129437333Y-108745000D01*
X129270666Y-108745000D01*
X129204000Y-108778333D01*
X129170666Y-108811666D01*
X129137333Y-108878333D01*
X129137333Y-109011666D01*
X129170666Y-109078333D01*
X129204000Y-109111666D01*
X129270666Y-109145000D01*
X129104000Y-108145000D02*
X129570666Y-108145000D01*
X128837333Y-108311666D02*
X129337333Y-108478333D01*
X129337333Y-108045000D01*
X128870666Y-107878333D02*
X129570666Y-107645000D01*
X128870666Y-107411666D01*
X129204000Y-106945000D02*
X129204000Y-107178333D01*
X129570666Y-107178333D02*
X128870666Y-107178333D01*
X128870666Y-106845000D01*
X128870666Y-106678333D02*
X128870666Y-106278333D01*
X129570666Y-106478333D02*
X128870666Y-106478333D01*
X129104000Y-105745000D02*
X129570666Y-105745000D01*
X128837333Y-105911666D02*
X129337333Y-106078333D01*
X129337333Y-105645000D01*
X132110666Y-113661666D02*
X131410666Y-113661666D01*
X131910666Y-113428333D01*
X131410666Y-113195000D01*
X132110666Y-113195000D01*
X132110666Y-112861666D02*
X131410666Y-112861666D01*
X132110666Y-112461666D02*
X131710666Y-112761666D01*
X131410666Y-112461666D02*
X131810666Y-112861666D01*
X131477333Y-112195000D02*
X131444000Y-112161666D01*
X131410666Y-112095000D01*
X131410666Y-111928333D01*
X131444000Y-111861666D01*
X131477333Y-111828333D01*
X131544000Y-111795000D01*
X131610666Y-111795000D01*
X131710666Y-111828333D01*
X132110666Y-112228333D01*
X132110666Y-111795000D01*
X131410666Y-111361666D02*
X131410666Y-111295000D01*
X131444000Y-111228333D01*
X131477333Y-111195000D01*
X131544000Y-111161666D01*
X131677333Y-111128333D01*
X131844000Y-111128333D01*
X131977333Y-111161666D01*
X132044000Y-111195000D01*
X132077333Y-111228333D01*
X132110666Y-111295000D01*
X132110666Y-111361666D01*
X132077333Y-111428333D01*
X132044000Y-111461666D01*
X131977333Y-111495000D01*
X131844000Y-111528333D01*
X131677333Y-111528333D01*
X131544000Y-111495000D01*
X131477333Y-111461666D01*
X131444000Y-111428333D01*
X131410666Y-111361666D01*
X132110666Y-110828333D02*
X131410666Y-110828333D01*
X131410666Y-110661666D01*
X131444000Y-110561666D01*
X131510666Y-110495000D01*
X131577333Y-110461666D01*
X131710666Y-110428333D01*
X131810666Y-110428333D01*
X131944000Y-110461666D01*
X132010666Y-110495000D01*
X132077333Y-110561666D01*
X132110666Y-110661666D01*
X132110666Y-110828333D01*
X131410666Y-110195000D02*
X132110666Y-109728333D01*
X131410666Y-109728333D02*
X132110666Y-110195000D01*
X131477333Y-109495000D02*
X131444000Y-109461666D01*
X131410666Y-109395000D01*
X131410666Y-109228333D01*
X131444000Y-109161666D01*
X131477333Y-109128333D01*
X131544000Y-109095000D01*
X131610666Y-109095000D01*
X131710666Y-109128333D01*
X132110666Y-109528333D01*
X132110666Y-109095000D01*
X131410666Y-108461666D02*
X131410666Y-108795000D01*
X131744000Y-108828333D01*
X131710666Y-108795000D01*
X131677333Y-108728333D01*
X131677333Y-108561666D01*
X131710666Y-108495000D01*
X131744000Y-108461666D01*
X131810666Y-108428333D01*
X131977333Y-108428333D01*
X132044000Y-108461666D01*
X132077333Y-108495000D01*
X132110666Y-108561666D01*
X132110666Y-108728333D01*
X132077333Y-108795000D01*
X132044000Y-108828333D01*
X131410666Y-107828333D02*
X131410666Y-107961666D01*
X131444000Y-108028333D01*
X131477333Y-108061666D01*
X131577333Y-108128333D01*
X131710666Y-108161666D01*
X131977333Y-108161666D01*
X132044000Y-108128333D01*
X132077333Y-108095000D01*
X132110666Y-108028333D01*
X132110666Y-107895000D01*
X132077333Y-107828333D01*
X132044000Y-107795000D01*
X131977333Y-107761666D01*
X131810666Y-107761666D01*
X131744000Y-107795000D01*
X131710666Y-107828333D01*
X131677333Y-107895000D01*
X131677333Y-108028333D01*
X131710666Y-108095000D01*
X131744000Y-108128333D01*
X131810666Y-108161666D01*
X131410666Y-107561666D02*
X132110666Y-107328333D01*
X131410666Y-107095000D01*
X132110666Y-106528333D02*
X132110666Y-106861666D01*
X131410666Y-106861666D01*
X132110666Y-106295000D02*
X131410666Y-106295000D01*
X131744000Y-106295000D02*
X131744000Y-105895000D01*
X132110666Y-105895000D02*
X131410666Y-105895000D01*
X131410666Y-105628333D02*
X131410666Y-105161666D01*
X132110666Y-105461666D01*
X130063809Y-98102380D02*
X130635238Y-98102380D01*
X130349523Y-99102380D02*
X130349523Y-98102380D01*
X130873333Y-98102380D02*
X131492380Y-98102380D01*
X131159047Y-98483333D01*
X131301904Y-98483333D01*
X131397142Y-98530952D01*
X131444761Y-98578571D01*
X131492380Y-98673809D01*
X131492380Y-98911904D01*
X131444761Y-99007142D01*
X131397142Y-99054761D01*
X131301904Y-99102380D01*
X131016190Y-99102380D01*
X130920952Y-99054761D01*
X130873333Y-99007142D01*
X131920952Y-99007142D02*
X131968571Y-99054761D01*
X131920952Y-99102380D01*
X131873333Y-99054761D01*
X131920952Y-99007142D01*
X131920952Y-99102380D01*
X132920952Y-99102380D02*
X132349523Y-99102380D01*
X132635238Y-99102380D02*
X132635238Y-98102380D01*
X132540000Y-98245238D01*
X132444761Y-98340476D01*
X132349523Y-98388095D01*
X130063809Y-94292380D02*
X130635238Y-94292380D01*
X130349523Y-95292380D02*
X130349523Y-94292380D01*
X130873333Y-94292380D02*
X131492380Y-94292380D01*
X131159047Y-94673333D01*
X131301904Y-94673333D01*
X131397142Y-94720952D01*
X131444761Y-94768571D01*
X131492380Y-94863809D01*
X131492380Y-95101904D01*
X131444761Y-95197142D01*
X131397142Y-95244761D01*
X131301904Y-95292380D01*
X131016190Y-95292380D01*
X130920952Y-95244761D01*
X130873333Y-95197142D01*
X131920952Y-95197142D02*
X131968571Y-95244761D01*
X131920952Y-95292380D01*
X131873333Y-95244761D01*
X131920952Y-95197142D01*
X131920952Y-95292380D01*
X132349523Y-94387619D02*
X132397142Y-94340000D01*
X132492380Y-94292380D01*
X132730476Y-94292380D01*
X132825714Y-94340000D01*
X132873333Y-94387619D01*
X132920952Y-94482857D01*
X132920952Y-94578095D01*
X132873333Y-94720952D01*
X132301904Y-95292380D01*
X132920952Y-95292380D01*
D14*
X119177155Y-72341163D02*
X119892791Y-72341163D01*
X120035918Y-72388872D01*
X120131336Y-72484290D01*
X120179045Y-72627417D01*
X120179045Y-72722835D01*
X119511119Y-71434691D02*
X120179045Y-71434691D01*
X119129446Y-71673236D02*
X119845082Y-71911781D01*
X119845082Y-71291564D01*
X85861634Y-73981768D02*
X85385177Y-74315288D01*
X85861634Y-74553517D02*
X84861074Y-74553517D01*
X84861074Y-74172351D01*
X84908720Y-74077060D01*
X84956365Y-74029414D01*
X85051657Y-73981768D01*
X85194594Y-73981768D01*
X85289885Y-74029414D01*
X85337531Y-74077060D01*
X85385177Y-74172351D01*
X85385177Y-74553517D01*
X85861634Y-73552957D02*
X84861074Y-73552957D01*
X84861074Y-73171791D01*
X84908720Y-73076500D01*
X84956365Y-73028854D01*
X85051657Y-72981208D01*
X85194594Y-72981208D01*
X85289885Y-73028854D01*
X85337531Y-73076500D01*
X85385177Y-73171791D01*
X85385177Y-73552957D01*
X85861634Y-72552397D02*
X85194594Y-72552397D01*
X84861074Y-72552397D02*
X84908720Y-72600042D01*
X84956365Y-72552397D01*
X84908720Y-72504751D01*
X84861074Y-72552397D01*
X84956365Y-72552397D01*
X85956925Y-72314168D02*
X85956925Y-71551837D01*
X84908720Y-70789505D02*
X84861074Y-70884797D01*
X84861074Y-71027734D01*
X84908720Y-71170671D01*
X85004011Y-71265962D01*
X85099302Y-71313608D01*
X85289885Y-71361254D01*
X85432822Y-71361254D01*
X85623405Y-71313608D01*
X85718697Y-71265962D01*
X85813988Y-71170671D01*
X85861634Y-71027734D01*
X85861634Y-70932442D01*
X85813988Y-70789505D01*
X85766342Y-70741860D01*
X85432822Y-70741860D01*
X85432822Y-70932442D01*
X85861634Y-70313048D02*
X84861074Y-70313048D01*
X84861074Y-69931882D01*
X84908720Y-69836591D01*
X84956365Y-69788945D01*
X85051657Y-69741300D01*
X85194594Y-69741300D01*
X85289885Y-69788945D01*
X85337531Y-69836591D01*
X85385177Y-69931882D01*
X85385177Y-70313048D01*
X85861634Y-69312488D02*
X84861074Y-69312488D01*
X84861074Y-68645448D02*
X84861074Y-68454865D01*
X84908720Y-68359574D01*
X85004011Y-68264282D01*
X85194594Y-68216637D01*
X85528114Y-68216637D01*
X85718697Y-68264282D01*
X85813988Y-68359574D01*
X85861634Y-68454865D01*
X85861634Y-68645448D01*
X85813988Y-68740740D01*
X85718697Y-68836031D01*
X85528114Y-68883677D01*
X85194594Y-68883677D01*
X85004011Y-68836031D01*
X84908720Y-68740740D01*
X84861074Y-68645448D01*
X110320630Y-75241585D02*
X110320630Y-75813014D01*
X110320630Y-75527300D02*
X109320630Y-75527300D01*
X109463488Y-75622538D01*
X109558726Y-75717776D01*
X109606345Y-75813014D01*
D11*
X188045833Y-69677142D02*
X187998214Y-69724761D01*
X187855357Y-69772380D01*
X187760119Y-69772380D01*
X187617261Y-69724761D01*
X187522023Y-69629523D01*
X187474404Y-69534285D01*
X187426785Y-69343809D01*
X187426785Y-69200952D01*
X187474404Y-69010476D01*
X187522023Y-68915238D01*
X187617261Y-68820000D01*
X187760119Y-68772380D01*
X187855357Y-68772380D01*
X187998214Y-68820000D01*
X188045833Y-68867619D01*
X188617261Y-69200952D02*
X188522023Y-69153333D01*
X188474404Y-69105714D01*
X188426785Y-69010476D01*
X188426785Y-68962857D01*
X188474404Y-68867619D01*
X188522023Y-68820000D01*
X188617261Y-68772380D01*
X188807738Y-68772380D01*
X188902976Y-68820000D01*
X188950595Y-68867619D01*
X188998214Y-68962857D01*
X188998214Y-69010476D01*
X188950595Y-69105714D01*
X188902976Y-69153333D01*
X188807738Y-69200952D01*
X188617261Y-69200952D01*
X188522023Y-69248571D01*
X188474404Y-69296190D01*
X188426785Y-69391428D01*
X188426785Y-69581904D01*
X188474404Y-69677142D01*
X188522023Y-69724761D01*
X188617261Y-69772380D01*
X188807738Y-69772380D01*
X188902976Y-69724761D01*
X188950595Y-69677142D01*
X188998214Y-69581904D01*
X188998214Y-69391428D01*
X188950595Y-69296190D01*
X188902976Y-69248571D01*
X188807738Y-69200952D01*
X203287142Y-96454166D02*
X203334761Y-96501785D01*
X203382380Y-96644642D01*
X203382380Y-96739880D01*
X203334761Y-96882738D01*
X203239523Y-96977976D01*
X203144285Y-97025595D01*
X202953809Y-97073214D01*
X202810952Y-97073214D01*
X202620476Y-97025595D01*
X202525238Y-96977976D01*
X202430000Y-96882738D01*
X202382380Y-96739880D01*
X202382380Y-96644642D01*
X202430000Y-96501785D01*
X202477619Y-96454166D01*
X202382380Y-96120833D02*
X202382380Y-95454166D01*
X203382380Y-95882738D01*
X112287142Y-76379166D02*
X112334761Y-76426785D01*
X112382380Y-76569642D01*
X112382380Y-76664880D01*
X112334761Y-76807738D01*
X112239523Y-76902976D01*
X112144285Y-76950595D01*
X111953809Y-76998214D01*
X111810952Y-76998214D01*
X111620476Y-76950595D01*
X111525238Y-76902976D01*
X111430000Y-76807738D01*
X111382380Y-76664880D01*
X111382380Y-76569642D01*
X111430000Y-76426785D01*
X111477619Y-76379166D01*
X111382380Y-75522023D02*
X111382380Y-75712500D01*
X111430000Y-75807738D01*
X111477619Y-75855357D01*
X111620476Y-75950595D01*
X111810952Y-75998214D01*
X112191904Y-75998214D01*
X112287142Y-75950595D01*
X112334761Y-75902976D01*
X112382380Y-75807738D01*
X112382380Y-75617261D01*
X112334761Y-75522023D01*
X112287142Y-75474404D01*
X112191904Y-75426785D01*
X111953809Y-75426785D01*
X111858571Y-75474404D01*
X111810952Y-75522023D01*
X111763333Y-75617261D01*
X111763333Y-75807738D01*
X111810952Y-75902976D01*
X111858571Y-75950595D01*
X111953809Y-75998214D01*
X195583333Y-131037142D02*
X195535714Y-131084761D01*
X195392857Y-131132380D01*
X195297619Y-131132380D01*
X195154761Y-131084761D01*
X195059523Y-130989523D01*
X195011904Y-130894285D01*
X194964285Y-130703809D01*
X194964285Y-130560952D01*
X195011904Y-130370476D01*
X195059523Y-130275238D01*
X195154761Y-130180000D01*
X195297619Y-130132380D01*
X195392857Y-130132380D01*
X195535714Y-130180000D01*
X195583333Y-130227619D01*
X196488095Y-130132380D02*
X196011904Y-130132380D01*
X195964285Y-130608571D01*
X196011904Y-130560952D01*
X196107142Y-130513333D01*
X196345238Y-130513333D01*
X196440476Y-130560952D01*
X196488095Y-130608571D01*
X196535714Y-130703809D01*
X196535714Y-130941904D01*
X196488095Y-131037142D01*
X196440476Y-131084761D01*
X196345238Y-131132380D01*
X196107142Y-131132380D01*
X196011904Y-131084761D01*
X195964285Y-131037142D01*
X164427142Y-93954166D02*
X164474761Y-94001785D01*
X164522380Y-94144642D01*
X164522380Y-94239880D01*
X164474761Y-94382738D01*
X164379523Y-94477976D01*
X164284285Y-94525595D01*
X164093809Y-94573214D01*
X163950952Y-94573214D01*
X163760476Y-94525595D01*
X163665238Y-94477976D01*
X163570000Y-94382738D01*
X163522380Y-94239880D01*
X163522380Y-94144642D01*
X163570000Y-94001785D01*
X163617619Y-93954166D01*
X163855714Y-93097023D02*
X164522380Y-93097023D01*
X163474761Y-93335119D02*
X164189047Y-93573214D01*
X164189047Y-92954166D01*
X100037142Y-103879166D02*
X100084761Y-103926785D01*
X100132380Y-104069642D01*
X100132380Y-104164880D01*
X100084761Y-104307738D01*
X99989523Y-104402976D01*
X99894285Y-104450595D01*
X99703809Y-104498214D01*
X99560952Y-104498214D01*
X99370476Y-104450595D01*
X99275238Y-104402976D01*
X99180000Y-104307738D01*
X99132380Y-104164880D01*
X99132380Y-104069642D01*
X99180000Y-103926785D01*
X99227619Y-103879166D01*
X99132380Y-103545833D02*
X99132380Y-102926785D01*
X99513333Y-103260119D01*
X99513333Y-103117261D01*
X99560952Y-103022023D01*
X99608571Y-102974404D01*
X99703809Y-102926785D01*
X99941904Y-102926785D01*
X100037142Y-102974404D01*
X100084761Y-103022023D01*
X100132380Y-103117261D01*
X100132380Y-103402976D01*
X100084761Y-103498214D01*
X100037142Y-103545833D01*
X124045833Y-73427142D02*
X123998214Y-73474761D01*
X123855357Y-73522380D01*
X123760119Y-73522380D01*
X123617261Y-73474761D01*
X123522023Y-73379523D01*
X123474404Y-73284285D01*
X123426785Y-73093809D01*
X123426785Y-72950952D01*
X123474404Y-72760476D01*
X123522023Y-72665238D01*
X123617261Y-72570000D01*
X123760119Y-72522380D01*
X123855357Y-72522380D01*
X123998214Y-72570000D01*
X124045833Y-72617619D01*
X124426785Y-72617619D02*
X124474404Y-72570000D01*
X124569642Y-72522380D01*
X124807738Y-72522380D01*
X124902976Y-72570000D01*
X124950595Y-72617619D01*
X124998214Y-72712857D01*
X124998214Y-72808095D01*
X124950595Y-72950952D01*
X124379166Y-73522380D01*
X124998214Y-73522380D01*
X146045833Y-98677142D02*
X145998214Y-98724761D01*
X145855357Y-98772380D01*
X145760119Y-98772380D01*
X145617261Y-98724761D01*
X145522023Y-98629523D01*
X145474404Y-98534285D01*
X145426785Y-98343809D01*
X145426785Y-98200952D01*
X145474404Y-98010476D01*
X145522023Y-97915238D01*
X145617261Y-97820000D01*
X145760119Y-97772380D01*
X145855357Y-97772380D01*
X145998214Y-97820000D01*
X146045833Y-97867619D01*
X146998214Y-98772380D02*
X146426785Y-98772380D01*
X146712500Y-98772380D02*
X146712500Y-97772380D01*
X146617261Y-97915238D01*
X146522023Y-98010476D01*
X146426785Y-98058095D01*
X142452380Y-97833333D02*
X143166666Y-97833333D01*
X143309523Y-97880952D01*
X143404761Y-97976190D01*
X143452380Y-98119047D01*
X143452380Y-98214285D01*
X143452380Y-96833333D02*
X143452380Y-97404761D01*
X143452380Y-97119047D02*
X142452380Y-97119047D01*
X142595238Y-97214285D01*
X142690476Y-97309523D01*
X142738095Y-97404761D01*
X93398095Y-102452380D02*
X93398095Y-103261904D01*
X93445714Y-103357142D01*
X93493333Y-103404761D01*
X93588571Y-103452380D01*
X93779047Y-103452380D01*
X93874285Y-103404761D01*
X93921904Y-103357142D01*
X93969523Y-103261904D01*
X93969523Y-102452380D01*
X94350476Y-102452380D02*
X94969523Y-102452380D01*
X94636190Y-102833333D01*
X94779047Y-102833333D01*
X94874285Y-102880952D01*
X94921904Y-102928571D01*
X94969523Y-103023809D01*
X94969523Y-103261904D01*
X94921904Y-103357142D01*
X94874285Y-103404761D01*
X94779047Y-103452380D01*
X94493333Y-103452380D01*
X94398095Y-103404761D01*
X94350476Y-103357142D01*
X205078095Y-96452380D02*
X205078095Y-97261904D01*
X205125714Y-97357142D01*
X205173333Y-97404761D01*
X205268571Y-97452380D01*
X205459047Y-97452380D01*
X205554285Y-97404761D01*
X205601904Y-97357142D01*
X205649523Y-97261904D01*
X205649523Y-96452380D01*
X206554285Y-96452380D02*
X206363809Y-96452380D01*
X206268571Y-96500000D01*
X206220952Y-96547619D01*
X206125714Y-96690476D01*
X206078095Y-96880952D01*
X206078095Y-97261904D01*
X206125714Y-97357142D01*
X206173333Y-97404761D01*
X206268571Y-97452380D01*
X206459047Y-97452380D01*
X206554285Y-97404761D01*
X206601904Y-97357142D01*
X206649523Y-97261904D01*
X206649523Y-97023809D01*
X206601904Y-96928571D01*
X206554285Y-96880952D01*
X206459047Y-96833333D01*
X206268571Y-96833333D01*
X206173333Y-96880952D01*
X206125714Y-96928571D01*
X206078095Y-97023809D01*
X194452380Y-134376904D02*
X195261904Y-134376904D01*
X195357142Y-134329285D01*
X195404761Y-134281666D01*
X195452380Y-134186428D01*
X195452380Y-133995952D01*
X195404761Y-133900714D01*
X195357142Y-133853095D01*
X195261904Y-133805476D01*
X194452380Y-133805476D01*
X194452380Y-132853095D02*
X194452380Y-133329285D01*
X194928571Y-133376904D01*
X194880952Y-133329285D01*
X194833333Y-133234047D01*
X194833333Y-132995952D01*
X194880952Y-132900714D01*
X194928571Y-132853095D01*
X195023809Y-132805476D01*
X195261904Y-132805476D01*
X195357142Y-132853095D01*
X195404761Y-132900714D01*
X195452380Y-132995952D01*
X195452380Y-133234047D01*
X195404761Y-133329285D01*
X195357142Y-133376904D01*
X188452380Y-67146904D02*
X189261904Y-67146904D01*
X189357142Y-67099285D01*
X189404761Y-67051666D01*
X189452380Y-66956428D01*
X189452380Y-66765952D01*
X189404761Y-66670714D01*
X189357142Y-66623095D01*
X189261904Y-66575476D01*
X188452380Y-66575476D01*
X188452380Y-66194523D02*
X188452380Y-65527857D01*
X189452380Y-65956428D01*
X125666666Y-69352380D02*
X125666666Y-70066666D01*
X125619047Y-70209523D01*
X125523809Y-70304761D01*
X125380952Y-70352380D01*
X125285714Y-70352380D01*
X126619047Y-69352380D02*
X126142857Y-69352380D01*
X126095238Y-69828571D01*
X126142857Y-69780952D01*
X126238095Y-69733333D01*
X126476190Y-69733333D01*
X126571428Y-69780952D01*
X126619047Y-69828571D01*
X126666666Y-69923809D01*
X126666666Y-70161904D01*
X126619047Y-70257142D01*
X126571428Y-70304761D01*
X126476190Y-70352380D01*
X126238095Y-70352380D01*
X126142857Y-70304761D01*
X126095238Y-70257142D01*
X171238095Y-89292380D02*
X171238095Y-90101904D01*
X171285714Y-90197142D01*
X171333333Y-90244761D01*
X171428571Y-90292380D01*
X171619047Y-90292380D01*
X171714285Y-90244761D01*
X171761904Y-90197142D01*
X171809523Y-90101904D01*
X171809523Y-89292380D01*
X172714285Y-89625714D02*
X172714285Y-90292380D01*
X172476190Y-89244761D02*
X172238095Y-89959047D01*
X172857142Y-89959047D01*
X124738095Y-80952380D02*
X124738095Y-81761904D01*
X124785714Y-81857142D01*
X124833333Y-81904761D01*
X124928571Y-81952380D01*
X125119047Y-81952380D01*
X125214285Y-81904761D01*
X125261904Y-81857142D01*
X125309523Y-81761904D01*
X125309523Y-80952380D01*
X126309523Y-81952380D02*
X125738095Y-81952380D01*
X126023809Y-81952380D02*
X126023809Y-80952380D01*
X125928571Y-81095238D01*
X125833333Y-81190476D01*
X125738095Y-81238095D01*
X172666666Y-110552380D02*
X172666666Y-111266666D01*
X172619047Y-111409523D01*
X172523809Y-111504761D01*
X172380952Y-111552380D01*
X172285714Y-111552380D01*
X173047619Y-110552380D02*
X173666666Y-110552380D01*
X173333333Y-110933333D01*
X173476190Y-110933333D01*
X173571428Y-110980952D01*
X173619047Y-111028571D01*
X173666666Y-111123809D01*
X173666666Y-111361904D01*
X173619047Y-111457142D01*
X173571428Y-111504761D01*
X173476190Y-111552380D01*
X173190476Y-111552380D01*
X173095238Y-111504761D01*
X173047619Y-111457142D01*
X172666666Y-82552380D02*
X172666666Y-83266666D01*
X172619047Y-83409523D01*
X172523809Y-83504761D01*
X172380952Y-83552380D01*
X172285714Y-83552380D01*
X173095238Y-82647619D02*
X173142857Y-82600000D01*
X173238095Y-82552380D01*
X173476190Y-82552380D01*
X173571428Y-82600000D01*
X173619047Y-82647619D01*
X173666666Y-82742857D01*
X173666666Y-82838095D01*
X173619047Y-82980952D01*
X173047619Y-83552380D01*
X173666666Y-83552380D01*
M02*
