G04 #@! TF.GenerationSoftware,KiCad,Pcbnew,(5.1.4-0-10_14)*
G04 #@! TF.CreationDate,2019-11-10T19:32:43-05:00*
G04 #@! TF.ProjectId,PacBot_2019-2020,50616342-6f74-45f3-9230-31392d323032,rev?*
G04 #@! TF.SameCoordinates,Original*
G04 #@! TF.FileFunction,Copper,L1,Top*
G04 #@! TF.FilePolarity,Positive*
%FSLAX46Y46*%
G04 Gerber Fmt 4.6, Leading zero omitted, Abs format (unit mm)*
G04 Created by KiCad (PCBNEW (5.1.4-0-10_14)) date 2019-11-10 19:32:43*
%MOMM*%
%LPD*%
G04 APERTURE LIST*
%ADD10C,1.900000*%
%ADD11R,1.600000X1.600000*%
%ADD12C,1.600000*%
%ADD13C,1.508000*%
%ADD14R,1.508000X1.508000*%
%ADD15C,0.100000*%
%ADD16C,0.875000*%
%ADD17O,1.500000X2.000000*%
%ADD18O,2.000000X3.000000*%
%ADD19O,2.500000X1.524000*%
%ADD20O,1.524000X2.500000*%
%ADD21O,1.200000X1.750000*%
%ADD22C,1.200000*%
%ADD23C,1.500000*%
%ADD24C,2.500000*%
%ADD25C,0.800000*%
%ADD26C,0.250000*%
%ADD27C,1.000000*%
%ADD28C,0.254000*%
G04 APERTURE END LIST*
D10*
X129000000Y-94840000D03*
X129000000Y-98650000D03*
D11*
X121380000Y-88490000D03*
D12*
X121380000Y-91030000D03*
X121380000Y-93570000D03*
X121380000Y-96110000D03*
X121380000Y-98650000D03*
X121380000Y-101190000D03*
X121380000Y-103730000D03*
X121380000Y-106270000D03*
X121380000Y-108810000D03*
X121380000Y-111350000D03*
X121380000Y-113890000D03*
X121380000Y-116430000D03*
X121380000Y-118970000D03*
X134080000Y-101190000D03*
X134080000Y-98650000D03*
X134080000Y-96110000D03*
X134080000Y-91030000D03*
X136620000Y-88490000D03*
X136620000Y-91030000D03*
X136620000Y-93570000D03*
X136620000Y-96110000D03*
X136620000Y-98650000D03*
X136620000Y-101190000D03*
X136620000Y-103730000D03*
X136620000Y-106270000D03*
X136620000Y-108810000D03*
X136620000Y-111350000D03*
X136620000Y-113890000D03*
X136620000Y-116430000D03*
X136620000Y-118970000D03*
X121380000Y-121510000D03*
X123920000Y-121510000D03*
X126460000Y-121510000D03*
X136620000Y-121510000D03*
X134080000Y-121510000D03*
X131540000Y-121510000D03*
X129000000Y-121510000D03*
D13*
X115270000Y-124130000D03*
X112730000Y-124130000D03*
X115270000Y-121590000D03*
X112730000Y-121590000D03*
X115270000Y-119050000D03*
X112730000Y-119050000D03*
X115270000Y-116510000D03*
X112730000Y-116510000D03*
X115270000Y-113970000D03*
X112730000Y-113970000D03*
X115270000Y-111430000D03*
X112730000Y-111430000D03*
X115270000Y-108890000D03*
X112730000Y-108890000D03*
X115270000Y-106350000D03*
X112730000Y-106350000D03*
X115270000Y-103810000D03*
X112730000Y-103810000D03*
X115270000Y-101270000D03*
X112730000Y-101270000D03*
X115270000Y-98730000D03*
X112730000Y-98730000D03*
X115270000Y-96190000D03*
X112730000Y-96190000D03*
X115270000Y-93650000D03*
X112730000Y-93650000D03*
X115270000Y-91110000D03*
X112730000Y-91110000D03*
X115270000Y-88570000D03*
X112730000Y-88570000D03*
X115270000Y-86030000D03*
X112730000Y-86030000D03*
X115270000Y-83490000D03*
X112730000Y-83490000D03*
X115270000Y-80950000D03*
X112730000Y-80950000D03*
X115270000Y-78410000D03*
X112730000Y-78410000D03*
X115270000Y-75870000D03*
D14*
X112730000Y-75870000D03*
D15*
G36*
X189240191Y-70276053D02*
G01*
X189261426Y-70279203D01*
X189282250Y-70284419D01*
X189302462Y-70291651D01*
X189321868Y-70300830D01*
X189340281Y-70311866D01*
X189357524Y-70324654D01*
X189373430Y-70339070D01*
X189387846Y-70354976D01*
X189400634Y-70372219D01*
X189411670Y-70390632D01*
X189420849Y-70410038D01*
X189428081Y-70430250D01*
X189433297Y-70451074D01*
X189436447Y-70472309D01*
X189437500Y-70493750D01*
X189437500Y-71006250D01*
X189436447Y-71027691D01*
X189433297Y-71048926D01*
X189428081Y-71069750D01*
X189420849Y-71089962D01*
X189411670Y-71109368D01*
X189400634Y-71127781D01*
X189387846Y-71145024D01*
X189373430Y-71160930D01*
X189357524Y-71175346D01*
X189340281Y-71188134D01*
X189321868Y-71199170D01*
X189302462Y-71208349D01*
X189282250Y-71215581D01*
X189261426Y-71220797D01*
X189240191Y-71223947D01*
X189218750Y-71225000D01*
X188781250Y-71225000D01*
X188759809Y-71223947D01*
X188738574Y-71220797D01*
X188717750Y-71215581D01*
X188697538Y-71208349D01*
X188678132Y-71199170D01*
X188659719Y-71188134D01*
X188642476Y-71175346D01*
X188626570Y-71160930D01*
X188612154Y-71145024D01*
X188599366Y-71127781D01*
X188588330Y-71109368D01*
X188579151Y-71089962D01*
X188571919Y-71069750D01*
X188566703Y-71048926D01*
X188563553Y-71027691D01*
X188562500Y-71006250D01*
X188562500Y-70493750D01*
X188563553Y-70472309D01*
X188566703Y-70451074D01*
X188571919Y-70430250D01*
X188579151Y-70410038D01*
X188588330Y-70390632D01*
X188599366Y-70372219D01*
X188612154Y-70354976D01*
X188626570Y-70339070D01*
X188642476Y-70324654D01*
X188659719Y-70311866D01*
X188678132Y-70300830D01*
X188697538Y-70291651D01*
X188717750Y-70284419D01*
X188738574Y-70279203D01*
X188759809Y-70276053D01*
X188781250Y-70275000D01*
X189218750Y-70275000D01*
X189240191Y-70276053D01*
X189240191Y-70276053D01*
G37*
D16*
X189000000Y-70750000D03*
D15*
G36*
X187665191Y-70276053D02*
G01*
X187686426Y-70279203D01*
X187707250Y-70284419D01*
X187727462Y-70291651D01*
X187746868Y-70300830D01*
X187765281Y-70311866D01*
X187782524Y-70324654D01*
X187798430Y-70339070D01*
X187812846Y-70354976D01*
X187825634Y-70372219D01*
X187836670Y-70390632D01*
X187845849Y-70410038D01*
X187853081Y-70430250D01*
X187858297Y-70451074D01*
X187861447Y-70472309D01*
X187862500Y-70493750D01*
X187862500Y-71006250D01*
X187861447Y-71027691D01*
X187858297Y-71048926D01*
X187853081Y-71069750D01*
X187845849Y-71089962D01*
X187836670Y-71109368D01*
X187825634Y-71127781D01*
X187812846Y-71145024D01*
X187798430Y-71160930D01*
X187782524Y-71175346D01*
X187765281Y-71188134D01*
X187746868Y-71199170D01*
X187727462Y-71208349D01*
X187707250Y-71215581D01*
X187686426Y-71220797D01*
X187665191Y-71223947D01*
X187643750Y-71225000D01*
X187206250Y-71225000D01*
X187184809Y-71223947D01*
X187163574Y-71220797D01*
X187142750Y-71215581D01*
X187122538Y-71208349D01*
X187103132Y-71199170D01*
X187084719Y-71188134D01*
X187067476Y-71175346D01*
X187051570Y-71160930D01*
X187037154Y-71145024D01*
X187024366Y-71127781D01*
X187013330Y-71109368D01*
X187004151Y-71089962D01*
X186996919Y-71069750D01*
X186991703Y-71048926D01*
X186988553Y-71027691D01*
X186987500Y-71006250D01*
X186987500Y-70493750D01*
X186988553Y-70472309D01*
X186991703Y-70451074D01*
X186996919Y-70430250D01*
X187004151Y-70410038D01*
X187013330Y-70390632D01*
X187024366Y-70372219D01*
X187037154Y-70354976D01*
X187051570Y-70339070D01*
X187067476Y-70324654D01*
X187084719Y-70311866D01*
X187103132Y-70300830D01*
X187122538Y-70291651D01*
X187142750Y-70284419D01*
X187163574Y-70279203D01*
X187184809Y-70276053D01*
X187206250Y-70275000D01*
X187643750Y-70275000D01*
X187665191Y-70276053D01*
X187665191Y-70276053D01*
G37*
D16*
X187425000Y-70750000D03*
D15*
G36*
X201777691Y-96638553D02*
G01*
X201798926Y-96641703D01*
X201819750Y-96646919D01*
X201839962Y-96654151D01*
X201859368Y-96663330D01*
X201877781Y-96674366D01*
X201895024Y-96687154D01*
X201910930Y-96701570D01*
X201925346Y-96717476D01*
X201938134Y-96734719D01*
X201949170Y-96753132D01*
X201958349Y-96772538D01*
X201965581Y-96792750D01*
X201970797Y-96813574D01*
X201973947Y-96834809D01*
X201975000Y-96856250D01*
X201975000Y-97293750D01*
X201973947Y-97315191D01*
X201970797Y-97336426D01*
X201965581Y-97357250D01*
X201958349Y-97377462D01*
X201949170Y-97396868D01*
X201938134Y-97415281D01*
X201925346Y-97432524D01*
X201910930Y-97448430D01*
X201895024Y-97462846D01*
X201877781Y-97475634D01*
X201859368Y-97486670D01*
X201839962Y-97495849D01*
X201819750Y-97503081D01*
X201798926Y-97508297D01*
X201777691Y-97511447D01*
X201756250Y-97512500D01*
X201243750Y-97512500D01*
X201222309Y-97511447D01*
X201201074Y-97508297D01*
X201180250Y-97503081D01*
X201160038Y-97495849D01*
X201140632Y-97486670D01*
X201122219Y-97475634D01*
X201104976Y-97462846D01*
X201089070Y-97448430D01*
X201074654Y-97432524D01*
X201061866Y-97415281D01*
X201050830Y-97396868D01*
X201041651Y-97377462D01*
X201034419Y-97357250D01*
X201029203Y-97336426D01*
X201026053Y-97315191D01*
X201025000Y-97293750D01*
X201025000Y-96856250D01*
X201026053Y-96834809D01*
X201029203Y-96813574D01*
X201034419Y-96792750D01*
X201041651Y-96772538D01*
X201050830Y-96753132D01*
X201061866Y-96734719D01*
X201074654Y-96717476D01*
X201089070Y-96701570D01*
X201104976Y-96687154D01*
X201122219Y-96674366D01*
X201140632Y-96663330D01*
X201160038Y-96654151D01*
X201180250Y-96646919D01*
X201201074Y-96641703D01*
X201222309Y-96638553D01*
X201243750Y-96637500D01*
X201756250Y-96637500D01*
X201777691Y-96638553D01*
X201777691Y-96638553D01*
G37*
D16*
X201500000Y-97075000D03*
D15*
G36*
X201777691Y-95063553D02*
G01*
X201798926Y-95066703D01*
X201819750Y-95071919D01*
X201839962Y-95079151D01*
X201859368Y-95088330D01*
X201877781Y-95099366D01*
X201895024Y-95112154D01*
X201910930Y-95126570D01*
X201925346Y-95142476D01*
X201938134Y-95159719D01*
X201949170Y-95178132D01*
X201958349Y-95197538D01*
X201965581Y-95217750D01*
X201970797Y-95238574D01*
X201973947Y-95259809D01*
X201975000Y-95281250D01*
X201975000Y-95718750D01*
X201973947Y-95740191D01*
X201970797Y-95761426D01*
X201965581Y-95782250D01*
X201958349Y-95802462D01*
X201949170Y-95821868D01*
X201938134Y-95840281D01*
X201925346Y-95857524D01*
X201910930Y-95873430D01*
X201895024Y-95887846D01*
X201877781Y-95900634D01*
X201859368Y-95911670D01*
X201839962Y-95920849D01*
X201819750Y-95928081D01*
X201798926Y-95933297D01*
X201777691Y-95936447D01*
X201756250Y-95937500D01*
X201243750Y-95937500D01*
X201222309Y-95936447D01*
X201201074Y-95933297D01*
X201180250Y-95928081D01*
X201160038Y-95920849D01*
X201140632Y-95911670D01*
X201122219Y-95900634D01*
X201104976Y-95887846D01*
X201089070Y-95873430D01*
X201074654Y-95857524D01*
X201061866Y-95840281D01*
X201050830Y-95821868D01*
X201041651Y-95802462D01*
X201034419Y-95782250D01*
X201029203Y-95761426D01*
X201026053Y-95740191D01*
X201025000Y-95718750D01*
X201025000Y-95281250D01*
X201026053Y-95259809D01*
X201029203Y-95238574D01*
X201034419Y-95217750D01*
X201041651Y-95197538D01*
X201050830Y-95178132D01*
X201061866Y-95159719D01*
X201074654Y-95142476D01*
X201089070Y-95126570D01*
X201104976Y-95112154D01*
X201122219Y-95099366D01*
X201140632Y-95088330D01*
X201160038Y-95079151D01*
X201180250Y-95071919D01*
X201201074Y-95066703D01*
X201222309Y-95063553D01*
X201243750Y-95062500D01*
X201756250Y-95062500D01*
X201777691Y-95063553D01*
X201777691Y-95063553D01*
G37*
D16*
X201500000Y-95500000D03*
D15*
G36*
X110777691Y-76563553D02*
G01*
X110798926Y-76566703D01*
X110819750Y-76571919D01*
X110839962Y-76579151D01*
X110859368Y-76588330D01*
X110877781Y-76599366D01*
X110895024Y-76612154D01*
X110910930Y-76626570D01*
X110925346Y-76642476D01*
X110938134Y-76659719D01*
X110949170Y-76678132D01*
X110958349Y-76697538D01*
X110965581Y-76717750D01*
X110970797Y-76738574D01*
X110973947Y-76759809D01*
X110975000Y-76781250D01*
X110975000Y-77218750D01*
X110973947Y-77240191D01*
X110970797Y-77261426D01*
X110965581Y-77282250D01*
X110958349Y-77302462D01*
X110949170Y-77321868D01*
X110938134Y-77340281D01*
X110925346Y-77357524D01*
X110910930Y-77373430D01*
X110895024Y-77387846D01*
X110877781Y-77400634D01*
X110859368Y-77411670D01*
X110839962Y-77420849D01*
X110819750Y-77428081D01*
X110798926Y-77433297D01*
X110777691Y-77436447D01*
X110756250Y-77437500D01*
X110243750Y-77437500D01*
X110222309Y-77436447D01*
X110201074Y-77433297D01*
X110180250Y-77428081D01*
X110160038Y-77420849D01*
X110140632Y-77411670D01*
X110122219Y-77400634D01*
X110104976Y-77387846D01*
X110089070Y-77373430D01*
X110074654Y-77357524D01*
X110061866Y-77340281D01*
X110050830Y-77321868D01*
X110041651Y-77302462D01*
X110034419Y-77282250D01*
X110029203Y-77261426D01*
X110026053Y-77240191D01*
X110025000Y-77218750D01*
X110025000Y-76781250D01*
X110026053Y-76759809D01*
X110029203Y-76738574D01*
X110034419Y-76717750D01*
X110041651Y-76697538D01*
X110050830Y-76678132D01*
X110061866Y-76659719D01*
X110074654Y-76642476D01*
X110089070Y-76626570D01*
X110104976Y-76612154D01*
X110122219Y-76599366D01*
X110140632Y-76588330D01*
X110160038Y-76579151D01*
X110180250Y-76571919D01*
X110201074Y-76566703D01*
X110222309Y-76563553D01*
X110243750Y-76562500D01*
X110756250Y-76562500D01*
X110777691Y-76563553D01*
X110777691Y-76563553D01*
G37*
D16*
X110500000Y-77000000D03*
D15*
G36*
X110777691Y-74988553D02*
G01*
X110798926Y-74991703D01*
X110819750Y-74996919D01*
X110839962Y-75004151D01*
X110859368Y-75013330D01*
X110877781Y-75024366D01*
X110895024Y-75037154D01*
X110910930Y-75051570D01*
X110925346Y-75067476D01*
X110938134Y-75084719D01*
X110949170Y-75103132D01*
X110958349Y-75122538D01*
X110965581Y-75142750D01*
X110970797Y-75163574D01*
X110973947Y-75184809D01*
X110975000Y-75206250D01*
X110975000Y-75643750D01*
X110973947Y-75665191D01*
X110970797Y-75686426D01*
X110965581Y-75707250D01*
X110958349Y-75727462D01*
X110949170Y-75746868D01*
X110938134Y-75765281D01*
X110925346Y-75782524D01*
X110910930Y-75798430D01*
X110895024Y-75812846D01*
X110877781Y-75825634D01*
X110859368Y-75836670D01*
X110839962Y-75845849D01*
X110819750Y-75853081D01*
X110798926Y-75858297D01*
X110777691Y-75861447D01*
X110756250Y-75862500D01*
X110243750Y-75862500D01*
X110222309Y-75861447D01*
X110201074Y-75858297D01*
X110180250Y-75853081D01*
X110160038Y-75845849D01*
X110140632Y-75836670D01*
X110122219Y-75825634D01*
X110104976Y-75812846D01*
X110089070Y-75798430D01*
X110074654Y-75782524D01*
X110061866Y-75765281D01*
X110050830Y-75746868D01*
X110041651Y-75727462D01*
X110034419Y-75707250D01*
X110029203Y-75686426D01*
X110026053Y-75665191D01*
X110025000Y-75643750D01*
X110025000Y-75206250D01*
X110026053Y-75184809D01*
X110029203Y-75163574D01*
X110034419Y-75142750D01*
X110041651Y-75122538D01*
X110050830Y-75103132D01*
X110061866Y-75084719D01*
X110074654Y-75067476D01*
X110089070Y-75051570D01*
X110104976Y-75037154D01*
X110122219Y-75024366D01*
X110140632Y-75013330D01*
X110160038Y-75004151D01*
X110180250Y-74996919D01*
X110201074Y-74991703D01*
X110222309Y-74988553D01*
X110243750Y-74987500D01*
X110756250Y-74987500D01*
X110777691Y-74988553D01*
X110777691Y-74988553D01*
G37*
D16*
X110500000Y-75425000D03*
D15*
G36*
X195202691Y-128776053D02*
G01*
X195223926Y-128779203D01*
X195244750Y-128784419D01*
X195264962Y-128791651D01*
X195284368Y-128800830D01*
X195302781Y-128811866D01*
X195320024Y-128824654D01*
X195335930Y-128839070D01*
X195350346Y-128854976D01*
X195363134Y-128872219D01*
X195374170Y-128890632D01*
X195383349Y-128910038D01*
X195390581Y-128930250D01*
X195395797Y-128951074D01*
X195398947Y-128972309D01*
X195400000Y-128993750D01*
X195400000Y-129506250D01*
X195398947Y-129527691D01*
X195395797Y-129548926D01*
X195390581Y-129569750D01*
X195383349Y-129589962D01*
X195374170Y-129609368D01*
X195363134Y-129627781D01*
X195350346Y-129645024D01*
X195335930Y-129660930D01*
X195320024Y-129675346D01*
X195302781Y-129688134D01*
X195284368Y-129699170D01*
X195264962Y-129708349D01*
X195244750Y-129715581D01*
X195223926Y-129720797D01*
X195202691Y-129723947D01*
X195181250Y-129725000D01*
X194743750Y-129725000D01*
X194722309Y-129723947D01*
X194701074Y-129720797D01*
X194680250Y-129715581D01*
X194660038Y-129708349D01*
X194640632Y-129699170D01*
X194622219Y-129688134D01*
X194604976Y-129675346D01*
X194589070Y-129660930D01*
X194574654Y-129645024D01*
X194561866Y-129627781D01*
X194550830Y-129609368D01*
X194541651Y-129589962D01*
X194534419Y-129569750D01*
X194529203Y-129548926D01*
X194526053Y-129527691D01*
X194525000Y-129506250D01*
X194525000Y-128993750D01*
X194526053Y-128972309D01*
X194529203Y-128951074D01*
X194534419Y-128930250D01*
X194541651Y-128910038D01*
X194550830Y-128890632D01*
X194561866Y-128872219D01*
X194574654Y-128854976D01*
X194589070Y-128839070D01*
X194604976Y-128824654D01*
X194622219Y-128811866D01*
X194640632Y-128800830D01*
X194660038Y-128791651D01*
X194680250Y-128784419D01*
X194701074Y-128779203D01*
X194722309Y-128776053D01*
X194743750Y-128775000D01*
X195181250Y-128775000D01*
X195202691Y-128776053D01*
X195202691Y-128776053D01*
G37*
D16*
X194962500Y-129250000D03*
D15*
G36*
X196777691Y-128776053D02*
G01*
X196798926Y-128779203D01*
X196819750Y-128784419D01*
X196839962Y-128791651D01*
X196859368Y-128800830D01*
X196877781Y-128811866D01*
X196895024Y-128824654D01*
X196910930Y-128839070D01*
X196925346Y-128854976D01*
X196938134Y-128872219D01*
X196949170Y-128890632D01*
X196958349Y-128910038D01*
X196965581Y-128930250D01*
X196970797Y-128951074D01*
X196973947Y-128972309D01*
X196975000Y-128993750D01*
X196975000Y-129506250D01*
X196973947Y-129527691D01*
X196970797Y-129548926D01*
X196965581Y-129569750D01*
X196958349Y-129589962D01*
X196949170Y-129609368D01*
X196938134Y-129627781D01*
X196925346Y-129645024D01*
X196910930Y-129660930D01*
X196895024Y-129675346D01*
X196877781Y-129688134D01*
X196859368Y-129699170D01*
X196839962Y-129708349D01*
X196819750Y-129715581D01*
X196798926Y-129720797D01*
X196777691Y-129723947D01*
X196756250Y-129725000D01*
X196318750Y-129725000D01*
X196297309Y-129723947D01*
X196276074Y-129720797D01*
X196255250Y-129715581D01*
X196235038Y-129708349D01*
X196215632Y-129699170D01*
X196197219Y-129688134D01*
X196179976Y-129675346D01*
X196164070Y-129660930D01*
X196149654Y-129645024D01*
X196136866Y-129627781D01*
X196125830Y-129609368D01*
X196116651Y-129589962D01*
X196109419Y-129569750D01*
X196104203Y-129548926D01*
X196101053Y-129527691D01*
X196100000Y-129506250D01*
X196100000Y-128993750D01*
X196101053Y-128972309D01*
X196104203Y-128951074D01*
X196109419Y-128930250D01*
X196116651Y-128910038D01*
X196125830Y-128890632D01*
X196136866Y-128872219D01*
X196149654Y-128854976D01*
X196164070Y-128839070D01*
X196179976Y-128824654D01*
X196197219Y-128811866D01*
X196215632Y-128800830D01*
X196235038Y-128791651D01*
X196255250Y-128784419D01*
X196276074Y-128779203D01*
X196297309Y-128776053D01*
X196318750Y-128775000D01*
X196756250Y-128775000D01*
X196777691Y-128776053D01*
X196777691Y-128776053D01*
G37*
D16*
X196537500Y-129250000D03*
D15*
G36*
X165777691Y-92563553D02*
G01*
X165798926Y-92566703D01*
X165819750Y-92571919D01*
X165839962Y-92579151D01*
X165859368Y-92588330D01*
X165877781Y-92599366D01*
X165895024Y-92612154D01*
X165910930Y-92626570D01*
X165925346Y-92642476D01*
X165938134Y-92659719D01*
X165949170Y-92678132D01*
X165958349Y-92697538D01*
X165965581Y-92717750D01*
X165970797Y-92738574D01*
X165973947Y-92759809D01*
X165975000Y-92781250D01*
X165975000Y-93218750D01*
X165973947Y-93240191D01*
X165970797Y-93261426D01*
X165965581Y-93282250D01*
X165958349Y-93302462D01*
X165949170Y-93321868D01*
X165938134Y-93340281D01*
X165925346Y-93357524D01*
X165910930Y-93373430D01*
X165895024Y-93387846D01*
X165877781Y-93400634D01*
X165859368Y-93411670D01*
X165839962Y-93420849D01*
X165819750Y-93428081D01*
X165798926Y-93433297D01*
X165777691Y-93436447D01*
X165756250Y-93437500D01*
X165243750Y-93437500D01*
X165222309Y-93436447D01*
X165201074Y-93433297D01*
X165180250Y-93428081D01*
X165160038Y-93420849D01*
X165140632Y-93411670D01*
X165122219Y-93400634D01*
X165104976Y-93387846D01*
X165089070Y-93373430D01*
X165074654Y-93357524D01*
X165061866Y-93340281D01*
X165050830Y-93321868D01*
X165041651Y-93302462D01*
X165034419Y-93282250D01*
X165029203Y-93261426D01*
X165026053Y-93240191D01*
X165025000Y-93218750D01*
X165025000Y-92781250D01*
X165026053Y-92759809D01*
X165029203Y-92738574D01*
X165034419Y-92717750D01*
X165041651Y-92697538D01*
X165050830Y-92678132D01*
X165061866Y-92659719D01*
X165074654Y-92642476D01*
X165089070Y-92626570D01*
X165104976Y-92612154D01*
X165122219Y-92599366D01*
X165140632Y-92588330D01*
X165160038Y-92579151D01*
X165180250Y-92571919D01*
X165201074Y-92566703D01*
X165222309Y-92563553D01*
X165243750Y-92562500D01*
X165756250Y-92562500D01*
X165777691Y-92563553D01*
X165777691Y-92563553D01*
G37*
D16*
X165500000Y-93000000D03*
D15*
G36*
X165777691Y-94138553D02*
G01*
X165798926Y-94141703D01*
X165819750Y-94146919D01*
X165839962Y-94154151D01*
X165859368Y-94163330D01*
X165877781Y-94174366D01*
X165895024Y-94187154D01*
X165910930Y-94201570D01*
X165925346Y-94217476D01*
X165938134Y-94234719D01*
X165949170Y-94253132D01*
X165958349Y-94272538D01*
X165965581Y-94292750D01*
X165970797Y-94313574D01*
X165973947Y-94334809D01*
X165975000Y-94356250D01*
X165975000Y-94793750D01*
X165973947Y-94815191D01*
X165970797Y-94836426D01*
X165965581Y-94857250D01*
X165958349Y-94877462D01*
X165949170Y-94896868D01*
X165938134Y-94915281D01*
X165925346Y-94932524D01*
X165910930Y-94948430D01*
X165895024Y-94962846D01*
X165877781Y-94975634D01*
X165859368Y-94986670D01*
X165839962Y-94995849D01*
X165819750Y-95003081D01*
X165798926Y-95008297D01*
X165777691Y-95011447D01*
X165756250Y-95012500D01*
X165243750Y-95012500D01*
X165222309Y-95011447D01*
X165201074Y-95008297D01*
X165180250Y-95003081D01*
X165160038Y-94995849D01*
X165140632Y-94986670D01*
X165122219Y-94975634D01*
X165104976Y-94962846D01*
X165089070Y-94948430D01*
X165074654Y-94932524D01*
X165061866Y-94915281D01*
X165050830Y-94896868D01*
X165041651Y-94877462D01*
X165034419Y-94857250D01*
X165029203Y-94836426D01*
X165026053Y-94815191D01*
X165025000Y-94793750D01*
X165025000Y-94356250D01*
X165026053Y-94334809D01*
X165029203Y-94313574D01*
X165034419Y-94292750D01*
X165041651Y-94272538D01*
X165050830Y-94253132D01*
X165061866Y-94234719D01*
X165074654Y-94217476D01*
X165089070Y-94201570D01*
X165104976Y-94187154D01*
X165122219Y-94174366D01*
X165140632Y-94163330D01*
X165160038Y-94154151D01*
X165180250Y-94146919D01*
X165201074Y-94141703D01*
X165222309Y-94138553D01*
X165243750Y-94137500D01*
X165756250Y-94137500D01*
X165777691Y-94138553D01*
X165777691Y-94138553D01*
G37*
D16*
X165500000Y-94575000D03*
D15*
G36*
X98527691Y-104063553D02*
G01*
X98548926Y-104066703D01*
X98569750Y-104071919D01*
X98589962Y-104079151D01*
X98609368Y-104088330D01*
X98627781Y-104099366D01*
X98645024Y-104112154D01*
X98660930Y-104126570D01*
X98675346Y-104142476D01*
X98688134Y-104159719D01*
X98699170Y-104178132D01*
X98708349Y-104197538D01*
X98715581Y-104217750D01*
X98720797Y-104238574D01*
X98723947Y-104259809D01*
X98725000Y-104281250D01*
X98725000Y-104718750D01*
X98723947Y-104740191D01*
X98720797Y-104761426D01*
X98715581Y-104782250D01*
X98708349Y-104802462D01*
X98699170Y-104821868D01*
X98688134Y-104840281D01*
X98675346Y-104857524D01*
X98660930Y-104873430D01*
X98645024Y-104887846D01*
X98627781Y-104900634D01*
X98609368Y-104911670D01*
X98589962Y-104920849D01*
X98569750Y-104928081D01*
X98548926Y-104933297D01*
X98527691Y-104936447D01*
X98506250Y-104937500D01*
X97993750Y-104937500D01*
X97972309Y-104936447D01*
X97951074Y-104933297D01*
X97930250Y-104928081D01*
X97910038Y-104920849D01*
X97890632Y-104911670D01*
X97872219Y-104900634D01*
X97854976Y-104887846D01*
X97839070Y-104873430D01*
X97824654Y-104857524D01*
X97811866Y-104840281D01*
X97800830Y-104821868D01*
X97791651Y-104802462D01*
X97784419Y-104782250D01*
X97779203Y-104761426D01*
X97776053Y-104740191D01*
X97775000Y-104718750D01*
X97775000Y-104281250D01*
X97776053Y-104259809D01*
X97779203Y-104238574D01*
X97784419Y-104217750D01*
X97791651Y-104197538D01*
X97800830Y-104178132D01*
X97811866Y-104159719D01*
X97824654Y-104142476D01*
X97839070Y-104126570D01*
X97854976Y-104112154D01*
X97872219Y-104099366D01*
X97890632Y-104088330D01*
X97910038Y-104079151D01*
X97930250Y-104071919D01*
X97951074Y-104066703D01*
X97972309Y-104063553D01*
X97993750Y-104062500D01*
X98506250Y-104062500D01*
X98527691Y-104063553D01*
X98527691Y-104063553D01*
G37*
D16*
X98250000Y-104500000D03*
D15*
G36*
X98527691Y-102488553D02*
G01*
X98548926Y-102491703D01*
X98569750Y-102496919D01*
X98589962Y-102504151D01*
X98609368Y-102513330D01*
X98627781Y-102524366D01*
X98645024Y-102537154D01*
X98660930Y-102551570D01*
X98675346Y-102567476D01*
X98688134Y-102584719D01*
X98699170Y-102603132D01*
X98708349Y-102622538D01*
X98715581Y-102642750D01*
X98720797Y-102663574D01*
X98723947Y-102684809D01*
X98725000Y-102706250D01*
X98725000Y-103143750D01*
X98723947Y-103165191D01*
X98720797Y-103186426D01*
X98715581Y-103207250D01*
X98708349Y-103227462D01*
X98699170Y-103246868D01*
X98688134Y-103265281D01*
X98675346Y-103282524D01*
X98660930Y-103298430D01*
X98645024Y-103312846D01*
X98627781Y-103325634D01*
X98609368Y-103336670D01*
X98589962Y-103345849D01*
X98569750Y-103353081D01*
X98548926Y-103358297D01*
X98527691Y-103361447D01*
X98506250Y-103362500D01*
X97993750Y-103362500D01*
X97972309Y-103361447D01*
X97951074Y-103358297D01*
X97930250Y-103353081D01*
X97910038Y-103345849D01*
X97890632Y-103336670D01*
X97872219Y-103325634D01*
X97854976Y-103312846D01*
X97839070Y-103298430D01*
X97824654Y-103282524D01*
X97811866Y-103265281D01*
X97800830Y-103246868D01*
X97791651Y-103227462D01*
X97784419Y-103207250D01*
X97779203Y-103186426D01*
X97776053Y-103165191D01*
X97775000Y-103143750D01*
X97775000Y-102706250D01*
X97776053Y-102684809D01*
X97779203Y-102663574D01*
X97784419Y-102642750D01*
X97791651Y-102622538D01*
X97800830Y-102603132D01*
X97811866Y-102584719D01*
X97824654Y-102567476D01*
X97839070Y-102551570D01*
X97854976Y-102537154D01*
X97872219Y-102524366D01*
X97890632Y-102513330D01*
X97910038Y-102504151D01*
X97930250Y-102496919D01*
X97951074Y-102491703D01*
X97972309Y-102488553D01*
X97993750Y-102487500D01*
X98506250Y-102487500D01*
X98527691Y-102488553D01*
X98527691Y-102488553D01*
G37*
D16*
X98250000Y-102925000D03*
D15*
G36*
X125240191Y-74026053D02*
G01*
X125261426Y-74029203D01*
X125282250Y-74034419D01*
X125302462Y-74041651D01*
X125321868Y-74050830D01*
X125340281Y-74061866D01*
X125357524Y-74074654D01*
X125373430Y-74089070D01*
X125387846Y-74104976D01*
X125400634Y-74122219D01*
X125411670Y-74140632D01*
X125420849Y-74160038D01*
X125428081Y-74180250D01*
X125433297Y-74201074D01*
X125436447Y-74222309D01*
X125437500Y-74243750D01*
X125437500Y-74756250D01*
X125436447Y-74777691D01*
X125433297Y-74798926D01*
X125428081Y-74819750D01*
X125420849Y-74839962D01*
X125411670Y-74859368D01*
X125400634Y-74877781D01*
X125387846Y-74895024D01*
X125373430Y-74910930D01*
X125357524Y-74925346D01*
X125340281Y-74938134D01*
X125321868Y-74949170D01*
X125302462Y-74958349D01*
X125282250Y-74965581D01*
X125261426Y-74970797D01*
X125240191Y-74973947D01*
X125218750Y-74975000D01*
X124781250Y-74975000D01*
X124759809Y-74973947D01*
X124738574Y-74970797D01*
X124717750Y-74965581D01*
X124697538Y-74958349D01*
X124678132Y-74949170D01*
X124659719Y-74938134D01*
X124642476Y-74925346D01*
X124626570Y-74910930D01*
X124612154Y-74895024D01*
X124599366Y-74877781D01*
X124588330Y-74859368D01*
X124579151Y-74839962D01*
X124571919Y-74819750D01*
X124566703Y-74798926D01*
X124563553Y-74777691D01*
X124562500Y-74756250D01*
X124562500Y-74243750D01*
X124563553Y-74222309D01*
X124566703Y-74201074D01*
X124571919Y-74180250D01*
X124579151Y-74160038D01*
X124588330Y-74140632D01*
X124599366Y-74122219D01*
X124612154Y-74104976D01*
X124626570Y-74089070D01*
X124642476Y-74074654D01*
X124659719Y-74061866D01*
X124678132Y-74050830D01*
X124697538Y-74041651D01*
X124717750Y-74034419D01*
X124738574Y-74029203D01*
X124759809Y-74026053D01*
X124781250Y-74025000D01*
X125218750Y-74025000D01*
X125240191Y-74026053D01*
X125240191Y-74026053D01*
G37*
D16*
X125000000Y-74500000D03*
D15*
G36*
X123665191Y-74026053D02*
G01*
X123686426Y-74029203D01*
X123707250Y-74034419D01*
X123727462Y-74041651D01*
X123746868Y-74050830D01*
X123765281Y-74061866D01*
X123782524Y-74074654D01*
X123798430Y-74089070D01*
X123812846Y-74104976D01*
X123825634Y-74122219D01*
X123836670Y-74140632D01*
X123845849Y-74160038D01*
X123853081Y-74180250D01*
X123858297Y-74201074D01*
X123861447Y-74222309D01*
X123862500Y-74243750D01*
X123862500Y-74756250D01*
X123861447Y-74777691D01*
X123858297Y-74798926D01*
X123853081Y-74819750D01*
X123845849Y-74839962D01*
X123836670Y-74859368D01*
X123825634Y-74877781D01*
X123812846Y-74895024D01*
X123798430Y-74910930D01*
X123782524Y-74925346D01*
X123765281Y-74938134D01*
X123746868Y-74949170D01*
X123727462Y-74958349D01*
X123707250Y-74965581D01*
X123686426Y-74970797D01*
X123665191Y-74973947D01*
X123643750Y-74975000D01*
X123206250Y-74975000D01*
X123184809Y-74973947D01*
X123163574Y-74970797D01*
X123142750Y-74965581D01*
X123122538Y-74958349D01*
X123103132Y-74949170D01*
X123084719Y-74938134D01*
X123067476Y-74925346D01*
X123051570Y-74910930D01*
X123037154Y-74895024D01*
X123024366Y-74877781D01*
X123013330Y-74859368D01*
X123004151Y-74839962D01*
X122996919Y-74819750D01*
X122991703Y-74798926D01*
X122988553Y-74777691D01*
X122987500Y-74756250D01*
X122987500Y-74243750D01*
X122988553Y-74222309D01*
X122991703Y-74201074D01*
X122996919Y-74180250D01*
X123004151Y-74160038D01*
X123013330Y-74140632D01*
X123024366Y-74122219D01*
X123037154Y-74104976D01*
X123051570Y-74089070D01*
X123067476Y-74074654D01*
X123084719Y-74061866D01*
X123103132Y-74050830D01*
X123122538Y-74041651D01*
X123142750Y-74034419D01*
X123163574Y-74029203D01*
X123184809Y-74026053D01*
X123206250Y-74025000D01*
X123643750Y-74025000D01*
X123665191Y-74026053D01*
X123665191Y-74026053D01*
G37*
D16*
X123425000Y-74500000D03*
D15*
G36*
X147240191Y-99276053D02*
G01*
X147261426Y-99279203D01*
X147282250Y-99284419D01*
X147302462Y-99291651D01*
X147321868Y-99300830D01*
X147340281Y-99311866D01*
X147357524Y-99324654D01*
X147373430Y-99339070D01*
X147387846Y-99354976D01*
X147400634Y-99372219D01*
X147411670Y-99390632D01*
X147420849Y-99410038D01*
X147428081Y-99430250D01*
X147433297Y-99451074D01*
X147436447Y-99472309D01*
X147437500Y-99493750D01*
X147437500Y-100006250D01*
X147436447Y-100027691D01*
X147433297Y-100048926D01*
X147428081Y-100069750D01*
X147420849Y-100089962D01*
X147411670Y-100109368D01*
X147400634Y-100127781D01*
X147387846Y-100145024D01*
X147373430Y-100160930D01*
X147357524Y-100175346D01*
X147340281Y-100188134D01*
X147321868Y-100199170D01*
X147302462Y-100208349D01*
X147282250Y-100215581D01*
X147261426Y-100220797D01*
X147240191Y-100223947D01*
X147218750Y-100225000D01*
X146781250Y-100225000D01*
X146759809Y-100223947D01*
X146738574Y-100220797D01*
X146717750Y-100215581D01*
X146697538Y-100208349D01*
X146678132Y-100199170D01*
X146659719Y-100188134D01*
X146642476Y-100175346D01*
X146626570Y-100160930D01*
X146612154Y-100145024D01*
X146599366Y-100127781D01*
X146588330Y-100109368D01*
X146579151Y-100089962D01*
X146571919Y-100069750D01*
X146566703Y-100048926D01*
X146563553Y-100027691D01*
X146562500Y-100006250D01*
X146562500Y-99493750D01*
X146563553Y-99472309D01*
X146566703Y-99451074D01*
X146571919Y-99430250D01*
X146579151Y-99410038D01*
X146588330Y-99390632D01*
X146599366Y-99372219D01*
X146612154Y-99354976D01*
X146626570Y-99339070D01*
X146642476Y-99324654D01*
X146659719Y-99311866D01*
X146678132Y-99300830D01*
X146697538Y-99291651D01*
X146717750Y-99284419D01*
X146738574Y-99279203D01*
X146759809Y-99276053D01*
X146781250Y-99275000D01*
X147218750Y-99275000D01*
X147240191Y-99276053D01*
X147240191Y-99276053D01*
G37*
D16*
X147000000Y-99750000D03*
D15*
G36*
X145665191Y-99276053D02*
G01*
X145686426Y-99279203D01*
X145707250Y-99284419D01*
X145727462Y-99291651D01*
X145746868Y-99300830D01*
X145765281Y-99311866D01*
X145782524Y-99324654D01*
X145798430Y-99339070D01*
X145812846Y-99354976D01*
X145825634Y-99372219D01*
X145836670Y-99390632D01*
X145845849Y-99410038D01*
X145853081Y-99430250D01*
X145858297Y-99451074D01*
X145861447Y-99472309D01*
X145862500Y-99493750D01*
X145862500Y-100006250D01*
X145861447Y-100027691D01*
X145858297Y-100048926D01*
X145853081Y-100069750D01*
X145845849Y-100089962D01*
X145836670Y-100109368D01*
X145825634Y-100127781D01*
X145812846Y-100145024D01*
X145798430Y-100160930D01*
X145782524Y-100175346D01*
X145765281Y-100188134D01*
X145746868Y-100199170D01*
X145727462Y-100208349D01*
X145707250Y-100215581D01*
X145686426Y-100220797D01*
X145665191Y-100223947D01*
X145643750Y-100225000D01*
X145206250Y-100225000D01*
X145184809Y-100223947D01*
X145163574Y-100220797D01*
X145142750Y-100215581D01*
X145122538Y-100208349D01*
X145103132Y-100199170D01*
X145084719Y-100188134D01*
X145067476Y-100175346D01*
X145051570Y-100160930D01*
X145037154Y-100145024D01*
X145024366Y-100127781D01*
X145013330Y-100109368D01*
X145004151Y-100089962D01*
X144996919Y-100069750D01*
X144991703Y-100048926D01*
X144988553Y-100027691D01*
X144987500Y-100006250D01*
X144987500Y-99493750D01*
X144988553Y-99472309D01*
X144991703Y-99451074D01*
X144996919Y-99430250D01*
X145004151Y-99410038D01*
X145013330Y-99390632D01*
X145024366Y-99372219D01*
X145037154Y-99354976D01*
X145051570Y-99339070D01*
X145067476Y-99324654D01*
X145084719Y-99311866D01*
X145103132Y-99300830D01*
X145122538Y-99291651D01*
X145142750Y-99284419D01*
X145163574Y-99279203D01*
X145184809Y-99276053D01*
X145206250Y-99275000D01*
X145643750Y-99275000D01*
X145665191Y-99276053D01*
X145665191Y-99276053D01*
G37*
D16*
X145425000Y-99750000D03*
D17*
X153000000Y-96500000D03*
X151000000Y-96500000D03*
X149000000Y-96500000D03*
X147000000Y-96500000D03*
D18*
X156350000Y-102500000D03*
X153810000Y-102500000D03*
X151270000Y-102500000D03*
X148730000Y-102500000D03*
X146190000Y-102500000D03*
X143650000Y-102500000D03*
D19*
X101160000Y-92380000D03*
X101160000Y-94920000D03*
X101160000Y-97460000D03*
X101160000Y-100000000D03*
X101160000Y-102540000D03*
X101160000Y-105080000D03*
X101160000Y-107620000D03*
X198840000Y-107620000D03*
X198840000Y-105080000D03*
X198840000Y-102540000D03*
X198840000Y-100000000D03*
X198840000Y-97460000D03*
X198840000Y-94920000D03*
X198840000Y-92380000D03*
D20*
X184380000Y-126615000D03*
X186920000Y-126615000D03*
X189460000Y-126615000D03*
X192000000Y-126615000D03*
X194540000Y-126615000D03*
X197080000Y-126615000D03*
X199620000Y-126615000D03*
X199620000Y-73385000D03*
X197080000Y-73385000D03*
X194540000Y-73385000D03*
X192000000Y-73385000D03*
X189460000Y-73385000D03*
X186920000Y-73385000D03*
X184380000Y-73385000D03*
D21*
X125000000Y-67000000D03*
D15*
G36*
X127374505Y-66126204D02*
G01*
X127398773Y-66129804D01*
X127422572Y-66135765D01*
X127445671Y-66144030D01*
X127467850Y-66154520D01*
X127488893Y-66167132D01*
X127508599Y-66181747D01*
X127526777Y-66198223D01*
X127543253Y-66216401D01*
X127557868Y-66236107D01*
X127570480Y-66257150D01*
X127580970Y-66279329D01*
X127589235Y-66302428D01*
X127595196Y-66326227D01*
X127598796Y-66350495D01*
X127600000Y-66374999D01*
X127600000Y-67625001D01*
X127598796Y-67649505D01*
X127595196Y-67673773D01*
X127589235Y-67697572D01*
X127580970Y-67720671D01*
X127570480Y-67742850D01*
X127557868Y-67763893D01*
X127543253Y-67783599D01*
X127526777Y-67801777D01*
X127508599Y-67818253D01*
X127488893Y-67832868D01*
X127467850Y-67845480D01*
X127445671Y-67855970D01*
X127422572Y-67864235D01*
X127398773Y-67870196D01*
X127374505Y-67873796D01*
X127350001Y-67875000D01*
X126649999Y-67875000D01*
X126625495Y-67873796D01*
X126601227Y-67870196D01*
X126577428Y-67864235D01*
X126554329Y-67855970D01*
X126532150Y-67845480D01*
X126511107Y-67832868D01*
X126491401Y-67818253D01*
X126473223Y-67801777D01*
X126456747Y-67783599D01*
X126442132Y-67763893D01*
X126429520Y-67742850D01*
X126419030Y-67720671D01*
X126410765Y-67697572D01*
X126404804Y-67673773D01*
X126401204Y-67649505D01*
X126400000Y-67625001D01*
X126400000Y-66374999D01*
X126401204Y-66350495D01*
X126404804Y-66326227D01*
X126410765Y-66302428D01*
X126419030Y-66279329D01*
X126429520Y-66257150D01*
X126442132Y-66236107D01*
X126456747Y-66216401D01*
X126473223Y-66198223D01*
X126491401Y-66181747D01*
X126511107Y-66167132D01*
X126532150Y-66154520D01*
X126554329Y-66144030D01*
X126577428Y-66135765D01*
X126601227Y-66129804D01*
X126625495Y-66126204D01*
X126649999Y-66125000D01*
X127350001Y-66125000D01*
X127374505Y-66126204D01*
X127374505Y-66126204D01*
G37*
D22*
X127000000Y-67000000D03*
D19*
X175810000Y-107620000D03*
X168190000Y-107620000D03*
X175810000Y-105080000D03*
X168190000Y-105080000D03*
X175810000Y-102540000D03*
X168190000Y-102540000D03*
X175810000Y-100000000D03*
X168190000Y-100000000D03*
X175810000Y-97460000D03*
X168190000Y-97460000D03*
X175810000Y-94920000D03*
X168190000Y-94920000D03*
X175730000Y-92380000D03*
X168190000Y-92380000D03*
D17*
X123000000Y-77000000D03*
X125500000Y-77000000D03*
D15*
G36*
X128411756Y-76001806D02*
G01*
X128448159Y-76007206D01*
X128483857Y-76016147D01*
X128518506Y-76028545D01*
X128551774Y-76044280D01*
X128583339Y-76063199D01*
X128612897Y-76085121D01*
X128640165Y-76109835D01*
X128664879Y-76137103D01*
X128686801Y-76166661D01*
X128705720Y-76198226D01*
X128721455Y-76231494D01*
X128733853Y-76266143D01*
X128742794Y-76301841D01*
X128748194Y-76338244D01*
X128750000Y-76375000D01*
X128750000Y-77625000D01*
X128748194Y-77661756D01*
X128742794Y-77698159D01*
X128733853Y-77733857D01*
X128721455Y-77768506D01*
X128705720Y-77801774D01*
X128686801Y-77833339D01*
X128664879Y-77862897D01*
X128640165Y-77890165D01*
X128612897Y-77914879D01*
X128583339Y-77936801D01*
X128551774Y-77955720D01*
X128518506Y-77971455D01*
X128483857Y-77983853D01*
X128448159Y-77992794D01*
X128411756Y-77998194D01*
X128375000Y-78000000D01*
X127625000Y-78000000D01*
X127588244Y-77998194D01*
X127551841Y-77992794D01*
X127516143Y-77983853D01*
X127481494Y-77971455D01*
X127448226Y-77955720D01*
X127416661Y-77936801D01*
X127387103Y-77914879D01*
X127359835Y-77890165D01*
X127335121Y-77862897D01*
X127313199Y-77833339D01*
X127294280Y-77801774D01*
X127278545Y-77768506D01*
X127266147Y-77733857D01*
X127257206Y-77698159D01*
X127251806Y-77661756D01*
X127250000Y-77625000D01*
X127250000Y-76375000D01*
X127251806Y-76338244D01*
X127257206Y-76301841D01*
X127266147Y-76266143D01*
X127278545Y-76231494D01*
X127294280Y-76198226D01*
X127313199Y-76166661D01*
X127335121Y-76137103D01*
X127359835Y-76109835D01*
X127387103Y-76085121D01*
X127416661Y-76063199D01*
X127448226Y-76044280D01*
X127481494Y-76028545D01*
X127516143Y-76016147D01*
X127551841Y-76007206D01*
X127588244Y-76001806D01*
X127625000Y-76000000D01*
X128375000Y-76000000D01*
X128411756Y-76001806D01*
X128411756Y-76001806D01*
G37*
D23*
X128000000Y-77000000D03*
D21*
X178000000Y-114000000D03*
X176000000Y-114000000D03*
X174000000Y-114000000D03*
X172000000Y-114000000D03*
X170000000Y-114000000D03*
D15*
G36*
X168374505Y-113126204D02*
G01*
X168398773Y-113129804D01*
X168422572Y-113135765D01*
X168445671Y-113144030D01*
X168467850Y-113154520D01*
X168488893Y-113167132D01*
X168508599Y-113181747D01*
X168526777Y-113198223D01*
X168543253Y-113216401D01*
X168557868Y-113236107D01*
X168570480Y-113257150D01*
X168580970Y-113279329D01*
X168589235Y-113302428D01*
X168595196Y-113326227D01*
X168598796Y-113350495D01*
X168600000Y-113374999D01*
X168600000Y-114625001D01*
X168598796Y-114649505D01*
X168595196Y-114673773D01*
X168589235Y-114697572D01*
X168580970Y-114720671D01*
X168570480Y-114742850D01*
X168557868Y-114763893D01*
X168543253Y-114783599D01*
X168526777Y-114801777D01*
X168508599Y-114818253D01*
X168488893Y-114832868D01*
X168467850Y-114845480D01*
X168445671Y-114855970D01*
X168422572Y-114864235D01*
X168398773Y-114870196D01*
X168374505Y-114873796D01*
X168350001Y-114875000D01*
X167649999Y-114875000D01*
X167625495Y-114873796D01*
X167601227Y-114870196D01*
X167577428Y-114864235D01*
X167554329Y-114855970D01*
X167532150Y-114845480D01*
X167511107Y-114832868D01*
X167491401Y-114818253D01*
X167473223Y-114801777D01*
X167456747Y-114783599D01*
X167442132Y-114763893D01*
X167429520Y-114742850D01*
X167419030Y-114720671D01*
X167410765Y-114697572D01*
X167404804Y-114673773D01*
X167401204Y-114649505D01*
X167400000Y-114625001D01*
X167400000Y-113374999D01*
X167401204Y-113350495D01*
X167404804Y-113326227D01*
X167410765Y-113302428D01*
X167419030Y-113279329D01*
X167429520Y-113257150D01*
X167442132Y-113236107D01*
X167456747Y-113216401D01*
X167473223Y-113198223D01*
X167491401Y-113181747D01*
X167511107Y-113167132D01*
X167532150Y-113154520D01*
X167554329Y-113144030D01*
X167577428Y-113135765D01*
X167601227Y-113129804D01*
X167625495Y-113126204D01*
X167649999Y-113125000D01*
X168350001Y-113125000D01*
X168374505Y-113126204D01*
X168374505Y-113126204D01*
G37*
D22*
X168000000Y-114000000D03*
D21*
X178000000Y-86000000D03*
X176000000Y-86000000D03*
X174000000Y-86000000D03*
X172000000Y-86000000D03*
X170000000Y-86000000D03*
D15*
G36*
X168374505Y-85126204D02*
G01*
X168398773Y-85129804D01*
X168422572Y-85135765D01*
X168445671Y-85144030D01*
X168467850Y-85154520D01*
X168488893Y-85167132D01*
X168508599Y-85181747D01*
X168526777Y-85198223D01*
X168543253Y-85216401D01*
X168557868Y-85236107D01*
X168570480Y-85257150D01*
X168580970Y-85279329D01*
X168589235Y-85302428D01*
X168595196Y-85326227D01*
X168598796Y-85350495D01*
X168600000Y-85374999D01*
X168600000Y-86625001D01*
X168598796Y-86649505D01*
X168595196Y-86673773D01*
X168589235Y-86697572D01*
X168580970Y-86720671D01*
X168570480Y-86742850D01*
X168557868Y-86763893D01*
X168543253Y-86783599D01*
X168526777Y-86801777D01*
X168508599Y-86818253D01*
X168488893Y-86832868D01*
X168467850Y-86845480D01*
X168445671Y-86855970D01*
X168422572Y-86864235D01*
X168398773Y-86870196D01*
X168374505Y-86873796D01*
X168350001Y-86875000D01*
X167649999Y-86875000D01*
X167625495Y-86873796D01*
X167601227Y-86870196D01*
X167577428Y-86864235D01*
X167554329Y-86855970D01*
X167532150Y-86845480D01*
X167511107Y-86832868D01*
X167491401Y-86818253D01*
X167473223Y-86801777D01*
X167456747Y-86783599D01*
X167442132Y-86763893D01*
X167429520Y-86742850D01*
X167419030Y-86720671D01*
X167410765Y-86697572D01*
X167404804Y-86673773D01*
X167401204Y-86649505D01*
X167400000Y-86625001D01*
X167400000Y-85374999D01*
X167401204Y-85350495D01*
X167404804Y-85326227D01*
X167410765Y-85302428D01*
X167419030Y-85279329D01*
X167429520Y-85257150D01*
X167442132Y-85236107D01*
X167456747Y-85216401D01*
X167473223Y-85198223D01*
X167491401Y-85181747D01*
X167511107Y-85167132D01*
X167532150Y-85154520D01*
X167554329Y-85144030D01*
X167577428Y-85135765D01*
X167601227Y-85129804D01*
X167625495Y-85126204D01*
X167649999Y-85125000D01*
X168350001Y-85125000D01*
X168374505Y-85126204D01*
X168374505Y-85126204D01*
G37*
D22*
X168000000Y-86000000D03*
D24*
X134125000Y-72503694D03*
X141000000Y-62975000D03*
X159000000Y-62975000D03*
X193180000Y-92634001D03*
X193180000Y-107365999D03*
X181750000Y-100000000D03*
X159000000Y-137025000D03*
X141000000Y-137025000D03*
X106820000Y-107365999D03*
X106820000Y-92634001D03*
X134125000Y-127496306D03*
D25*
X110500000Y-78500000D03*
X142000000Y-99000000D03*
X152000000Y-99000000D03*
X186000000Y-82000000D03*
X184000000Y-82000000D03*
X184000000Y-87000000D03*
X186000000Y-87000000D03*
X186000000Y-114000000D03*
X190000000Y-118000000D03*
X173000000Y-122000000D03*
X176000000Y-122000000D03*
X173000000Y-126000000D03*
X176000000Y-126000000D03*
X98000000Y-98500000D03*
X98000000Y-96000000D03*
D26*
X132954999Y-97235001D02*
X132954999Y-95569999D01*
X133539999Y-94984999D02*
X145734999Y-94984999D01*
X132954999Y-95569999D02*
X133539999Y-94984999D01*
X121380000Y-108810000D02*
X132954999Y-97235001D01*
X145734999Y-94984999D02*
X147000000Y-96250000D01*
X133317999Y-92444999D02*
X145194999Y-92444999D01*
X145194999Y-92444999D02*
X149250000Y-96500000D01*
X121380000Y-106270000D02*
X127250000Y-100400000D01*
X127250000Y-98512998D02*
X133317999Y-92444999D01*
X127250000Y-100400000D02*
X127250000Y-98512998D01*
X132047999Y-89904999D02*
X144654999Y-89904999D01*
X144654999Y-89904999D02*
X151000000Y-96250000D01*
X123405021Y-98547977D02*
X132047999Y-89904999D01*
X123405021Y-101704979D02*
X123405021Y-98547977D01*
X121380000Y-103730000D02*
X123405021Y-101704979D01*
X151000000Y-96250000D02*
X151000000Y-96500000D01*
X144114999Y-87364999D02*
X153000000Y-96250000D01*
X122955012Y-98361576D02*
X133951589Y-87364999D01*
X133951589Y-87364999D02*
X144114999Y-87364999D01*
X122955012Y-99614988D02*
X122955012Y-98361576D01*
X121380000Y-101190000D02*
X122955012Y-99614988D01*
X154574980Y-104775020D02*
X140275020Y-104775020D01*
X156350000Y-103000000D02*
X154574980Y-104775020D01*
X156350000Y-102500000D02*
X156350000Y-103000000D01*
X140275020Y-104775020D02*
X136750000Y-101250000D01*
X152484990Y-104325010D02*
X142075010Y-104325010D01*
X153810000Y-103000000D02*
X152484990Y-104325010D01*
X153810000Y-102500000D02*
X153810000Y-103000000D01*
X142075010Y-104325010D02*
X136500000Y-98750000D01*
X145825009Y-98924991D02*
X145800010Y-98949990D01*
X147528838Y-98924991D02*
X145825009Y-98924991D01*
X151103847Y-102500000D02*
X147528838Y-98924991D01*
X151270000Y-102500000D02*
X151103847Y-102500000D01*
X145800010Y-98949990D02*
X145775011Y-98924991D01*
X145800010Y-98949990D02*
X142850020Y-96000000D01*
X142850020Y-96000000D02*
X136500000Y-96000000D01*
D27*
X165500000Y-93000000D02*
X166000000Y-92500000D01*
X166000000Y-92500000D02*
X168250000Y-92500000D01*
X147000000Y-99750000D02*
X147461612Y-100211612D01*
X147461612Y-100211612D02*
X148500000Y-101250000D01*
X98711612Y-102463388D02*
X100963388Y-102463388D01*
X98250000Y-102925000D02*
X98711612Y-102463388D01*
X189000000Y-70750000D02*
X189500000Y-71250000D01*
X189500000Y-71250000D02*
X189500000Y-72750000D01*
X201038388Y-97536612D02*
X199036612Y-97536612D01*
X201500000Y-97075000D02*
X201038388Y-97536612D01*
X194962500Y-129250000D02*
X194500000Y-128787500D01*
X194500000Y-128787500D02*
X194500000Y-127250000D01*
X125000000Y-74500000D02*
X125500000Y-75000000D01*
X125500000Y-75000000D02*
X125500000Y-76750000D01*
X110500000Y-77000000D02*
X110500000Y-78500000D01*
X165961612Y-95036612D02*
X166213388Y-95036612D01*
X165500000Y-94575000D02*
X165961612Y-95036612D01*
X166213388Y-95036612D02*
X166250000Y-95000000D01*
X166250000Y-95000000D02*
X168250000Y-95000000D01*
X145425000Y-99750000D02*
X143500000Y-101675000D01*
X143500000Y-101675000D02*
X143500000Y-101750000D01*
X98250000Y-104500000D02*
X99000000Y-105250000D01*
X99000000Y-105250000D02*
X101000000Y-105250000D01*
X186963388Y-71211612D02*
X186963388Y-73213388D01*
X187425000Y-70750000D02*
X186963388Y-71211612D01*
X201500000Y-95500000D02*
X201000000Y-95000000D01*
X201000000Y-95000000D02*
X198750000Y-95000000D01*
X196537500Y-129250000D02*
X197000000Y-128787500D01*
X197000000Y-128787500D02*
X197000000Y-127250000D01*
X110500000Y-75425000D02*
X112425000Y-75425000D01*
D26*
X122955011Y-97074989D02*
X122955011Y-95171399D01*
X121380000Y-98650000D02*
X122955011Y-97074989D01*
X122955011Y-95171399D02*
X122955011Y-86794989D01*
X122955011Y-86794989D02*
X124500000Y-85250000D01*
X124500000Y-85250000D02*
X160500000Y-85250000D01*
X171074990Y-87200010D02*
X172000000Y-86275000D01*
X162450010Y-87200010D02*
X171074990Y-87200010D01*
X160500000Y-85250000D02*
X162450010Y-87200010D01*
X122505001Y-94984999D02*
X122505001Y-86505001D01*
X121380000Y-96110000D02*
X122505001Y-94984999D01*
X124210012Y-84799990D02*
X169049990Y-84799990D01*
X122505001Y-86505001D02*
X124210012Y-84799990D01*
X169049990Y-84799990D02*
X170000000Y-85750000D01*
X172000000Y-114275000D02*
X167275000Y-119000000D01*
X172000000Y-114000000D02*
X172000000Y-114275000D01*
X167275000Y-119000000D02*
X136750000Y-119000000D01*
X167845000Y-116430000D02*
X170000000Y-114275000D01*
X136620000Y-116430000D02*
X167845000Y-116430000D01*
X167702000Y-100000000D02*
X157477001Y-110224999D01*
X168190000Y-100000000D02*
X167702000Y-100000000D01*
X115787921Y-112890999D02*
X114752079Y-112890999D01*
X114752079Y-112890999D02*
X114000000Y-113643078D01*
X126172181Y-115304999D02*
X118201921Y-115304999D01*
X118201921Y-115304999D02*
X115787921Y-112890999D01*
X131252181Y-110224999D02*
X126172181Y-115304999D01*
X157477001Y-110224999D02*
X131252181Y-110224999D01*
X114000000Y-113643078D02*
X114000000Y-117750000D01*
X114000000Y-117750000D02*
X112750000Y-119000000D01*
X124170003Y-107684999D02*
X121855002Y-110000000D01*
X157477001Y-107684999D02*
X124170003Y-107684999D01*
X167702000Y-97460000D02*
X157477001Y-107684999D01*
X168190000Y-97460000D02*
X167702000Y-97460000D01*
X116349001Y-97849001D02*
X115769001Y-97269001D01*
X116349001Y-105444003D02*
X116349001Y-97849001D01*
X115769001Y-97269001D02*
X114519001Y-97269001D01*
X120904998Y-110000000D02*
X116349001Y-105444003D01*
X121855002Y-110000000D02*
X120904998Y-110000000D01*
X113809001Y-96559001D02*
X113809001Y-92440999D01*
X114519001Y-97269001D02*
X113809001Y-96559001D01*
X113809001Y-90974077D02*
X115250000Y-89533078D01*
X113809001Y-92440999D02*
X113809001Y-90974077D01*
X115250000Y-89533078D02*
X115250000Y-88750000D01*
X167702000Y-102540000D02*
X157477001Y-112764999D01*
X168190000Y-102540000D02*
X167702000Y-102540000D01*
X129348591Y-112764999D02*
X124363590Y-117750000D01*
X157477001Y-112764999D02*
X129348591Y-112764999D01*
X124363590Y-117750000D02*
X119000000Y-117750000D01*
X119000000Y-117750000D02*
X115250000Y-114000000D01*
X120845001Y-120095001D02*
X122654999Y-120095001D01*
X116250000Y-120000000D02*
X120750000Y-120000000D01*
X122654999Y-120095001D02*
X127445001Y-115304999D01*
X120750000Y-120000000D02*
X120845001Y-120095001D01*
X115739001Y-120510999D02*
X116250000Y-120000000D01*
X111650999Y-115049001D02*
X111650999Y-119650999D01*
X112510999Y-120510999D02*
X115739001Y-120510999D01*
X111650999Y-119650999D02*
X112510999Y-120510999D01*
X127445001Y-115304999D02*
X157945001Y-115304999D01*
X112730000Y-113970000D02*
X111650999Y-115049001D01*
X157945001Y-115304999D02*
X168250000Y-105000000D01*
X116023999Y-86783999D02*
X116033999Y-86783999D01*
X115270000Y-86030000D02*
X116023999Y-86783999D01*
X116033999Y-86783999D02*
X120250000Y-91000000D01*
X120250000Y-91000000D02*
X121250000Y-91000000D01*
X99584990Y-91929746D02*
X99584990Y-96084990D01*
X110564736Y-80950000D02*
X99584990Y-91929746D01*
X112730000Y-80950000D02*
X110564736Y-80950000D01*
X99584990Y-96084990D02*
X101000000Y-97500000D01*
X95250000Y-96250000D02*
X96500000Y-97500000D01*
X95250000Y-87233998D02*
X95250000Y-96250000D01*
X100672000Y-97460000D02*
X101160000Y-97460000D01*
X118733998Y-63750000D02*
X95250000Y-87233998D01*
X96500000Y-97500000D02*
X100632000Y-97500000D01*
X134000000Y-63750000D02*
X118733998Y-63750000D01*
X137500000Y-67250000D02*
X134000000Y-63750000D01*
X194750000Y-69000000D02*
X193000000Y-67250000D01*
X100632000Y-97500000D02*
X100672000Y-97460000D01*
X193000000Y-67250000D02*
X137500000Y-67250000D01*
X194750000Y-73000000D02*
X194750000Y-69000000D01*
X194750000Y-69000000D02*
X196250000Y-67500000D01*
X196250000Y-67500000D02*
X196500000Y-67250000D01*
X196500000Y-67250000D02*
X197750000Y-67250000D01*
X197750000Y-67250000D02*
X204750000Y-74250000D01*
X204750000Y-74250000D02*
X204750000Y-100250000D01*
X204750000Y-100250000D02*
X202750000Y-102250000D01*
X202500000Y-102250000D02*
X204750000Y-104500000D01*
X202750000Y-102250000D02*
X202500000Y-102250000D01*
X202500000Y-102250000D02*
X199000000Y-102250000D01*
X204750000Y-104500000D02*
X205000000Y-104750000D01*
X205000000Y-104750000D02*
X205000000Y-119000000D01*
X205000000Y-119000000D02*
X205000000Y-128000000D01*
X205000000Y-128000000D02*
X200000000Y-133000000D01*
X200000000Y-133000000D02*
X192000000Y-133000000D01*
X192000000Y-133000000D02*
X189500000Y-130500000D01*
X189500000Y-130500000D02*
X189500000Y-127000000D01*
X95250000Y-98750000D02*
X96500000Y-97500000D01*
X95250000Y-112766002D02*
X95250000Y-98750000D01*
X115483998Y-133000000D02*
X95250000Y-112766002D01*
X187250000Y-133000000D02*
X115483998Y-133000000D01*
X189500000Y-130750000D02*
X187250000Y-133000000D01*
X189500000Y-130500000D02*
X189500000Y-130750000D01*
D27*
X122963388Y-74961612D02*
X122963388Y-74963388D01*
X123425000Y-74500000D02*
X122963388Y-74961612D01*
X122963388Y-74963388D02*
X123000000Y-75000000D01*
X123000000Y-75000000D02*
X123000000Y-76750000D01*
D26*
X183920264Y-124130000D02*
X186540264Y-126750000D01*
X115270000Y-124130000D02*
X183920264Y-124130000D01*
X198352000Y-105080000D02*
X179752010Y-123679990D01*
X198840000Y-105080000D02*
X198352000Y-105080000D01*
X179752010Y-123679990D02*
X117429990Y-123679990D01*
X117429990Y-123679990D02*
X115250000Y-121500000D01*
X101160000Y-94920000D02*
X111580000Y-94920000D01*
X111580000Y-94920000D02*
X112750000Y-93750000D01*
X116106922Y-84250000D02*
X115787921Y-84569001D01*
X115787921Y-84569001D02*
X113569001Y-84569001D01*
X187715000Y-84250000D02*
X116106922Y-84250000D01*
X197080000Y-74885000D02*
X187715000Y-84250000D01*
X197080000Y-73385000D02*
X197080000Y-74885000D01*
X113569001Y-84569001D02*
X113819001Y-84569001D01*
X113569001Y-84569001D02*
X112750000Y-83750000D01*
D28*
G36*
X204238997Y-105063799D02*
G01*
X204239002Y-105063803D01*
X204240000Y-105064801D01*
X204240001Y-118962658D01*
X204240000Y-118962668D01*
X204240001Y-127685197D01*
X199685199Y-132240000D01*
X192314802Y-132240000D01*
X190260000Y-130185199D01*
X190260000Y-128253676D01*
X190452607Y-128095608D01*
X190627183Y-127882887D01*
X190730000Y-127690529D01*
X190832817Y-127882886D01*
X191007392Y-128095607D01*
X191220113Y-128270183D01*
X191462805Y-128399904D01*
X191726140Y-128479786D01*
X192000000Y-128506759D01*
X192273859Y-128479786D01*
X192537194Y-128399904D01*
X192779886Y-128270183D01*
X192992607Y-128095608D01*
X193167183Y-127882887D01*
X193270000Y-127690529D01*
X193365000Y-127868261D01*
X193365000Y-128731749D01*
X193359509Y-128787500D01*
X193365000Y-128843251D01*
X193381423Y-129009998D01*
X193446324Y-129223946D01*
X193551716Y-129421123D01*
X193693551Y-129593949D01*
X193736865Y-129629496D01*
X193964367Y-129856998D01*
X194031329Y-129982275D01*
X194137885Y-130112115D01*
X194267725Y-130218671D01*
X194415858Y-130297850D01*
X194576592Y-130346608D01*
X194711326Y-130359878D01*
X194740001Y-130368577D01*
X194962500Y-130390491D01*
X195184999Y-130368577D01*
X195213674Y-130359878D01*
X195348408Y-130346608D01*
X195509142Y-130297850D01*
X195657275Y-130218671D01*
X195678930Y-130200900D01*
X195745506Y-130255537D01*
X195855820Y-130314502D01*
X195975518Y-130350812D01*
X196100000Y-130363072D01*
X196251750Y-130360000D01*
X196410500Y-130201250D01*
X196410500Y-129377000D01*
X196664500Y-129377000D01*
X196664500Y-130201250D01*
X196823250Y-130360000D01*
X196975000Y-130363072D01*
X197099482Y-130350812D01*
X197219180Y-130314502D01*
X197329494Y-130255537D01*
X197426185Y-130176185D01*
X197505537Y-130079494D01*
X197564502Y-129969180D01*
X197600812Y-129849482D01*
X197613072Y-129725000D01*
X197610000Y-129535750D01*
X197451250Y-129377000D01*
X196664500Y-129377000D01*
X196410500Y-129377000D01*
X196390500Y-129377000D01*
X196390500Y-129123000D01*
X196410500Y-129123000D01*
X196410500Y-129103000D01*
X196664500Y-129103000D01*
X196664500Y-129123000D01*
X197451250Y-129123000D01*
X197610000Y-128964250D01*
X197613072Y-128775000D01*
X197600812Y-128650518D01*
X197564502Y-128530820D01*
X197513498Y-128435399D01*
X197750535Y-128335122D01*
X197978026Y-128180632D01*
X198171006Y-127984729D01*
X198322059Y-127754942D01*
X198348962Y-127688586D01*
X198452817Y-127882886D01*
X198627392Y-128095607D01*
X198840113Y-128270183D01*
X199082805Y-128399904D01*
X199346140Y-128479786D01*
X199620000Y-128506759D01*
X199893859Y-128479786D01*
X200157194Y-128399904D01*
X200399886Y-128270183D01*
X200612607Y-128095608D01*
X200787183Y-127882887D01*
X200916904Y-127640195D01*
X200996786Y-127376860D01*
X201017000Y-127171625D01*
X201017000Y-126058376D01*
X200996786Y-125853140D01*
X200916904Y-125589805D01*
X200787183Y-125347113D01*
X200612608Y-125134392D01*
X200399887Y-124959817D01*
X200157195Y-124830096D01*
X199893860Y-124750214D01*
X199620000Y-124723241D01*
X199346141Y-124750214D01*
X199082806Y-124830096D01*
X198840114Y-124959817D01*
X198627393Y-125134392D01*
X198452817Y-125347113D01*
X198348962Y-125541413D01*
X198322059Y-125475058D01*
X198171006Y-125245271D01*
X197978026Y-125049368D01*
X197750535Y-124894878D01*
X197497276Y-124787738D01*
X197423070Y-124772780D01*
X197207000Y-124895280D01*
X197207000Y-126488000D01*
X197227000Y-126488000D01*
X197227000Y-126742000D01*
X197207000Y-126742000D01*
X197207000Y-126762000D01*
X196953000Y-126762000D01*
X196953000Y-126742000D01*
X196933000Y-126742000D01*
X196933000Y-126488000D01*
X196953000Y-126488000D01*
X196953000Y-124895280D01*
X196736930Y-124772780D01*
X196662724Y-124787738D01*
X196409465Y-124894878D01*
X196181974Y-125049368D01*
X195988994Y-125245271D01*
X195837941Y-125475058D01*
X195811038Y-125541413D01*
X195707183Y-125347113D01*
X195532608Y-125134392D01*
X195319887Y-124959817D01*
X195077195Y-124830096D01*
X194813860Y-124750214D01*
X194540000Y-124723241D01*
X194266141Y-124750214D01*
X194002806Y-124830096D01*
X193760114Y-124959817D01*
X193547393Y-125134392D01*
X193372817Y-125347113D01*
X193270000Y-125539471D01*
X193167183Y-125347113D01*
X192992608Y-125134392D01*
X192779887Y-124959817D01*
X192537195Y-124830096D01*
X192273860Y-124750214D01*
X192000000Y-124723241D01*
X191726141Y-124750214D01*
X191462806Y-124830096D01*
X191220114Y-124959817D01*
X191007393Y-125134392D01*
X190832817Y-125347113D01*
X190730000Y-125539471D01*
X190627183Y-125347113D01*
X190452608Y-125134392D01*
X190239887Y-124959817D01*
X189997195Y-124830096D01*
X189733860Y-124750214D01*
X189460000Y-124723241D01*
X189186141Y-124750214D01*
X188922806Y-124830096D01*
X188680114Y-124959817D01*
X188467393Y-125134392D01*
X188292817Y-125347113D01*
X188190000Y-125539471D01*
X188087183Y-125347113D01*
X187912608Y-125134392D01*
X187699887Y-124959817D01*
X187457195Y-124830096D01*
X187193860Y-124750214D01*
X186920000Y-124723241D01*
X186646141Y-124750214D01*
X186382806Y-124830096D01*
X186140114Y-124959817D01*
X185966974Y-125101909D01*
X184484068Y-123619003D01*
X184460265Y-123589999D01*
X184344540Y-123495026D01*
X184212511Y-123424454D01*
X184069250Y-123380997D01*
X183957597Y-123370000D01*
X183957586Y-123370000D01*
X183920264Y-123366324D01*
X183882942Y-123370000D01*
X181136801Y-123370000D01*
X196954953Y-107551849D01*
X196948241Y-107620000D01*
X196975214Y-107893860D01*
X197055096Y-108157195D01*
X197184817Y-108399887D01*
X197359392Y-108612608D01*
X197572113Y-108787183D01*
X197814805Y-108916904D01*
X198078140Y-108996786D01*
X198283375Y-109017000D01*
X199396625Y-109017000D01*
X199601860Y-108996786D01*
X199865195Y-108916904D01*
X200107887Y-108787183D01*
X200320608Y-108612608D01*
X200495183Y-108399887D01*
X200624904Y-108157195D01*
X200704786Y-107893860D01*
X200731759Y-107620000D01*
X200704786Y-107346140D01*
X200624904Y-107082805D01*
X200495183Y-106840113D01*
X200320608Y-106627392D01*
X200107887Y-106452817D01*
X199915529Y-106350000D01*
X200107887Y-106247183D01*
X200320608Y-106072608D01*
X200495183Y-105859887D01*
X200624904Y-105617195D01*
X200704786Y-105353860D01*
X200731759Y-105080000D01*
X200704786Y-104806140D01*
X200624904Y-104542805D01*
X200495183Y-104300113D01*
X200320608Y-104087392D01*
X200107887Y-103912817D01*
X199915529Y-103810000D01*
X200107887Y-103707183D01*
X200320608Y-103532608D01*
X200495183Y-103319887D01*
X200624904Y-103077195D01*
X200645287Y-103010000D01*
X202185199Y-103010000D01*
X204238997Y-105063799D01*
X204238997Y-105063799D01*
G37*
X204238997Y-105063799D02*
X204239002Y-105063803D01*
X204240000Y-105064801D01*
X204240001Y-118962658D01*
X204240000Y-118962668D01*
X204240001Y-127685197D01*
X199685199Y-132240000D01*
X192314802Y-132240000D01*
X190260000Y-130185199D01*
X190260000Y-128253676D01*
X190452607Y-128095608D01*
X190627183Y-127882887D01*
X190730000Y-127690529D01*
X190832817Y-127882886D01*
X191007392Y-128095607D01*
X191220113Y-128270183D01*
X191462805Y-128399904D01*
X191726140Y-128479786D01*
X192000000Y-128506759D01*
X192273859Y-128479786D01*
X192537194Y-128399904D01*
X192779886Y-128270183D01*
X192992607Y-128095608D01*
X193167183Y-127882887D01*
X193270000Y-127690529D01*
X193365000Y-127868261D01*
X193365000Y-128731749D01*
X193359509Y-128787500D01*
X193365000Y-128843251D01*
X193381423Y-129009998D01*
X193446324Y-129223946D01*
X193551716Y-129421123D01*
X193693551Y-129593949D01*
X193736865Y-129629496D01*
X193964367Y-129856998D01*
X194031329Y-129982275D01*
X194137885Y-130112115D01*
X194267725Y-130218671D01*
X194415858Y-130297850D01*
X194576592Y-130346608D01*
X194711326Y-130359878D01*
X194740001Y-130368577D01*
X194962500Y-130390491D01*
X195184999Y-130368577D01*
X195213674Y-130359878D01*
X195348408Y-130346608D01*
X195509142Y-130297850D01*
X195657275Y-130218671D01*
X195678930Y-130200900D01*
X195745506Y-130255537D01*
X195855820Y-130314502D01*
X195975518Y-130350812D01*
X196100000Y-130363072D01*
X196251750Y-130360000D01*
X196410500Y-130201250D01*
X196410500Y-129377000D01*
X196664500Y-129377000D01*
X196664500Y-130201250D01*
X196823250Y-130360000D01*
X196975000Y-130363072D01*
X197099482Y-130350812D01*
X197219180Y-130314502D01*
X197329494Y-130255537D01*
X197426185Y-130176185D01*
X197505537Y-130079494D01*
X197564502Y-129969180D01*
X197600812Y-129849482D01*
X197613072Y-129725000D01*
X197610000Y-129535750D01*
X197451250Y-129377000D01*
X196664500Y-129377000D01*
X196410500Y-129377000D01*
X196390500Y-129377000D01*
X196390500Y-129123000D01*
X196410500Y-129123000D01*
X196410500Y-129103000D01*
X196664500Y-129103000D01*
X196664500Y-129123000D01*
X197451250Y-129123000D01*
X197610000Y-128964250D01*
X197613072Y-128775000D01*
X197600812Y-128650518D01*
X197564502Y-128530820D01*
X197513498Y-128435399D01*
X197750535Y-128335122D01*
X197978026Y-128180632D01*
X198171006Y-127984729D01*
X198322059Y-127754942D01*
X198348962Y-127688586D01*
X198452817Y-127882886D01*
X198627392Y-128095607D01*
X198840113Y-128270183D01*
X199082805Y-128399904D01*
X199346140Y-128479786D01*
X199620000Y-128506759D01*
X199893859Y-128479786D01*
X200157194Y-128399904D01*
X200399886Y-128270183D01*
X200612607Y-128095608D01*
X200787183Y-127882887D01*
X200916904Y-127640195D01*
X200996786Y-127376860D01*
X201017000Y-127171625D01*
X201017000Y-126058376D01*
X200996786Y-125853140D01*
X200916904Y-125589805D01*
X200787183Y-125347113D01*
X200612608Y-125134392D01*
X200399887Y-124959817D01*
X200157195Y-124830096D01*
X199893860Y-124750214D01*
X199620000Y-124723241D01*
X199346141Y-124750214D01*
X199082806Y-124830096D01*
X198840114Y-124959817D01*
X198627393Y-125134392D01*
X198452817Y-125347113D01*
X198348962Y-125541413D01*
X198322059Y-125475058D01*
X198171006Y-125245271D01*
X197978026Y-125049368D01*
X197750535Y-124894878D01*
X197497276Y-124787738D01*
X197423070Y-124772780D01*
X197207000Y-124895280D01*
X197207000Y-126488000D01*
X197227000Y-126488000D01*
X197227000Y-126742000D01*
X197207000Y-126742000D01*
X197207000Y-126762000D01*
X196953000Y-126762000D01*
X196953000Y-126742000D01*
X196933000Y-126742000D01*
X196933000Y-126488000D01*
X196953000Y-126488000D01*
X196953000Y-124895280D01*
X196736930Y-124772780D01*
X196662724Y-124787738D01*
X196409465Y-124894878D01*
X196181974Y-125049368D01*
X195988994Y-125245271D01*
X195837941Y-125475058D01*
X195811038Y-125541413D01*
X195707183Y-125347113D01*
X195532608Y-125134392D01*
X195319887Y-124959817D01*
X195077195Y-124830096D01*
X194813860Y-124750214D01*
X194540000Y-124723241D01*
X194266141Y-124750214D01*
X194002806Y-124830096D01*
X193760114Y-124959817D01*
X193547393Y-125134392D01*
X193372817Y-125347113D01*
X193270000Y-125539471D01*
X193167183Y-125347113D01*
X192992608Y-125134392D01*
X192779887Y-124959817D01*
X192537195Y-124830096D01*
X192273860Y-124750214D01*
X192000000Y-124723241D01*
X191726141Y-124750214D01*
X191462806Y-124830096D01*
X191220114Y-124959817D01*
X191007393Y-125134392D01*
X190832817Y-125347113D01*
X190730000Y-125539471D01*
X190627183Y-125347113D01*
X190452608Y-125134392D01*
X190239887Y-124959817D01*
X189997195Y-124830096D01*
X189733860Y-124750214D01*
X189460000Y-124723241D01*
X189186141Y-124750214D01*
X188922806Y-124830096D01*
X188680114Y-124959817D01*
X188467393Y-125134392D01*
X188292817Y-125347113D01*
X188190000Y-125539471D01*
X188087183Y-125347113D01*
X187912608Y-125134392D01*
X187699887Y-124959817D01*
X187457195Y-124830096D01*
X187193860Y-124750214D01*
X186920000Y-124723241D01*
X186646141Y-124750214D01*
X186382806Y-124830096D01*
X186140114Y-124959817D01*
X185966974Y-125101909D01*
X184484068Y-123619003D01*
X184460265Y-123589999D01*
X184344540Y-123495026D01*
X184212511Y-123424454D01*
X184069250Y-123380997D01*
X183957597Y-123370000D01*
X183957586Y-123370000D01*
X183920264Y-123366324D01*
X183882942Y-123370000D01*
X181136801Y-123370000D01*
X196954953Y-107551849D01*
X196948241Y-107620000D01*
X196975214Y-107893860D01*
X197055096Y-108157195D01*
X197184817Y-108399887D01*
X197359392Y-108612608D01*
X197572113Y-108787183D01*
X197814805Y-108916904D01*
X198078140Y-108996786D01*
X198283375Y-109017000D01*
X199396625Y-109017000D01*
X199601860Y-108996786D01*
X199865195Y-108916904D01*
X200107887Y-108787183D01*
X200320608Y-108612608D01*
X200495183Y-108399887D01*
X200624904Y-108157195D01*
X200704786Y-107893860D01*
X200731759Y-107620000D01*
X200704786Y-107346140D01*
X200624904Y-107082805D01*
X200495183Y-106840113D01*
X200320608Y-106627392D01*
X200107887Y-106452817D01*
X199915529Y-106350000D01*
X200107887Y-106247183D01*
X200320608Y-106072608D01*
X200495183Y-105859887D01*
X200624904Y-105617195D01*
X200704786Y-105353860D01*
X200731759Y-105080000D01*
X200704786Y-104806140D01*
X200624904Y-104542805D01*
X200495183Y-104300113D01*
X200320608Y-104087392D01*
X200107887Y-103912817D01*
X199915529Y-103810000D01*
X200107887Y-103707183D01*
X200320608Y-103532608D01*
X200495183Y-103319887D01*
X200624904Y-103077195D01*
X200645287Y-103010000D01*
X202185199Y-103010000D01*
X204238997Y-105063799D01*
G36*
X111414574Y-95723426D02*
G01*
X111348826Y-95989018D01*
X111336155Y-96262334D01*
X111377049Y-96532870D01*
X111469937Y-96790229D01*
X111530873Y-96904235D01*
X111770149Y-96970246D01*
X112550395Y-96190000D01*
X112536253Y-96175858D01*
X112715858Y-95996253D01*
X112730000Y-96010395D01*
X112744143Y-95996253D01*
X112923748Y-96175858D01*
X112909605Y-96190000D01*
X112923748Y-96204143D01*
X112744143Y-96383748D01*
X112730000Y-96369605D01*
X111949754Y-97149851D01*
X112015765Y-97389127D01*
X112166563Y-97459940D01*
X112072062Y-97499084D01*
X111844564Y-97651093D01*
X111651093Y-97844564D01*
X111499084Y-98072062D01*
X111394378Y-98324844D01*
X111341000Y-98593195D01*
X111341000Y-98866805D01*
X111394378Y-99135156D01*
X111499084Y-99387938D01*
X111651093Y-99615436D01*
X111844564Y-99808907D01*
X112072062Y-99960916D01*
X112166419Y-100000000D01*
X112072062Y-100039084D01*
X111844564Y-100191093D01*
X111651093Y-100384564D01*
X111499084Y-100612062D01*
X111394378Y-100864844D01*
X111341000Y-101133195D01*
X111341000Y-101406805D01*
X111394378Y-101675156D01*
X111499084Y-101927938D01*
X111651093Y-102155436D01*
X111844564Y-102348907D01*
X112072062Y-102500916D01*
X112166419Y-102540000D01*
X112072062Y-102579084D01*
X111844564Y-102731093D01*
X111651093Y-102924564D01*
X111499084Y-103152062D01*
X111394378Y-103404844D01*
X111341000Y-103673195D01*
X111341000Y-103946805D01*
X111394378Y-104215156D01*
X111499084Y-104467938D01*
X111651093Y-104695436D01*
X111844564Y-104888907D01*
X112072062Y-105040916D01*
X112166419Y-105080000D01*
X112072062Y-105119084D01*
X111844564Y-105271093D01*
X111651093Y-105464564D01*
X111499084Y-105692062D01*
X111394378Y-105944844D01*
X111341000Y-106213195D01*
X111341000Y-106486805D01*
X111394378Y-106755156D01*
X111499084Y-107007938D01*
X111651093Y-107235436D01*
X111844564Y-107428907D01*
X112072062Y-107580916D01*
X112166419Y-107620000D01*
X112072062Y-107659084D01*
X111844564Y-107811093D01*
X111651093Y-108004564D01*
X111499084Y-108232062D01*
X111394378Y-108484844D01*
X111341000Y-108753195D01*
X111341000Y-109026805D01*
X111394378Y-109295156D01*
X111499084Y-109547938D01*
X111651093Y-109775436D01*
X111844564Y-109968907D01*
X112072062Y-110120916D01*
X112166419Y-110160000D01*
X112072062Y-110199084D01*
X111844564Y-110351093D01*
X111651093Y-110544564D01*
X111499084Y-110772062D01*
X111394378Y-111024844D01*
X111341000Y-111293195D01*
X111341000Y-111566805D01*
X111394378Y-111835156D01*
X111499084Y-112087938D01*
X111651093Y-112315436D01*
X111844564Y-112508907D01*
X112072062Y-112660916D01*
X112166419Y-112700000D01*
X112072062Y-112739084D01*
X111844564Y-112891093D01*
X111651093Y-113084564D01*
X111499084Y-113312062D01*
X111394378Y-113564844D01*
X111341000Y-113833195D01*
X111341000Y-114106805D01*
X111370431Y-114254767D01*
X111140001Y-114485197D01*
X111110998Y-114509000D01*
X111061161Y-114569727D01*
X111016025Y-114624725D01*
X110976176Y-114699277D01*
X110945453Y-114756755D01*
X110901996Y-114900016D01*
X110890999Y-115011669D01*
X110890999Y-115011679D01*
X110887323Y-115049001D01*
X110890999Y-115086324D01*
X110891000Y-119613667D01*
X110887323Y-119650999D01*
X110891000Y-119688332D01*
X110901997Y-119799985D01*
X110903656Y-119805453D01*
X110945453Y-119943245D01*
X111016025Y-120075275D01*
X111061058Y-120130147D01*
X111110999Y-120191000D01*
X111139997Y-120214798D01*
X111642549Y-120717351D01*
X111499084Y-120932062D01*
X111394378Y-121184844D01*
X111341000Y-121453195D01*
X111341000Y-121726805D01*
X111394378Y-121995156D01*
X111499084Y-122247938D01*
X111651093Y-122475436D01*
X111844564Y-122668907D01*
X112072062Y-122820916D01*
X112166419Y-122860000D01*
X112072062Y-122899084D01*
X111844564Y-123051093D01*
X111651093Y-123244564D01*
X111499084Y-123472062D01*
X111394378Y-123724844D01*
X111341000Y-123993195D01*
X111341000Y-124266805D01*
X111394378Y-124535156D01*
X111499084Y-124787938D01*
X111651093Y-125015436D01*
X111844564Y-125208907D01*
X112072062Y-125360916D01*
X112324844Y-125465622D01*
X112593195Y-125519000D01*
X112866805Y-125519000D01*
X113135156Y-125465622D01*
X113387938Y-125360916D01*
X113615436Y-125208907D01*
X113808907Y-125015436D01*
X113960916Y-124787938D01*
X114000000Y-124693581D01*
X114039084Y-124787938D01*
X114191093Y-125015436D01*
X114384564Y-125208907D01*
X114612062Y-125360916D01*
X114864844Y-125465622D01*
X115133195Y-125519000D01*
X115406805Y-125519000D01*
X115675156Y-125465622D01*
X115927938Y-125360916D01*
X116155436Y-125208907D01*
X116348907Y-125015436D01*
X116432720Y-124890000D01*
X183605463Y-124890000D01*
X183649098Y-124933635D01*
X183600114Y-124959817D01*
X183387393Y-125134392D01*
X183212817Y-125347113D01*
X183083096Y-125589805D01*
X183003214Y-125853140D01*
X182983000Y-126058375D01*
X182983000Y-127171624D01*
X183003214Y-127376859D01*
X183083096Y-127640194D01*
X183212817Y-127882886D01*
X183387392Y-128095607D01*
X183600113Y-128270183D01*
X183842805Y-128399904D01*
X184106140Y-128479786D01*
X184380000Y-128506759D01*
X184653859Y-128479786D01*
X184917194Y-128399904D01*
X185159886Y-128270183D01*
X185372607Y-128095608D01*
X185547183Y-127882887D01*
X185650000Y-127690529D01*
X185752817Y-127882886D01*
X185927392Y-128095607D01*
X186140113Y-128270183D01*
X186382805Y-128399904D01*
X186646140Y-128479786D01*
X186920000Y-128506759D01*
X187193859Y-128479786D01*
X187457194Y-128399904D01*
X187699886Y-128270183D01*
X187912607Y-128095608D01*
X188087183Y-127882887D01*
X188190000Y-127690529D01*
X188292817Y-127882886D01*
X188467392Y-128095607D01*
X188680113Y-128270183D01*
X188740001Y-128302193D01*
X188740000Y-130435198D01*
X186935199Y-132240000D01*
X115798801Y-132240000D01*
X114507276Y-130948475D01*
X114586296Y-130932757D01*
X114952092Y-130781239D01*
X115281301Y-130561269D01*
X115561269Y-130281301D01*
X115781239Y-129952092D01*
X115932757Y-129586296D01*
X116010000Y-129197968D01*
X116010000Y-128802032D01*
X115932757Y-128413704D01*
X115781239Y-128047908D01*
X115561269Y-127718699D01*
X115281301Y-127438731D01*
X115089614Y-127310650D01*
X132240000Y-127310650D01*
X132240000Y-127681962D01*
X132312439Y-128046140D01*
X132454534Y-128389188D01*
X132660825Y-128697924D01*
X132923382Y-128960481D01*
X133232118Y-129166772D01*
X133575166Y-129308867D01*
X133939344Y-129381306D01*
X134310656Y-129381306D01*
X134674834Y-129308867D01*
X135017882Y-129166772D01*
X135326618Y-128960481D01*
X135589175Y-128697924D01*
X135795466Y-128389188D01*
X135937561Y-128046140D01*
X136010000Y-127681962D01*
X136010000Y-127310650D01*
X135937561Y-126946472D01*
X135795466Y-126603424D01*
X135589175Y-126294688D01*
X135326618Y-126032131D01*
X135017882Y-125825840D01*
X134674834Y-125683745D01*
X134310656Y-125611306D01*
X133939344Y-125611306D01*
X133575166Y-125683745D01*
X133232118Y-125825840D01*
X132923382Y-126032131D01*
X132660825Y-126294688D01*
X132454534Y-126603424D01*
X132312439Y-126946472D01*
X132240000Y-127310650D01*
X115089614Y-127310650D01*
X114952092Y-127218761D01*
X114586296Y-127067243D01*
X114197968Y-126990000D01*
X113802032Y-126990000D01*
X113413704Y-127067243D01*
X113047908Y-127218761D01*
X112718699Y-127438731D01*
X112438731Y-127718699D01*
X112218761Y-128047908D01*
X112067243Y-128413704D01*
X112051525Y-128492724D01*
X96010000Y-112451201D01*
X96010000Y-104937500D01*
X97136928Y-104937500D01*
X97149188Y-105061982D01*
X97185498Y-105181680D01*
X97244463Y-105291994D01*
X97323815Y-105388685D01*
X97420506Y-105468037D01*
X97530820Y-105527002D01*
X97650518Y-105563312D01*
X97775000Y-105575572D01*
X97964250Y-105572500D01*
X98123000Y-105413750D01*
X98123000Y-104627000D01*
X97298750Y-104627000D01*
X97140000Y-104785750D01*
X97136928Y-104937500D01*
X96010000Y-104937500D01*
X96010000Y-99064801D01*
X96814802Y-98260000D01*
X99521323Y-98260000D01*
X99679392Y-98452608D01*
X99892113Y-98627183D01*
X100084471Y-98730000D01*
X99892113Y-98832817D01*
X99679392Y-99007392D01*
X99504817Y-99220113D01*
X99375096Y-99462805D01*
X99295214Y-99726140D01*
X99268241Y-100000000D01*
X99295214Y-100273860D01*
X99375096Y-100537195D01*
X99504817Y-100779887D01*
X99679392Y-100992608D01*
X99892113Y-101167183D01*
X100084471Y-101270000D01*
X99975234Y-101328388D01*
X98767363Y-101328388D01*
X98711612Y-101322897D01*
X98655860Y-101328388D01*
X98489113Y-101344811D01*
X98275165Y-101409712D01*
X98077989Y-101515104D01*
X97905163Y-101656939D01*
X97869616Y-101700253D01*
X97643002Y-101926867D01*
X97517725Y-101993829D01*
X97387885Y-102100385D01*
X97281329Y-102230225D01*
X97202150Y-102378358D01*
X97153392Y-102539092D01*
X97140121Y-102673827D01*
X97131423Y-102702502D01*
X97109509Y-102925000D01*
X97131423Y-103147498D01*
X97140121Y-103176173D01*
X97153392Y-103310908D01*
X97202150Y-103471642D01*
X97281329Y-103619775D01*
X97299100Y-103641430D01*
X97244463Y-103708006D01*
X97185498Y-103818320D01*
X97149188Y-103938018D01*
X97136928Y-104062500D01*
X97140000Y-104214250D01*
X97298750Y-104373000D01*
X98123000Y-104373000D01*
X98123000Y-104353000D01*
X98377000Y-104353000D01*
X98377000Y-104373000D01*
X99201250Y-104373000D01*
X99360000Y-104214250D01*
X99363072Y-104062500D01*
X99350812Y-103938018D01*
X99314502Y-103818320D01*
X99255537Y-103708006D01*
X99200900Y-103641430D01*
X99218671Y-103619775D01*
X99230103Y-103598388D01*
X99759545Y-103598388D01*
X99892113Y-103707183D01*
X100086413Y-103811038D01*
X100020058Y-103837941D01*
X99790271Y-103988994D01*
X99594368Y-104181974D01*
X99439878Y-104409465D01*
X99332738Y-104662724D01*
X99317780Y-104736930D01*
X99326421Y-104752171D01*
X99201250Y-104627000D01*
X98377000Y-104627000D01*
X98377000Y-105413750D01*
X98535750Y-105572500D01*
X98725000Y-105575572D01*
X98849482Y-105563312D01*
X98969180Y-105527002D01*
X99079494Y-105468037D01*
X99176185Y-105388685D01*
X99255537Y-105291994D01*
X99300967Y-105207002D01*
X99440279Y-105207002D01*
X99317780Y-105423070D01*
X99332738Y-105497276D01*
X99439878Y-105750535D01*
X99594368Y-105978026D01*
X99790271Y-106171006D01*
X100020058Y-106322059D01*
X100086413Y-106348962D01*
X99892113Y-106452817D01*
X99679392Y-106627392D01*
X99504817Y-106840113D01*
X99375096Y-107082805D01*
X99295214Y-107346140D01*
X99268241Y-107620000D01*
X99295214Y-107893860D01*
X99375096Y-108157195D01*
X99504817Y-108399887D01*
X99679392Y-108612608D01*
X99892113Y-108787183D01*
X100134805Y-108916904D01*
X100398140Y-108996786D01*
X100603375Y-109017000D01*
X101716625Y-109017000D01*
X101921860Y-108996786D01*
X102185195Y-108916904D01*
X102427887Y-108787183D01*
X102640608Y-108612608D01*
X102815183Y-108399887D01*
X102944904Y-108157195D01*
X103024786Y-107893860D01*
X103051759Y-107620000D01*
X103024786Y-107346140D01*
X102974492Y-107180343D01*
X104935000Y-107180343D01*
X104935000Y-107551655D01*
X105007439Y-107915833D01*
X105149534Y-108258881D01*
X105355825Y-108567617D01*
X105618382Y-108830174D01*
X105927118Y-109036465D01*
X106270166Y-109178560D01*
X106634344Y-109250999D01*
X107005656Y-109250999D01*
X107369834Y-109178560D01*
X107712882Y-109036465D01*
X108021618Y-108830174D01*
X108284175Y-108567617D01*
X108490466Y-108258881D01*
X108632561Y-107915833D01*
X108705000Y-107551655D01*
X108705000Y-107180343D01*
X108632561Y-106816165D01*
X108490466Y-106473117D01*
X108284175Y-106164381D01*
X108021618Y-105901824D01*
X107712882Y-105695533D01*
X107369834Y-105553438D01*
X107005656Y-105480999D01*
X106634344Y-105480999D01*
X106270166Y-105553438D01*
X105927118Y-105695533D01*
X105618382Y-105901824D01*
X105355825Y-106164381D01*
X105149534Y-106473117D01*
X105007439Y-106816165D01*
X104935000Y-107180343D01*
X102974492Y-107180343D01*
X102944904Y-107082805D01*
X102815183Y-106840113D01*
X102640608Y-106627392D01*
X102427887Y-106452817D01*
X102233587Y-106348962D01*
X102299942Y-106322059D01*
X102529729Y-106171006D01*
X102725632Y-105978026D01*
X102880122Y-105750535D01*
X102987262Y-105497276D01*
X103002220Y-105423070D01*
X102879720Y-105207000D01*
X101287000Y-105207000D01*
X101287000Y-105227000D01*
X101033000Y-105227000D01*
X101033000Y-105207000D01*
X101013000Y-105207000D01*
X101013000Y-104953000D01*
X101033000Y-104953000D01*
X101033000Y-104933000D01*
X101287000Y-104933000D01*
X101287000Y-104953000D01*
X102879720Y-104953000D01*
X103002220Y-104736930D01*
X102987262Y-104662724D01*
X102880122Y-104409465D01*
X102725632Y-104181974D01*
X102529729Y-103988994D01*
X102299942Y-103837941D01*
X102233587Y-103811038D01*
X102427887Y-103707183D01*
X102640608Y-103532608D01*
X102815183Y-103319887D01*
X102944904Y-103077195D01*
X103024786Y-102813860D01*
X103051759Y-102540000D01*
X103024786Y-102266140D01*
X102944904Y-102002805D01*
X102815183Y-101760113D01*
X102640608Y-101547392D01*
X102427887Y-101372817D01*
X102235529Y-101270000D01*
X102427887Y-101167183D01*
X102640608Y-100992608D01*
X102815183Y-100779887D01*
X102944904Y-100537195D01*
X103024786Y-100273860D01*
X103051759Y-100000000D01*
X103024786Y-99726140D01*
X102944904Y-99462805D01*
X102815183Y-99220113D01*
X102640608Y-99007392D01*
X102427887Y-98832817D01*
X102235529Y-98730000D01*
X102427887Y-98627183D01*
X102640608Y-98452608D01*
X102815183Y-98239887D01*
X102944904Y-97997195D01*
X103024786Y-97733860D01*
X103051759Y-97460000D01*
X103024786Y-97186140D01*
X102944904Y-96922805D01*
X102815183Y-96680113D01*
X102640608Y-96467392D01*
X102427887Y-96292817D01*
X102235529Y-96190000D01*
X102427887Y-96087183D01*
X102640608Y-95912608D01*
X102815183Y-95699887D01*
X102825813Y-95680000D01*
X111434966Y-95680000D01*
X111414574Y-95723426D01*
X111414574Y-95723426D01*
G37*
X111414574Y-95723426D02*
X111348826Y-95989018D01*
X111336155Y-96262334D01*
X111377049Y-96532870D01*
X111469937Y-96790229D01*
X111530873Y-96904235D01*
X111770149Y-96970246D01*
X112550395Y-96190000D01*
X112536253Y-96175858D01*
X112715858Y-95996253D01*
X112730000Y-96010395D01*
X112744143Y-95996253D01*
X112923748Y-96175858D01*
X112909605Y-96190000D01*
X112923748Y-96204143D01*
X112744143Y-96383748D01*
X112730000Y-96369605D01*
X111949754Y-97149851D01*
X112015765Y-97389127D01*
X112166563Y-97459940D01*
X112072062Y-97499084D01*
X111844564Y-97651093D01*
X111651093Y-97844564D01*
X111499084Y-98072062D01*
X111394378Y-98324844D01*
X111341000Y-98593195D01*
X111341000Y-98866805D01*
X111394378Y-99135156D01*
X111499084Y-99387938D01*
X111651093Y-99615436D01*
X111844564Y-99808907D01*
X112072062Y-99960916D01*
X112166419Y-100000000D01*
X112072062Y-100039084D01*
X111844564Y-100191093D01*
X111651093Y-100384564D01*
X111499084Y-100612062D01*
X111394378Y-100864844D01*
X111341000Y-101133195D01*
X111341000Y-101406805D01*
X111394378Y-101675156D01*
X111499084Y-101927938D01*
X111651093Y-102155436D01*
X111844564Y-102348907D01*
X112072062Y-102500916D01*
X112166419Y-102540000D01*
X112072062Y-102579084D01*
X111844564Y-102731093D01*
X111651093Y-102924564D01*
X111499084Y-103152062D01*
X111394378Y-103404844D01*
X111341000Y-103673195D01*
X111341000Y-103946805D01*
X111394378Y-104215156D01*
X111499084Y-104467938D01*
X111651093Y-104695436D01*
X111844564Y-104888907D01*
X112072062Y-105040916D01*
X112166419Y-105080000D01*
X112072062Y-105119084D01*
X111844564Y-105271093D01*
X111651093Y-105464564D01*
X111499084Y-105692062D01*
X111394378Y-105944844D01*
X111341000Y-106213195D01*
X111341000Y-106486805D01*
X111394378Y-106755156D01*
X111499084Y-107007938D01*
X111651093Y-107235436D01*
X111844564Y-107428907D01*
X112072062Y-107580916D01*
X112166419Y-107620000D01*
X112072062Y-107659084D01*
X111844564Y-107811093D01*
X111651093Y-108004564D01*
X111499084Y-108232062D01*
X111394378Y-108484844D01*
X111341000Y-108753195D01*
X111341000Y-109026805D01*
X111394378Y-109295156D01*
X111499084Y-109547938D01*
X111651093Y-109775436D01*
X111844564Y-109968907D01*
X112072062Y-110120916D01*
X112166419Y-110160000D01*
X112072062Y-110199084D01*
X111844564Y-110351093D01*
X111651093Y-110544564D01*
X111499084Y-110772062D01*
X111394378Y-111024844D01*
X111341000Y-111293195D01*
X111341000Y-111566805D01*
X111394378Y-111835156D01*
X111499084Y-112087938D01*
X111651093Y-112315436D01*
X111844564Y-112508907D01*
X112072062Y-112660916D01*
X112166419Y-112700000D01*
X112072062Y-112739084D01*
X111844564Y-112891093D01*
X111651093Y-113084564D01*
X111499084Y-113312062D01*
X111394378Y-113564844D01*
X111341000Y-113833195D01*
X111341000Y-114106805D01*
X111370431Y-114254767D01*
X111140001Y-114485197D01*
X111110998Y-114509000D01*
X111061161Y-114569727D01*
X111016025Y-114624725D01*
X110976176Y-114699277D01*
X110945453Y-114756755D01*
X110901996Y-114900016D01*
X110890999Y-115011669D01*
X110890999Y-115011679D01*
X110887323Y-115049001D01*
X110890999Y-115086324D01*
X110891000Y-119613667D01*
X110887323Y-119650999D01*
X110891000Y-119688332D01*
X110901997Y-119799985D01*
X110903656Y-119805453D01*
X110945453Y-119943245D01*
X111016025Y-120075275D01*
X111061058Y-120130147D01*
X111110999Y-120191000D01*
X111139997Y-120214798D01*
X111642549Y-120717351D01*
X111499084Y-120932062D01*
X111394378Y-121184844D01*
X111341000Y-121453195D01*
X111341000Y-121726805D01*
X111394378Y-121995156D01*
X111499084Y-122247938D01*
X111651093Y-122475436D01*
X111844564Y-122668907D01*
X112072062Y-122820916D01*
X112166419Y-122860000D01*
X112072062Y-122899084D01*
X111844564Y-123051093D01*
X111651093Y-123244564D01*
X111499084Y-123472062D01*
X111394378Y-123724844D01*
X111341000Y-123993195D01*
X111341000Y-124266805D01*
X111394378Y-124535156D01*
X111499084Y-124787938D01*
X111651093Y-125015436D01*
X111844564Y-125208907D01*
X112072062Y-125360916D01*
X112324844Y-125465622D01*
X112593195Y-125519000D01*
X112866805Y-125519000D01*
X113135156Y-125465622D01*
X113387938Y-125360916D01*
X113615436Y-125208907D01*
X113808907Y-125015436D01*
X113960916Y-124787938D01*
X114000000Y-124693581D01*
X114039084Y-124787938D01*
X114191093Y-125015436D01*
X114384564Y-125208907D01*
X114612062Y-125360916D01*
X114864844Y-125465622D01*
X115133195Y-125519000D01*
X115406805Y-125519000D01*
X115675156Y-125465622D01*
X115927938Y-125360916D01*
X116155436Y-125208907D01*
X116348907Y-125015436D01*
X116432720Y-124890000D01*
X183605463Y-124890000D01*
X183649098Y-124933635D01*
X183600114Y-124959817D01*
X183387393Y-125134392D01*
X183212817Y-125347113D01*
X183083096Y-125589805D01*
X183003214Y-125853140D01*
X182983000Y-126058375D01*
X182983000Y-127171624D01*
X183003214Y-127376859D01*
X183083096Y-127640194D01*
X183212817Y-127882886D01*
X183387392Y-128095607D01*
X183600113Y-128270183D01*
X183842805Y-128399904D01*
X184106140Y-128479786D01*
X184380000Y-128506759D01*
X184653859Y-128479786D01*
X184917194Y-128399904D01*
X185159886Y-128270183D01*
X185372607Y-128095608D01*
X185547183Y-127882887D01*
X185650000Y-127690529D01*
X185752817Y-127882886D01*
X185927392Y-128095607D01*
X186140113Y-128270183D01*
X186382805Y-128399904D01*
X186646140Y-128479786D01*
X186920000Y-128506759D01*
X187193859Y-128479786D01*
X187457194Y-128399904D01*
X187699886Y-128270183D01*
X187912607Y-128095608D01*
X188087183Y-127882887D01*
X188190000Y-127690529D01*
X188292817Y-127882886D01*
X188467392Y-128095607D01*
X188680113Y-128270183D01*
X188740001Y-128302193D01*
X188740000Y-130435198D01*
X186935199Y-132240000D01*
X115798801Y-132240000D01*
X114507276Y-130948475D01*
X114586296Y-130932757D01*
X114952092Y-130781239D01*
X115281301Y-130561269D01*
X115561269Y-130281301D01*
X115781239Y-129952092D01*
X115932757Y-129586296D01*
X116010000Y-129197968D01*
X116010000Y-128802032D01*
X115932757Y-128413704D01*
X115781239Y-128047908D01*
X115561269Y-127718699D01*
X115281301Y-127438731D01*
X115089614Y-127310650D01*
X132240000Y-127310650D01*
X132240000Y-127681962D01*
X132312439Y-128046140D01*
X132454534Y-128389188D01*
X132660825Y-128697924D01*
X132923382Y-128960481D01*
X133232118Y-129166772D01*
X133575166Y-129308867D01*
X133939344Y-129381306D01*
X134310656Y-129381306D01*
X134674834Y-129308867D01*
X135017882Y-129166772D01*
X135326618Y-128960481D01*
X135589175Y-128697924D01*
X135795466Y-128389188D01*
X135937561Y-128046140D01*
X136010000Y-127681962D01*
X136010000Y-127310650D01*
X135937561Y-126946472D01*
X135795466Y-126603424D01*
X135589175Y-126294688D01*
X135326618Y-126032131D01*
X135017882Y-125825840D01*
X134674834Y-125683745D01*
X134310656Y-125611306D01*
X133939344Y-125611306D01*
X133575166Y-125683745D01*
X133232118Y-125825840D01*
X132923382Y-126032131D01*
X132660825Y-126294688D01*
X132454534Y-126603424D01*
X132312439Y-126946472D01*
X132240000Y-127310650D01*
X115089614Y-127310650D01*
X114952092Y-127218761D01*
X114586296Y-127067243D01*
X114197968Y-126990000D01*
X113802032Y-126990000D01*
X113413704Y-127067243D01*
X113047908Y-127218761D01*
X112718699Y-127438731D01*
X112438731Y-127718699D01*
X112218761Y-128047908D01*
X112067243Y-128413704D01*
X112051525Y-128492724D01*
X96010000Y-112451201D01*
X96010000Y-104937500D01*
X97136928Y-104937500D01*
X97149188Y-105061982D01*
X97185498Y-105181680D01*
X97244463Y-105291994D01*
X97323815Y-105388685D01*
X97420506Y-105468037D01*
X97530820Y-105527002D01*
X97650518Y-105563312D01*
X97775000Y-105575572D01*
X97964250Y-105572500D01*
X98123000Y-105413750D01*
X98123000Y-104627000D01*
X97298750Y-104627000D01*
X97140000Y-104785750D01*
X97136928Y-104937500D01*
X96010000Y-104937500D01*
X96010000Y-99064801D01*
X96814802Y-98260000D01*
X99521323Y-98260000D01*
X99679392Y-98452608D01*
X99892113Y-98627183D01*
X100084471Y-98730000D01*
X99892113Y-98832817D01*
X99679392Y-99007392D01*
X99504817Y-99220113D01*
X99375096Y-99462805D01*
X99295214Y-99726140D01*
X99268241Y-100000000D01*
X99295214Y-100273860D01*
X99375096Y-100537195D01*
X99504817Y-100779887D01*
X99679392Y-100992608D01*
X99892113Y-101167183D01*
X100084471Y-101270000D01*
X99975234Y-101328388D01*
X98767363Y-101328388D01*
X98711612Y-101322897D01*
X98655860Y-101328388D01*
X98489113Y-101344811D01*
X98275165Y-101409712D01*
X98077989Y-101515104D01*
X97905163Y-101656939D01*
X97869616Y-101700253D01*
X97643002Y-101926867D01*
X97517725Y-101993829D01*
X97387885Y-102100385D01*
X97281329Y-102230225D01*
X97202150Y-102378358D01*
X97153392Y-102539092D01*
X97140121Y-102673827D01*
X97131423Y-102702502D01*
X97109509Y-102925000D01*
X97131423Y-103147498D01*
X97140121Y-103176173D01*
X97153392Y-103310908D01*
X97202150Y-103471642D01*
X97281329Y-103619775D01*
X97299100Y-103641430D01*
X97244463Y-103708006D01*
X97185498Y-103818320D01*
X97149188Y-103938018D01*
X97136928Y-104062500D01*
X97140000Y-104214250D01*
X97298750Y-104373000D01*
X98123000Y-104373000D01*
X98123000Y-104353000D01*
X98377000Y-104353000D01*
X98377000Y-104373000D01*
X99201250Y-104373000D01*
X99360000Y-104214250D01*
X99363072Y-104062500D01*
X99350812Y-103938018D01*
X99314502Y-103818320D01*
X99255537Y-103708006D01*
X99200900Y-103641430D01*
X99218671Y-103619775D01*
X99230103Y-103598388D01*
X99759545Y-103598388D01*
X99892113Y-103707183D01*
X100086413Y-103811038D01*
X100020058Y-103837941D01*
X99790271Y-103988994D01*
X99594368Y-104181974D01*
X99439878Y-104409465D01*
X99332738Y-104662724D01*
X99317780Y-104736930D01*
X99326421Y-104752171D01*
X99201250Y-104627000D01*
X98377000Y-104627000D01*
X98377000Y-105413750D01*
X98535750Y-105572500D01*
X98725000Y-105575572D01*
X98849482Y-105563312D01*
X98969180Y-105527002D01*
X99079494Y-105468037D01*
X99176185Y-105388685D01*
X99255537Y-105291994D01*
X99300967Y-105207002D01*
X99440279Y-105207002D01*
X99317780Y-105423070D01*
X99332738Y-105497276D01*
X99439878Y-105750535D01*
X99594368Y-105978026D01*
X99790271Y-106171006D01*
X100020058Y-106322059D01*
X100086413Y-106348962D01*
X99892113Y-106452817D01*
X99679392Y-106627392D01*
X99504817Y-106840113D01*
X99375096Y-107082805D01*
X99295214Y-107346140D01*
X99268241Y-107620000D01*
X99295214Y-107893860D01*
X99375096Y-108157195D01*
X99504817Y-108399887D01*
X99679392Y-108612608D01*
X99892113Y-108787183D01*
X100134805Y-108916904D01*
X100398140Y-108996786D01*
X100603375Y-109017000D01*
X101716625Y-109017000D01*
X101921860Y-108996786D01*
X102185195Y-108916904D01*
X102427887Y-108787183D01*
X102640608Y-108612608D01*
X102815183Y-108399887D01*
X102944904Y-108157195D01*
X103024786Y-107893860D01*
X103051759Y-107620000D01*
X103024786Y-107346140D01*
X102974492Y-107180343D01*
X104935000Y-107180343D01*
X104935000Y-107551655D01*
X105007439Y-107915833D01*
X105149534Y-108258881D01*
X105355825Y-108567617D01*
X105618382Y-108830174D01*
X105927118Y-109036465D01*
X106270166Y-109178560D01*
X106634344Y-109250999D01*
X107005656Y-109250999D01*
X107369834Y-109178560D01*
X107712882Y-109036465D01*
X108021618Y-108830174D01*
X108284175Y-108567617D01*
X108490466Y-108258881D01*
X108632561Y-107915833D01*
X108705000Y-107551655D01*
X108705000Y-107180343D01*
X108632561Y-106816165D01*
X108490466Y-106473117D01*
X108284175Y-106164381D01*
X108021618Y-105901824D01*
X107712882Y-105695533D01*
X107369834Y-105553438D01*
X107005656Y-105480999D01*
X106634344Y-105480999D01*
X106270166Y-105553438D01*
X105927118Y-105695533D01*
X105618382Y-105901824D01*
X105355825Y-106164381D01*
X105149534Y-106473117D01*
X105007439Y-106816165D01*
X104935000Y-107180343D01*
X102974492Y-107180343D01*
X102944904Y-107082805D01*
X102815183Y-106840113D01*
X102640608Y-106627392D01*
X102427887Y-106452817D01*
X102233587Y-106348962D01*
X102299942Y-106322059D01*
X102529729Y-106171006D01*
X102725632Y-105978026D01*
X102880122Y-105750535D01*
X102987262Y-105497276D01*
X103002220Y-105423070D01*
X102879720Y-105207000D01*
X101287000Y-105207000D01*
X101287000Y-105227000D01*
X101033000Y-105227000D01*
X101033000Y-105207000D01*
X101013000Y-105207000D01*
X101013000Y-104953000D01*
X101033000Y-104953000D01*
X101033000Y-104933000D01*
X101287000Y-104933000D01*
X101287000Y-104953000D01*
X102879720Y-104953000D01*
X103002220Y-104736930D01*
X102987262Y-104662724D01*
X102880122Y-104409465D01*
X102725632Y-104181974D01*
X102529729Y-103988994D01*
X102299942Y-103837941D01*
X102233587Y-103811038D01*
X102427887Y-103707183D01*
X102640608Y-103532608D01*
X102815183Y-103319887D01*
X102944904Y-103077195D01*
X103024786Y-102813860D01*
X103051759Y-102540000D01*
X103024786Y-102266140D01*
X102944904Y-102002805D01*
X102815183Y-101760113D01*
X102640608Y-101547392D01*
X102427887Y-101372817D01*
X102235529Y-101270000D01*
X102427887Y-101167183D01*
X102640608Y-100992608D01*
X102815183Y-100779887D01*
X102944904Y-100537195D01*
X103024786Y-100273860D01*
X103051759Y-100000000D01*
X103024786Y-99726140D01*
X102944904Y-99462805D01*
X102815183Y-99220113D01*
X102640608Y-99007392D01*
X102427887Y-98832817D01*
X102235529Y-98730000D01*
X102427887Y-98627183D01*
X102640608Y-98452608D01*
X102815183Y-98239887D01*
X102944904Y-97997195D01*
X103024786Y-97733860D01*
X103051759Y-97460000D01*
X103024786Y-97186140D01*
X102944904Y-96922805D01*
X102815183Y-96680113D01*
X102640608Y-96467392D01*
X102427887Y-96292817D01*
X102235529Y-96190000D01*
X102427887Y-96087183D01*
X102640608Y-95912608D01*
X102815183Y-95699887D01*
X102825813Y-95680000D01*
X111434966Y-95680000D01*
X111414574Y-95723426D01*
G36*
X203990000Y-74564802D02*
G01*
X203990001Y-99935197D01*
X202435199Y-101490000D01*
X200250675Y-101490000D01*
X200107887Y-101372817D01*
X199915529Y-101270000D01*
X200107887Y-101167183D01*
X200320608Y-100992608D01*
X200495183Y-100779887D01*
X200624904Y-100537195D01*
X200704786Y-100273860D01*
X200731759Y-100000000D01*
X200704786Y-99726140D01*
X200624904Y-99462805D01*
X200495183Y-99220113D01*
X200320608Y-99007392D01*
X200107887Y-98832817D01*
X199915529Y-98730000D01*
X200024766Y-98671612D01*
X200982637Y-98671612D01*
X201038388Y-98677103D01*
X201094139Y-98671612D01*
X201094140Y-98671612D01*
X201260887Y-98655189D01*
X201474835Y-98590288D01*
X201672011Y-98484896D01*
X201844837Y-98343061D01*
X201880384Y-98299747D01*
X202106998Y-98073133D01*
X202232275Y-98006171D01*
X202362115Y-97899615D01*
X202468671Y-97769775D01*
X202547850Y-97621642D01*
X202596608Y-97460908D01*
X202609878Y-97326174D01*
X202618577Y-97297499D01*
X202640491Y-97075000D01*
X202618577Y-96852502D01*
X202609879Y-96823827D01*
X202596608Y-96689092D01*
X202547850Y-96528358D01*
X202468671Y-96380225D01*
X202450900Y-96358570D01*
X202505537Y-96291994D01*
X202564502Y-96181680D01*
X202600812Y-96061982D01*
X202613072Y-95937500D01*
X202610000Y-95785750D01*
X202451250Y-95627000D01*
X201627000Y-95627000D01*
X201627000Y-95647000D01*
X201373000Y-95647000D01*
X201373000Y-95627000D01*
X201353000Y-95627000D01*
X201353000Y-95373000D01*
X201373000Y-95373000D01*
X201373000Y-94586250D01*
X201627000Y-94586250D01*
X201627000Y-95373000D01*
X202451250Y-95373000D01*
X202610000Y-95214250D01*
X202613072Y-95062500D01*
X202600812Y-94938018D01*
X202564502Y-94818320D01*
X202505537Y-94708006D01*
X202426185Y-94611315D01*
X202329494Y-94531963D01*
X202219180Y-94472998D01*
X202099482Y-94436688D01*
X201975000Y-94424428D01*
X201785750Y-94427500D01*
X201627000Y-94586250D01*
X201373000Y-94586250D01*
X201214250Y-94427500D01*
X201025000Y-94424428D01*
X200900518Y-94436688D01*
X200780820Y-94472998D01*
X200672898Y-94530684D01*
X200667262Y-94502724D01*
X200560122Y-94249465D01*
X200405632Y-94021974D01*
X200209729Y-93828994D01*
X199979942Y-93677941D01*
X199913587Y-93651038D01*
X200107887Y-93547183D01*
X200320608Y-93372608D01*
X200495183Y-93159887D01*
X200624904Y-92917195D01*
X200704786Y-92653860D01*
X200731759Y-92380000D01*
X200704786Y-92106140D01*
X200624904Y-91842805D01*
X200495183Y-91600113D01*
X200320608Y-91387392D01*
X200107887Y-91212817D01*
X199865195Y-91083096D01*
X199601860Y-91003214D01*
X199396625Y-90983000D01*
X198283375Y-90983000D01*
X198078140Y-91003214D01*
X197814805Y-91083096D01*
X197572113Y-91212817D01*
X197359392Y-91387392D01*
X197184817Y-91600113D01*
X197055096Y-91842805D01*
X196975214Y-92106140D01*
X196948241Y-92380000D01*
X196975214Y-92653860D01*
X197055096Y-92917195D01*
X197184817Y-93159887D01*
X197359392Y-93372608D01*
X197572113Y-93547183D01*
X197766413Y-93651038D01*
X197700058Y-93677941D01*
X197470271Y-93828994D01*
X197274368Y-94021974D01*
X197119878Y-94249465D01*
X197012738Y-94502724D01*
X196997780Y-94576930D01*
X197120280Y-94793000D01*
X198713000Y-94793000D01*
X198713000Y-94773000D01*
X198967000Y-94773000D01*
X198967000Y-94793000D01*
X198987000Y-94793000D01*
X198987000Y-95047000D01*
X198967000Y-95047000D01*
X198967000Y-95067000D01*
X198713000Y-95067000D01*
X198713000Y-95047000D01*
X197120280Y-95047000D01*
X196997780Y-95263070D01*
X197012738Y-95337276D01*
X197119878Y-95590535D01*
X197274368Y-95818026D01*
X197470271Y-96011006D01*
X197700058Y-96162059D01*
X197766413Y-96188962D01*
X197572113Y-96292817D01*
X197359392Y-96467392D01*
X197184817Y-96680113D01*
X197055096Y-96922805D01*
X196975214Y-97186140D01*
X196948241Y-97460000D01*
X196975214Y-97733860D01*
X197055096Y-97997195D01*
X197184817Y-98239887D01*
X197359392Y-98452608D01*
X197572113Y-98627183D01*
X197764471Y-98730000D01*
X197572113Y-98832817D01*
X197359392Y-99007392D01*
X197184817Y-99220113D01*
X197055096Y-99462805D01*
X196975214Y-99726140D01*
X196948241Y-100000000D01*
X196975214Y-100273860D01*
X197055096Y-100537195D01*
X197184817Y-100779887D01*
X197359392Y-100992608D01*
X197572113Y-101167183D01*
X197764471Y-101270000D01*
X197572113Y-101372817D01*
X197359392Y-101547392D01*
X197184817Y-101760113D01*
X197055096Y-102002805D01*
X196975214Y-102266140D01*
X196948241Y-102540000D01*
X196975214Y-102813860D01*
X197055096Y-103077195D01*
X197184817Y-103319887D01*
X197359392Y-103532608D01*
X197572113Y-103707183D01*
X197764471Y-103810000D01*
X197572113Y-103912817D01*
X197359392Y-104087392D01*
X197184817Y-104300113D01*
X197055096Y-104542805D01*
X196975214Y-104806140D01*
X196948241Y-105080000D01*
X196975214Y-105353860D01*
X196981760Y-105375438D01*
X195065000Y-107292198D01*
X195065000Y-107180343D01*
X194992561Y-106816165D01*
X194850466Y-106473117D01*
X194644175Y-106164381D01*
X194381618Y-105901824D01*
X194072882Y-105695533D01*
X193729834Y-105553438D01*
X193365656Y-105480999D01*
X192994344Y-105480999D01*
X192630166Y-105553438D01*
X192287118Y-105695533D01*
X191978382Y-105901824D01*
X191715825Y-106164381D01*
X191509534Y-106473117D01*
X191367439Y-106816165D01*
X191295000Y-107180343D01*
X191295000Y-107551655D01*
X191367439Y-107915833D01*
X191509534Y-108258881D01*
X191715825Y-108567617D01*
X191978382Y-108830174D01*
X192287118Y-109036465D01*
X192630166Y-109178560D01*
X192994344Y-109250999D01*
X193106199Y-109250999D01*
X179437209Y-122919990D01*
X136887067Y-122919990D01*
X137038574Y-122889853D01*
X137299727Y-122781680D01*
X137534759Y-122624637D01*
X137734637Y-122424759D01*
X137891680Y-122189727D01*
X137999853Y-121928574D01*
X138055000Y-121651335D01*
X138055000Y-121368665D01*
X137999853Y-121091426D01*
X137891680Y-120830273D01*
X137734637Y-120595241D01*
X137534759Y-120395363D01*
X137302241Y-120240000D01*
X137534759Y-120084637D01*
X137734637Y-119884759D01*
X137817998Y-119760000D01*
X167237678Y-119760000D01*
X167275000Y-119763676D01*
X167312322Y-119760000D01*
X167312333Y-119760000D01*
X167423986Y-119749003D01*
X167567247Y-119705546D01*
X167699276Y-119634974D01*
X167815001Y-119540001D01*
X167838804Y-119510997D01*
X171848726Y-115501076D01*
X172000000Y-115515975D01*
X172242102Y-115492130D01*
X172474901Y-115421511D01*
X172689449Y-115306833D01*
X172877502Y-115152502D01*
X173000481Y-115002652D01*
X173043693Y-115066725D01*
X173216526Y-115238078D01*
X173419467Y-115372421D01*
X173644718Y-115464591D01*
X173682391Y-115468462D01*
X173873000Y-115343731D01*
X173873000Y-114127000D01*
X173853000Y-114127000D01*
X173853000Y-113873000D01*
X173873000Y-113873000D01*
X173873000Y-112656269D01*
X174127000Y-112656269D01*
X174127000Y-113873000D01*
X174147000Y-113873000D01*
X174147000Y-114127000D01*
X174127000Y-114127000D01*
X174127000Y-115343731D01*
X174317609Y-115468462D01*
X174355282Y-115464591D01*
X174580533Y-115372421D01*
X174783474Y-115238078D01*
X174956307Y-115066725D01*
X174999520Y-115002651D01*
X175122499Y-115152502D01*
X175310552Y-115306833D01*
X175525100Y-115421511D01*
X175757899Y-115492130D01*
X176000000Y-115515975D01*
X176242102Y-115492130D01*
X176474901Y-115421511D01*
X176689449Y-115306833D01*
X176877502Y-115152502D01*
X177000001Y-115003237D01*
X177122499Y-115152502D01*
X177310552Y-115306833D01*
X177525100Y-115421511D01*
X177757899Y-115492130D01*
X178000000Y-115515975D01*
X178242102Y-115492130D01*
X178474901Y-115421511D01*
X178689449Y-115306833D01*
X178877502Y-115152502D01*
X179031833Y-114964449D01*
X179146511Y-114749900D01*
X179217130Y-114517101D01*
X179235000Y-114335664D01*
X179235000Y-113664335D01*
X179217130Y-113482898D01*
X179146511Y-113250099D01*
X179031833Y-113035551D01*
X178877502Y-112847498D01*
X178689448Y-112693167D01*
X178474900Y-112578489D01*
X178242101Y-112507870D01*
X178000000Y-112484025D01*
X177757898Y-112507870D01*
X177525099Y-112578489D01*
X177310551Y-112693167D01*
X177122498Y-112847498D01*
X177000000Y-112996763D01*
X176877502Y-112847498D01*
X176689448Y-112693167D01*
X176474900Y-112578489D01*
X176242101Y-112507870D01*
X176000000Y-112484025D01*
X175757898Y-112507870D01*
X175525099Y-112578489D01*
X175310551Y-112693167D01*
X175122498Y-112847498D01*
X174999519Y-112997349D01*
X174956307Y-112933275D01*
X174783474Y-112761922D01*
X174580533Y-112627579D01*
X174355282Y-112535409D01*
X174317609Y-112531538D01*
X174127000Y-112656269D01*
X173873000Y-112656269D01*
X173682391Y-112531538D01*
X173644718Y-112535409D01*
X173419467Y-112627579D01*
X173216526Y-112761922D01*
X173043693Y-112933275D01*
X173000481Y-112997348D01*
X172877502Y-112847498D01*
X172689448Y-112693167D01*
X172474900Y-112578489D01*
X172242101Y-112507870D01*
X172000000Y-112484025D01*
X171757898Y-112507870D01*
X171525099Y-112578489D01*
X171310551Y-112693167D01*
X171122498Y-112847498D01*
X171000000Y-112996763D01*
X170877502Y-112847498D01*
X170689448Y-112693167D01*
X170474900Y-112578489D01*
X170242101Y-112507870D01*
X170000000Y-112484025D01*
X169757898Y-112507870D01*
X169525099Y-112578489D01*
X169310551Y-112693167D01*
X169122498Y-112847498D01*
X169090809Y-112886111D01*
X169088405Y-112881613D01*
X168977962Y-112747038D01*
X168843387Y-112636595D01*
X168689851Y-112554528D01*
X168523255Y-112503992D01*
X168350001Y-112486928D01*
X167649999Y-112486928D01*
X167476745Y-112503992D01*
X167310149Y-112554528D01*
X167156613Y-112636595D01*
X167022038Y-112747038D01*
X166911595Y-112881613D01*
X166829528Y-113035149D01*
X166778992Y-113201745D01*
X166761928Y-113374999D01*
X166761928Y-114625001D01*
X166778992Y-114798255D01*
X166829528Y-114964851D01*
X166911595Y-115118387D01*
X167022038Y-115252962D01*
X167156613Y-115363405D01*
X167310149Y-115445472D01*
X167476745Y-115496008D01*
X167649999Y-115513072D01*
X167687127Y-115513072D01*
X167530199Y-115670000D01*
X158654801Y-115670000D01*
X166350121Y-107974681D01*
X166362738Y-108037276D01*
X166469878Y-108290535D01*
X166624368Y-108518026D01*
X166820271Y-108711006D01*
X167050058Y-108862059D01*
X167304899Y-108965381D01*
X167575000Y-109017000D01*
X168063000Y-109017000D01*
X168063000Y-107747000D01*
X168317000Y-107747000D01*
X168317000Y-109017000D01*
X168805000Y-109017000D01*
X169075101Y-108965381D01*
X169329942Y-108862059D01*
X169559729Y-108711006D01*
X169755632Y-108518026D01*
X169910122Y-108290535D01*
X170017262Y-108037276D01*
X170032220Y-107963070D01*
X169909720Y-107747000D01*
X168317000Y-107747000D01*
X168063000Y-107747000D01*
X168043000Y-107747000D01*
X168043000Y-107493000D01*
X168063000Y-107493000D01*
X168063000Y-107473000D01*
X168317000Y-107473000D01*
X168317000Y-107493000D01*
X169909720Y-107493000D01*
X170032220Y-107276930D01*
X170017262Y-107202724D01*
X169910122Y-106949465D01*
X169755632Y-106721974D01*
X169559729Y-106528994D01*
X169329942Y-106377941D01*
X169263587Y-106351038D01*
X169457887Y-106247183D01*
X169670608Y-106072608D01*
X169845183Y-105859887D01*
X169974904Y-105617195D01*
X170054786Y-105353860D01*
X170081759Y-105080000D01*
X170054786Y-104806140D01*
X169974904Y-104542805D01*
X169845183Y-104300113D01*
X169670608Y-104087392D01*
X169457887Y-103912817D01*
X169265529Y-103810000D01*
X169457887Y-103707183D01*
X169670608Y-103532608D01*
X169845183Y-103319887D01*
X169974904Y-103077195D01*
X170054786Y-102813860D01*
X170081759Y-102540000D01*
X170054786Y-102266140D01*
X169974904Y-102002805D01*
X169845183Y-101760113D01*
X169670608Y-101547392D01*
X169457887Y-101372817D01*
X169265529Y-101270000D01*
X169457887Y-101167183D01*
X169670608Y-100992608D01*
X169845183Y-100779887D01*
X169974904Y-100537195D01*
X170054786Y-100273860D01*
X170081759Y-100000000D01*
X170054786Y-99726140D01*
X169974904Y-99462805D01*
X169845183Y-99220113D01*
X169670608Y-99007392D01*
X169457887Y-98832817D01*
X169265529Y-98730000D01*
X169457887Y-98627183D01*
X169670608Y-98452608D01*
X169845183Y-98239887D01*
X169974904Y-97997195D01*
X170054786Y-97733860D01*
X170081759Y-97460000D01*
X170054786Y-97186140D01*
X169974904Y-96922805D01*
X169845183Y-96680113D01*
X169670608Y-96467392D01*
X169457887Y-96292817D01*
X169263587Y-96188962D01*
X169329942Y-96162059D01*
X169559729Y-96011006D01*
X169755632Y-95818026D01*
X169910122Y-95590535D01*
X170017262Y-95337276D01*
X170032220Y-95263070D01*
X169909720Y-95047000D01*
X168317000Y-95047000D01*
X168317000Y-95067000D01*
X168063000Y-95067000D01*
X168063000Y-95047000D01*
X168043000Y-95047000D01*
X168043000Y-94793000D01*
X168063000Y-94793000D01*
X168063000Y-94773000D01*
X168317000Y-94773000D01*
X168317000Y-94793000D01*
X169909720Y-94793000D01*
X170032220Y-94576930D01*
X170017262Y-94502724D01*
X169910122Y-94249465D01*
X169755632Y-94021974D01*
X169559729Y-93828994D01*
X169329942Y-93677941D01*
X169263587Y-93651038D01*
X169457887Y-93547183D01*
X169670608Y-93372608D01*
X169845183Y-93159887D01*
X169974904Y-92917195D01*
X170054786Y-92653860D01*
X170081759Y-92380000D01*
X173838241Y-92380000D01*
X173865214Y-92653860D01*
X173945096Y-92917195D01*
X174074817Y-93159887D01*
X174249392Y-93372608D01*
X174462113Y-93547183D01*
X174694471Y-93671380D01*
X174542113Y-93752817D01*
X174329392Y-93927392D01*
X174154817Y-94140113D01*
X174025096Y-94382805D01*
X173945214Y-94646140D01*
X173918241Y-94920000D01*
X173945214Y-95193860D01*
X174025096Y-95457195D01*
X174154817Y-95699887D01*
X174329392Y-95912608D01*
X174542113Y-96087183D01*
X174734471Y-96190000D01*
X174542113Y-96292817D01*
X174329392Y-96467392D01*
X174154817Y-96680113D01*
X174025096Y-96922805D01*
X173945214Y-97186140D01*
X173918241Y-97460000D01*
X173945214Y-97733860D01*
X174025096Y-97997195D01*
X174154817Y-98239887D01*
X174329392Y-98452608D01*
X174542113Y-98627183D01*
X174734471Y-98730000D01*
X174542113Y-98832817D01*
X174329392Y-99007392D01*
X174154817Y-99220113D01*
X174025096Y-99462805D01*
X173945214Y-99726140D01*
X173918241Y-100000000D01*
X173945214Y-100273860D01*
X174025096Y-100537195D01*
X174154817Y-100779887D01*
X174329392Y-100992608D01*
X174542113Y-101167183D01*
X174734471Y-101270000D01*
X174542113Y-101372817D01*
X174329392Y-101547392D01*
X174154817Y-101760113D01*
X174025096Y-102002805D01*
X173945214Y-102266140D01*
X173918241Y-102540000D01*
X173945214Y-102813860D01*
X174025096Y-103077195D01*
X174154817Y-103319887D01*
X174329392Y-103532608D01*
X174542113Y-103707183D01*
X174734471Y-103810000D01*
X174542113Y-103912817D01*
X174329392Y-104087392D01*
X174154817Y-104300113D01*
X174025096Y-104542805D01*
X173945214Y-104806140D01*
X173918241Y-105080000D01*
X173945214Y-105353860D01*
X174025096Y-105617195D01*
X174154817Y-105859887D01*
X174329392Y-106072608D01*
X174542113Y-106247183D01*
X174734471Y-106350000D01*
X174542113Y-106452817D01*
X174329392Y-106627392D01*
X174154817Y-106840113D01*
X174025096Y-107082805D01*
X173945214Y-107346140D01*
X173918241Y-107620000D01*
X173945214Y-107893860D01*
X174025096Y-108157195D01*
X174154817Y-108399887D01*
X174329392Y-108612608D01*
X174542113Y-108787183D01*
X174784805Y-108916904D01*
X175048140Y-108996786D01*
X175253375Y-109017000D01*
X176366625Y-109017000D01*
X176571860Y-108996786D01*
X176835195Y-108916904D01*
X177077887Y-108787183D01*
X177290608Y-108612608D01*
X177465183Y-108399887D01*
X177594904Y-108157195D01*
X177674786Y-107893860D01*
X177701759Y-107620000D01*
X177674786Y-107346140D01*
X177594904Y-107082805D01*
X177465183Y-106840113D01*
X177290608Y-106627392D01*
X177077887Y-106452817D01*
X176885529Y-106350000D01*
X177077887Y-106247183D01*
X177290608Y-106072608D01*
X177465183Y-105859887D01*
X177594904Y-105617195D01*
X177674786Y-105353860D01*
X177701759Y-105080000D01*
X177674786Y-104806140D01*
X177594904Y-104542805D01*
X177465183Y-104300113D01*
X177290608Y-104087392D01*
X177077887Y-103912817D01*
X176885529Y-103810000D01*
X177077887Y-103707183D01*
X177290608Y-103532608D01*
X177465183Y-103319887D01*
X177594904Y-103077195D01*
X177674786Y-102813860D01*
X177701759Y-102540000D01*
X177674786Y-102266140D01*
X177594904Y-102002805D01*
X177465183Y-101760113D01*
X177290608Y-101547392D01*
X177077887Y-101372817D01*
X176885529Y-101270000D01*
X177077887Y-101167183D01*
X177290608Y-100992608D01*
X177465183Y-100779887D01*
X177594904Y-100537195D01*
X177674786Y-100273860D01*
X177701759Y-100000000D01*
X177683474Y-99814344D01*
X179865000Y-99814344D01*
X179865000Y-100185656D01*
X179937439Y-100549834D01*
X180079534Y-100892882D01*
X180285825Y-101201618D01*
X180548382Y-101464175D01*
X180857118Y-101670466D01*
X181200166Y-101812561D01*
X181564344Y-101885000D01*
X181935656Y-101885000D01*
X182299834Y-101812561D01*
X182642882Y-101670466D01*
X182951618Y-101464175D01*
X183214175Y-101201618D01*
X183420466Y-100892882D01*
X183562561Y-100549834D01*
X183635000Y-100185656D01*
X183635000Y-99814344D01*
X183562561Y-99450166D01*
X183420466Y-99107118D01*
X183214175Y-98798382D01*
X182951618Y-98535825D01*
X182642882Y-98329534D01*
X182299834Y-98187439D01*
X181935656Y-98115000D01*
X181564344Y-98115000D01*
X181200166Y-98187439D01*
X180857118Y-98329534D01*
X180548382Y-98535825D01*
X180285825Y-98798382D01*
X180079534Y-99107118D01*
X179937439Y-99450166D01*
X179865000Y-99814344D01*
X177683474Y-99814344D01*
X177674786Y-99726140D01*
X177594904Y-99462805D01*
X177465183Y-99220113D01*
X177290608Y-99007392D01*
X177077887Y-98832817D01*
X176885529Y-98730000D01*
X177077887Y-98627183D01*
X177290608Y-98452608D01*
X177465183Y-98239887D01*
X177594904Y-97997195D01*
X177674786Y-97733860D01*
X177701759Y-97460000D01*
X177674786Y-97186140D01*
X177594904Y-96922805D01*
X177465183Y-96680113D01*
X177290608Y-96467392D01*
X177077887Y-96292817D01*
X176885529Y-96190000D01*
X177077887Y-96087183D01*
X177290608Y-95912608D01*
X177465183Y-95699887D01*
X177594904Y-95457195D01*
X177674786Y-95193860D01*
X177701759Y-94920000D01*
X177674786Y-94646140D01*
X177594904Y-94382805D01*
X177465183Y-94140113D01*
X177290608Y-93927392D01*
X177077887Y-93752817D01*
X176845529Y-93628620D01*
X176997887Y-93547183D01*
X177210608Y-93372608D01*
X177385183Y-93159887D01*
X177514904Y-92917195D01*
X177594786Y-92653860D01*
X177615027Y-92448345D01*
X191295000Y-92448345D01*
X191295000Y-92819657D01*
X191367439Y-93183835D01*
X191509534Y-93526883D01*
X191715825Y-93835619D01*
X191978382Y-94098176D01*
X192287118Y-94304467D01*
X192630166Y-94446562D01*
X192994344Y-94519001D01*
X193365656Y-94519001D01*
X193729834Y-94446562D01*
X194072882Y-94304467D01*
X194381618Y-94098176D01*
X194644175Y-93835619D01*
X194850466Y-93526883D01*
X194992561Y-93183835D01*
X195065000Y-92819657D01*
X195065000Y-92448345D01*
X194992561Y-92084167D01*
X194850466Y-91741119D01*
X194644175Y-91432383D01*
X194381618Y-91169826D01*
X194072882Y-90963535D01*
X193729834Y-90821440D01*
X193365656Y-90749001D01*
X192994344Y-90749001D01*
X192630166Y-90821440D01*
X192287118Y-90963535D01*
X191978382Y-91169826D01*
X191715825Y-91432383D01*
X191509534Y-91741119D01*
X191367439Y-92084167D01*
X191295000Y-92448345D01*
X177615027Y-92448345D01*
X177621759Y-92380000D01*
X177594786Y-92106140D01*
X177514904Y-91842805D01*
X177385183Y-91600113D01*
X177210608Y-91387392D01*
X176997887Y-91212817D01*
X176755195Y-91083096D01*
X176491860Y-91003214D01*
X176286625Y-90983000D01*
X175173375Y-90983000D01*
X174968140Y-91003214D01*
X174704805Y-91083096D01*
X174462113Y-91212817D01*
X174249392Y-91387392D01*
X174074817Y-91600113D01*
X173945096Y-91842805D01*
X173865214Y-92106140D01*
X173838241Y-92380000D01*
X170081759Y-92380000D01*
X170054786Y-92106140D01*
X169974904Y-91842805D01*
X169845183Y-91600113D01*
X169670608Y-91387392D01*
X169457887Y-91212817D01*
X169215195Y-91083096D01*
X168951860Y-91003214D01*
X168746625Y-90983000D01*
X167633375Y-90983000D01*
X167428140Y-91003214D01*
X167164805Y-91083096D01*
X166922113Y-91212817D01*
X166736677Y-91365000D01*
X166055752Y-91365000D01*
X166000000Y-91359509D01*
X165944248Y-91365000D01*
X165777501Y-91381423D01*
X165563553Y-91446324D01*
X165366377Y-91551716D01*
X165193551Y-91693551D01*
X165158004Y-91736865D01*
X164893002Y-92001867D01*
X164767725Y-92068829D01*
X164637885Y-92175385D01*
X164531329Y-92305225D01*
X164452150Y-92453358D01*
X164403392Y-92614092D01*
X164390121Y-92748827D01*
X164381423Y-92777502D01*
X164359509Y-93000000D01*
X164381423Y-93222498D01*
X164390121Y-93251173D01*
X164403392Y-93385908D01*
X164452150Y-93546642D01*
X164531329Y-93694775D01*
X164549100Y-93716430D01*
X164494463Y-93783006D01*
X164435498Y-93893320D01*
X164399188Y-94013018D01*
X164386928Y-94137500D01*
X164390000Y-94289250D01*
X164548750Y-94448000D01*
X165373000Y-94448000D01*
X165373000Y-94428000D01*
X165627000Y-94428000D01*
X165627000Y-94448000D01*
X165647000Y-94448000D01*
X165647000Y-94702000D01*
X165627000Y-94702000D01*
X165627000Y-95488750D01*
X165785750Y-95647500D01*
X165975000Y-95650572D01*
X166099482Y-95638312D01*
X166219180Y-95602002D01*
X166329494Y-95543037D01*
X166418784Y-95469759D01*
X166469878Y-95590535D01*
X166624368Y-95818026D01*
X166820271Y-96011006D01*
X167050058Y-96162059D01*
X167116413Y-96188962D01*
X166922113Y-96292817D01*
X166709392Y-96467392D01*
X166534817Y-96680113D01*
X166405096Y-96922805D01*
X166325214Y-97186140D01*
X166298241Y-97460000D01*
X166325214Y-97733860D01*
X166331760Y-97755438D01*
X157162200Y-106924999D01*
X137901923Y-106924999D01*
X137999853Y-106688574D01*
X138055000Y-106411335D01*
X138055000Y-106128665D01*
X137999853Y-105851426D01*
X137891680Y-105590273D01*
X137734637Y-105355241D01*
X137534759Y-105155363D01*
X137302241Y-105000000D01*
X137534759Y-104844637D01*
X137734637Y-104644759D01*
X137891680Y-104409727D01*
X137999853Y-104148574D01*
X138055000Y-103871335D01*
X138055000Y-103629802D01*
X139711221Y-105286023D01*
X139735019Y-105315021D01*
X139764017Y-105338819D01*
X139850743Y-105409994D01*
X139952836Y-105464564D01*
X139982773Y-105480566D01*
X140126034Y-105524023D01*
X140237687Y-105535020D01*
X140237696Y-105535020D01*
X140275019Y-105538696D01*
X140312342Y-105535020D01*
X154537658Y-105535020D01*
X154574980Y-105538696D01*
X154612302Y-105535020D01*
X154612313Y-105535020D01*
X154723966Y-105524023D01*
X154867227Y-105480566D01*
X154999256Y-105409994D01*
X155114981Y-105315021D01*
X155138784Y-105286017D01*
X155863737Y-104561064D01*
X156029485Y-104611343D01*
X156350000Y-104642911D01*
X156670516Y-104611343D01*
X156978715Y-104517852D01*
X157262752Y-104366031D01*
X157511714Y-104161714D01*
X157716031Y-103912752D01*
X157867852Y-103628715D01*
X157961343Y-103320516D01*
X157985000Y-103080322D01*
X157985000Y-101919678D01*
X157961343Y-101679484D01*
X157867852Y-101371285D01*
X157716031Y-101087248D01*
X157511714Y-100838286D01*
X157262751Y-100633969D01*
X156978714Y-100482148D01*
X156670515Y-100388657D01*
X156350000Y-100357089D01*
X156029484Y-100388657D01*
X155721285Y-100482148D01*
X155437248Y-100633969D01*
X155188286Y-100838286D01*
X155080000Y-100970234D01*
X154971714Y-100838286D01*
X154722751Y-100633969D01*
X154438714Y-100482148D01*
X154130515Y-100388657D01*
X153810000Y-100357089D01*
X153489484Y-100388657D01*
X153181285Y-100482148D01*
X152897248Y-100633969D01*
X152648286Y-100838286D01*
X152540000Y-100970234D01*
X152431714Y-100838286D01*
X152182751Y-100633969D01*
X151898714Y-100482148D01*
X151590515Y-100388657D01*
X151270000Y-100357089D01*
X150949484Y-100388657D01*
X150641285Y-100482148D01*
X150357248Y-100633969D01*
X150332735Y-100654086D01*
X148092642Y-98413994D01*
X148068839Y-98384990D01*
X147953114Y-98290017D01*
X147821085Y-98219445D01*
X147677824Y-98175988D01*
X147566171Y-98164991D01*
X147566160Y-98164991D01*
X147528838Y-98161315D01*
X147491516Y-98164991D01*
X146089813Y-98164991D01*
X143669820Y-95744999D01*
X145420198Y-95744999D01*
X145639381Y-95964183D01*
X145635040Y-95978494D01*
X145615000Y-96181964D01*
X145615000Y-96818037D01*
X145635040Y-97021507D01*
X145714236Y-97282581D01*
X145842843Y-97523188D01*
X146015920Y-97734081D01*
X146226813Y-97907157D01*
X146467420Y-98035764D01*
X146728494Y-98114960D01*
X147000000Y-98141701D01*
X147271507Y-98114960D01*
X147532581Y-98035764D01*
X147773188Y-97907157D01*
X147984081Y-97734081D01*
X148000000Y-97714683D01*
X148015920Y-97734081D01*
X148226813Y-97907157D01*
X148467420Y-98035764D01*
X148728494Y-98114960D01*
X149000000Y-98141701D01*
X149271507Y-98114960D01*
X149532581Y-98035764D01*
X149773188Y-97907157D01*
X149984081Y-97734081D01*
X150000000Y-97714683D01*
X150015920Y-97734081D01*
X150226813Y-97907157D01*
X150467420Y-98035764D01*
X150728494Y-98114960D01*
X151000000Y-98141701D01*
X151271507Y-98114960D01*
X151532581Y-98035764D01*
X151773188Y-97907157D01*
X151984081Y-97734081D01*
X152000000Y-97714683D01*
X152015920Y-97734081D01*
X152226813Y-97907157D01*
X152467420Y-98035764D01*
X152728494Y-98114960D01*
X153000000Y-98141701D01*
X153271507Y-98114960D01*
X153532581Y-98035764D01*
X153773188Y-97907157D01*
X153984081Y-97734081D01*
X154157157Y-97523188D01*
X154285764Y-97282580D01*
X154364960Y-97021506D01*
X154385000Y-96818036D01*
X154385000Y-96181963D01*
X154364960Y-95978493D01*
X154285764Y-95717419D01*
X154157157Y-95476812D01*
X153984080Y-95265919D01*
X153773187Y-95092843D01*
X153622876Y-95012500D01*
X164386928Y-95012500D01*
X164399188Y-95136982D01*
X164435498Y-95256680D01*
X164494463Y-95366994D01*
X164573815Y-95463685D01*
X164670506Y-95543037D01*
X164780820Y-95602002D01*
X164900518Y-95638312D01*
X165025000Y-95650572D01*
X165214250Y-95647500D01*
X165373000Y-95488750D01*
X165373000Y-94702000D01*
X164548750Y-94702000D01*
X164390000Y-94860750D01*
X164386928Y-95012500D01*
X153622876Y-95012500D01*
X153532580Y-94964236D01*
X153271506Y-94885040D01*
X153000000Y-94858299D01*
X152728493Y-94885040D01*
X152714183Y-94889381D01*
X144678803Y-86854002D01*
X144655000Y-86824998D01*
X144539275Y-86730025D01*
X144407246Y-86659453D01*
X144263985Y-86615996D01*
X144152332Y-86604999D01*
X144152321Y-86604999D01*
X144114999Y-86601323D01*
X144077677Y-86604999D01*
X133988911Y-86604999D01*
X133951588Y-86601323D01*
X133914265Y-86604999D01*
X133914256Y-86604999D01*
X133802603Y-86615996D01*
X133659342Y-86659453D01*
X133527313Y-86730025D01*
X133411588Y-86824998D01*
X133387790Y-86853996D01*
X123715011Y-96526776D01*
X123715011Y-87109790D01*
X124814803Y-86010000D01*
X160185199Y-86010000D01*
X161886211Y-87711013D01*
X161910009Y-87740011D01*
X161995624Y-87810273D01*
X162025734Y-87834984D01*
X162157763Y-87905556D01*
X162301024Y-87949013D01*
X162450010Y-87963687D01*
X162487343Y-87960010D01*
X171037668Y-87960010D01*
X171074990Y-87963686D01*
X171112312Y-87960010D01*
X171112323Y-87960010D01*
X171223976Y-87949013D01*
X171367237Y-87905556D01*
X171499266Y-87834984D01*
X171614991Y-87740011D01*
X171638793Y-87711008D01*
X171848726Y-87501076D01*
X172000000Y-87515975D01*
X172242102Y-87492130D01*
X172474901Y-87421511D01*
X172689449Y-87306833D01*
X172877502Y-87152502D01*
X173000481Y-87002652D01*
X173043693Y-87066725D01*
X173216526Y-87238078D01*
X173419467Y-87372421D01*
X173644718Y-87464591D01*
X173682391Y-87468462D01*
X173873000Y-87343731D01*
X173873000Y-86127000D01*
X173853000Y-86127000D01*
X173853000Y-85873000D01*
X173873000Y-85873000D01*
X173873000Y-85853000D01*
X174127000Y-85853000D01*
X174127000Y-85873000D01*
X174147000Y-85873000D01*
X174147000Y-86127000D01*
X174127000Y-86127000D01*
X174127000Y-87343731D01*
X174317609Y-87468462D01*
X174355282Y-87464591D01*
X174580533Y-87372421D01*
X174783474Y-87238078D01*
X174956307Y-87066725D01*
X174999520Y-87002651D01*
X175122499Y-87152502D01*
X175310552Y-87306833D01*
X175525100Y-87421511D01*
X175757899Y-87492130D01*
X176000000Y-87515975D01*
X176242102Y-87492130D01*
X176474901Y-87421511D01*
X176689449Y-87306833D01*
X176877502Y-87152502D01*
X177000001Y-87003237D01*
X177122499Y-87152502D01*
X177310552Y-87306833D01*
X177525100Y-87421511D01*
X177757899Y-87492130D01*
X178000000Y-87515975D01*
X178242102Y-87492130D01*
X178474901Y-87421511D01*
X178689449Y-87306833D01*
X178877502Y-87152502D01*
X179031833Y-86964449D01*
X179146511Y-86749900D01*
X179217130Y-86517101D01*
X179235000Y-86335664D01*
X179235000Y-85664335D01*
X179217130Y-85482898D01*
X179146511Y-85250099D01*
X179031833Y-85035551D01*
X179010864Y-85010000D01*
X187677678Y-85010000D01*
X187715000Y-85013676D01*
X187752322Y-85010000D01*
X187752333Y-85010000D01*
X187863986Y-84999003D01*
X188007247Y-84955546D01*
X188139276Y-84884974D01*
X188255001Y-84790001D01*
X188278804Y-84760997D01*
X197591003Y-75448799D01*
X197620001Y-75425001D01*
X197674742Y-75358299D01*
X197714974Y-75309277D01*
X197785546Y-75177247D01*
X197798779Y-75133622D01*
X197820783Y-75061084D01*
X197859887Y-75040183D01*
X198072608Y-74865608D01*
X198247183Y-74652887D01*
X198350000Y-74460529D01*
X198452817Y-74652887D01*
X198627393Y-74865608D01*
X198840114Y-75040183D01*
X199082806Y-75169904D01*
X199346141Y-75249786D01*
X199620000Y-75276759D01*
X199893860Y-75249786D01*
X200157195Y-75169904D01*
X200399887Y-75040183D01*
X200612608Y-74865608D01*
X200787183Y-74652887D01*
X200916904Y-74410195D01*
X200996786Y-74146860D01*
X201017000Y-73941624D01*
X201017000Y-72828375D01*
X200996786Y-72623140D01*
X200916904Y-72359805D01*
X200787183Y-72117113D01*
X200612607Y-71904392D01*
X200399886Y-71729817D01*
X200157194Y-71600096D01*
X199893859Y-71520214D01*
X199620000Y-71493241D01*
X199346140Y-71520214D01*
X199082805Y-71600096D01*
X198840113Y-71729817D01*
X198627392Y-71904393D01*
X198452817Y-72117114D01*
X198350000Y-72309471D01*
X198247183Y-72117113D01*
X198072607Y-71904392D01*
X197859886Y-71729817D01*
X197617194Y-71600096D01*
X197353859Y-71520214D01*
X197080000Y-71493241D01*
X196806140Y-71520214D01*
X196542805Y-71600096D01*
X196300113Y-71729817D01*
X196087392Y-71904393D01*
X195912817Y-72117114D01*
X195810000Y-72309471D01*
X195707183Y-72117113D01*
X195532607Y-71904392D01*
X195510000Y-71885839D01*
X195510000Y-69314801D01*
X196813799Y-68011003D01*
X196813803Y-68010998D01*
X196814801Y-68010000D01*
X197435199Y-68010000D01*
X203990000Y-74564802D01*
X203990000Y-74564802D01*
G37*
X203990000Y-74564802D02*
X203990001Y-99935197D01*
X202435199Y-101490000D01*
X200250675Y-101490000D01*
X200107887Y-101372817D01*
X199915529Y-101270000D01*
X200107887Y-101167183D01*
X200320608Y-100992608D01*
X200495183Y-100779887D01*
X200624904Y-100537195D01*
X200704786Y-100273860D01*
X200731759Y-100000000D01*
X200704786Y-99726140D01*
X200624904Y-99462805D01*
X200495183Y-99220113D01*
X200320608Y-99007392D01*
X200107887Y-98832817D01*
X199915529Y-98730000D01*
X200024766Y-98671612D01*
X200982637Y-98671612D01*
X201038388Y-98677103D01*
X201094139Y-98671612D01*
X201094140Y-98671612D01*
X201260887Y-98655189D01*
X201474835Y-98590288D01*
X201672011Y-98484896D01*
X201844837Y-98343061D01*
X201880384Y-98299747D01*
X202106998Y-98073133D01*
X202232275Y-98006171D01*
X202362115Y-97899615D01*
X202468671Y-97769775D01*
X202547850Y-97621642D01*
X202596608Y-97460908D01*
X202609878Y-97326174D01*
X202618577Y-97297499D01*
X202640491Y-97075000D01*
X202618577Y-96852502D01*
X202609879Y-96823827D01*
X202596608Y-96689092D01*
X202547850Y-96528358D01*
X202468671Y-96380225D01*
X202450900Y-96358570D01*
X202505537Y-96291994D01*
X202564502Y-96181680D01*
X202600812Y-96061982D01*
X202613072Y-95937500D01*
X202610000Y-95785750D01*
X202451250Y-95627000D01*
X201627000Y-95627000D01*
X201627000Y-95647000D01*
X201373000Y-95647000D01*
X201373000Y-95627000D01*
X201353000Y-95627000D01*
X201353000Y-95373000D01*
X201373000Y-95373000D01*
X201373000Y-94586250D01*
X201627000Y-94586250D01*
X201627000Y-95373000D01*
X202451250Y-95373000D01*
X202610000Y-95214250D01*
X202613072Y-95062500D01*
X202600812Y-94938018D01*
X202564502Y-94818320D01*
X202505537Y-94708006D01*
X202426185Y-94611315D01*
X202329494Y-94531963D01*
X202219180Y-94472998D01*
X202099482Y-94436688D01*
X201975000Y-94424428D01*
X201785750Y-94427500D01*
X201627000Y-94586250D01*
X201373000Y-94586250D01*
X201214250Y-94427500D01*
X201025000Y-94424428D01*
X200900518Y-94436688D01*
X200780820Y-94472998D01*
X200672898Y-94530684D01*
X200667262Y-94502724D01*
X200560122Y-94249465D01*
X200405632Y-94021974D01*
X200209729Y-93828994D01*
X199979942Y-93677941D01*
X199913587Y-93651038D01*
X200107887Y-93547183D01*
X200320608Y-93372608D01*
X200495183Y-93159887D01*
X200624904Y-92917195D01*
X200704786Y-92653860D01*
X200731759Y-92380000D01*
X200704786Y-92106140D01*
X200624904Y-91842805D01*
X200495183Y-91600113D01*
X200320608Y-91387392D01*
X200107887Y-91212817D01*
X199865195Y-91083096D01*
X199601860Y-91003214D01*
X199396625Y-90983000D01*
X198283375Y-90983000D01*
X198078140Y-91003214D01*
X197814805Y-91083096D01*
X197572113Y-91212817D01*
X197359392Y-91387392D01*
X197184817Y-91600113D01*
X197055096Y-91842805D01*
X196975214Y-92106140D01*
X196948241Y-92380000D01*
X196975214Y-92653860D01*
X197055096Y-92917195D01*
X197184817Y-93159887D01*
X197359392Y-93372608D01*
X197572113Y-93547183D01*
X197766413Y-93651038D01*
X197700058Y-93677941D01*
X197470271Y-93828994D01*
X197274368Y-94021974D01*
X197119878Y-94249465D01*
X197012738Y-94502724D01*
X196997780Y-94576930D01*
X197120280Y-94793000D01*
X198713000Y-94793000D01*
X198713000Y-94773000D01*
X198967000Y-94773000D01*
X198967000Y-94793000D01*
X198987000Y-94793000D01*
X198987000Y-95047000D01*
X198967000Y-95047000D01*
X198967000Y-95067000D01*
X198713000Y-95067000D01*
X198713000Y-95047000D01*
X197120280Y-95047000D01*
X196997780Y-95263070D01*
X197012738Y-95337276D01*
X197119878Y-95590535D01*
X197274368Y-95818026D01*
X197470271Y-96011006D01*
X197700058Y-96162059D01*
X197766413Y-96188962D01*
X197572113Y-96292817D01*
X197359392Y-96467392D01*
X197184817Y-96680113D01*
X197055096Y-96922805D01*
X196975214Y-97186140D01*
X196948241Y-97460000D01*
X196975214Y-97733860D01*
X197055096Y-97997195D01*
X197184817Y-98239887D01*
X197359392Y-98452608D01*
X197572113Y-98627183D01*
X197764471Y-98730000D01*
X197572113Y-98832817D01*
X197359392Y-99007392D01*
X197184817Y-99220113D01*
X197055096Y-99462805D01*
X196975214Y-99726140D01*
X196948241Y-100000000D01*
X196975214Y-100273860D01*
X197055096Y-100537195D01*
X197184817Y-100779887D01*
X197359392Y-100992608D01*
X197572113Y-101167183D01*
X197764471Y-101270000D01*
X197572113Y-101372817D01*
X197359392Y-101547392D01*
X197184817Y-101760113D01*
X197055096Y-102002805D01*
X196975214Y-102266140D01*
X196948241Y-102540000D01*
X196975214Y-102813860D01*
X197055096Y-103077195D01*
X197184817Y-103319887D01*
X197359392Y-103532608D01*
X197572113Y-103707183D01*
X197764471Y-103810000D01*
X197572113Y-103912817D01*
X197359392Y-104087392D01*
X197184817Y-104300113D01*
X197055096Y-104542805D01*
X196975214Y-104806140D01*
X196948241Y-105080000D01*
X196975214Y-105353860D01*
X196981760Y-105375438D01*
X195065000Y-107292198D01*
X195065000Y-107180343D01*
X194992561Y-106816165D01*
X194850466Y-106473117D01*
X194644175Y-106164381D01*
X194381618Y-105901824D01*
X194072882Y-105695533D01*
X193729834Y-105553438D01*
X193365656Y-105480999D01*
X192994344Y-105480999D01*
X192630166Y-105553438D01*
X192287118Y-105695533D01*
X191978382Y-105901824D01*
X191715825Y-106164381D01*
X191509534Y-106473117D01*
X191367439Y-106816165D01*
X191295000Y-107180343D01*
X191295000Y-107551655D01*
X191367439Y-107915833D01*
X191509534Y-108258881D01*
X191715825Y-108567617D01*
X191978382Y-108830174D01*
X192287118Y-109036465D01*
X192630166Y-109178560D01*
X192994344Y-109250999D01*
X193106199Y-109250999D01*
X179437209Y-122919990D01*
X136887067Y-122919990D01*
X137038574Y-122889853D01*
X137299727Y-122781680D01*
X137534759Y-122624637D01*
X137734637Y-122424759D01*
X137891680Y-122189727D01*
X137999853Y-121928574D01*
X138055000Y-121651335D01*
X138055000Y-121368665D01*
X137999853Y-121091426D01*
X137891680Y-120830273D01*
X137734637Y-120595241D01*
X137534759Y-120395363D01*
X137302241Y-120240000D01*
X137534759Y-120084637D01*
X137734637Y-119884759D01*
X137817998Y-119760000D01*
X167237678Y-119760000D01*
X167275000Y-119763676D01*
X167312322Y-119760000D01*
X167312333Y-119760000D01*
X167423986Y-119749003D01*
X167567247Y-119705546D01*
X167699276Y-119634974D01*
X167815001Y-119540001D01*
X167838804Y-119510997D01*
X171848726Y-115501076D01*
X172000000Y-115515975D01*
X172242102Y-115492130D01*
X172474901Y-115421511D01*
X172689449Y-115306833D01*
X172877502Y-115152502D01*
X173000481Y-115002652D01*
X173043693Y-115066725D01*
X173216526Y-115238078D01*
X173419467Y-115372421D01*
X173644718Y-115464591D01*
X173682391Y-115468462D01*
X173873000Y-115343731D01*
X173873000Y-114127000D01*
X173853000Y-114127000D01*
X173853000Y-113873000D01*
X173873000Y-113873000D01*
X173873000Y-112656269D01*
X174127000Y-112656269D01*
X174127000Y-113873000D01*
X174147000Y-113873000D01*
X174147000Y-114127000D01*
X174127000Y-114127000D01*
X174127000Y-115343731D01*
X174317609Y-115468462D01*
X174355282Y-115464591D01*
X174580533Y-115372421D01*
X174783474Y-115238078D01*
X174956307Y-115066725D01*
X174999520Y-115002651D01*
X175122499Y-115152502D01*
X175310552Y-115306833D01*
X175525100Y-115421511D01*
X175757899Y-115492130D01*
X176000000Y-115515975D01*
X176242102Y-115492130D01*
X176474901Y-115421511D01*
X176689449Y-115306833D01*
X176877502Y-115152502D01*
X177000001Y-115003237D01*
X177122499Y-115152502D01*
X177310552Y-115306833D01*
X177525100Y-115421511D01*
X177757899Y-115492130D01*
X178000000Y-115515975D01*
X178242102Y-115492130D01*
X178474901Y-115421511D01*
X178689449Y-115306833D01*
X178877502Y-115152502D01*
X179031833Y-114964449D01*
X179146511Y-114749900D01*
X179217130Y-114517101D01*
X179235000Y-114335664D01*
X179235000Y-113664335D01*
X179217130Y-113482898D01*
X179146511Y-113250099D01*
X179031833Y-113035551D01*
X178877502Y-112847498D01*
X178689448Y-112693167D01*
X178474900Y-112578489D01*
X178242101Y-112507870D01*
X178000000Y-112484025D01*
X177757898Y-112507870D01*
X177525099Y-112578489D01*
X177310551Y-112693167D01*
X177122498Y-112847498D01*
X177000000Y-112996763D01*
X176877502Y-112847498D01*
X176689448Y-112693167D01*
X176474900Y-112578489D01*
X176242101Y-112507870D01*
X176000000Y-112484025D01*
X175757898Y-112507870D01*
X175525099Y-112578489D01*
X175310551Y-112693167D01*
X175122498Y-112847498D01*
X174999519Y-112997349D01*
X174956307Y-112933275D01*
X174783474Y-112761922D01*
X174580533Y-112627579D01*
X174355282Y-112535409D01*
X174317609Y-112531538D01*
X174127000Y-112656269D01*
X173873000Y-112656269D01*
X173682391Y-112531538D01*
X173644718Y-112535409D01*
X173419467Y-112627579D01*
X173216526Y-112761922D01*
X173043693Y-112933275D01*
X173000481Y-112997348D01*
X172877502Y-112847498D01*
X172689448Y-112693167D01*
X172474900Y-112578489D01*
X172242101Y-112507870D01*
X172000000Y-112484025D01*
X171757898Y-112507870D01*
X171525099Y-112578489D01*
X171310551Y-112693167D01*
X171122498Y-112847498D01*
X171000000Y-112996763D01*
X170877502Y-112847498D01*
X170689448Y-112693167D01*
X170474900Y-112578489D01*
X170242101Y-112507870D01*
X170000000Y-112484025D01*
X169757898Y-112507870D01*
X169525099Y-112578489D01*
X169310551Y-112693167D01*
X169122498Y-112847498D01*
X169090809Y-112886111D01*
X169088405Y-112881613D01*
X168977962Y-112747038D01*
X168843387Y-112636595D01*
X168689851Y-112554528D01*
X168523255Y-112503992D01*
X168350001Y-112486928D01*
X167649999Y-112486928D01*
X167476745Y-112503992D01*
X167310149Y-112554528D01*
X167156613Y-112636595D01*
X167022038Y-112747038D01*
X166911595Y-112881613D01*
X166829528Y-113035149D01*
X166778992Y-113201745D01*
X166761928Y-113374999D01*
X166761928Y-114625001D01*
X166778992Y-114798255D01*
X166829528Y-114964851D01*
X166911595Y-115118387D01*
X167022038Y-115252962D01*
X167156613Y-115363405D01*
X167310149Y-115445472D01*
X167476745Y-115496008D01*
X167649999Y-115513072D01*
X167687127Y-115513072D01*
X167530199Y-115670000D01*
X158654801Y-115670000D01*
X166350121Y-107974681D01*
X166362738Y-108037276D01*
X166469878Y-108290535D01*
X166624368Y-108518026D01*
X166820271Y-108711006D01*
X167050058Y-108862059D01*
X167304899Y-108965381D01*
X167575000Y-109017000D01*
X168063000Y-109017000D01*
X168063000Y-107747000D01*
X168317000Y-107747000D01*
X168317000Y-109017000D01*
X168805000Y-109017000D01*
X169075101Y-108965381D01*
X169329942Y-108862059D01*
X169559729Y-108711006D01*
X169755632Y-108518026D01*
X169910122Y-108290535D01*
X170017262Y-108037276D01*
X170032220Y-107963070D01*
X169909720Y-107747000D01*
X168317000Y-107747000D01*
X168063000Y-107747000D01*
X168043000Y-107747000D01*
X168043000Y-107493000D01*
X168063000Y-107493000D01*
X168063000Y-107473000D01*
X168317000Y-107473000D01*
X168317000Y-107493000D01*
X169909720Y-107493000D01*
X170032220Y-107276930D01*
X170017262Y-107202724D01*
X169910122Y-106949465D01*
X169755632Y-106721974D01*
X169559729Y-106528994D01*
X169329942Y-106377941D01*
X169263587Y-106351038D01*
X169457887Y-106247183D01*
X169670608Y-106072608D01*
X169845183Y-105859887D01*
X169974904Y-105617195D01*
X170054786Y-105353860D01*
X170081759Y-105080000D01*
X170054786Y-104806140D01*
X169974904Y-104542805D01*
X169845183Y-104300113D01*
X169670608Y-104087392D01*
X169457887Y-103912817D01*
X169265529Y-103810000D01*
X169457887Y-103707183D01*
X169670608Y-103532608D01*
X169845183Y-103319887D01*
X169974904Y-103077195D01*
X170054786Y-102813860D01*
X170081759Y-102540000D01*
X170054786Y-102266140D01*
X169974904Y-102002805D01*
X169845183Y-101760113D01*
X169670608Y-101547392D01*
X169457887Y-101372817D01*
X169265529Y-101270000D01*
X169457887Y-101167183D01*
X169670608Y-100992608D01*
X169845183Y-100779887D01*
X169974904Y-100537195D01*
X170054786Y-100273860D01*
X170081759Y-100000000D01*
X170054786Y-99726140D01*
X169974904Y-99462805D01*
X169845183Y-99220113D01*
X169670608Y-99007392D01*
X169457887Y-98832817D01*
X169265529Y-98730000D01*
X169457887Y-98627183D01*
X169670608Y-98452608D01*
X169845183Y-98239887D01*
X169974904Y-97997195D01*
X170054786Y-97733860D01*
X170081759Y-97460000D01*
X170054786Y-97186140D01*
X169974904Y-96922805D01*
X169845183Y-96680113D01*
X169670608Y-96467392D01*
X169457887Y-96292817D01*
X169263587Y-96188962D01*
X169329942Y-96162059D01*
X169559729Y-96011006D01*
X169755632Y-95818026D01*
X169910122Y-95590535D01*
X170017262Y-95337276D01*
X170032220Y-95263070D01*
X169909720Y-95047000D01*
X168317000Y-95047000D01*
X168317000Y-95067000D01*
X168063000Y-95067000D01*
X168063000Y-95047000D01*
X168043000Y-95047000D01*
X168043000Y-94793000D01*
X168063000Y-94793000D01*
X168063000Y-94773000D01*
X168317000Y-94773000D01*
X168317000Y-94793000D01*
X169909720Y-94793000D01*
X170032220Y-94576930D01*
X170017262Y-94502724D01*
X169910122Y-94249465D01*
X169755632Y-94021974D01*
X169559729Y-93828994D01*
X169329942Y-93677941D01*
X169263587Y-93651038D01*
X169457887Y-93547183D01*
X169670608Y-93372608D01*
X169845183Y-93159887D01*
X169974904Y-92917195D01*
X170054786Y-92653860D01*
X170081759Y-92380000D01*
X173838241Y-92380000D01*
X173865214Y-92653860D01*
X173945096Y-92917195D01*
X174074817Y-93159887D01*
X174249392Y-93372608D01*
X174462113Y-93547183D01*
X174694471Y-93671380D01*
X174542113Y-93752817D01*
X174329392Y-93927392D01*
X174154817Y-94140113D01*
X174025096Y-94382805D01*
X173945214Y-94646140D01*
X173918241Y-94920000D01*
X173945214Y-95193860D01*
X174025096Y-95457195D01*
X174154817Y-95699887D01*
X174329392Y-95912608D01*
X174542113Y-96087183D01*
X174734471Y-96190000D01*
X174542113Y-96292817D01*
X174329392Y-96467392D01*
X174154817Y-96680113D01*
X174025096Y-96922805D01*
X173945214Y-97186140D01*
X173918241Y-97460000D01*
X173945214Y-97733860D01*
X174025096Y-97997195D01*
X174154817Y-98239887D01*
X174329392Y-98452608D01*
X174542113Y-98627183D01*
X174734471Y-98730000D01*
X174542113Y-98832817D01*
X174329392Y-99007392D01*
X174154817Y-99220113D01*
X174025096Y-99462805D01*
X173945214Y-99726140D01*
X173918241Y-100000000D01*
X173945214Y-100273860D01*
X174025096Y-100537195D01*
X174154817Y-100779887D01*
X174329392Y-100992608D01*
X174542113Y-101167183D01*
X174734471Y-101270000D01*
X174542113Y-101372817D01*
X174329392Y-101547392D01*
X174154817Y-101760113D01*
X174025096Y-102002805D01*
X173945214Y-102266140D01*
X173918241Y-102540000D01*
X173945214Y-102813860D01*
X174025096Y-103077195D01*
X174154817Y-103319887D01*
X174329392Y-103532608D01*
X174542113Y-103707183D01*
X174734471Y-103810000D01*
X174542113Y-103912817D01*
X174329392Y-104087392D01*
X174154817Y-104300113D01*
X174025096Y-104542805D01*
X173945214Y-104806140D01*
X173918241Y-105080000D01*
X173945214Y-105353860D01*
X174025096Y-105617195D01*
X174154817Y-105859887D01*
X174329392Y-106072608D01*
X174542113Y-106247183D01*
X174734471Y-106350000D01*
X174542113Y-106452817D01*
X174329392Y-106627392D01*
X174154817Y-106840113D01*
X174025096Y-107082805D01*
X173945214Y-107346140D01*
X173918241Y-107620000D01*
X173945214Y-107893860D01*
X174025096Y-108157195D01*
X174154817Y-108399887D01*
X174329392Y-108612608D01*
X174542113Y-108787183D01*
X174784805Y-108916904D01*
X175048140Y-108996786D01*
X175253375Y-109017000D01*
X176366625Y-109017000D01*
X176571860Y-108996786D01*
X176835195Y-108916904D01*
X177077887Y-108787183D01*
X177290608Y-108612608D01*
X177465183Y-108399887D01*
X177594904Y-108157195D01*
X177674786Y-107893860D01*
X177701759Y-107620000D01*
X177674786Y-107346140D01*
X177594904Y-107082805D01*
X177465183Y-106840113D01*
X177290608Y-106627392D01*
X177077887Y-106452817D01*
X176885529Y-106350000D01*
X177077887Y-106247183D01*
X177290608Y-106072608D01*
X177465183Y-105859887D01*
X177594904Y-105617195D01*
X177674786Y-105353860D01*
X177701759Y-105080000D01*
X177674786Y-104806140D01*
X177594904Y-104542805D01*
X177465183Y-104300113D01*
X177290608Y-104087392D01*
X177077887Y-103912817D01*
X176885529Y-103810000D01*
X177077887Y-103707183D01*
X177290608Y-103532608D01*
X177465183Y-103319887D01*
X177594904Y-103077195D01*
X177674786Y-102813860D01*
X177701759Y-102540000D01*
X177674786Y-102266140D01*
X177594904Y-102002805D01*
X177465183Y-101760113D01*
X177290608Y-101547392D01*
X177077887Y-101372817D01*
X176885529Y-101270000D01*
X177077887Y-101167183D01*
X177290608Y-100992608D01*
X177465183Y-100779887D01*
X177594904Y-100537195D01*
X177674786Y-100273860D01*
X177701759Y-100000000D01*
X177683474Y-99814344D01*
X179865000Y-99814344D01*
X179865000Y-100185656D01*
X179937439Y-100549834D01*
X180079534Y-100892882D01*
X180285825Y-101201618D01*
X180548382Y-101464175D01*
X180857118Y-101670466D01*
X181200166Y-101812561D01*
X181564344Y-101885000D01*
X181935656Y-101885000D01*
X182299834Y-101812561D01*
X182642882Y-101670466D01*
X182951618Y-101464175D01*
X183214175Y-101201618D01*
X183420466Y-100892882D01*
X183562561Y-100549834D01*
X183635000Y-100185656D01*
X183635000Y-99814344D01*
X183562561Y-99450166D01*
X183420466Y-99107118D01*
X183214175Y-98798382D01*
X182951618Y-98535825D01*
X182642882Y-98329534D01*
X182299834Y-98187439D01*
X181935656Y-98115000D01*
X181564344Y-98115000D01*
X181200166Y-98187439D01*
X180857118Y-98329534D01*
X180548382Y-98535825D01*
X180285825Y-98798382D01*
X180079534Y-99107118D01*
X179937439Y-99450166D01*
X179865000Y-99814344D01*
X177683474Y-99814344D01*
X177674786Y-99726140D01*
X177594904Y-99462805D01*
X177465183Y-99220113D01*
X177290608Y-99007392D01*
X177077887Y-98832817D01*
X176885529Y-98730000D01*
X177077887Y-98627183D01*
X177290608Y-98452608D01*
X177465183Y-98239887D01*
X177594904Y-97997195D01*
X177674786Y-97733860D01*
X177701759Y-97460000D01*
X177674786Y-97186140D01*
X177594904Y-96922805D01*
X177465183Y-96680113D01*
X177290608Y-96467392D01*
X177077887Y-96292817D01*
X176885529Y-96190000D01*
X177077887Y-96087183D01*
X177290608Y-95912608D01*
X177465183Y-95699887D01*
X177594904Y-95457195D01*
X177674786Y-95193860D01*
X177701759Y-94920000D01*
X177674786Y-94646140D01*
X177594904Y-94382805D01*
X177465183Y-94140113D01*
X177290608Y-93927392D01*
X177077887Y-93752817D01*
X176845529Y-93628620D01*
X176997887Y-93547183D01*
X177210608Y-93372608D01*
X177385183Y-93159887D01*
X177514904Y-92917195D01*
X177594786Y-92653860D01*
X177615027Y-92448345D01*
X191295000Y-92448345D01*
X191295000Y-92819657D01*
X191367439Y-93183835D01*
X191509534Y-93526883D01*
X191715825Y-93835619D01*
X191978382Y-94098176D01*
X192287118Y-94304467D01*
X192630166Y-94446562D01*
X192994344Y-94519001D01*
X193365656Y-94519001D01*
X193729834Y-94446562D01*
X194072882Y-94304467D01*
X194381618Y-94098176D01*
X194644175Y-93835619D01*
X194850466Y-93526883D01*
X194992561Y-93183835D01*
X195065000Y-92819657D01*
X195065000Y-92448345D01*
X194992561Y-92084167D01*
X194850466Y-91741119D01*
X194644175Y-91432383D01*
X194381618Y-91169826D01*
X194072882Y-90963535D01*
X193729834Y-90821440D01*
X193365656Y-90749001D01*
X192994344Y-90749001D01*
X192630166Y-90821440D01*
X192287118Y-90963535D01*
X191978382Y-91169826D01*
X191715825Y-91432383D01*
X191509534Y-91741119D01*
X191367439Y-92084167D01*
X191295000Y-92448345D01*
X177615027Y-92448345D01*
X177621759Y-92380000D01*
X177594786Y-92106140D01*
X177514904Y-91842805D01*
X177385183Y-91600113D01*
X177210608Y-91387392D01*
X176997887Y-91212817D01*
X176755195Y-91083096D01*
X176491860Y-91003214D01*
X176286625Y-90983000D01*
X175173375Y-90983000D01*
X174968140Y-91003214D01*
X174704805Y-91083096D01*
X174462113Y-91212817D01*
X174249392Y-91387392D01*
X174074817Y-91600113D01*
X173945096Y-91842805D01*
X173865214Y-92106140D01*
X173838241Y-92380000D01*
X170081759Y-92380000D01*
X170054786Y-92106140D01*
X169974904Y-91842805D01*
X169845183Y-91600113D01*
X169670608Y-91387392D01*
X169457887Y-91212817D01*
X169215195Y-91083096D01*
X168951860Y-91003214D01*
X168746625Y-90983000D01*
X167633375Y-90983000D01*
X167428140Y-91003214D01*
X167164805Y-91083096D01*
X166922113Y-91212817D01*
X166736677Y-91365000D01*
X166055752Y-91365000D01*
X166000000Y-91359509D01*
X165944248Y-91365000D01*
X165777501Y-91381423D01*
X165563553Y-91446324D01*
X165366377Y-91551716D01*
X165193551Y-91693551D01*
X165158004Y-91736865D01*
X164893002Y-92001867D01*
X164767725Y-92068829D01*
X164637885Y-92175385D01*
X164531329Y-92305225D01*
X164452150Y-92453358D01*
X164403392Y-92614092D01*
X164390121Y-92748827D01*
X164381423Y-92777502D01*
X164359509Y-93000000D01*
X164381423Y-93222498D01*
X164390121Y-93251173D01*
X164403392Y-93385908D01*
X164452150Y-93546642D01*
X164531329Y-93694775D01*
X164549100Y-93716430D01*
X164494463Y-93783006D01*
X164435498Y-93893320D01*
X164399188Y-94013018D01*
X164386928Y-94137500D01*
X164390000Y-94289250D01*
X164548750Y-94448000D01*
X165373000Y-94448000D01*
X165373000Y-94428000D01*
X165627000Y-94428000D01*
X165627000Y-94448000D01*
X165647000Y-94448000D01*
X165647000Y-94702000D01*
X165627000Y-94702000D01*
X165627000Y-95488750D01*
X165785750Y-95647500D01*
X165975000Y-95650572D01*
X166099482Y-95638312D01*
X166219180Y-95602002D01*
X166329494Y-95543037D01*
X166418784Y-95469759D01*
X166469878Y-95590535D01*
X166624368Y-95818026D01*
X166820271Y-96011006D01*
X167050058Y-96162059D01*
X167116413Y-96188962D01*
X166922113Y-96292817D01*
X166709392Y-96467392D01*
X166534817Y-96680113D01*
X166405096Y-96922805D01*
X166325214Y-97186140D01*
X166298241Y-97460000D01*
X166325214Y-97733860D01*
X166331760Y-97755438D01*
X157162200Y-106924999D01*
X137901923Y-106924999D01*
X137999853Y-106688574D01*
X138055000Y-106411335D01*
X138055000Y-106128665D01*
X137999853Y-105851426D01*
X137891680Y-105590273D01*
X137734637Y-105355241D01*
X137534759Y-105155363D01*
X137302241Y-105000000D01*
X137534759Y-104844637D01*
X137734637Y-104644759D01*
X137891680Y-104409727D01*
X137999853Y-104148574D01*
X138055000Y-103871335D01*
X138055000Y-103629802D01*
X139711221Y-105286023D01*
X139735019Y-105315021D01*
X139764017Y-105338819D01*
X139850743Y-105409994D01*
X139952836Y-105464564D01*
X139982773Y-105480566D01*
X140126034Y-105524023D01*
X140237687Y-105535020D01*
X140237696Y-105535020D01*
X140275019Y-105538696D01*
X140312342Y-105535020D01*
X154537658Y-105535020D01*
X154574980Y-105538696D01*
X154612302Y-105535020D01*
X154612313Y-105535020D01*
X154723966Y-105524023D01*
X154867227Y-105480566D01*
X154999256Y-105409994D01*
X155114981Y-105315021D01*
X155138784Y-105286017D01*
X155863737Y-104561064D01*
X156029485Y-104611343D01*
X156350000Y-104642911D01*
X156670516Y-104611343D01*
X156978715Y-104517852D01*
X157262752Y-104366031D01*
X157511714Y-104161714D01*
X157716031Y-103912752D01*
X157867852Y-103628715D01*
X157961343Y-103320516D01*
X157985000Y-103080322D01*
X157985000Y-101919678D01*
X157961343Y-101679484D01*
X157867852Y-101371285D01*
X157716031Y-101087248D01*
X157511714Y-100838286D01*
X157262751Y-100633969D01*
X156978714Y-100482148D01*
X156670515Y-100388657D01*
X156350000Y-100357089D01*
X156029484Y-100388657D01*
X155721285Y-100482148D01*
X155437248Y-100633969D01*
X155188286Y-100838286D01*
X155080000Y-100970234D01*
X154971714Y-100838286D01*
X154722751Y-100633969D01*
X154438714Y-100482148D01*
X154130515Y-100388657D01*
X153810000Y-100357089D01*
X153489484Y-100388657D01*
X153181285Y-100482148D01*
X152897248Y-100633969D01*
X152648286Y-100838286D01*
X152540000Y-100970234D01*
X152431714Y-100838286D01*
X152182751Y-100633969D01*
X151898714Y-100482148D01*
X151590515Y-100388657D01*
X151270000Y-100357089D01*
X150949484Y-100388657D01*
X150641285Y-100482148D01*
X150357248Y-100633969D01*
X150332735Y-100654086D01*
X148092642Y-98413994D01*
X148068839Y-98384990D01*
X147953114Y-98290017D01*
X147821085Y-98219445D01*
X147677824Y-98175988D01*
X147566171Y-98164991D01*
X147566160Y-98164991D01*
X147528838Y-98161315D01*
X147491516Y-98164991D01*
X146089813Y-98164991D01*
X143669820Y-95744999D01*
X145420198Y-95744999D01*
X145639381Y-95964183D01*
X145635040Y-95978494D01*
X145615000Y-96181964D01*
X145615000Y-96818037D01*
X145635040Y-97021507D01*
X145714236Y-97282581D01*
X145842843Y-97523188D01*
X146015920Y-97734081D01*
X146226813Y-97907157D01*
X146467420Y-98035764D01*
X146728494Y-98114960D01*
X147000000Y-98141701D01*
X147271507Y-98114960D01*
X147532581Y-98035764D01*
X147773188Y-97907157D01*
X147984081Y-97734081D01*
X148000000Y-97714683D01*
X148015920Y-97734081D01*
X148226813Y-97907157D01*
X148467420Y-98035764D01*
X148728494Y-98114960D01*
X149000000Y-98141701D01*
X149271507Y-98114960D01*
X149532581Y-98035764D01*
X149773188Y-97907157D01*
X149984081Y-97734081D01*
X150000000Y-97714683D01*
X150015920Y-97734081D01*
X150226813Y-97907157D01*
X150467420Y-98035764D01*
X150728494Y-98114960D01*
X151000000Y-98141701D01*
X151271507Y-98114960D01*
X151532581Y-98035764D01*
X151773188Y-97907157D01*
X151984081Y-97734081D01*
X152000000Y-97714683D01*
X152015920Y-97734081D01*
X152226813Y-97907157D01*
X152467420Y-98035764D01*
X152728494Y-98114960D01*
X153000000Y-98141701D01*
X153271507Y-98114960D01*
X153532581Y-98035764D01*
X153773188Y-97907157D01*
X153984081Y-97734081D01*
X154157157Y-97523188D01*
X154285764Y-97282580D01*
X154364960Y-97021506D01*
X154385000Y-96818036D01*
X154385000Y-96181963D01*
X154364960Y-95978493D01*
X154285764Y-95717419D01*
X154157157Y-95476812D01*
X153984080Y-95265919D01*
X153773187Y-95092843D01*
X153622876Y-95012500D01*
X164386928Y-95012500D01*
X164399188Y-95136982D01*
X164435498Y-95256680D01*
X164494463Y-95366994D01*
X164573815Y-95463685D01*
X164670506Y-95543037D01*
X164780820Y-95602002D01*
X164900518Y-95638312D01*
X165025000Y-95650572D01*
X165214250Y-95647500D01*
X165373000Y-95488750D01*
X165373000Y-94702000D01*
X164548750Y-94702000D01*
X164390000Y-94860750D01*
X164386928Y-95012500D01*
X153622876Y-95012500D01*
X153532580Y-94964236D01*
X153271506Y-94885040D01*
X153000000Y-94858299D01*
X152728493Y-94885040D01*
X152714183Y-94889381D01*
X144678803Y-86854002D01*
X144655000Y-86824998D01*
X144539275Y-86730025D01*
X144407246Y-86659453D01*
X144263985Y-86615996D01*
X144152332Y-86604999D01*
X144152321Y-86604999D01*
X144114999Y-86601323D01*
X144077677Y-86604999D01*
X133988911Y-86604999D01*
X133951588Y-86601323D01*
X133914265Y-86604999D01*
X133914256Y-86604999D01*
X133802603Y-86615996D01*
X133659342Y-86659453D01*
X133527313Y-86730025D01*
X133411588Y-86824998D01*
X133387790Y-86853996D01*
X123715011Y-96526776D01*
X123715011Y-87109790D01*
X124814803Y-86010000D01*
X160185199Y-86010000D01*
X161886211Y-87711013D01*
X161910009Y-87740011D01*
X161995624Y-87810273D01*
X162025734Y-87834984D01*
X162157763Y-87905556D01*
X162301024Y-87949013D01*
X162450010Y-87963687D01*
X162487343Y-87960010D01*
X171037668Y-87960010D01*
X171074990Y-87963686D01*
X171112312Y-87960010D01*
X171112323Y-87960010D01*
X171223976Y-87949013D01*
X171367237Y-87905556D01*
X171499266Y-87834984D01*
X171614991Y-87740011D01*
X171638793Y-87711008D01*
X171848726Y-87501076D01*
X172000000Y-87515975D01*
X172242102Y-87492130D01*
X172474901Y-87421511D01*
X172689449Y-87306833D01*
X172877502Y-87152502D01*
X173000481Y-87002652D01*
X173043693Y-87066725D01*
X173216526Y-87238078D01*
X173419467Y-87372421D01*
X173644718Y-87464591D01*
X173682391Y-87468462D01*
X173873000Y-87343731D01*
X173873000Y-86127000D01*
X173853000Y-86127000D01*
X173853000Y-85873000D01*
X173873000Y-85873000D01*
X173873000Y-85853000D01*
X174127000Y-85853000D01*
X174127000Y-85873000D01*
X174147000Y-85873000D01*
X174147000Y-86127000D01*
X174127000Y-86127000D01*
X174127000Y-87343731D01*
X174317609Y-87468462D01*
X174355282Y-87464591D01*
X174580533Y-87372421D01*
X174783474Y-87238078D01*
X174956307Y-87066725D01*
X174999520Y-87002651D01*
X175122499Y-87152502D01*
X175310552Y-87306833D01*
X175525100Y-87421511D01*
X175757899Y-87492130D01*
X176000000Y-87515975D01*
X176242102Y-87492130D01*
X176474901Y-87421511D01*
X176689449Y-87306833D01*
X176877502Y-87152502D01*
X177000001Y-87003237D01*
X177122499Y-87152502D01*
X177310552Y-87306833D01*
X177525100Y-87421511D01*
X177757899Y-87492130D01*
X178000000Y-87515975D01*
X178242102Y-87492130D01*
X178474901Y-87421511D01*
X178689449Y-87306833D01*
X178877502Y-87152502D01*
X179031833Y-86964449D01*
X179146511Y-86749900D01*
X179217130Y-86517101D01*
X179235000Y-86335664D01*
X179235000Y-85664335D01*
X179217130Y-85482898D01*
X179146511Y-85250099D01*
X179031833Y-85035551D01*
X179010864Y-85010000D01*
X187677678Y-85010000D01*
X187715000Y-85013676D01*
X187752322Y-85010000D01*
X187752333Y-85010000D01*
X187863986Y-84999003D01*
X188007247Y-84955546D01*
X188139276Y-84884974D01*
X188255001Y-84790001D01*
X188278804Y-84760997D01*
X197591003Y-75448799D01*
X197620001Y-75425001D01*
X197674742Y-75358299D01*
X197714974Y-75309277D01*
X197785546Y-75177247D01*
X197798779Y-75133622D01*
X197820783Y-75061084D01*
X197859887Y-75040183D01*
X198072608Y-74865608D01*
X198247183Y-74652887D01*
X198350000Y-74460529D01*
X198452817Y-74652887D01*
X198627393Y-74865608D01*
X198840114Y-75040183D01*
X199082806Y-75169904D01*
X199346141Y-75249786D01*
X199620000Y-75276759D01*
X199893860Y-75249786D01*
X200157195Y-75169904D01*
X200399887Y-75040183D01*
X200612608Y-74865608D01*
X200787183Y-74652887D01*
X200916904Y-74410195D01*
X200996786Y-74146860D01*
X201017000Y-73941624D01*
X201017000Y-72828375D01*
X200996786Y-72623140D01*
X200916904Y-72359805D01*
X200787183Y-72117113D01*
X200612607Y-71904392D01*
X200399886Y-71729817D01*
X200157194Y-71600096D01*
X199893859Y-71520214D01*
X199620000Y-71493241D01*
X199346140Y-71520214D01*
X199082805Y-71600096D01*
X198840113Y-71729817D01*
X198627392Y-71904393D01*
X198452817Y-72117114D01*
X198350000Y-72309471D01*
X198247183Y-72117113D01*
X198072607Y-71904392D01*
X197859886Y-71729817D01*
X197617194Y-71600096D01*
X197353859Y-71520214D01*
X197080000Y-71493241D01*
X196806140Y-71520214D01*
X196542805Y-71600096D01*
X196300113Y-71729817D01*
X196087392Y-71904393D01*
X195912817Y-72117114D01*
X195810000Y-72309471D01*
X195707183Y-72117113D01*
X195532607Y-71904392D01*
X195510000Y-71885839D01*
X195510000Y-69314801D01*
X196813799Y-68011003D01*
X196813803Y-68010998D01*
X196814801Y-68010000D01*
X197435199Y-68010000D01*
X203990000Y-74564802D01*
G36*
X144570763Y-98795545D02*
G01*
X144536315Y-98823815D01*
X144456963Y-98920506D01*
X144397998Y-99030820D01*
X144361688Y-99150518D01*
X144349428Y-99275000D01*
X144352500Y-99464250D01*
X144511250Y-99623000D01*
X145298000Y-99623000D01*
X145298000Y-99603000D01*
X145409476Y-99603000D01*
X145507763Y-99655536D01*
X145572000Y-99675021D01*
X145572000Y-99877000D01*
X145552000Y-99877000D01*
X145552000Y-99897000D01*
X145298000Y-99897000D01*
X145298000Y-99877000D01*
X144511250Y-99877000D01*
X144352500Y-100035750D01*
X144349428Y-100225000D01*
X144361688Y-100349482D01*
X144397998Y-100469180D01*
X144451614Y-100569487D01*
X144158355Y-100440856D01*
X144030434Y-100409876D01*
X143777000Y-100529223D01*
X143777000Y-102373000D01*
X143797000Y-102373000D01*
X143797000Y-102627000D01*
X143777000Y-102627000D01*
X143777000Y-102647000D01*
X143523000Y-102647000D01*
X143523000Y-102627000D01*
X142015000Y-102627000D01*
X142015000Y-103127000D01*
X142028641Y-103203839D01*
X140697802Y-101873000D01*
X142015000Y-101873000D01*
X142015000Y-102373000D01*
X143523000Y-102373000D01*
X143523000Y-100529223D01*
X143269566Y-100409876D01*
X143141645Y-100440856D01*
X142847239Y-100569990D01*
X142583683Y-100754078D01*
X142361105Y-100986046D01*
X142188058Y-101256980D01*
X142071193Y-101556468D01*
X142015000Y-101873000D01*
X140697802Y-101873000D01*
X137968666Y-99143865D01*
X137999853Y-99068574D01*
X138055000Y-98791335D01*
X138055000Y-98508665D01*
X137999853Y-98231426D01*
X137891680Y-97970273D01*
X137734637Y-97735241D01*
X137534759Y-97535363D01*
X137302241Y-97380000D01*
X137534759Y-97224637D01*
X137734637Y-97024759D01*
X137891680Y-96789727D01*
X137903993Y-96760000D01*
X142535219Y-96760000D01*
X144570763Y-98795545D01*
X144570763Y-98795545D01*
G37*
X144570763Y-98795545D02*
X144536315Y-98823815D01*
X144456963Y-98920506D01*
X144397998Y-99030820D01*
X144361688Y-99150518D01*
X144349428Y-99275000D01*
X144352500Y-99464250D01*
X144511250Y-99623000D01*
X145298000Y-99623000D01*
X145298000Y-99603000D01*
X145409476Y-99603000D01*
X145507763Y-99655536D01*
X145572000Y-99675021D01*
X145572000Y-99877000D01*
X145552000Y-99877000D01*
X145552000Y-99897000D01*
X145298000Y-99897000D01*
X145298000Y-99877000D01*
X144511250Y-99877000D01*
X144352500Y-100035750D01*
X144349428Y-100225000D01*
X144361688Y-100349482D01*
X144397998Y-100469180D01*
X144451614Y-100569487D01*
X144158355Y-100440856D01*
X144030434Y-100409876D01*
X143777000Y-100529223D01*
X143777000Y-102373000D01*
X143797000Y-102373000D01*
X143797000Y-102627000D01*
X143777000Y-102627000D01*
X143777000Y-102647000D01*
X143523000Y-102647000D01*
X143523000Y-102627000D01*
X142015000Y-102627000D01*
X142015000Y-103127000D01*
X142028641Y-103203839D01*
X140697802Y-101873000D01*
X142015000Y-101873000D01*
X142015000Y-102373000D01*
X143523000Y-102373000D01*
X143523000Y-100529223D01*
X143269566Y-100409876D01*
X143141645Y-100440856D01*
X142847239Y-100569990D01*
X142583683Y-100754078D01*
X142361105Y-100986046D01*
X142188058Y-101256980D01*
X142071193Y-101556468D01*
X142015000Y-101873000D01*
X140697802Y-101873000D01*
X137968666Y-99143865D01*
X137999853Y-99068574D01*
X138055000Y-98791335D01*
X138055000Y-98508665D01*
X137999853Y-98231426D01*
X137891680Y-97970273D01*
X137734637Y-97735241D01*
X137534759Y-97535363D01*
X137302241Y-97380000D01*
X137534759Y-97224637D01*
X137734637Y-97024759D01*
X137891680Y-96789727D01*
X137903993Y-96760000D01*
X142535219Y-96760000D01*
X144570763Y-98795545D01*
G36*
X136936205Y-67761008D02*
G01*
X136959999Y-67790001D01*
X136988992Y-67813795D01*
X136988996Y-67813799D01*
X137059685Y-67871811D01*
X137075724Y-67884974D01*
X137207753Y-67955546D01*
X137351014Y-67999003D01*
X137462667Y-68010000D01*
X137462676Y-68010000D01*
X137499999Y-68013676D01*
X137537322Y-68010000D01*
X192685199Y-68010000D01*
X193990001Y-69314803D01*
X193990000Y-71606940D01*
X193760113Y-71729817D01*
X193547392Y-71904393D01*
X193372817Y-72117114D01*
X193270000Y-72309471D01*
X193167183Y-72117113D01*
X192992607Y-71904392D01*
X192779886Y-71729817D01*
X192537194Y-71600096D01*
X192273859Y-71520214D01*
X192000000Y-71493241D01*
X191726140Y-71520214D01*
X191462805Y-71600096D01*
X191220113Y-71729817D01*
X191007392Y-71904393D01*
X190832817Y-72117114D01*
X190730000Y-72309471D01*
X190635000Y-72131738D01*
X190635000Y-71305752D01*
X190640491Y-71250000D01*
X190618577Y-71027501D01*
X190553676Y-70813553D01*
X190502387Y-70717598D01*
X190448284Y-70616377D01*
X190306449Y-70443551D01*
X190263135Y-70408004D01*
X189998133Y-70143002D01*
X189931171Y-70017725D01*
X189824615Y-69887885D01*
X189694775Y-69781329D01*
X189546642Y-69702150D01*
X189385908Y-69653392D01*
X189251173Y-69640121D01*
X189222498Y-69631423D01*
X189000000Y-69609509D01*
X188777502Y-69631423D01*
X188748827Y-69640121D01*
X188614092Y-69653392D01*
X188453358Y-69702150D01*
X188305225Y-69781329D01*
X188283570Y-69799100D01*
X188216994Y-69744463D01*
X188106680Y-69685498D01*
X187986982Y-69649188D01*
X187862500Y-69636928D01*
X187710750Y-69640000D01*
X187552000Y-69798750D01*
X187552000Y-70623000D01*
X187572000Y-70623000D01*
X187572000Y-70877000D01*
X187552000Y-70877000D01*
X187552000Y-70897000D01*
X187298000Y-70897000D01*
X187298000Y-70877000D01*
X186511250Y-70877000D01*
X186352500Y-71035750D01*
X186349428Y-71225000D01*
X186361688Y-71349482D01*
X186397998Y-71469180D01*
X186455918Y-71577539D01*
X186249465Y-71664878D01*
X186021974Y-71819368D01*
X185828994Y-72015271D01*
X185677941Y-72245058D01*
X185651038Y-72311413D01*
X185547183Y-72117113D01*
X185372607Y-71904392D01*
X185159886Y-71729817D01*
X184917194Y-71600096D01*
X184653859Y-71520214D01*
X184380000Y-71493241D01*
X184106140Y-71520214D01*
X183842805Y-71600096D01*
X183600113Y-71729817D01*
X183387392Y-71904393D01*
X183212817Y-72117114D01*
X183083096Y-72359806D01*
X183003214Y-72623141D01*
X182983000Y-72828376D01*
X182983000Y-73941625D01*
X183003214Y-74146860D01*
X183083096Y-74410195D01*
X183212817Y-74652887D01*
X183387393Y-74865608D01*
X183600114Y-75040183D01*
X183842806Y-75169904D01*
X184106141Y-75249786D01*
X184380000Y-75276759D01*
X184653860Y-75249786D01*
X184917195Y-75169904D01*
X185159887Y-75040183D01*
X185372608Y-74865608D01*
X185547183Y-74652887D01*
X185651038Y-74458587D01*
X185677941Y-74524942D01*
X185828994Y-74754729D01*
X186021974Y-74950632D01*
X186249465Y-75105122D01*
X186502724Y-75212262D01*
X186576930Y-75227220D01*
X186793000Y-75104720D01*
X186793000Y-73512000D01*
X186773000Y-73512000D01*
X186773000Y-73258000D01*
X186793000Y-73258000D01*
X186793000Y-73238000D01*
X187047000Y-73238000D01*
X187047000Y-73258000D01*
X187067000Y-73258000D01*
X187067000Y-73512000D01*
X187047000Y-73512000D01*
X187047000Y-75104720D01*
X187263070Y-75227220D01*
X187337276Y-75212262D01*
X187590535Y-75105122D01*
X187818026Y-74950632D01*
X188011006Y-74754729D01*
X188162059Y-74524942D01*
X188188962Y-74458587D01*
X188292817Y-74652887D01*
X188467393Y-74865608D01*
X188680114Y-75040183D01*
X188922806Y-75169904D01*
X189186141Y-75249786D01*
X189460000Y-75276759D01*
X189733860Y-75249786D01*
X189997195Y-75169904D01*
X190239887Y-75040183D01*
X190452608Y-74865608D01*
X190627183Y-74652887D01*
X190730000Y-74460529D01*
X190832817Y-74652887D01*
X191007393Y-74865608D01*
X191220114Y-75040183D01*
X191462806Y-75169904D01*
X191726141Y-75249786D01*
X192000000Y-75276759D01*
X192273860Y-75249786D01*
X192537195Y-75169904D01*
X192779887Y-75040183D01*
X192992608Y-74865608D01*
X193167183Y-74652887D01*
X193270000Y-74460529D01*
X193372817Y-74652887D01*
X193547393Y-74865608D01*
X193760114Y-75040183D01*
X194002806Y-75169904D01*
X194266141Y-75249786D01*
X194540000Y-75276759D01*
X194813860Y-75249786D01*
X195077195Y-75169904D01*
X195319887Y-75040183D01*
X195532608Y-74865608D01*
X195707183Y-74652887D01*
X195810000Y-74460529D01*
X195912817Y-74652887D01*
X196059084Y-74831114D01*
X187400199Y-83490000D01*
X116659000Y-83490000D01*
X116659000Y-83353195D01*
X116605622Y-83084844D01*
X116500916Y-82832062D01*
X116348907Y-82604564D01*
X116155436Y-82411093D01*
X115927938Y-82259084D01*
X115833581Y-82220000D01*
X115927938Y-82180916D01*
X116155436Y-82028907D01*
X116348907Y-81835436D01*
X116500916Y-81607938D01*
X116605622Y-81355156D01*
X116659000Y-81086805D01*
X116659000Y-80813195D01*
X116605622Y-80544844D01*
X116500916Y-80292062D01*
X116348907Y-80064564D01*
X116155436Y-79871093D01*
X115927938Y-79719084D01*
X115833581Y-79680000D01*
X115927938Y-79640916D01*
X116155436Y-79488907D01*
X116348907Y-79295436D01*
X116500916Y-79067938D01*
X116605622Y-78815156D01*
X116659000Y-78546805D01*
X116659000Y-78273195D01*
X116605622Y-78004844D01*
X116500916Y-77752062D01*
X116348907Y-77524564D01*
X116155436Y-77331093D01*
X115927938Y-77179084D01*
X115833581Y-77140000D01*
X115927938Y-77100916D01*
X116155436Y-76948907D01*
X116348907Y-76755436D01*
X116397999Y-76681963D01*
X121615000Y-76681963D01*
X121615000Y-77318036D01*
X121635040Y-77521506D01*
X121714236Y-77782580D01*
X121842843Y-78023187D01*
X122015919Y-78234080D01*
X122226812Y-78407157D01*
X122467419Y-78535764D01*
X122728493Y-78614960D01*
X123000000Y-78641701D01*
X123271506Y-78614960D01*
X123532580Y-78535764D01*
X123773187Y-78407157D01*
X123984080Y-78234081D01*
X124157157Y-78023188D01*
X124250000Y-77849490D01*
X124342843Y-78023187D01*
X124515919Y-78234080D01*
X124726812Y-78407157D01*
X124967419Y-78535764D01*
X125228493Y-78614960D01*
X125500000Y-78641701D01*
X125771506Y-78614960D01*
X126032580Y-78535764D01*
X126273187Y-78407157D01*
X126484080Y-78234081D01*
X126657157Y-78023188D01*
X126679532Y-77981328D01*
X126689044Y-78012686D01*
X126782661Y-78187833D01*
X126908650Y-78341350D01*
X127062167Y-78467339D01*
X127237314Y-78560956D01*
X127427359Y-78618606D01*
X127625000Y-78638072D01*
X128375000Y-78638072D01*
X128572641Y-78618606D01*
X128762686Y-78560956D01*
X128937833Y-78467339D01*
X129091350Y-78341350D01*
X129217339Y-78187833D01*
X129310956Y-78012686D01*
X129368606Y-77822641D01*
X129388072Y-77625000D01*
X129388072Y-76375000D01*
X129368606Y-76177359D01*
X129310956Y-75987314D01*
X129217339Y-75812167D01*
X129091350Y-75658650D01*
X128937833Y-75532661D01*
X128762686Y-75439044D01*
X128572641Y-75381394D01*
X128375000Y-75361928D01*
X127625000Y-75361928D01*
X127427359Y-75381394D01*
X127237314Y-75439044D01*
X127062167Y-75532661D01*
X126908650Y-75658650D01*
X126782661Y-75812167D01*
X126689044Y-75987314D01*
X126679532Y-76018672D01*
X126657157Y-75976812D01*
X126635000Y-75949814D01*
X126635000Y-75055752D01*
X126640491Y-75000000D01*
X126618577Y-74777501D01*
X126553676Y-74563553D01*
X126471705Y-74410195D01*
X126448284Y-74366377D01*
X126306449Y-74193551D01*
X126263135Y-74158004D01*
X125998133Y-73893002D01*
X125931171Y-73767725D01*
X125824615Y-73637885D01*
X125694775Y-73531329D01*
X125546642Y-73452150D01*
X125385908Y-73403392D01*
X125251173Y-73390121D01*
X125222498Y-73381423D01*
X125000000Y-73359509D01*
X124777502Y-73381423D01*
X124748827Y-73390121D01*
X124614092Y-73403392D01*
X124453358Y-73452150D01*
X124305225Y-73531329D01*
X124212500Y-73607426D01*
X124119775Y-73531329D01*
X123971642Y-73452150D01*
X123810908Y-73403392D01*
X123676173Y-73390121D01*
X123647498Y-73381423D01*
X123425000Y-73359509D01*
X123202501Y-73381423D01*
X123173826Y-73390122D01*
X123039092Y-73403392D01*
X122878358Y-73452150D01*
X122730225Y-73531329D01*
X122600385Y-73637885D01*
X122493829Y-73767725D01*
X122426867Y-73893002D01*
X122200253Y-74119616D01*
X122156939Y-74155163D01*
X122015104Y-74327989D01*
X121917150Y-74511250D01*
X121909712Y-74525166D01*
X121844811Y-74739114D01*
X121822897Y-74961612D01*
X121822984Y-74962500D01*
X121822897Y-74963388D01*
X121828388Y-75019139D01*
X121828388Y-75019140D01*
X121844811Y-75185887D01*
X121865000Y-75252441D01*
X121865000Y-75949814D01*
X121842843Y-75976812D01*
X121714236Y-76217419D01*
X121635040Y-76478493D01*
X121615000Y-76681963D01*
X116397999Y-76681963D01*
X116500916Y-76527938D01*
X116605622Y-76275156D01*
X116659000Y-76006805D01*
X116659000Y-75733195D01*
X116605622Y-75464844D01*
X116500916Y-75212062D01*
X116348907Y-74984564D01*
X116155436Y-74791093D01*
X115927938Y-74639084D01*
X115675156Y-74534378D01*
X115406805Y-74481000D01*
X115133195Y-74481000D01*
X114864844Y-74534378D01*
X114612062Y-74639084D01*
X114384564Y-74791093D01*
X114191093Y-74984564D01*
X114119657Y-75091476D01*
X114109812Y-74991518D01*
X114073502Y-74871820D01*
X114014537Y-74761506D01*
X113935185Y-74664815D01*
X113838494Y-74585463D01*
X113728180Y-74526498D01*
X113608482Y-74490188D01*
X113484000Y-74477928D01*
X113015750Y-74481000D01*
X112857000Y-74639750D01*
X112857000Y-75743000D01*
X112877000Y-75743000D01*
X112877000Y-75997000D01*
X112857000Y-75997000D01*
X112857000Y-76017000D01*
X112603000Y-76017000D01*
X112603000Y-75997000D01*
X112583000Y-75997000D01*
X112583000Y-75743000D01*
X112603000Y-75743000D01*
X112603000Y-74639750D01*
X112444250Y-74481000D01*
X111976000Y-74477928D01*
X111851518Y-74490188D01*
X111731820Y-74526498D01*
X111621506Y-74585463D01*
X111524815Y-74664815D01*
X111523437Y-74666494D01*
X111505537Y-74633006D01*
X111426185Y-74536315D01*
X111329494Y-74456963D01*
X111219180Y-74397998D01*
X111099482Y-74361688D01*
X110975000Y-74349428D01*
X110785750Y-74352500D01*
X110627000Y-74511250D01*
X110627000Y-75298000D01*
X110647000Y-75298000D01*
X110647000Y-75552000D01*
X110627000Y-75552000D01*
X110627000Y-75572000D01*
X110373000Y-75572000D01*
X110373000Y-75552000D01*
X109548750Y-75552000D01*
X109390000Y-75710750D01*
X109386928Y-75862500D01*
X109399188Y-75986982D01*
X109435498Y-76106680D01*
X109494463Y-76216994D01*
X109549100Y-76283570D01*
X109531329Y-76305225D01*
X109452150Y-76453358D01*
X109403392Y-76614092D01*
X109390121Y-76748827D01*
X109381423Y-76777502D01*
X109365000Y-76944249D01*
X109365000Y-78555752D01*
X109381423Y-78722499D01*
X109446325Y-78936447D01*
X109551717Y-79133623D01*
X109693552Y-79306449D01*
X109866378Y-79448284D01*
X110063554Y-79553676D01*
X110277502Y-79618577D01*
X110500000Y-79640491D01*
X110722499Y-79618577D01*
X110936447Y-79553676D01*
X111133623Y-79448284D01*
X111306449Y-79306449D01*
X111448284Y-79133623D01*
X111492233Y-79051399D01*
X111499084Y-79067938D01*
X111651093Y-79295436D01*
X111844564Y-79488907D01*
X112072062Y-79640916D01*
X112166419Y-79680000D01*
X112072062Y-79719084D01*
X111844564Y-79871093D01*
X111651093Y-80064564D01*
X111567280Y-80190000D01*
X110602061Y-80190000D01*
X110564736Y-80186324D01*
X110527411Y-80190000D01*
X110527403Y-80190000D01*
X110415750Y-80200997D01*
X110272489Y-80244454D01*
X110140460Y-80315026D01*
X110024735Y-80409999D01*
X110000937Y-80438997D01*
X99073993Y-91365942D01*
X99044989Y-91389745D01*
X98998556Y-91446324D01*
X98950016Y-91505470D01*
X98880794Y-91634974D01*
X98879444Y-91637500D01*
X98835987Y-91780761D01*
X98824990Y-91892414D01*
X98824990Y-91892424D01*
X98821314Y-91929746D01*
X98824990Y-91967069D01*
X98824991Y-96047658D01*
X98821314Y-96084990D01*
X98824991Y-96122323D01*
X98835988Y-96233976D01*
X98845931Y-96266755D01*
X98879444Y-96377236D01*
X98950016Y-96509266D01*
X99004433Y-96575572D01*
X99044990Y-96624991D01*
X99073988Y-96648789D01*
X99165199Y-96740000D01*
X96814802Y-96740000D01*
X96010000Y-95935199D01*
X96010000Y-87548799D01*
X108571299Y-74987500D01*
X109386928Y-74987500D01*
X109390000Y-75139250D01*
X109548750Y-75298000D01*
X110373000Y-75298000D01*
X110373000Y-74511250D01*
X110214250Y-74352500D01*
X110025000Y-74349428D01*
X109900518Y-74361688D01*
X109780820Y-74397998D01*
X109670506Y-74456963D01*
X109573815Y-74536315D01*
X109494463Y-74633006D01*
X109435498Y-74743320D01*
X109399188Y-74863018D01*
X109386928Y-74987500D01*
X108571299Y-74987500D01*
X112051525Y-71507275D01*
X112067243Y-71586296D01*
X112218761Y-71952092D01*
X112438731Y-72281301D01*
X112718699Y-72561269D01*
X113047908Y-72781239D01*
X113413704Y-72932757D01*
X113802032Y-73010000D01*
X114197968Y-73010000D01*
X114586296Y-72932757D01*
X114952092Y-72781239D01*
X115281301Y-72561269D01*
X115524532Y-72318038D01*
X132240000Y-72318038D01*
X132240000Y-72689350D01*
X132312439Y-73053528D01*
X132454534Y-73396576D01*
X132660825Y-73705312D01*
X132923382Y-73967869D01*
X133232118Y-74174160D01*
X133575166Y-74316255D01*
X133939344Y-74388694D01*
X134310656Y-74388694D01*
X134674834Y-74316255D01*
X135017882Y-74174160D01*
X135326618Y-73967869D01*
X135589175Y-73705312D01*
X135795466Y-73396576D01*
X135937561Y-73053528D01*
X136010000Y-72689350D01*
X136010000Y-72318038D01*
X135937561Y-71953860D01*
X135795466Y-71610812D01*
X135589175Y-71302076D01*
X135326618Y-71039519D01*
X135017882Y-70833228D01*
X134674834Y-70691133D01*
X134310656Y-70618694D01*
X133939344Y-70618694D01*
X133575166Y-70691133D01*
X133232118Y-70833228D01*
X132923382Y-71039519D01*
X132660825Y-71302076D01*
X132454534Y-71610812D01*
X132312439Y-71953860D01*
X132240000Y-72318038D01*
X115524532Y-72318038D01*
X115561269Y-72281301D01*
X115781239Y-71952092D01*
X115932757Y-71586296D01*
X116010000Y-71197968D01*
X116010000Y-70802032D01*
X115932757Y-70413704D01*
X115875304Y-70275000D01*
X186349428Y-70275000D01*
X186352500Y-70464250D01*
X186511250Y-70623000D01*
X187298000Y-70623000D01*
X187298000Y-69798750D01*
X187139250Y-69640000D01*
X186987500Y-69636928D01*
X186863018Y-69649188D01*
X186743320Y-69685498D01*
X186633006Y-69744463D01*
X186536315Y-69823815D01*
X186456963Y-69920506D01*
X186397998Y-70030820D01*
X186361688Y-70150518D01*
X186349428Y-70275000D01*
X115875304Y-70275000D01*
X115781239Y-70047908D01*
X115561269Y-69718699D01*
X115281301Y-69438731D01*
X114952092Y-69218761D01*
X114586296Y-69067243D01*
X114507276Y-69051525D01*
X116894466Y-66664335D01*
X123765000Y-66664335D01*
X123765000Y-67335664D01*
X123782870Y-67517101D01*
X123853489Y-67749900D01*
X123968167Y-67964448D01*
X124122498Y-68152502D01*
X124310551Y-68306833D01*
X124525099Y-68421511D01*
X124757898Y-68492130D01*
X125000000Y-68515975D01*
X125242101Y-68492130D01*
X125474900Y-68421511D01*
X125689448Y-68306833D01*
X125877502Y-68152502D01*
X125909191Y-68113889D01*
X125911595Y-68118387D01*
X126022038Y-68252962D01*
X126156613Y-68363405D01*
X126310149Y-68445472D01*
X126476745Y-68496008D01*
X126649999Y-68513072D01*
X127350001Y-68513072D01*
X127523255Y-68496008D01*
X127689851Y-68445472D01*
X127843387Y-68363405D01*
X127977962Y-68252962D01*
X128088405Y-68118387D01*
X128170472Y-67964851D01*
X128221008Y-67798255D01*
X128238072Y-67625001D01*
X128238072Y-66374999D01*
X128221008Y-66201745D01*
X128170472Y-66035149D01*
X128088405Y-65881613D01*
X127977962Y-65747038D01*
X127843387Y-65636595D01*
X127689851Y-65554528D01*
X127523255Y-65503992D01*
X127350001Y-65486928D01*
X126649999Y-65486928D01*
X126476745Y-65503992D01*
X126310149Y-65554528D01*
X126156613Y-65636595D01*
X126022038Y-65747038D01*
X125911595Y-65881613D01*
X125909191Y-65886111D01*
X125877502Y-65847498D01*
X125689449Y-65693167D01*
X125474901Y-65578489D01*
X125242102Y-65507870D01*
X125000000Y-65484025D01*
X124757899Y-65507870D01*
X124525100Y-65578489D01*
X124310552Y-65693167D01*
X124122499Y-65847498D01*
X123968168Y-66035551D01*
X123853489Y-66250099D01*
X123782870Y-66482898D01*
X123765000Y-66664335D01*
X116894466Y-66664335D01*
X119048801Y-64510000D01*
X133685199Y-64510000D01*
X136936205Y-67761008D01*
X136936205Y-67761008D01*
G37*
X136936205Y-67761008D02*
X136959999Y-67790001D01*
X136988992Y-67813795D01*
X136988996Y-67813799D01*
X137059685Y-67871811D01*
X137075724Y-67884974D01*
X137207753Y-67955546D01*
X137351014Y-67999003D01*
X137462667Y-68010000D01*
X137462676Y-68010000D01*
X137499999Y-68013676D01*
X137537322Y-68010000D01*
X192685199Y-68010000D01*
X193990001Y-69314803D01*
X193990000Y-71606940D01*
X193760113Y-71729817D01*
X193547392Y-71904393D01*
X193372817Y-72117114D01*
X193270000Y-72309471D01*
X193167183Y-72117113D01*
X192992607Y-71904392D01*
X192779886Y-71729817D01*
X192537194Y-71600096D01*
X192273859Y-71520214D01*
X192000000Y-71493241D01*
X191726140Y-71520214D01*
X191462805Y-71600096D01*
X191220113Y-71729817D01*
X191007392Y-71904393D01*
X190832817Y-72117114D01*
X190730000Y-72309471D01*
X190635000Y-72131738D01*
X190635000Y-71305752D01*
X190640491Y-71250000D01*
X190618577Y-71027501D01*
X190553676Y-70813553D01*
X190502387Y-70717598D01*
X190448284Y-70616377D01*
X190306449Y-70443551D01*
X190263135Y-70408004D01*
X189998133Y-70143002D01*
X189931171Y-70017725D01*
X189824615Y-69887885D01*
X189694775Y-69781329D01*
X189546642Y-69702150D01*
X189385908Y-69653392D01*
X189251173Y-69640121D01*
X189222498Y-69631423D01*
X189000000Y-69609509D01*
X188777502Y-69631423D01*
X188748827Y-69640121D01*
X188614092Y-69653392D01*
X188453358Y-69702150D01*
X188305225Y-69781329D01*
X188283570Y-69799100D01*
X188216994Y-69744463D01*
X188106680Y-69685498D01*
X187986982Y-69649188D01*
X187862500Y-69636928D01*
X187710750Y-69640000D01*
X187552000Y-69798750D01*
X187552000Y-70623000D01*
X187572000Y-70623000D01*
X187572000Y-70877000D01*
X187552000Y-70877000D01*
X187552000Y-70897000D01*
X187298000Y-70897000D01*
X187298000Y-70877000D01*
X186511250Y-70877000D01*
X186352500Y-71035750D01*
X186349428Y-71225000D01*
X186361688Y-71349482D01*
X186397998Y-71469180D01*
X186455918Y-71577539D01*
X186249465Y-71664878D01*
X186021974Y-71819368D01*
X185828994Y-72015271D01*
X185677941Y-72245058D01*
X185651038Y-72311413D01*
X185547183Y-72117113D01*
X185372607Y-71904392D01*
X185159886Y-71729817D01*
X184917194Y-71600096D01*
X184653859Y-71520214D01*
X184380000Y-71493241D01*
X184106140Y-71520214D01*
X183842805Y-71600096D01*
X183600113Y-71729817D01*
X183387392Y-71904393D01*
X183212817Y-72117114D01*
X183083096Y-72359806D01*
X183003214Y-72623141D01*
X182983000Y-72828376D01*
X182983000Y-73941625D01*
X183003214Y-74146860D01*
X183083096Y-74410195D01*
X183212817Y-74652887D01*
X183387393Y-74865608D01*
X183600114Y-75040183D01*
X183842806Y-75169904D01*
X184106141Y-75249786D01*
X184380000Y-75276759D01*
X184653860Y-75249786D01*
X184917195Y-75169904D01*
X185159887Y-75040183D01*
X185372608Y-74865608D01*
X185547183Y-74652887D01*
X185651038Y-74458587D01*
X185677941Y-74524942D01*
X185828994Y-74754729D01*
X186021974Y-74950632D01*
X186249465Y-75105122D01*
X186502724Y-75212262D01*
X186576930Y-75227220D01*
X186793000Y-75104720D01*
X186793000Y-73512000D01*
X186773000Y-73512000D01*
X186773000Y-73258000D01*
X186793000Y-73258000D01*
X186793000Y-73238000D01*
X187047000Y-73238000D01*
X187047000Y-73258000D01*
X187067000Y-73258000D01*
X187067000Y-73512000D01*
X187047000Y-73512000D01*
X187047000Y-75104720D01*
X187263070Y-75227220D01*
X187337276Y-75212262D01*
X187590535Y-75105122D01*
X187818026Y-74950632D01*
X188011006Y-74754729D01*
X188162059Y-74524942D01*
X188188962Y-74458587D01*
X188292817Y-74652887D01*
X188467393Y-74865608D01*
X188680114Y-75040183D01*
X188922806Y-75169904D01*
X189186141Y-75249786D01*
X189460000Y-75276759D01*
X189733860Y-75249786D01*
X189997195Y-75169904D01*
X190239887Y-75040183D01*
X190452608Y-74865608D01*
X190627183Y-74652887D01*
X190730000Y-74460529D01*
X190832817Y-74652887D01*
X191007393Y-74865608D01*
X191220114Y-75040183D01*
X191462806Y-75169904D01*
X191726141Y-75249786D01*
X192000000Y-75276759D01*
X192273860Y-75249786D01*
X192537195Y-75169904D01*
X192779887Y-75040183D01*
X192992608Y-74865608D01*
X193167183Y-74652887D01*
X193270000Y-74460529D01*
X193372817Y-74652887D01*
X193547393Y-74865608D01*
X193760114Y-75040183D01*
X194002806Y-75169904D01*
X194266141Y-75249786D01*
X194540000Y-75276759D01*
X194813860Y-75249786D01*
X195077195Y-75169904D01*
X195319887Y-75040183D01*
X195532608Y-74865608D01*
X195707183Y-74652887D01*
X195810000Y-74460529D01*
X195912817Y-74652887D01*
X196059084Y-74831114D01*
X187400199Y-83490000D01*
X116659000Y-83490000D01*
X116659000Y-83353195D01*
X116605622Y-83084844D01*
X116500916Y-82832062D01*
X116348907Y-82604564D01*
X116155436Y-82411093D01*
X115927938Y-82259084D01*
X115833581Y-82220000D01*
X115927938Y-82180916D01*
X116155436Y-82028907D01*
X116348907Y-81835436D01*
X116500916Y-81607938D01*
X116605622Y-81355156D01*
X116659000Y-81086805D01*
X116659000Y-80813195D01*
X116605622Y-80544844D01*
X116500916Y-80292062D01*
X116348907Y-80064564D01*
X116155436Y-79871093D01*
X115927938Y-79719084D01*
X115833581Y-79680000D01*
X115927938Y-79640916D01*
X116155436Y-79488907D01*
X116348907Y-79295436D01*
X116500916Y-79067938D01*
X116605622Y-78815156D01*
X116659000Y-78546805D01*
X116659000Y-78273195D01*
X116605622Y-78004844D01*
X116500916Y-77752062D01*
X116348907Y-77524564D01*
X116155436Y-77331093D01*
X115927938Y-77179084D01*
X115833581Y-77140000D01*
X115927938Y-77100916D01*
X116155436Y-76948907D01*
X116348907Y-76755436D01*
X116397999Y-76681963D01*
X121615000Y-76681963D01*
X121615000Y-77318036D01*
X121635040Y-77521506D01*
X121714236Y-77782580D01*
X121842843Y-78023187D01*
X122015919Y-78234080D01*
X122226812Y-78407157D01*
X122467419Y-78535764D01*
X122728493Y-78614960D01*
X123000000Y-78641701D01*
X123271506Y-78614960D01*
X123532580Y-78535764D01*
X123773187Y-78407157D01*
X123984080Y-78234081D01*
X124157157Y-78023188D01*
X124250000Y-77849490D01*
X124342843Y-78023187D01*
X124515919Y-78234080D01*
X124726812Y-78407157D01*
X124967419Y-78535764D01*
X125228493Y-78614960D01*
X125500000Y-78641701D01*
X125771506Y-78614960D01*
X126032580Y-78535764D01*
X126273187Y-78407157D01*
X126484080Y-78234081D01*
X126657157Y-78023188D01*
X126679532Y-77981328D01*
X126689044Y-78012686D01*
X126782661Y-78187833D01*
X126908650Y-78341350D01*
X127062167Y-78467339D01*
X127237314Y-78560956D01*
X127427359Y-78618606D01*
X127625000Y-78638072D01*
X128375000Y-78638072D01*
X128572641Y-78618606D01*
X128762686Y-78560956D01*
X128937833Y-78467339D01*
X129091350Y-78341350D01*
X129217339Y-78187833D01*
X129310956Y-78012686D01*
X129368606Y-77822641D01*
X129388072Y-77625000D01*
X129388072Y-76375000D01*
X129368606Y-76177359D01*
X129310956Y-75987314D01*
X129217339Y-75812167D01*
X129091350Y-75658650D01*
X128937833Y-75532661D01*
X128762686Y-75439044D01*
X128572641Y-75381394D01*
X128375000Y-75361928D01*
X127625000Y-75361928D01*
X127427359Y-75381394D01*
X127237314Y-75439044D01*
X127062167Y-75532661D01*
X126908650Y-75658650D01*
X126782661Y-75812167D01*
X126689044Y-75987314D01*
X126679532Y-76018672D01*
X126657157Y-75976812D01*
X126635000Y-75949814D01*
X126635000Y-75055752D01*
X126640491Y-75000000D01*
X126618577Y-74777501D01*
X126553676Y-74563553D01*
X126471705Y-74410195D01*
X126448284Y-74366377D01*
X126306449Y-74193551D01*
X126263135Y-74158004D01*
X125998133Y-73893002D01*
X125931171Y-73767725D01*
X125824615Y-73637885D01*
X125694775Y-73531329D01*
X125546642Y-73452150D01*
X125385908Y-73403392D01*
X125251173Y-73390121D01*
X125222498Y-73381423D01*
X125000000Y-73359509D01*
X124777502Y-73381423D01*
X124748827Y-73390121D01*
X124614092Y-73403392D01*
X124453358Y-73452150D01*
X124305225Y-73531329D01*
X124212500Y-73607426D01*
X124119775Y-73531329D01*
X123971642Y-73452150D01*
X123810908Y-73403392D01*
X123676173Y-73390121D01*
X123647498Y-73381423D01*
X123425000Y-73359509D01*
X123202501Y-73381423D01*
X123173826Y-73390122D01*
X123039092Y-73403392D01*
X122878358Y-73452150D01*
X122730225Y-73531329D01*
X122600385Y-73637885D01*
X122493829Y-73767725D01*
X122426867Y-73893002D01*
X122200253Y-74119616D01*
X122156939Y-74155163D01*
X122015104Y-74327989D01*
X121917150Y-74511250D01*
X121909712Y-74525166D01*
X121844811Y-74739114D01*
X121822897Y-74961612D01*
X121822984Y-74962500D01*
X121822897Y-74963388D01*
X121828388Y-75019139D01*
X121828388Y-75019140D01*
X121844811Y-75185887D01*
X121865000Y-75252441D01*
X121865000Y-75949814D01*
X121842843Y-75976812D01*
X121714236Y-76217419D01*
X121635040Y-76478493D01*
X121615000Y-76681963D01*
X116397999Y-76681963D01*
X116500916Y-76527938D01*
X116605622Y-76275156D01*
X116659000Y-76006805D01*
X116659000Y-75733195D01*
X116605622Y-75464844D01*
X116500916Y-75212062D01*
X116348907Y-74984564D01*
X116155436Y-74791093D01*
X115927938Y-74639084D01*
X115675156Y-74534378D01*
X115406805Y-74481000D01*
X115133195Y-74481000D01*
X114864844Y-74534378D01*
X114612062Y-74639084D01*
X114384564Y-74791093D01*
X114191093Y-74984564D01*
X114119657Y-75091476D01*
X114109812Y-74991518D01*
X114073502Y-74871820D01*
X114014537Y-74761506D01*
X113935185Y-74664815D01*
X113838494Y-74585463D01*
X113728180Y-74526498D01*
X113608482Y-74490188D01*
X113484000Y-74477928D01*
X113015750Y-74481000D01*
X112857000Y-74639750D01*
X112857000Y-75743000D01*
X112877000Y-75743000D01*
X112877000Y-75997000D01*
X112857000Y-75997000D01*
X112857000Y-76017000D01*
X112603000Y-76017000D01*
X112603000Y-75997000D01*
X112583000Y-75997000D01*
X112583000Y-75743000D01*
X112603000Y-75743000D01*
X112603000Y-74639750D01*
X112444250Y-74481000D01*
X111976000Y-74477928D01*
X111851518Y-74490188D01*
X111731820Y-74526498D01*
X111621506Y-74585463D01*
X111524815Y-74664815D01*
X111523437Y-74666494D01*
X111505537Y-74633006D01*
X111426185Y-74536315D01*
X111329494Y-74456963D01*
X111219180Y-74397998D01*
X111099482Y-74361688D01*
X110975000Y-74349428D01*
X110785750Y-74352500D01*
X110627000Y-74511250D01*
X110627000Y-75298000D01*
X110647000Y-75298000D01*
X110647000Y-75552000D01*
X110627000Y-75552000D01*
X110627000Y-75572000D01*
X110373000Y-75572000D01*
X110373000Y-75552000D01*
X109548750Y-75552000D01*
X109390000Y-75710750D01*
X109386928Y-75862500D01*
X109399188Y-75986982D01*
X109435498Y-76106680D01*
X109494463Y-76216994D01*
X109549100Y-76283570D01*
X109531329Y-76305225D01*
X109452150Y-76453358D01*
X109403392Y-76614092D01*
X109390121Y-76748827D01*
X109381423Y-76777502D01*
X109365000Y-76944249D01*
X109365000Y-78555752D01*
X109381423Y-78722499D01*
X109446325Y-78936447D01*
X109551717Y-79133623D01*
X109693552Y-79306449D01*
X109866378Y-79448284D01*
X110063554Y-79553676D01*
X110277502Y-79618577D01*
X110500000Y-79640491D01*
X110722499Y-79618577D01*
X110936447Y-79553676D01*
X111133623Y-79448284D01*
X111306449Y-79306449D01*
X111448284Y-79133623D01*
X111492233Y-79051399D01*
X111499084Y-79067938D01*
X111651093Y-79295436D01*
X111844564Y-79488907D01*
X112072062Y-79640916D01*
X112166419Y-79680000D01*
X112072062Y-79719084D01*
X111844564Y-79871093D01*
X111651093Y-80064564D01*
X111567280Y-80190000D01*
X110602061Y-80190000D01*
X110564736Y-80186324D01*
X110527411Y-80190000D01*
X110527403Y-80190000D01*
X110415750Y-80200997D01*
X110272489Y-80244454D01*
X110140460Y-80315026D01*
X110024735Y-80409999D01*
X110000937Y-80438997D01*
X99073993Y-91365942D01*
X99044989Y-91389745D01*
X98998556Y-91446324D01*
X98950016Y-91505470D01*
X98880794Y-91634974D01*
X98879444Y-91637500D01*
X98835987Y-91780761D01*
X98824990Y-91892414D01*
X98824990Y-91892424D01*
X98821314Y-91929746D01*
X98824990Y-91967069D01*
X98824991Y-96047658D01*
X98821314Y-96084990D01*
X98824991Y-96122323D01*
X98835988Y-96233976D01*
X98845931Y-96266755D01*
X98879444Y-96377236D01*
X98950016Y-96509266D01*
X99004433Y-96575572D01*
X99044990Y-96624991D01*
X99073988Y-96648789D01*
X99165199Y-96740000D01*
X96814802Y-96740000D01*
X96010000Y-95935199D01*
X96010000Y-87548799D01*
X108571299Y-74987500D01*
X109386928Y-74987500D01*
X109390000Y-75139250D01*
X109548750Y-75298000D01*
X110373000Y-75298000D01*
X110373000Y-74511250D01*
X110214250Y-74352500D01*
X110025000Y-74349428D01*
X109900518Y-74361688D01*
X109780820Y-74397998D01*
X109670506Y-74456963D01*
X109573815Y-74536315D01*
X109494463Y-74633006D01*
X109435498Y-74743320D01*
X109399188Y-74863018D01*
X109386928Y-74987500D01*
X108571299Y-74987500D01*
X112051525Y-71507275D01*
X112067243Y-71586296D01*
X112218761Y-71952092D01*
X112438731Y-72281301D01*
X112718699Y-72561269D01*
X113047908Y-72781239D01*
X113413704Y-72932757D01*
X113802032Y-73010000D01*
X114197968Y-73010000D01*
X114586296Y-72932757D01*
X114952092Y-72781239D01*
X115281301Y-72561269D01*
X115524532Y-72318038D01*
X132240000Y-72318038D01*
X132240000Y-72689350D01*
X132312439Y-73053528D01*
X132454534Y-73396576D01*
X132660825Y-73705312D01*
X132923382Y-73967869D01*
X133232118Y-74174160D01*
X133575166Y-74316255D01*
X133939344Y-74388694D01*
X134310656Y-74388694D01*
X134674834Y-74316255D01*
X135017882Y-74174160D01*
X135326618Y-73967869D01*
X135589175Y-73705312D01*
X135795466Y-73396576D01*
X135937561Y-73053528D01*
X136010000Y-72689350D01*
X136010000Y-72318038D01*
X135937561Y-71953860D01*
X135795466Y-71610812D01*
X135589175Y-71302076D01*
X135326618Y-71039519D01*
X135017882Y-70833228D01*
X134674834Y-70691133D01*
X134310656Y-70618694D01*
X133939344Y-70618694D01*
X133575166Y-70691133D01*
X133232118Y-70833228D01*
X132923382Y-71039519D01*
X132660825Y-71302076D01*
X132454534Y-71610812D01*
X132312439Y-71953860D01*
X132240000Y-72318038D01*
X115524532Y-72318038D01*
X115561269Y-72281301D01*
X115781239Y-71952092D01*
X115932757Y-71586296D01*
X116010000Y-71197968D01*
X116010000Y-70802032D01*
X115932757Y-70413704D01*
X115875304Y-70275000D01*
X186349428Y-70275000D01*
X186352500Y-70464250D01*
X186511250Y-70623000D01*
X187298000Y-70623000D01*
X187298000Y-69798750D01*
X187139250Y-69640000D01*
X186987500Y-69636928D01*
X186863018Y-69649188D01*
X186743320Y-69685498D01*
X186633006Y-69744463D01*
X186536315Y-69823815D01*
X186456963Y-69920506D01*
X186397998Y-70030820D01*
X186361688Y-70150518D01*
X186349428Y-70275000D01*
X115875304Y-70275000D01*
X115781239Y-70047908D01*
X115561269Y-69718699D01*
X115281301Y-69438731D01*
X114952092Y-69218761D01*
X114586296Y-69067243D01*
X114507276Y-69051525D01*
X116894466Y-66664335D01*
X123765000Y-66664335D01*
X123765000Y-67335664D01*
X123782870Y-67517101D01*
X123853489Y-67749900D01*
X123968167Y-67964448D01*
X124122498Y-68152502D01*
X124310551Y-68306833D01*
X124525099Y-68421511D01*
X124757898Y-68492130D01*
X125000000Y-68515975D01*
X125242101Y-68492130D01*
X125474900Y-68421511D01*
X125689448Y-68306833D01*
X125877502Y-68152502D01*
X125909191Y-68113889D01*
X125911595Y-68118387D01*
X126022038Y-68252962D01*
X126156613Y-68363405D01*
X126310149Y-68445472D01*
X126476745Y-68496008D01*
X126649999Y-68513072D01*
X127350001Y-68513072D01*
X127523255Y-68496008D01*
X127689851Y-68445472D01*
X127843387Y-68363405D01*
X127977962Y-68252962D01*
X128088405Y-68118387D01*
X128170472Y-67964851D01*
X128221008Y-67798255D01*
X128238072Y-67625001D01*
X128238072Y-66374999D01*
X128221008Y-66201745D01*
X128170472Y-66035149D01*
X128088405Y-65881613D01*
X127977962Y-65747038D01*
X127843387Y-65636595D01*
X127689851Y-65554528D01*
X127523255Y-65503992D01*
X127350001Y-65486928D01*
X126649999Y-65486928D01*
X126476745Y-65503992D01*
X126310149Y-65554528D01*
X126156613Y-65636595D01*
X126022038Y-65747038D01*
X125911595Y-65881613D01*
X125909191Y-65886111D01*
X125877502Y-65847498D01*
X125689449Y-65693167D01*
X125474901Y-65578489D01*
X125242102Y-65507870D01*
X125000000Y-65484025D01*
X124757899Y-65507870D01*
X124525100Y-65578489D01*
X124310552Y-65693167D01*
X124122499Y-65847498D01*
X123968168Y-66035551D01*
X123853489Y-66250099D01*
X123782870Y-66482898D01*
X123765000Y-66664335D01*
X116894466Y-66664335D01*
X119048801Y-64510000D01*
X133685199Y-64510000D01*
X136936205Y-67761008D01*
M02*
