M48
; DRILL file {KiCad (5.1.4-0-10_14)} date Sunday, November 10, 2019 at 07:29:53 PM
; FORMAT={-:-/ absolute / metric / decimal}
; #@! TF.CreationDate,2019-11-10T19:29:53-05:00
; #@! TF.GenerationSoftware,Kicad,Pcbnew,(5.1.4-0-10_14)
; #@! TF.FileFunction,Plated,1,2,PTH
FMAT,2
METRIC
T1C0.400
T2C0.500
T3C0.700
T4C0.750
T5C0.762
T6C1.000
T7C1.020
T8C1.100
T9C2.200
%
G90
G05
T1
X98.0Y-96.0
X98.0Y-98.5
X110.5Y-78.5
X142.0Y-99.0
X152.0Y-99.0
X173.0Y-122.0
X173.0Y-126.0
X176.0Y-122.0
X176.0Y-126.0
X184.0Y-82.0
X184.0Y-87.0
X186.0Y-82.0
X186.0Y-87.0
X186.0Y-114.0
X190.0Y-118.0
T2
X129.0Y-94.84
X129.0Y-98.65
T3
X147.0Y-96.5
X149.0Y-96.5
X151.0Y-96.5
X153.0Y-96.5
T4
X125.0Y-67.0
X127.0Y-67.0
X168.0Y-114.0
X170.0Y-114.0
X172.0Y-114.0
X174.0Y-114.0
X176.0Y-114.0
X178.0Y-114.0
X168.0Y-86.0
X170.0Y-86.0
X172.0Y-86.0
X174.0Y-86.0
X176.0Y-86.0
X178.0Y-86.0
T5
X101.16Y-92.38
X101.16Y-94.92
X101.16Y-97.46
X101.16Y-100.0
X101.16Y-102.54
X101.16Y-105.08
X101.16Y-107.62
X184.38Y-73.385
X186.92Y-73.385
X189.46Y-73.385
X192.0Y-73.385
X194.54Y-73.385
X197.08Y-73.385
X175.81Y-107.62
X199.62Y-73.385
X168.19Y-92.38
X168.19Y-94.92
X168.19Y-97.46
X168.19Y-100.0
X168.19Y-102.54
X168.19Y-105.08
X168.19Y-107.62
X175.73Y-92.38
X175.81Y-94.92
X175.81Y-97.46
X175.81Y-100.0
X175.81Y-102.54
X175.81Y-105.08
X198.84Y-92.38
X198.84Y-94.92
X198.84Y-97.46
X198.84Y-100.0
X198.84Y-102.54
X198.84Y-105.08
X198.84Y-107.62
X184.38Y-126.615
X186.92Y-126.615
X189.46Y-126.615
X192.0Y-126.615
X194.54Y-126.615
X197.08Y-126.615
X199.62Y-126.615
T6
X112.73Y-75.87
X112.73Y-78.41
X112.73Y-80.95
X112.73Y-83.49
X112.73Y-86.03
X112.73Y-88.57
X112.73Y-91.11
X112.73Y-93.65
X123.0Y-77.0
X125.5Y-77.0
X128.0Y-77.0
X112.73Y-96.19
X112.73Y-98.73
X112.73Y-101.27
X112.73Y-103.81
X112.73Y-106.35
X112.73Y-108.89
X112.73Y-111.43
X112.73Y-113.97
X112.73Y-116.51
X112.73Y-119.05
X112.73Y-121.59
X112.73Y-124.13
X115.27Y-75.87
X115.27Y-78.41
X115.27Y-80.95
X115.27Y-83.49
X115.27Y-86.03
X115.27Y-88.57
X115.27Y-91.11
X115.27Y-93.65
X115.27Y-96.19
X115.27Y-98.73
X115.27Y-101.27
X115.27Y-103.81
X115.27Y-106.35
X115.27Y-108.89
X115.27Y-111.43
X115.27Y-113.97
X115.27Y-116.51
X115.27Y-119.05
X115.27Y-121.59
X115.27Y-124.13
T7
X143.65Y-102.5
X146.19Y-102.5
X148.73Y-102.5
X151.27Y-102.5
X153.81Y-102.5
X156.35Y-102.5
T8
X121.38Y-88.49
X121.38Y-91.03
X121.38Y-93.57
X121.38Y-96.11
X121.38Y-98.65
X121.38Y-101.19
X121.38Y-103.73
X121.38Y-106.27
X121.38Y-108.81
X121.38Y-111.35
X121.38Y-113.89
X121.38Y-116.43
X121.38Y-118.97
X121.38Y-121.51
X123.92Y-121.51
X126.46Y-121.51
X129.0Y-121.51
X131.54Y-121.51
X134.08Y-91.03
X134.08Y-96.11
X134.08Y-98.65
X134.08Y-101.19
X134.08Y-121.51
X136.62Y-88.49
X136.62Y-91.03
X136.62Y-93.57
X136.62Y-96.11
X136.62Y-98.65
X136.62Y-101.19
X136.62Y-103.73
X136.62Y-106.27
X136.62Y-108.81
X136.62Y-111.35
X136.62Y-113.89
X136.62Y-116.43
X136.62Y-118.97
X136.62Y-121.51
T9
X106.82Y-92.634
X106.82Y-107.366
X134.125Y-72.504
X134.125Y-127.496
X141.0Y-62.975
X141.0Y-137.025
X159.0Y-62.975
X159.0Y-137.025
X181.75Y-100.0
X193.18Y-92.634
X193.18Y-107.366
T0
M30
